%TF.GenerationSoftware,KiCad,Pcbnew,7.0.1*%
%TF.CreationDate,2023-09-10T14:19:26+09:00*%
%TF.ProjectId,cross_led,63726f73-735f-46c6-9564-2e6b69636164,rev?*%
%TF.SameCoordinates,Original*%
%TF.FileFunction,Copper,L2,Bot*%
%TF.FilePolarity,Positive*%
%FSLAX46Y46*%
G04 Gerber Fmt 4.6, Leading zero omitted, Abs format (unit mm)*
G04 Created by KiCad (PCBNEW 7.0.1) date 2023-09-10 14:19:26*
%MOMM*%
%LPD*%
G01*
G04 APERTURE LIST*
%TA.AperFunction,ComponentPad*%
%ADD10R,1.350000X1.350000*%
%TD*%
%TA.AperFunction,ComponentPad*%
%ADD11O,1.350000X1.350000*%
%TD*%
%TA.AperFunction,ViaPad*%
%ADD12C,0.800000*%
%TD*%
%TA.AperFunction,ViaPad*%
%ADD13C,0.500000*%
%TD*%
%TA.AperFunction,Conductor*%
%ADD14C,1.000000*%
%TD*%
%TA.AperFunction,Conductor*%
%ADD15C,0.500000*%
%TD*%
%TA.AperFunction,Conductor*%
%ADD16C,0.250000*%
%TD*%
G04 APERTURE END LIST*
D10*
%TO.P,J202,1,Pin_1*%
%TO.N,GND*%
X182825000Y-70825000D03*
D11*
%TO.P,J202,2,Pin_2*%
%TO.N,/cross_led/LED_IN*%
X182825000Y-68825000D03*
%TO.P,J202,3,Pin_3*%
%TO.N,+5V*%
X182825000Y-66825000D03*
%TD*%
D10*
%TO.P,J203,1,Pin_1*%
%TO.N,GND*%
X121300000Y-132325000D03*
D11*
%TO.P,J203,2,Pin_2*%
%TO.N,/cross_led/LED_IN*%
X119300000Y-132325000D03*
%TO.P,J203,3,Pin_3*%
%TO.N,+5V*%
X117300000Y-132325000D03*
%TD*%
D10*
%TO.P,J201,1,Pin_1*%
%TO.N,GND*%
X121300000Y-50300000D03*
D11*
%TO.P,J201,2,Pin_2*%
%TO.N,/cross_led/LED_IN*%
X119300000Y-50300000D03*
%TO.P,J201,3,Pin_3*%
%TO.N,+5V*%
X117300000Y-50300000D03*
%TD*%
D10*
%TO.P,J204,1,Pin_1*%
%TO.N,GND*%
X145775000Y-70800000D03*
D11*
%TO.P,J204,2,Pin_2*%
%TO.N,/cross_led/LED_IN*%
X145775000Y-68800000D03*
%TO.P,J204,3,Pin_3*%
%TO.N,+5V*%
X145775000Y-66800000D03*
%TD*%
D10*
%TO.P,J201,1,Pin_1*%
%TO.N,GND*%
X166300000Y-95300000D03*
D11*
%TO.P,J201,2,Pin_2*%
%TO.N,/cross_led/LED_IN*%
X164300000Y-95300000D03*
%TO.P,J201,3,Pin_3*%
%TO.N,+5V*%
X162300000Y-95300000D03*
%TD*%
D10*
%TO.P,J204,1,Pin_1*%
%TO.N,GND*%
X145775000Y-115800000D03*
D11*
%TO.P,J204,2,Pin_2*%
%TO.N,/cross_led/LED_IN*%
X145775000Y-113800000D03*
%TO.P,J204,3,Pin_3*%
%TO.N,+5V*%
X145775000Y-111800000D03*
%TD*%
D10*
%TO.P,J201,1,Pin_1*%
%TO.N,GND*%
X121300000Y-95300000D03*
D11*
%TO.P,J201,2,Pin_2*%
%TO.N,/cross_led/LED_IN*%
X119300000Y-95300000D03*
%TO.P,J201,3,Pin_3*%
%TO.N,+5V*%
X117300000Y-95300000D03*
%TD*%
D10*
%TO.P,J201,1,Pin_1*%
%TO.N,GND*%
X166300000Y-50300000D03*
D11*
%TO.P,J201,2,Pin_2*%
%TO.N,/cross_led/LED_IN*%
X164300000Y-50300000D03*
%TO.P,J201,3,Pin_3*%
%TO.N,+5V*%
X162300000Y-50300000D03*
%TD*%
D10*
%TO.P,J202,1,Pin_1*%
%TO.N,GND*%
X182825000Y-115825000D03*
D11*
%TO.P,J202,2,Pin_2*%
%TO.N,/cross_led/LED_IN*%
X182825000Y-113825000D03*
%TO.P,J202,3,Pin_3*%
%TO.N,+5V*%
X182825000Y-111825000D03*
%TD*%
D10*
%TO.P,J203,1,Pin_1*%
%TO.N,GND*%
X166300000Y-87325000D03*
D11*
%TO.P,J203,2,Pin_2*%
%TO.N,/cross_led/LED_IN*%
X164300000Y-87325000D03*
%TO.P,J203,3,Pin_3*%
%TO.N,+5V*%
X162300000Y-87325000D03*
%TD*%
D10*
%TO.P,J204,1,Pin_1*%
%TO.N,GND*%
X100775000Y-115800000D03*
D11*
%TO.P,J204,2,Pin_2*%
%TO.N,/cross_led/LED_IN*%
X100775000Y-113800000D03*
%TO.P,J204,3,Pin_3*%
%TO.N,+5V*%
X100775000Y-111800000D03*
%TD*%
D10*
%TO.P,J202,1,Pin_1*%
%TO.N,GND*%
X137825000Y-115825000D03*
D11*
%TO.P,J202,2,Pin_2*%
%TO.N,/cross_led/LED_IN*%
X137825000Y-113825000D03*
%TO.P,J202,3,Pin_3*%
%TO.N,+5V*%
X137825000Y-111825000D03*
%TD*%
D10*
%TO.P,J202,1,Pin_1*%
%TO.N,GND*%
X137825000Y-70825000D03*
D11*
%TO.P,J202,2,Pin_2*%
%TO.N,/cross_led/LED_IN*%
X137825000Y-68825000D03*
%TO.P,J202,3,Pin_3*%
%TO.N,+5V*%
X137825000Y-66825000D03*
%TD*%
D10*
%TO.P,J204,1,Pin_1*%
%TO.N,GND*%
X100775000Y-70800000D03*
D11*
%TO.P,J204,2,Pin_2*%
%TO.N,/cross_led/LED_IN*%
X100775000Y-68800000D03*
%TO.P,J204,3,Pin_3*%
%TO.N,+5V*%
X100775000Y-66800000D03*
%TD*%
D10*
%TO.P,J203,1,Pin_1*%
%TO.N,GND*%
X121300000Y-87325000D03*
D11*
%TO.P,J203,2,Pin_2*%
%TO.N,/cross_led/LED_IN*%
X119300000Y-87325000D03*
%TO.P,J203,3,Pin_3*%
%TO.N,+5V*%
X117300000Y-87325000D03*
%TD*%
D10*
%TO.P,J203,1,Pin_1*%
%TO.N,GND*%
X166300000Y-132325000D03*
D11*
%TO.P,J203,2,Pin_2*%
%TO.N,/cross_led/LED_IN*%
X164300000Y-132325000D03*
%TO.P,J203,3,Pin_3*%
%TO.N,+5V*%
X162300000Y-132325000D03*
%TD*%
D12*
%TO.N,+5V*%
X172300000Y-63800000D03*
X111300000Y-73800000D03*
X159300000Y-105800000D03*
X172300000Y-108800000D03*
X156300000Y-73800000D03*
X127300000Y-63800000D03*
X114300000Y-105800000D03*
X156300000Y-118800000D03*
D13*
X170700000Y-124200000D03*
D12*
X114300000Y-60800000D03*
X111300000Y-118800000D03*
X127300000Y-108800000D03*
D13*
X125700000Y-79200000D03*
X125700000Y-124200000D03*
X170700000Y-79200000D03*
D12*
X159300000Y-60800000D03*
%TO.N,GND*%
X182300000Y-122800000D03*
X116300000Y-122800000D03*
X175300000Y-50800000D03*
X164100000Y-71600000D03*
X155300000Y-109800000D03*
X134300000Y-118800000D03*
X167300000Y-111000000D03*
X179300000Y-118800000D03*
X154300000Y-81800000D03*
X175300000Y-95800000D03*
X130300000Y-50800000D03*
X179300000Y-73800000D03*
X174300000Y-58800000D03*
X101700000Y-104400000D03*
X167300000Y-66000000D03*
X128300000Y-72800000D03*
X110300000Y-109800000D03*
X123300000Y-103800000D03*
X130300000Y-95800000D03*
X168300000Y-58800000D03*
X128300000Y-117800000D03*
X109300000Y-58800000D03*
X116300000Y-77800000D03*
X107300000Y-87800000D03*
X137300000Y-77800000D03*
X173300000Y-72800000D03*
X154300000Y-58800000D03*
X116900000Y-62200000D03*
X161300000Y-122800000D03*
X107300000Y-132800000D03*
X134300000Y-73800000D03*
X127300000Y-132800000D03*
X109300000Y-50800000D03*
X116900000Y-107200000D03*
X122300000Y-111000000D03*
X161900000Y-62200000D03*
X161300000Y-77800000D03*
X152300000Y-132800000D03*
X164100000Y-116600000D03*
X168300000Y-103800000D03*
X129300000Y-103800000D03*
X109300000Y-103800000D03*
X119100000Y-71600000D03*
X110300000Y-64800000D03*
X109300000Y-81800000D03*
X174300000Y-103800000D03*
X109300000Y-95800000D03*
X182300000Y-77800000D03*
X152300000Y-87800000D03*
X127300000Y-87800000D03*
X154300000Y-50800000D03*
X146700000Y-104400000D03*
X109300000Y-126800000D03*
X154300000Y-126800000D03*
X137300000Y-122800000D03*
X101700000Y-59400000D03*
X123300000Y-58800000D03*
X155300000Y-64800000D03*
X119100000Y-116600000D03*
X161900000Y-107200000D03*
X154300000Y-95800000D03*
X173300000Y-117800000D03*
X154300000Y-103800000D03*
X172300000Y-132800000D03*
X122300000Y-66000000D03*
X172300000Y-87800000D03*
X146700000Y-59400000D03*
X129300000Y-58800000D03*
%TO.N,/cross_led/LED_IN*%
X126300000Y-83800000D03*
X126300000Y-128800000D03*
X171300000Y-128800000D03*
X171300000Y-83800000D03*
%TD*%
D14*
%TO.N,+5V*%
X133825000Y-111825000D02*
X131050000Y-109050000D01*
X121275000Y-128375000D02*
X137825000Y-111825000D01*
X176050000Y-64050000D02*
X162300000Y-50300000D01*
X121250000Y-128375000D02*
X117300000Y-132325000D01*
X166250000Y-83375000D02*
X162300000Y-87325000D01*
D15*
X130800000Y-108800000D02*
X131050000Y-109050000D01*
D14*
X162300000Y-95300000D02*
X162300000Y-99350000D01*
X162300000Y-87325000D02*
X162300000Y-83350000D01*
D15*
X111300000Y-118800000D02*
X108300000Y-118800000D01*
D14*
X162300000Y-99350000D02*
X159575000Y-102075000D01*
D15*
X153300000Y-118800000D02*
X153025000Y-119075000D01*
X156300000Y-118800000D02*
X153300000Y-118800000D01*
D14*
X117300000Y-83350000D02*
X108025000Y-74075000D01*
X145775000Y-66800000D02*
X153025000Y-74050000D01*
D15*
X111300000Y-73800000D02*
X108300000Y-73800000D01*
X159300000Y-57350000D02*
X159575000Y-57075000D01*
X175800000Y-108800000D02*
X176050000Y-109050000D01*
X159300000Y-60800000D02*
X159300000Y-57350000D01*
D14*
X145775000Y-111800000D02*
X153025000Y-119050000D01*
X104850000Y-66800000D02*
X114575000Y-57075000D01*
X117300000Y-50300000D02*
X117300000Y-54350000D01*
X117300000Y-54350000D02*
X114575000Y-57075000D01*
X100775000Y-111800000D02*
X108025000Y-119050000D01*
X162300000Y-50300000D02*
X162300000Y-54350000D01*
X149850000Y-66800000D02*
X159575000Y-57075000D01*
D15*
X114300000Y-105800000D02*
X114300000Y-102350000D01*
D14*
X131050000Y-64050000D02*
X117300000Y-50300000D01*
X108025000Y-119050000D02*
X108025000Y-119075000D01*
X149850000Y-111800000D02*
X159575000Y-102075000D01*
X100775000Y-66800000D02*
X104850000Y-66800000D01*
D15*
X127300000Y-108800000D02*
X130800000Y-108800000D01*
D14*
X178825000Y-66825000D02*
X176050000Y-64050000D01*
X121275000Y-83375000D02*
X121250000Y-83375000D01*
D15*
X159300000Y-105800000D02*
X159300000Y-102350000D01*
D14*
X182825000Y-66825000D02*
X178825000Y-66825000D01*
X117300000Y-128350000D02*
X108025000Y-119075000D01*
D15*
X172300000Y-63800000D02*
X175800000Y-63800000D01*
D14*
X137825000Y-66825000D02*
X133825000Y-66825000D01*
X137825000Y-111825000D02*
X133825000Y-111825000D01*
X133825000Y-66825000D02*
X131050000Y-64050000D01*
D15*
X153300000Y-73800000D02*
X153025000Y-74075000D01*
D14*
X153025000Y-74050000D02*
X153025000Y-74075000D01*
D15*
X175800000Y-63800000D02*
X176050000Y-64050000D01*
D14*
X178825000Y-111825000D02*
X176050000Y-109050000D01*
D15*
X127300000Y-63800000D02*
X130800000Y-63800000D01*
D14*
X117300000Y-99350000D02*
X114575000Y-102075000D01*
X162300000Y-128350000D02*
X153025000Y-119075000D01*
X162300000Y-132325000D02*
X162300000Y-128350000D01*
X117300000Y-87325000D02*
X117300000Y-83350000D01*
D15*
X114300000Y-60800000D02*
X114300000Y-57350000D01*
D14*
X121250000Y-83375000D02*
X117300000Y-87325000D01*
D15*
X114300000Y-57350000D02*
X114575000Y-57075000D01*
D14*
X131050000Y-109050000D02*
X117300000Y-95300000D01*
X145775000Y-66800000D02*
X149850000Y-66800000D01*
X117300000Y-95300000D02*
X117300000Y-99350000D01*
X166275000Y-128375000D02*
X166250000Y-128375000D01*
X166275000Y-83375000D02*
X166250000Y-83375000D01*
X153025000Y-119050000D02*
X153025000Y-119075000D01*
D15*
X156300000Y-73800000D02*
X153300000Y-73800000D01*
D14*
X166250000Y-128375000D02*
X162300000Y-132325000D01*
X166275000Y-128375000D02*
X182825000Y-111825000D01*
X121275000Y-128375000D02*
X121250000Y-128375000D01*
X117300000Y-132325000D02*
X117300000Y-128350000D01*
D15*
X172300000Y-108800000D02*
X175800000Y-108800000D01*
D14*
X104850000Y-111800000D02*
X114575000Y-102075000D01*
D15*
X108300000Y-73800000D02*
X108025000Y-74075000D01*
D14*
X162300000Y-83350000D02*
X153025000Y-74075000D01*
X176050000Y-109050000D02*
X162300000Y-95300000D01*
X182825000Y-111825000D02*
X178825000Y-111825000D01*
D15*
X114300000Y-102350000D02*
X114575000Y-102075000D01*
D14*
X162300000Y-54350000D02*
X159575000Y-57075000D01*
D15*
X108300000Y-118800000D02*
X108025000Y-119075000D01*
D14*
X100775000Y-111800000D02*
X104850000Y-111800000D01*
X145775000Y-111800000D02*
X149850000Y-111800000D01*
X166275000Y-83375000D02*
X182825000Y-66825000D01*
D15*
X130800000Y-63800000D02*
X131050000Y-64050000D01*
D14*
X108025000Y-74050000D02*
X108025000Y-74075000D01*
X121275000Y-83375000D02*
X137825000Y-66825000D01*
X100775000Y-66800000D02*
X108025000Y-74050000D01*
D15*
X159300000Y-102350000D02*
X159575000Y-102075000D01*
D16*
%TO.N,/cross_led/LED_IN*%
X156050000Y-88550000D02*
X144425000Y-76925000D01*
X99425000Y-112450000D02*
X100775000Y-113800000D01*
X115800000Y-49050000D02*
X118050000Y-49050000D01*
X139050000Y-67600000D02*
X137825000Y-68825000D01*
X163050000Y-94050000D02*
X164300000Y-95300000D01*
X139050000Y-110300000D02*
X139050000Y-112600000D01*
X139050000Y-65300000D02*
X139050000Y-67600000D01*
X144425000Y-70150000D02*
X145775000Y-68800000D01*
X126300000Y-128800000D02*
X126800000Y-129300000D01*
X99425000Y-110425000D02*
X99425000Y-112450000D01*
X111050000Y-88550000D02*
X99425000Y-76925000D01*
X137825000Y-113825000D02*
X138900000Y-114900000D01*
X183900000Y-114900000D02*
X183900000Y-117200000D01*
X167800000Y-49050000D02*
X184050000Y-65300000D01*
X171300000Y-83800000D02*
X171800000Y-84300000D01*
X138900000Y-69900000D02*
X138900000Y-72200000D01*
X163050000Y-88550000D02*
X156050000Y-88550000D01*
X99425000Y-110425000D02*
X115800000Y-94050000D01*
X122500000Y-88600000D02*
X120550000Y-88600000D01*
X182825000Y-113825000D02*
X183900000Y-114900000D01*
X171800000Y-84300000D02*
X167500000Y-88600000D01*
X184050000Y-65300000D02*
X184050000Y-67600000D01*
X183900000Y-69900000D02*
X183900000Y-72200000D01*
X99425000Y-65425000D02*
X99425000Y-67450000D01*
X167800000Y-94050000D02*
X184050000Y-110300000D01*
X119300000Y-50300000D02*
X120550000Y-49050000D01*
X137825000Y-68825000D02*
X138900000Y-69900000D01*
X164300000Y-95300000D02*
X165550000Y-94050000D01*
X184050000Y-112600000D02*
X182825000Y-113825000D01*
X171800000Y-129300000D02*
X167500000Y-133600000D01*
X156050000Y-133550000D02*
X144425000Y-121925000D01*
X144425000Y-110425000D02*
X160800000Y-94050000D01*
X118050000Y-94050000D02*
X119300000Y-95300000D01*
X120550000Y-133600000D02*
X119275000Y-132325000D01*
X99425000Y-67450000D02*
X100775000Y-68800000D01*
X126300000Y-83800000D02*
X126800000Y-84300000D01*
X115800000Y-94050000D02*
X118050000Y-94050000D01*
X183900000Y-72200000D02*
X171800000Y-84300000D01*
X138900000Y-117200000D02*
X126800000Y-129300000D01*
X111050000Y-133550000D02*
X99425000Y-121925000D01*
X138900000Y-72200000D02*
X126800000Y-84300000D01*
X126800000Y-84300000D02*
X122500000Y-88600000D01*
X167500000Y-88600000D02*
X165550000Y-88600000D01*
X122800000Y-94050000D02*
X139050000Y-110300000D01*
X144425000Y-115150000D02*
X145775000Y-113800000D01*
X99425000Y-76925000D02*
X99425000Y-70150000D01*
X164300000Y-50300000D02*
X165550000Y-49050000D01*
X120550000Y-49050000D02*
X122800000Y-49050000D01*
X164275000Y-132325000D02*
X163050000Y-133550000D01*
X144425000Y-112450000D02*
X145775000Y-113800000D01*
X118050000Y-133550000D02*
X111050000Y-133550000D01*
X163050000Y-49050000D02*
X164300000Y-50300000D01*
X118050000Y-49050000D02*
X119300000Y-50300000D01*
X99425000Y-121925000D02*
X99425000Y-115150000D01*
X165550000Y-49050000D02*
X167800000Y-49050000D01*
X139050000Y-112600000D02*
X137825000Y-113825000D01*
X167500000Y-133600000D02*
X165550000Y-133600000D01*
X144425000Y-65425000D02*
X160800000Y-49050000D01*
X118050000Y-88550000D02*
X111050000Y-88550000D01*
X160800000Y-49050000D02*
X163050000Y-49050000D01*
X183900000Y-117200000D02*
X171800000Y-129300000D01*
X119300000Y-95300000D02*
X120550000Y-94050000D01*
X163050000Y-133550000D02*
X156050000Y-133550000D01*
X122500000Y-133600000D02*
X120550000Y-133600000D01*
X119275000Y-87325000D02*
X118050000Y-88550000D01*
X144425000Y-76925000D02*
X144425000Y-70150000D01*
X164275000Y-87325000D02*
X163050000Y-88550000D01*
X144425000Y-110425000D02*
X144425000Y-112450000D01*
X165550000Y-133600000D02*
X164275000Y-132325000D01*
X120550000Y-88600000D02*
X119275000Y-87325000D01*
X165550000Y-94050000D02*
X167800000Y-94050000D01*
X144425000Y-67450000D02*
X145775000Y-68800000D01*
X171300000Y-128800000D02*
X171800000Y-129300000D01*
X138900000Y-114900000D02*
X138900000Y-117200000D01*
X144425000Y-65425000D02*
X144425000Y-67450000D01*
X99425000Y-115150000D02*
X100775000Y-113800000D01*
X184050000Y-110300000D02*
X184050000Y-112600000D01*
X120550000Y-94050000D02*
X122800000Y-94050000D01*
X165550000Y-88600000D02*
X164275000Y-87325000D01*
X182825000Y-68825000D02*
X183900000Y-69900000D01*
X160800000Y-94050000D02*
X163050000Y-94050000D01*
X119275000Y-132325000D02*
X118050000Y-133550000D01*
X144425000Y-121925000D02*
X144425000Y-115150000D01*
X99425000Y-65425000D02*
X115800000Y-49050000D01*
X126800000Y-129300000D02*
X122500000Y-133600000D01*
X122800000Y-49050000D02*
X139050000Y-65300000D01*
X184050000Y-67600000D02*
X182825000Y-68825000D01*
X99425000Y-70150000D02*
X100775000Y-68800000D01*
%TD*%
%TA.AperFunction,Conductor*%
%TO.N,GND*%
G36*
X184248385Y-117884134D02*
G01*
X184285985Y-117928157D01*
X184299500Y-117984452D01*
X184299500Y-128797438D01*
X184299394Y-128802563D01*
X184290525Y-129016987D01*
X184290513Y-129017271D01*
X184281948Y-129213428D01*
X184281114Y-129223357D01*
X184254568Y-129436321D01*
X184254459Y-129437169D01*
X184228422Y-129634936D01*
X184226844Y-129644196D01*
X184182971Y-129853439D01*
X184182671Y-129854832D01*
X184139321Y-130050371D01*
X184137105Y-130058914D01*
X184076186Y-130263538D01*
X184075602Y-130265444D01*
X184015302Y-130456689D01*
X184012559Y-130464475D01*
X183935008Y-130663224D01*
X183934051Y-130665603D01*
X183857260Y-130850993D01*
X183854099Y-130858001D01*
X183760437Y-131049587D01*
X183759026Y-131052383D01*
X183666346Y-131230420D01*
X183662880Y-131236636D01*
X183553743Y-131419793D01*
X183551800Y-131422946D01*
X183443920Y-131592282D01*
X183440257Y-131597710D01*
X183316399Y-131771184D01*
X183313858Y-131774616D01*
X183191626Y-131933912D01*
X183187872Y-131938567D01*
X183050107Y-132101226D01*
X183046908Y-132104858D01*
X182911254Y-132252899D01*
X182907512Y-132256807D01*
X182756807Y-132407512D01*
X182752899Y-132411254D01*
X182604858Y-132546908D01*
X182601226Y-132550107D01*
X182438567Y-132687872D01*
X182433912Y-132691626D01*
X182274616Y-132813858D01*
X182271184Y-132816399D01*
X182097710Y-132940257D01*
X182092282Y-132943920D01*
X181922946Y-133051800D01*
X181919793Y-133053743D01*
X181736636Y-133162880D01*
X181730420Y-133166346D01*
X181552383Y-133259026D01*
X181549587Y-133260437D01*
X181358001Y-133354099D01*
X181350993Y-133357260D01*
X181165603Y-133434051D01*
X181163224Y-133435008D01*
X180964475Y-133512559D01*
X180956689Y-133515302D01*
X180765444Y-133575602D01*
X180763538Y-133576186D01*
X180558914Y-133637105D01*
X180550371Y-133639321D01*
X180354832Y-133682671D01*
X180353439Y-133682971D01*
X180144196Y-133726844D01*
X180134936Y-133728422D01*
X179937169Y-133754459D01*
X179936321Y-133754568D01*
X179723357Y-133781114D01*
X179713428Y-133781948D01*
X179517381Y-133790508D01*
X179517097Y-133790520D01*
X179302563Y-133799394D01*
X179297438Y-133799500D01*
X168484452Y-133799500D01*
X168428157Y-133785985D01*
X168384134Y-133748385D01*
X168361979Y-133694898D01*
X168366521Y-133637182D01*
X168396771Y-133587819D01*
X170285315Y-131699275D01*
X172116825Y-129867764D01*
X178445787Y-129867764D01*
X178475413Y-130137016D01*
X178475414Y-130137018D01*
X178543928Y-130399088D01*
X178597720Y-130525670D01*
X178649871Y-130648392D01*
X178790982Y-130879611D01*
X178880253Y-130986881D01*
X178964255Y-131087820D01*
X179165998Y-131268582D01*
X179391910Y-131418044D01*
X179498211Y-131467875D01*
X179637177Y-131533021D01*
X179896562Y-131611058D01*
X179896569Y-131611060D01*
X180164561Y-131650500D01*
X180367631Y-131650500D01*
X180367634Y-131650500D01*
X180570156Y-131635677D01*
X180570156Y-131635676D01*
X180834553Y-131576780D01*
X181087558Y-131480014D01*
X181323777Y-131347441D01*
X181538177Y-131181888D01*
X181726186Y-130986881D01*
X181883799Y-130766579D01*
X182007656Y-130525675D01*
X182095118Y-130269305D01*
X182144319Y-130002933D01*
X182154212Y-129732235D01*
X182124586Y-129462982D01*
X182056072Y-129200912D01*
X181950130Y-128951610D01*
X181859168Y-128802563D01*
X181809017Y-128720388D01*
X181635746Y-128512181D01*
X181545941Y-128431716D01*
X181434002Y-128331418D01*
X181208090Y-128181956D01*
X181168383Y-128163342D01*
X180962822Y-128066978D01*
X180703437Y-127988941D01*
X180703431Y-127988940D01*
X180435439Y-127949500D01*
X180232369Y-127949500D01*
X180232366Y-127949500D01*
X180029843Y-127964322D01*
X179765449Y-128023219D01*
X179512441Y-128119986D01*
X179276223Y-128252559D01*
X179061825Y-128418109D01*
X178873813Y-128613120D01*
X178716201Y-128833420D01*
X178592342Y-129074329D01*
X178504881Y-129330695D01*
X178455680Y-129597066D01*
X178445787Y-129867764D01*
X172116825Y-129867764D01*
X172192200Y-129792389D01*
X172210178Y-129777517D01*
X172216938Y-129772924D01*
X172253631Y-129731301D01*
X172258934Y-129725655D01*
X172270120Y-129714471D01*
X172270121Y-129714468D01*
X172280906Y-129703685D01*
X172280913Y-129703675D01*
X184087818Y-117896771D01*
X184137182Y-117866521D01*
X184194898Y-117861979D01*
X184248385Y-117884134D01*
G37*
%TD.AperFunction*%
%TA.AperFunction,Conductor*%
G36*
X144462818Y-122866521D02*
G01*
X144512181Y-122896771D01*
X155203229Y-133587819D01*
X155233479Y-133637182D01*
X155238021Y-133694898D01*
X155215866Y-133748385D01*
X155171843Y-133785985D01*
X155115548Y-133799500D01*
X149302562Y-133799500D01*
X149297437Y-133799394D01*
X149082901Y-133790520D01*
X149082617Y-133790508D01*
X148886570Y-133781948D01*
X148876641Y-133781114D01*
X148663677Y-133754568D01*
X148662829Y-133754459D01*
X148465062Y-133728422D01*
X148455802Y-133726844D01*
X148246559Y-133682971D01*
X148245166Y-133682671D01*
X148049627Y-133639321D01*
X148041084Y-133637105D01*
X147836460Y-133576186D01*
X147834554Y-133575602D01*
X147643309Y-133515302D01*
X147635523Y-133512559D01*
X147506985Y-133462404D01*
X147436734Y-133434991D01*
X147434395Y-133434051D01*
X147249005Y-133357260D01*
X147241997Y-133354099D01*
X147050411Y-133260437D01*
X147047615Y-133259026D01*
X146869578Y-133166346D01*
X146863362Y-133162880D01*
X146680205Y-133053743D01*
X146677052Y-133051800D01*
X146507716Y-132943920D01*
X146502288Y-132940257D01*
X146328814Y-132816399D01*
X146325382Y-132813858D01*
X146166086Y-132691626D01*
X146161431Y-132687872D01*
X145998772Y-132550107D01*
X145995155Y-132546921D01*
X145847076Y-132411232D01*
X145843191Y-132407512D01*
X145692486Y-132256807D01*
X145688769Y-132252925D01*
X145553072Y-132104838D01*
X145549891Y-132101226D01*
X145412126Y-131938567D01*
X145408372Y-131933912D01*
X145286140Y-131774616D01*
X145283599Y-131771184D01*
X145159741Y-131597710D01*
X145156078Y-131592282D01*
X145048198Y-131422946D01*
X145046255Y-131419793D01*
X145045213Y-131418045D01*
X144970591Y-131292812D01*
X144937118Y-131236636D01*
X144933652Y-131230420D01*
X144840972Y-131052383D01*
X144839561Y-131049587D01*
X144827982Y-131025903D01*
X144745886Y-130857972D01*
X144742752Y-130851024D01*
X144665911Y-130665513D01*
X144665046Y-130663363D01*
X144587431Y-130464453D01*
X144584696Y-130456689D01*
X144566534Y-130399087D01*
X144524359Y-130265325D01*
X144523850Y-130263665D01*
X144462889Y-130058901D01*
X144460680Y-130050386D01*
X144420194Y-129867764D01*
X146445787Y-129867764D01*
X146475413Y-130137016D01*
X146475414Y-130137018D01*
X146543928Y-130399088D01*
X146597720Y-130525670D01*
X146649871Y-130648392D01*
X146790982Y-130879611D01*
X146880253Y-130986881D01*
X146964255Y-131087820D01*
X147165998Y-131268582D01*
X147391910Y-131418044D01*
X147498211Y-131467875D01*
X147637177Y-131533021D01*
X147896562Y-131611058D01*
X147896569Y-131611060D01*
X148164561Y-131650500D01*
X148367631Y-131650500D01*
X148367634Y-131650500D01*
X148570156Y-131635677D01*
X148570156Y-131635676D01*
X148834553Y-131576780D01*
X149087558Y-131480014D01*
X149323777Y-131347441D01*
X149538177Y-131181888D01*
X149726186Y-130986881D01*
X149883799Y-130766579D01*
X150007656Y-130525675D01*
X150095118Y-130269305D01*
X150144319Y-130002933D01*
X150154212Y-129732235D01*
X150124586Y-129462982D01*
X150056072Y-129200912D01*
X149950130Y-128951610D01*
X149859168Y-128802563D01*
X149809017Y-128720388D01*
X149635746Y-128512181D01*
X149545941Y-128431716D01*
X149434002Y-128331418D01*
X149208090Y-128181956D01*
X149168383Y-128163342D01*
X148962822Y-128066978D01*
X148703437Y-127988941D01*
X148703431Y-127988940D01*
X148435439Y-127949500D01*
X148232369Y-127949500D01*
X148232366Y-127949500D01*
X148029843Y-127964322D01*
X147765449Y-128023219D01*
X147512441Y-128119986D01*
X147276223Y-128252559D01*
X147061825Y-128418109D01*
X146873813Y-128613120D01*
X146716201Y-128833420D01*
X146592342Y-129074329D01*
X146504881Y-129330695D01*
X146455680Y-129597066D01*
X146445787Y-129867764D01*
X144420194Y-129867764D01*
X144417312Y-129854765D01*
X144417027Y-129853439D01*
X144411495Y-129827057D01*
X144373153Y-129644192D01*
X144371576Y-129634936D01*
X144368322Y-129610218D01*
X144345490Y-129436793D01*
X144345483Y-129436743D01*
X144318881Y-129223330D01*
X144318052Y-129213455D01*
X144309486Y-129017271D01*
X144300605Y-128802562D01*
X144300500Y-128797439D01*
X144300500Y-122984452D01*
X144314015Y-122928157D01*
X144351615Y-122884134D01*
X144405102Y-122861979D01*
X144462818Y-122866521D01*
G37*
%TD.AperFunction*%
%TA.AperFunction,Conductor*%
G36*
X146966745Y-114406666D02*
G01*
X152174830Y-119614751D01*
X152195566Y-119642252D01*
X152199589Y-119649499D01*
X152199591Y-119649502D01*
X152219404Y-119672581D01*
X152228856Y-119685116D01*
X152245599Y-119710520D01*
X152287300Y-119752221D01*
X152293705Y-119759132D01*
X152332134Y-119803896D01*
X152356193Y-119822519D01*
X152367972Y-119832893D01*
X161263181Y-128728101D01*
X161290061Y-128768329D01*
X161299500Y-128815782D01*
X161299500Y-131667913D01*
X161286500Y-131723185D01*
X161199181Y-131898542D01*
X161139564Y-132108074D01*
X161119464Y-132325000D01*
X161139564Y-132541925D01*
X161202327Y-132762511D01*
X161199873Y-132763208D01*
X161208948Y-132806230D01*
X161190506Y-132865779D01*
X161145418Y-132908830D01*
X161085080Y-132924500D01*
X156360452Y-132924500D01*
X156312999Y-132915061D01*
X156272771Y-132888181D01*
X145086819Y-121702228D01*
X145059939Y-121662000D01*
X145050500Y-121614547D01*
X145050500Y-117099000D01*
X145067113Y-117037000D01*
X145112500Y-116991613D01*
X145174500Y-116975000D01*
X145525000Y-116975000D01*
X145525000Y-116050000D01*
X146025000Y-116050000D01*
X146025000Y-116975000D01*
X146497824Y-116975000D01*
X146557375Y-116968597D01*
X146692089Y-116918352D01*
X146807188Y-116832188D01*
X146893352Y-116717089D01*
X146943597Y-116582375D01*
X146950000Y-116522824D01*
X146950000Y-116050000D01*
X146025000Y-116050000D01*
X145525000Y-116050000D01*
X145525000Y-115674000D01*
X145541613Y-115612000D01*
X145587000Y-115566613D01*
X145649000Y-115550000D01*
X146950000Y-115550000D01*
X146950000Y-115077176D01*
X146943597Y-115017624D01*
X146893352Y-114882910D01*
X146807188Y-114767811D01*
X146721594Y-114703735D01*
X146681848Y-114653121D01*
X146672824Y-114589402D01*
X146696951Y-114529742D01*
X146780110Y-114419621D01*
X146836056Y-114378044D01*
X146905592Y-114373218D01*
X146966745Y-114406666D01*
G37*
%TD.AperFunction*%
%TA.AperFunction,Conductor*%
G36*
X181763943Y-114403043D02*
G01*
X181819889Y-114444620D01*
X181903048Y-114554741D01*
X181927175Y-114614401D01*
X181918151Y-114678119D01*
X181878406Y-114728733D01*
X181792811Y-114792809D01*
X181706647Y-114907910D01*
X181656402Y-115042624D01*
X181650000Y-115102176D01*
X181650000Y-115575000D01*
X182951000Y-115575000D01*
X183013000Y-115591613D01*
X183058387Y-115637000D01*
X183075000Y-115699000D01*
X183075000Y-117012793D01*
X183089617Y-117038110D01*
X183089617Y-117102298D01*
X183057523Y-117157885D01*
X172084700Y-128130707D01*
X172027019Y-128163342D01*
X171960769Y-128161609D01*
X171917118Y-128133803D01*
X171916415Y-128134772D01*
X171752730Y-128015848D01*
X171579802Y-127938855D01*
X171394648Y-127899500D01*
X171394646Y-127899500D01*
X171205354Y-127899500D01*
X171205352Y-127899500D01*
X171020197Y-127938855D01*
X170847269Y-128015848D01*
X170694129Y-128127110D01*
X170567466Y-128267783D01*
X170472820Y-128431715D01*
X170414326Y-128611742D01*
X170394540Y-128800000D01*
X170414326Y-128988257D01*
X170472820Y-129168284D01*
X170567466Y-129332216D01*
X170638318Y-129410905D01*
X170666990Y-129465983D01*
X170665364Y-129528056D01*
X170633849Y-129581558D01*
X167645385Y-132570023D01*
X167589798Y-132602117D01*
X167525610Y-132602117D01*
X167478643Y-132575000D01*
X166174000Y-132575000D01*
X166112000Y-132558387D01*
X166066613Y-132513000D01*
X166050000Y-132451000D01*
X166050000Y-131150000D01*
X166550000Y-131150000D01*
X166550000Y-132075000D01*
X167475000Y-132075000D01*
X167475000Y-131602176D01*
X167468597Y-131542624D01*
X167418352Y-131407910D01*
X167332188Y-131292811D01*
X167217089Y-131206647D01*
X167082375Y-131156402D01*
X167022824Y-131150000D01*
X166550000Y-131150000D01*
X166050000Y-131150000D01*
X165577176Y-131150000D01*
X165517624Y-131156402D01*
X165382910Y-131206647D01*
X165267808Y-131292812D01*
X165205585Y-131375932D01*
X165151435Y-131417122D01*
X165083703Y-131423541D01*
X165022780Y-131393257D01*
X165011433Y-131382913D01*
X165011432Y-131382912D01*
X164954144Y-131347441D01*
X164925639Y-131329791D01*
X164886251Y-131290855D01*
X164867743Y-131238654D01*
X164873808Y-131183602D01*
X164903234Y-131136685D01*
X166814753Y-129225166D01*
X166842254Y-129204431D01*
X166849502Y-129200409D01*
X166872587Y-129180589D01*
X166885114Y-129171144D01*
X166910519Y-129154402D01*
X166952251Y-129112668D01*
X166959123Y-129106300D01*
X167003895Y-129067866D01*
X167022519Y-129043803D01*
X167032880Y-129032039D01*
X179989919Y-116075000D01*
X181650000Y-116075000D01*
X181650000Y-116547824D01*
X181656402Y-116607375D01*
X181706647Y-116742089D01*
X181792811Y-116857188D01*
X181907910Y-116943352D01*
X182042624Y-116993597D01*
X182102176Y-117000000D01*
X182575000Y-117000000D01*
X182575000Y-116075000D01*
X181650000Y-116075000D01*
X179989919Y-116075000D01*
X181633256Y-114431663D01*
X181694407Y-114398217D01*
X181763943Y-114403043D01*
G37*
%TD.AperFunction*%
%TA.AperFunction,Conductor*%
G36*
X163462818Y-97896852D02*
G01*
X163512181Y-97927102D01*
X173422898Y-107837819D01*
X173453148Y-107887182D01*
X173457690Y-107944898D01*
X173435535Y-107998385D01*
X173391512Y-108035985D01*
X173335217Y-108049500D01*
X172839337Y-108049500D01*
X172801018Y-108043431D01*
X172766450Y-108025817D01*
X172752728Y-108015847D01*
X172579802Y-107938855D01*
X172394648Y-107899500D01*
X172394646Y-107899500D01*
X172205354Y-107899500D01*
X172205352Y-107899500D01*
X172020197Y-107938855D01*
X171847269Y-108015848D01*
X171694129Y-108127110D01*
X171567466Y-108267783D01*
X171472820Y-108431715D01*
X171414326Y-108611742D01*
X171394540Y-108799999D01*
X171414326Y-108988257D01*
X171472820Y-109168284D01*
X171567466Y-109332216D01*
X171694129Y-109472889D01*
X171847269Y-109584151D01*
X172020197Y-109661144D01*
X172205352Y-109700500D01*
X172205354Y-109700500D01*
X172394646Y-109700500D01*
X172394648Y-109700500D01*
X172557385Y-109665909D01*
X172579803Y-109661144D01*
X172752730Y-109584151D01*
X172766449Y-109574183D01*
X172801018Y-109556569D01*
X172839337Y-109550500D01*
X175084217Y-109550500D01*
X175131670Y-109559939D01*
X175171898Y-109586819D01*
X178107449Y-112522370D01*
X178109642Y-112524619D01*
X178161717Y-112579402D01*
X178169941Y-112588053D01*
X178218358Y-112621752D01*
X178225865Y-112627413D01*
X178271593Y-112664698D01*
X178298556Y-112678782D01*
X178311980Y-112686915D01*
X178336951Y-112704295D01*
X178389818Y-112726982D01*
X178391163Y-112727559D01*
X178399663Y-112731595D01*
X178425286Y-112744980D01*
X178451951Y-112758909D01*
X178481196Y-112767277D01*
X178495986Y-112772543D01*
X178503464Y-112775752D01*
X178523942Y-112784540D01*
X178581737Y-112796416D01*
X178590854Y-112798654D01*
X178647582Y-112814887D01*
X178677916Y-112817196D01*
X178693453Y-112819374D01*
X178723259Y-112825500D01*
X178782243Y-112825500D01*
X178791657Y-112825858D01*
X178850477Y-112830337D01*
X178880652Y-112826493D01*
X178896318Y-112825500D01*
X180110217Y-112825500D01*
X180166512Y-112839015D01*
X180210535Y-112876615D01*
X180232690Y-112930102D01*
X180228148Y-112987818D01*
X180197898Y-113037181D01*
X165710248Y-127524830D01*
X165682752Y-127545564D01*
X165675497Y-127549591D01*
X165652407Y-127569412D01*
X165639882Y-127578856D01*
X165614484Y-127595595D01*
X165572782Y-127637297D01*
X165565875Y-127643698D01*
X165521104Y-127682134D01*
X165502480Y-127706194D01*
X165492107Y-127717971D01*
X163512181Y-129697899D01*
X163462818Y-129728149D01*
X163405102Y-129732691D01*
X163351615Y-129710536D01*
X163314015Y-129666513D01*
X163300500Y-129610218D01*
X163300500Y-128364279D01*
X163300540Y-128361137D01*
X163302757Y-128273638D01*
X163292350Y-128215574D01*
X163291041Y-128206242D01*
X163288571Y-128181954D01*
X163285074Y-128147562D01*
X163275964Y-128118528D01*
X163272227Y-128103305D01*
X163266858Y-128073347D01*
X163244969Y-128018549D01*
X163241816Y-128009689D01*
X163224160Y-127953415D01*
X163224159Y-127953414D01*
X163224159Y-127953412D01*
X163209396Y-127926816D01*
X163202663Y-127912636D01*
X163191379Y-127884385D01*
X163191378Y-127884383D01*
X163158901Y-127835106D01*
X163154040Y-127827082D01*
X163125409Y-127775498D01*
X163125408Y-127775496D01*
X163105593Y-127752415D01*
X163096144Y-127739883D01*
X163079402Y-127714481D01*
X163037699Y-127672779D01*
X163031292Y-127665866D01*
X162992865Y-127621103D01*
X162968802Y-127602477D01*
X162957022Y-127592102D01*
X155127101Y-119762181D01*
X155096851Y-119712818D01*
X155092309Y-119655102D01*
X155114464Y-119601615D01*
X155158487Y-119564015D01*
X155214782Y-119550500D01*
X155760663Y-119550500D01*
X155798982Y-119556569D01*
X155833550Y-119574183D01*
X155847271Y-119584152D01*
X156020197Y-119661144D01*
X156205352Y-119700500D01*
X156205354Y-119700500D01*
X156394646Y-119700500D01*
X156394648Y-119700500D01*
X156525996Y-119672581D01*
X156579803Y-119661144D01*
X156752730Y-119584151D01*
X156905871Y-119472888D01*
X157032533Y-119332216D01*
X157127179Y-119168284D01*
X157185674Y-118988256D01*
X157205460Y-118800000D01*
X157185674Y-118611744D01*
X157127179Y-118431716D01*
X157127179Y-118431715D01*
X157032533Y-118267783D01*
X156905870Y-118127110D01*
X156752730Y-118015848D01*
X156579802Y-117938855D01*
X156394648Y-117899500D01*
X156394646Y-117899500D01*
X156205354Y-117899500D01*
X156205352Y-117899500D01*
X156020197Y-117938855D01*
X155847271Y-118015847D01*
X155833550Y-118025817D01*
X155798982Y-118043431D01*
X155760663Y-118049500D01*
X153490783Y-118049500D01*
X153443330Y-118040061D01*
X153403102Y-118013181D01*
X148402101Y-113012181D01*
X148371851Y-112962818D01*
X148367309Y-112905102D01*
X148389464Y-112851615D01*
X148433487Y-112814015D01*
X148489782Y-112800500D01*
X149835721Y-112800500D01*
X149838862Y-112800539D01*
X149926363Y-112802757D01*
X149984432Y-112792348D01*
X149993736Y-112791043D01*
X150052438Y-112785074D01*
X150081467Y-112775965D01*
X150096700Y-112772226D01*
X150126653Y-112766858D01*
X150181426Y-112744978D01*
X150190301Y-112741819D01*
X150207675Y-112736367D01*
X150246588Y-112724159D01*
X150273194Y-112709390D01*
X150287362Y-112702662D01*
X150315617Y-112691377D01*
X150364879Y-112658909D01*
X150372910Y-112654043D01*
X150424502Y-112625409D01*
X150447587Y-112605589D01*
X150460114Y-112596144D01*
X150485519Y-112579402D01*
X150527251Y-112537668D01*
X150534123Y-112531300D01*
X150578895Y-112492866D01*
X150597524Y-112468798D01*
X150607883Y-112457036D01*
X158337818Y-104727101D01*
X158387182Y-104696851D01*
X158444898Y-104692309D01*
X158498385Y-104714464D01*
X158535985Y-104758487D01*
X158549500Y-104814782D01*
X158549500Y-105265678D01*
X158532887Y-105327678D01*
X158472820Y-105431715D01*
X158414326Y-105611742D01*
X158394540Y-105800000D01*
X158414326Y-105988257D01*
X158472820Y-106168284D01*
X158567466Y-106332216D01*
X158694129Y-106472889D01*
X158847269Y-106584151D01*
X159020197Y-106661144D01*
X159205352Y-106700500D01*
X159205354Y-106700500D01*
X159394646Y-106700500D01*
X159394648Y-106700500D01*
X159518083Y-106674262D01*
X159579803Y-106661144D01*
X159752730Y-106584151D01*
X159905871Y-106472888D01*
X160032533Y-106332216D01*
X160127179Y-106168284D01*
X160185674Y-105988256D01*
X160205460Y-105800000D01*
X160185674Y-105611744D01*
X160127179Y-105431716D01*
X160127179Y-105431715D01*
X160067113Y-105327678D01*
X160050500Y-105265678D01*
X160050500Y-103065783D01*
X160059939Y-103018331D01*
X160086818Y-102978103D01*
X160200306Y-102864613D01*
X160200311Y-102864609D01*
X160210517Y-102854402D01*
X160210519Y-102854402D01*
X162997389Y-100067529D01*
X162999559Y-100065413D01*
X163063053Y-100005059D01*
X163096759Y-99956630D01*
X163102428Y-99949113D01*
X163139698Y-99903407D01*
X163153783Y-99876439D01*
X163161918Y-99863015D01*
X163168373Y-99853740D01*
X163179295Y-99838049D01*
X163202568Y-99783815D01*
X163206598Y-99775331D01*
X163233908Y-99723051D01*
X163233909Y-99723049D01*
X163242278Y-99693797D01*
X163247534Y-99679032D01*
X163259540Y-99651058D01*
X163271418Y-99593256D01*
X163273651Y-99584156D01*
X163289887Y-99527418D01*
X163292197Y-99497077D01*
X163294376Y-99481535D01*
X163300500Y-99451741D01*
X163300500Y-99392758D01*
X163300858Y-99383344D01*
X163300964Y-99381946D01*
X163305337Y-99324524D01*
X163301493Y-99294348D01*
X163300500Y-99278683D01*
X163300500Y-98014783D01*
X163314015Y-97958488D01*
X163351615Y-97914465D01*
X163405102Y-97892310D01*
X163462818Y-97896852D01*
G37*
%TD.AperFunction*%
%TA.AperFunction,Conductor*%
G36*
X167637318Y-94791021D02*
G01*
X167686681Y-94821271D01*
X183388181Y-110522772D01*
X183415061Y-110563000D01*
X183424500Y-110610453D01*
X183424500Y-110615603D01*
X183410194Y-110673424D01*
X183370577Y-110717903D01*
X183314790Y-110738777D01*
X183255706Y-110731229D01*
X183148073Y-110689531D01*
X183148070Y-110689530D01*
X183148069Y-110689530D01*
X182933926Y-110649500D01*
X182716074Y-110649500D01*
X182531033Y-110684090D01*
X182501926Y-110689531D01*
X182298791Y-110768226D01*
X182237903Y-110805927D01*
X182172626Y-110824500D01*
X179290782Y-110824500D01*
X179243329Y-110815061D01*
X179203101Y-110788181D01*
X176843632Y-108428712D01*
X176843628Y-108428706D01*
X164903236Y-96488316D01*
X164873808Y-96441396D01*
X164867743Y-96386345D01*
X164886251Y-96334144D01*
X164925640Y-96295208D01*
X164943315Y-96284263D01*
X165011432Y-96242088D01*
X165022781Y-96231741D01*
X165083701Y-96201458D01*
X165151435Y-96207877D01*
X165205586Y-96249067D01*
X165267810Y-96332188D01*
X165382910Y-96418352D01*
X165517624Y-96468597D01*
X165577176Y-96475000D01*
X166050000Y-96475000D01*
X166050000Y-95550000D01*
X166550000Y-95550000D01*
X166550000Y-96475000D01*
X167022824Y-96475000D01*
X167082375Y-96468597D01*
X167217089Y-96418352D01*
X167332188Y-96332188D01*
X167418352Y-96217089D01*
X167468597Y-96082375D01*
X167475000Y-96022824D01*
X167475000Y-95550000D01*
X166550000Y-95550000D01*
X166050000Y-95550000D01*
X166050000Y-95174000D01*
X166066613Y-95112000D01*
X166112000Y-95066613D01*
X166174000Y-95050000D01*
X167475000Y-95050000D01*
X167475000Y-94908952D01*
X167488515Y-94852657D01*
X167526115Y-94808634D01*
X167579602Y-94786479D01*
X167637318Y-94791021D01*
G37*
%TD.AperFunction*%
%TA.AperFunction,Conductor*%
G36*
X161126274Y-94708416D02*
G01*
X161182259Y-94748690D01*
X161208068Y-94812644D01*
X161199160Y-94861587D01*
X161202327Y-94862489D01*
X161139564Y-95083074D01*
X161119464Y-95299999D01*
X161139564Y-95516925D01*
X161199181Y-95726457D01*
X161286500Y-95901815D01*
X161299500Y-95957087D01*
X161299500Y-98884217D01*
X161290061Y-98931670D01*
X161263181Y-98971898D01*
X158939481Y-101295598D01*
X149471899Y-110763181D01*
X149431671Y-110790061D01*
X149384218Y-110799500D01*
X146427374Y-110799500D01*
X146362097Y-110780927D01*
X146301208Y-110743226D01*
X146098073Y-110664531D01*
X146098070Y-110664530D01*
X146098069Y-110664530D01*
X145883926Y-110624500D01*
X145666074Y-110624500D01*
X145532335Y-110649500D01*
X145451930Y-110664530D01*
X145376695Y-110693677D01*
X145310243Y-110700144D01*
X145250070Y-110671215D01*
X145213621Y-110615277D01*
X145211462Y-110548546D01*
X145244218Y-110490371D01*
X160997031Y-94737559D01*
X161057433Y-94704279D01*
X161126274Y-94708416D01*
G37*
%TD.AperFunction*%
%TA.AperFunction,Conductor*%
G36*
X179302562Y-93800605D02*
G01*
X179517600Y-93809500D01*
X179713455Y-93818052D01*
X179723330Y-93818881D01*
X179936706Y-93845479D01*
X179936793Y-93845490D01*
X180134945Y-93871577D01*
X180144192Y-93873153D01*
X180353521Y-93917044D01*
X180354765Y-93917312D01*
X180550386Y-93960680D01*
X180558901Y-93962889D01*
X180763665Y-94023850D01*
X180765325Y-94024359D01*
X180956696Y-94084698D01*
X180964453Y-94087431D01*
X181163363Y-94165046D01*
X181165513Y-94165911D01*
X181351024Y-94242752D01*
X181357972Y-94245886D01*
X181525903Y-94327982D01*
X181549587Y-94339561D01*
X181552383Y-94340972D01*
X181730420Y-94433652D01*
X181736636Y-94437118D01*
X181919793Y-94546255D01*
X181922929Y-94548187D01*
X181986491Y-94588681D01*
X182092282Y-94656078D01*
X182097710Y-94659741D01*
X182271184Y-94783599D01*
X182274616Y-94786140D01*
X182433912Y-94908372D01*
X182438567Y-94912126D01*
X182601226Y-95049891D01*
X182604838Y-95053072D01*
X182752925Y-95188769D01*
X182756807Y-95192486D01*
X182907512Y-95343191D01*
X182911232Y-95347076D01*
X183046921Y-95495155D01*
X183050107Y-95498772D01*
X183187872Y-95661431D01*
X183191626Y-95666086D01*
X183313858Y-95825382D01*
X183316399Y-95828814D01*
X183440257Y-96002288D01*
X183443920Y-96007716D01*
X183551800Y-96177052D01*
X183553743Y-96180205D01*
X183662880Y-96363362D01*
X183666346Y-96369578D01*
X183759026Y-96547615D01*
X183760437Y-96550411D01*
X183854099Y-96741997D01*
X183857260Y-96749005D01*
X183934051Y-96934395D01*
X183934991Y-96936734D01*
X183940797Y-96951610D01*
X184012559Y-97135523D01*
X184015302Y-97143309D01*
X184075602Y-97334554D01*
X184076186Y-97336460D01*
X184137105Y-97541084D01*
X184139321Y-97549627D01*
X184182671Y-97745166D01*
X184182971Y-97746559D01*
X184226844Y-97955802D01*
X184228422Y-97965062D01*
X184254459Y-98162829D01*
X184254568Y-98163677D01*
X184281114Y-98376641D01*
X184281948Y-98386570D01*
X184290513Y-98582728D01*
X184290525Y-98583013D01*
X184299394Y-98797438D01*
X184299500Y-98802562D01*
X184299500Y-109365547D01*
X184285985Y-109421842D01*
X184248385Y-109465865D01*
X184194898Y-109488020D01*
X184137182Y-109483478D01*
X184087819Y-109453228D01*
X172502355Y-97867764D01*
X178445787Y-97867764D01*
X178475413Y-98137016D01*
X178486898Y-98180946D01*
X178543928Y-98399088D01*
X178649870Y-98648390D01*
X178649871Y-98648392D01*
X178790982Y-98879611D01*
X178880253Y-98986881D01*
X178964255Y-99087820D01*
X179165998Y-99268582D01*
X179391910Y-99418044D01*
X179463790Y-99451740D01*
X179637177Y-99533021D01*
X179896562Y-99611058D01*
X179896569Y-99611060D01*
X180164561Y-99650500D01*
X180367631Y-99650500D01*
X180367634Y-99650500D01*
X180570156Y-99635677D01*
X180570156Y-99635676D01*
X180834553Y-99576780D01*
X181087558Y-99480014D01*
X181323777Y-99347441D01*
X181538177Y-99181888D01*
X181726186Y-98986881D01*
X181883799Y-98766579D01*
X182007656Y-98525675D01*
X182095118Y-98269305D01*
X182144319Y-98002933D01*
X182154212Y-97732235D01*
X182124586Y-97462982D01*
X182056072Y-97200912D01*
X181950130Y-96951610D01*
X181809018Y-96720390D01*
X181809017Y-96720388D01*
X181635746Y-96512181D01*
X181594249Y-96475000D01*
X181434002Y-96331418D01*
X181208090Y-96181956D01*
X181197629Y-96177052D01*
X180962822Y-96066978D01*
X180703437Y-95988941D01*
X180703431Y-95988940D01*
X180435439Y-95949500D01*
X180232369Y-95949500D01*
X180232366Y-95949500D01*
X180029843Y-95964322D01*
X179765449Y-96023219D01*
X179512441Y-96119986D01*
X179276223Y-96252559D01*
X179061825Y-96418109D01*
X178873813Y-96613120D01*
X178716201Y-96833420D01*
X178592342Y-97074329D01*
X178504881Y-97330695D01*
X178455680Y-97597066D01*
X178445787Y-97867764D01*
X172502355Y-97867764D01*
X168646772Y-94012181D01*
X168616522Y-93962818D01*
X168611980Y-93905102D01*
X168634135Y-93851615D01*
X168678158Y-93814015D01*
X168734453Y-93800500D01*
X179297439Y-93800500D01*
X179302562Y-93800605D01*
G37*
%TD.AperFunction*%
%TA.AperFunction,Conductor*%
G36*
X159921843Y-93814015D02*
G01*
X159965866Y-93851615D01*
X159988021Y-93905102D01*
X159983479Y-93962818D01*
X159953229Y-94012181D01*
X144512181Y-109453228D01*
X144462818Y-109483478D01*
X144405102Y-109488020D01*
X144351615Y-109465865D01*
X144314015Y-109421842D01*
X144300500Y-109365547D01*
X144300500Y-98802561D01*
X144300606Y-98797437D01*
X144301882Y-98766579D01*
X144309488Y-98582687D01*
X144318052Y-98386540D01*
X144318881Y-98376673D01*
X144345491Y-98163195D01*
X144371578Y-97965045D01*
X144373151Y-97955816D01*
X144391613Y-97867764D01*
X146445787Y-97867764D01*
X146475413Y-98137016D01*
X146486898Y-98180946D01*
X146543928Y-98399088D01*
X146649870Y-98648390D01*
X146649871Y-98648392D01*
X146790982Y-98879611D01*
X146880253Y-98986881D01*
X146964255Y-99087820D01*
X147165998Y-99268582D01*
X147391910Y-99418044D01*
X147463790Y-99451740D01*
X147637177Y-99533021D01*
X147896562Y-99611058D01*
X147896569Y-99611060D01*
X148164561Y-99650500D01*
X148367631Y-99650500D01*
X148367634Y-99650500D01*
X148570156Y-99635677D01*
X148570156Y-99635676D01*
X148834553Y-99576780D01*
X149087558Y-99480014D01*
X149323777Y-99347441D01*
X149538177Y-99181888D01*
X149726186Y-98986881D01*
X149883799Y-98766579D01*
X150007656Y-98525675D01*
X150095118Y-98269305D01*
X150144319Y-98002933D01*
X150154212Y-97732235D01*
X150124586Y-97462982D01*
X150056072Y-97200912D01*
X149950130Y-96951610D01*
X149809018Y-96720390D01*
X149809017Y-96720388D01*
X149635746Y-96512181D01*
X149594249Y-96475000D01*
X149434002Y-96331418D01*
X149208090Y-96181956D01*
X149197629Y-96177052D01*
X148962822Y-96066978D01*
X148703437Y-95988941D01*
X148703431Y-95988940D01*
X148435439Y-95949500D01*
X148232369Y-95949500D01*
X148232366Y-95949500D01*
X148029843Y-95964322D01*
X147765449Y-96023219D01*
X147512441Y-96119986D01*
X147276223Y-96252559D01*
X147061825Y-96418109D01*
X146873813Y-96613120D01*
X146716201Y-96833420D01*
X146592342Y-97074329D01*
X146504881Y-97330695D01*
X146455680Y-97597066D01*
X146445787Y-97867764D01*
X144391613Y-97867764D01*
X144417062Y-97746392D01*
X144417297Y-97745302D01*
X144460684Y-97549599D01*
X144462885Y-97541111D01*
X144523875Y-97336253D01*
X144524337Y-97334743D01*
X144584704Y-97143284D01*
X144587423Y-97135565D01*
X144665074Y-96936564D01*
X144665883Y-96934553D01*
X144742762Y-96748951D01*
X144745874Y-96742051D01*
X144839587Y-96550357D01*
X144840945Y-96547667D01*
X144933667Y-96369551D01*
X144937118Y-96363362D01*
X144941045Y-96356772D01*
X145046295Y-96180139D01*
X145048150Y-96177129D01*
X145156090Y-96007697D01*
X145159721Y-96002316D01*
X145283635Y-95828764D01*
X145286102Y-95825433D01*
X145408401Y-95666048D01*
X145412114Y-95661445D01*
X145549903Y-95498758D01*
X145553027Y-95495211D01*
X145688811Y-95347028D01*
X145692440Y-95343238D01*
X145843238Y-95192440D01*
X145847028Y-95188811D01*
X145995211Y-95053027D01*
X145998758Y-95049903D01*
X146161445Y-94912114D01*
X146166048Y-94908401D01*
X146325433Y-94786102D01*
X146328764Y-94783635D01*
X146502316Y-94659721D01*
X146507697Y-94656090D01*
X146677129Y-94548150D01*
X146680139Y-94546295D01*
X146863373Y-94437111D01*
X146869551Y-94433667D01*
X147047667Y-94340945D01*
X147050357Y-94339587D01*
X147242051Y-94245874D01*
X147248951Y-94242762D01*
X147434553Y-94165883D01*
X147436564Y-94165074D01*
X147635565Y-94087423D01*
X147643284Y-94084704D01*
X147834743Y-94024337D01*
X147836253Y-94023875D01*
X148041111Y-93962885D01*
X148049599Y-93960684D01*
X148245302Y-93917297D01*
X148246392Y-93917062D01*
X148455816Y-93873151D01*
X148465045Y-93871578D01*
X148663195Y-93845491D01*
X148876673Y-93818881D01*
X148886540Y-93818052D01*
X149082628Y-93809490D01*
X149297437Y-93800605D01*
X149302561Y-93800500D01*
X159865548Y-93800500D01*
X159921843Y-93814015D01*
G37*
%TD.AperFunction*%
%TD*%
%TA.AperFunction,Conductor*%
%TO.N,GND*%
G36*
X139248385Y-72884134D02*
G01*
X139285985Y-72928157D01*
X139299500Y-72984452D01*
X139299500Y-83797438D01*
X139299394Y-83802563D01*
X139290525Y-84016987D01*
X139290513Y-84017271D01*
X139281948Y-84213428D01*
X139281114Y-84223357D01*
X139254568Y-84436321D01*
X139254459Y-84437169D01*
X139228422Y-84634936D01*
X139226844Y-84644196D01*
X139182971Y-84853439D01*
X139182671Y-84854832D01*
X139139321Y-85050371D01*
X139137105Y-85058914D01*
X139076186Y-85263538D01*
X139075602Y-85265444D01*
X139015302Y-85456689D01*
X139012559Y-85464475D01*
X138935008Y-85663224D01*
X138934051Y-85665603D01*
X138857260Y-85850993D01*
X138854099Y-85858001D01*
X138760437Y-86049587D01*
X138759026Y-86052383D01*
X138666346Y-86230420D01*
X138662880Y-86236636D01*
X138553743Y-86419793D01*
X138551800Y-86422946D01*
X138443920Y-86592282D01*
X138440257Y-86597710D01*
X138316399Y-86771184D01*
X138313858Y-86774616D01*
X138191626Y-86933912D01*
X138187872Y-86938567D01*
X138050107Y-87101226D01*
X138046908Y-87104858D01*
X137911254Y-87252899D01*
X137907512Y-87256807D01*
X137756807Y-87407512D01*
X137752899Y-87411254D01*
X137604858Y-87546908D01*
X137601226Y-87550107D01*
X137438567Y-87687872D01*
X137433912Y-87691626D01*
X137274616Y-87813858D01*
X137271184Y-87816399D01*
X137097710Y-87940257D01*
X137092282Y-87943920D01*
X136922946Y-88051800D01*
X136919793Y-88053743D01*
X136736636Y-88162880D01*
X136730420Y-88166346D01*
X136552383Y-88259026D01*
X136549587Y-88260437D01*
X136358001Y-88354099D01*
X136350993Y-88357260D01*
X136165603Y-88434051D01*
X136163224Y-88435008D01*
X135964475Y-88512559D01*
X135956689Y-88515302D01*
X135765444Y-88575602D01*
X135763538Y-88576186D01*
X135558914Y-88637105D01*
X135550371Y-88639321D01*
X135354832Y-88682671D01*
X135353439Y-88682971D01*
X135144196Y-88726844D01*
X135134936Y-88728422D01*
X134937169Y-88754459D01*
X134936321Y-88754568D01*
X134723357Y-88781114D01*
X134713428Y-88781948D01*
X134517381Y-88790508D01*
X134517097Y-88790520D01*
X134302563Y-88799394D01*
X134297438Y-88799500D01*
X123484452Y-88799500D01*
X123428157Y-88785985D01*
X123384134Y-88748385D01*
X123361979Y-88694898D01*
X123366521Y-88637182D01*
X123396771Y-88587819D01*
X125285315Y-86699275D01*
X127116825Y-84867764D01*
X133445787Y-84867764D01*
X133475413Y-85137016D01*
X133475414Y-85137018D01*
X133543928Y-85399088D01*
X133597720Y-85525670D01*
X133649871Y-85648392D01*
X133790982Y-85879611D01*
X133880253Y-85986881D01*
X133964255Y-86087820D01*
X134165998Y-86268582D01*
X134391910Y-86418044D01*
X134498211Y-86467875D01*
X134637177Y-86533021D01*
X134896562Y-86611058D01*
X134896569Y-86611060D01*
X135164561Y-86650500D01*
X135367631Y-86650500D01*
X135367634Y-86650500D01*
X135570156Y-86635677D01*
X135570156Y-86635676D01*
X135834553Y-86576780D01*
X136087558Y-86480014D01*
X136323777Y-86347441D01*
X136538177Y-86181888D01*
X136726186Y-85986881D01*
X136883799Y-85766579D01*
X137007656Y-85525675D01*
X137095118Y-85269305D01*
X137144319Y-85002933D01*
X137154212Y-84732235D01*
X137124586Y-84462982D01*
X137056072Y-84200912D01*
X136950130Y-83951610D01*
X136859168Y-83802563D01*
X136809017Y-83720388D01*
X136635746Y-83512181D01*
X136545941Y-83431716D01*
X136434002Y-83331418D01*
X136208090Y-83181956D01*
X136168383Y-83163342D01*
X135962822Y-83066978D01*
X135703437Y-82988941D01*
X135703431Y-82988940D01*
X135435439Y-82949500D01*
X135232369Y-82949500D01*
X135232366Y-82949500D01*
X135029843Y-82964322D01*
X134765449Y-83023219D01*
X134512441Y-83119986D01*
X134276223Y-83252559D01*
X134061825Y-83418109D01*
X133873813Y-83613120D01*
X133716201Y-83833420D01*
X133592342Y-84074329D01*
X133504881Y-84330695D01*
X133455680Y-84597066D01*
X133445787Y-84867764D01*
X127116825Y-84867764D01*
X127192200Y-84792389D01*
X127210178Y-84777517D01*
X127216938Y-84772924D01*
X127253631Y-84731301D01*
X127258934Y-84725655D01*
X127270120Y-84714471D01*
X127270121Y-84714468D01*
X127280906Y-84703685D01*
X127280913Y-84703675D01*
X139087818Y-72896771D01*
X139137182Y-72866521D01*
X139194898Y-72861979D01*
X139248385Y-72884134D01*
G37*
%TD.AperFunction*%
%TA.AperFunction,Conductor*%
G36*
X99462818Y-77866521D02*
G01*
X99512181Y-77896771D01*
X110203229Y-88587819D01*
X110233479Y-88637182D01*
X110238021Y-88694898D01*
X110215866Y-88748385D01*
X110171843Y-88785985D01*
X110115548Y-88799500D01*
X104302562Y-88799500D01*
X104297437Y-88799394D01*
X104082901Y-88790520D01*
X104082617Y-88790508D01*
X103886570Y-88781948D01*
X103876641Y-88781114D01*
X103663677Y-88754568D01*
X103662829Y-88754459D01*
X103465062Y-88728422D01*
X103455802Y-88726844D01*
X103246559Y-88682971D01*
X103245166Y-88682671D01*
X103049627Y-88639321D01*
X103041084Y-88637105D01*
X102836460Y-88576186D01*
X102834554Y-88575602D01*
X102643309Y-88515302D01*
X102635523Y-88512559D01*
X102506985Y-88462404D01*
X102436734Y-88434991D01*
X102434395Y-88434051D01*
X102249005Y-88357260D01*
X102241997Y-88354099D01*
X102050411Y-88260437D01*
X102047615Y-88259026D01*
X101869578Y-88166346D01*
X101863362Y-88162880D01*
X101680205Y-88053743D01*
X101677052Y-88051800D01*
X101507716Y-87943920D01*
X101502288Y-87940257D01*
X101328814Y-87816399D01*
X101325382Y-87813858D01*
X101166086Y-87691626D01*
X101161431Y-87687872D01*
X100998772Y-87550107D01*
X100995155Y-87546921D01*
X100847076Y-87411232D01*
X100843191Y-87407512D01*
X100692486Y-87256807D01*
X100688769Y-87252925D01*
X100553072Y-87104838D01*
X100549891Y-87101226D01*
X100412126Y-86938567D01*
X100408372Y-86933912D01*
X100286140Y-86774616D01*
X100283599Y-86771184D01*
X100159741Y-86597710D01*
X100156078Y-86592282D01*
X100048198Y-86422946D01*
X100046255Y-86419793D01*
X100045213Y-86418045D01*
X99970591Y-86292812D01*
X99937118Y-86236636D01*
X99933652Y-86230420D01*
X99840972Y-86052383D01*
X99839561Y-86049587D01*
X99827982Y-86025903D01*
X99745886Y-85857972D01*
X99742752Y-85851024D01*
X99665911Y-85665513D01*
X99665046Y-85663363D01*
X99587431Y-85464453D01*
X99584696Y-85456689D01*
X99566534Y-85399087D01*
X99524359Y-85265325D01*
X99523850Y-85263665D01*
X99462889Y-85058901D01*
X99460680Y-85050386D01*
X99420194Y-84867764D01*
X101445787Y-84867764D01*
X101475413Y-85137016D01*
X101475414Y-85137018D01*
X101543928Y-85399088D01*
X101597720Y-85525670D01*
X101649871Y-85648392D01*
X101790982Y-85879611D01*
X101880253Y-85986881D01*
X101964255Y-86087820D01*
X102165998Y-86268582D01*
X102391910Y-86418044D01*
X102498211Y-86467875D01*
X102637177Y-86533021D01*
X102896562Y-86611058D01*
X102896569Y-86611060D01*
X103164561Y-86650500D01*
X103367631Y-86650500D01*
X103367634Y-86650500D01*
X103570156Y-86635677D01*
X103570156Y-86635676D01*
X103834553Y-86576780D01*
X104087558Y-86480014D01*
X104323777Y-86347441D01*
X104538177Y-86181888D01*
X104726186Y-85986881D01*
X104883799Y-85766579D01*
X105007656Y-85525675D01*
X105095118Y-85269305D01*
X105144319Y-85002933D01*
X105154212Y-84732235D01*
X105124586Y-84462982D01*
X105056072Y-84200912D01*
X104950130Y-83951610D01*
X104859168Y-83802563D01*
X104809017Y-83720388D01*
X104635746Y-83512181D01*
X104545941Y-83431716D01*
X104434002Y-83331418D01*
X104208090Y-83181956D01*
X104168383Y-83163342D01*
X103962822Y-83066978D01*
X103703437Y-82988941D01*
X103703431Y-82988940D01*
X103435439Y-82949500D01*
X103232369Y-82949500D01*
X103232366Y-82949500D01*
X103029843Y-82964322D01*
X102765449Y-83023219D01*
X102512441Y-83119986D01*
X102276223Y-83252559D01*
X102061825Y-83418109D01*
X101873813Y-83613120D01*
X101716201Y-83833420D01*
X101592342Y-84074329D01*
X101504881Y-84330695D01*
X101455680Y-84597066D01*
X101445787Y-84867764D01*
X99420194Y-84867764D01*
X99417312Y-84854765D01*
X99417027Y-84853439D01*
X99411495Y-84827057D01*
X99373153Y-84644192D01*
X99371576Y-84634936D01*
X99368322Y-84610218D01*
X99345490Y-84436793D01*
X99345483Y-84436743D01*
X99318881Y-84223330D01*
X99318052Y-84213455D01*
X99309486Y-84017271D01*
X99300605Y-83802562D01*
X99300500Y-83797439D01*
X99300500Y-77984452D01*
X99314015Y-77928157D01*
X99351615Y-77884134D01*
X99405102Y-77861979D01*
X99462818Y-77866521D01*
G37*
%TD.AperFunction*%
%TA.AperFunction,Conductor*%
G36*
X101966745Y-69406666D02*
G01*
X107174830Y-74614751D01*
X107195566Y-74642252D01*
X107199589Y-74649499D01*
X107199591Y-74649502D01*
X107219404Y-74672581D01*
X107228856Y-74685116D01*
X107245599Y-74710520D01*
X107287300Y-74752221D01*
X107293705Y-74759132D01*
X107332134Y-74803896D01*
X107356193Y-74822519D01*
X107367972Y-74832893D01*
X116263181Y-83728101D01*
X116290061Y-83768329D01*
X116299500Y-83815782D01*
X116299500Y-86667913D01*
X116286500Y-86723185D01*
X116199181Y-86898542D01*
X116139564Y-87108074D01*
X116119464Y-87325000D01*
X116139564Y-87541925D01*
X116202327Y-87762511D01*
X116199873Y-87763208D01*
X116208948Y-87806230D01*
X116190506Y-87865779D01*
X116145418Y-87908830D01*
X116085080Y-87924500D01*
X111360452Y-87924500D01*
X111312999Y-87915061D01*
X111272771Y-87888181D01*
X100086819Y-76702228D01*
X100059939Y-76662000D01*
X100050500Y-76614547D01*
X100050500Y-72099000D01*
X100067113Y-72037000D01*
X100112500Y-71991613D01*
X100174500Y-71975000D01*
X100525000Y-71975000D01*
X100525000Y-71050000D01*
X101025000Y-71050000D01*
X101025000Y-71975000D01*
X101497824Y-71975000D01*
X101557375Y-71968597D01*
X101692089Y-71918352D01*
X101807188Y-71832188D01*
X101893352Y-71717089D01*
X101943597Y-71582375D01*
X101950000Y-71522824D01*
X101950000Y-71050000D01*
X101025000Y-71050000D01*
X100525000Y-71050000D01*
X100525000Y-70674000D01*
X100541613Y-70612000D01*
X100587000Y-70566613D01*
X100649000Y-70550000D01*
X101950000Y-70550000D01*
X101950000Y-70077176D01*
X101943597Y-70017624D01*
X101893352Y-69882910D01*
X101807188Y-69767811D01*
X101721594Y-69703735D01*
X101681848Y-69653121D01*
X101672824Y-69589402D01*
X101696951Y-69529742D01*
X101780110Y-69419621D01*
X101836056Y-69378044D01*
X101905592Y-69373218D01*
X101966745Y-69406666D01*
G37*
%TD.AperFunction*%
%TA.AperFunction,Conductor*%
G36*
X136763943Y-69403043D02*
G01*
X136819889Y-69444620D01*
X136903048Y-69554741D01*
X136927175Y-69614401D01*
X136918151Y-69678119D01*
X136878406Y-69728733D01*
X136792811Y-69792809D01*
X136706647Y-69907910D01*
X136656402Y-70042624D01*
X136650000Y-70102176D01*
X136650000Y-70575000D01*
X137951000Y-70575000D01*
X138013000Y-70591613D01*
X138058387Y-70637000D01*
X138075000Y-70699000D01*
X138075000Y-72012793D01*
X138089617Y-72038110D01*
X138089617Y-72102298D01*
X138057523Y-72157885D01*
X127084700Y-83130707D01*
X127027019Y-83163342D01*
X126960769Y-83161609D01*
X126917118Y-83133803D01*
X126916415Y-83134772D01*
X126752730Y-83015848D01*
X126579802Y-82938855D01*
X126394648Y-82899500D01*
X126394646Y-82899500D01*
X126205354Y-82899500D01*
X126205352Y-82899500D01*
X126020197Y-82938855D01*
X125847269Y-83015848D01*
X125694129Y-83127110D01*
X125567466Y-83267783D01*
X125472820Y-83431715D01*
X125414326Y-83611742D01*
X125394540Y-83800000D01*
X125414326Y-83988257D01*
X125472820Y-84168284D01*
X125567466Y-84332216D01*
X125638318Y-84410905D01*
X125666990Y-84465983D01*
X125665364Y-84528056D01*
X125633849Y-84581558D01*
X122645385Y-87570023D01*
X122589798Y-87602117D01*
X122525610Y-87602117D01*
X122478643Y-87575000D01*
X121174000Y-87575000D01*
X121112000Y-87558387D01*
X121066613Y-87513000D01*
X121050000Y-87451000D01*
X121050000Y-86150000D01*
X121550000Y-86150000D01*
X121550000Y-87075000D01*
X122475000Y-87075000D01*
X122475000Y-86602176D01*
X122468597Y-86542624D01*
X122418352Y-86407910D01*
X122332188Y-86292811D01*
X122217089Y-86206647D01*
X122082375Y-86156402D01*
X122022824Y-86150000D01*
X121550000Y-86150000D01*
X121050000Y-86150000D01*
X120577176Y-86150000D01*
X120517624Y-86156402D01*
X120382910Y-86206647D01*
X120267808Y-86292812D01*
X120205585Y-86375932D01*
X120151435Y-86417122D01*
X120083703Y-86423541D01*
X120022780Y-86393257D01*
X120011433Y-86382913D01*
X120011432Y-86382912D01*
X119954144Y-86347441D01*
X119925639Y-86329791D01*
X119886251Y-86290855D01*
X119867743Y-86238654D01*
X119873808Y-86183602D01*
X119903234Y-86136685D01*
X121814753Y-84225166D01*
X121842254Y-84204431D01*
X121849502Y-84200409D01*
X121872587Y-84180589D01*
X121885114Y-84171144D01*
X121910519Y-84154402D01*
X121952251Y-84112668D01*
X121959123Y-84106300D01*
X122003895Y-84067866D01*
X122022519Y-84043803D01*
X122032880Y-84032039D01*
X134989919Y-71075000D01*
X136650000Y-71075000D01*
X136650000Y-71547824D01*
X136656402Y-71607375D01*
X136706647Y-71742089D01*
X136792811Y-71857188D01*
X136907910Y-71943352D01*
X137042624Y-71993597D01*
X137102176Y-72000000D01*
X137575000Y-72000000D01*
X137575000Y-71075000D01*
X136650000Y-71075000D01*
X134989919Y-71075000D01*
X136633256Y-69431663D01*
X136694407Y-69398217D01*
X136763943Y-69403043D01*
G37*
%TD.AperFunction*%
%TA.AperFunction,Conductor*%
G36*
X118462818Y-52896852D02*
G01*
X118512181Y-52927102D01*
X128422898Y-62837819D01*
X128453148Y-62887182D01*
X128457690Y-62944898D01*
X128435535Y-62998385D01*
X128391512Y-63035985D01*
X128335217Y-63049500D01*
X127839337Y-63049500D01*
X127801018Y-63043431D01*
X127766450Y-63025817D01*
X127752728Y-63015847D01*
X127579802Y-62938855D01*
X127394648Y-62899500D01*
X127394646Y-62899500D01*
X127205354Y-62899500D01*
X127205352Y-62899500D01*
X127020197Y-62938855D01*
X126847269Y-63015848D01*
X126694129Y-63127110D01*
X126567466Y-63267783D01*
X126472820Y-63431715D01*
X126414326Y-63611742D01*
X126394540Y-63799999D01*
X126414326Y-63988257D01*
X126472820Y-64168284D01*
X126567466Y-64332216D01*
X126694129Y-64472889D01*
X126847269Y-64584151D01*
X127020197Y-64661144D01*
X127205352Y-64700500D01*
X127205354Y-64700500D01*
X127394646Y-64700500D01*
X127394648Y-64700500D01*
X127557385Y-64665909D01*
X127579803Y-64661144D01*
X127752730Y-64584151D01*
X127766449Y-64574183D01*
X127801018Y-64556569D01*
X127839337Y-64550500D01*
X130084217Y-64550500D01*
X130131670Y-64559939D01*
X130171898Y-64586819D01*
X133107449Y-67522370D01*
X133109642Y-67524619D01*
X133161717Y-67579402D01*
X133169941Y-67588053D01*
X133218358Y-67621752D01*
X133225865Y-67627413D01*
X133271593Y-67664698D01*
X133298556Y-67678782D01*
X133311980Y-67686915D01*
X133336951Y-67704295D01*
X133389818Y-67726982D01*
X133391163Y-67727559D01*
X133399663Y-67731595D01*
X133425286Y-67744980D01*
X133451951Y-67758909D01*
X133481196Y-67767277D01*
X133495986Y-67772543D01*
X133503464Y-67775752D01*
X133523942Y-67784540D01*
X133581737Y-67796416D01*
X133590854Y-67798654D01*
X133647582Y-67814887D01*
X133677916Y-67817196D01*
X133693453Y-67819374D01*
X133723259Y-67825500D01*
X133782243Y-67825500D01*
X133791657Y-67825858D01*
X133850477Y-67830337D01*
X133880652Y-67826493D01*
X133896318Y-67825500D01*
X135110217Y-67825500D01*
X135166512Y-67839015D01*
X135210535Y-67876615D01*
X135232690Y-67930102D01*
X135228148Y-67987818D01*
X135197898Y-68037181D01*
X120710248Y-82524830D01*
X120682752Y-82545564D01*
X120675497Y-82549591D01*
X120652407Y-82569412D01*
X120639882Y-82578856D01*
X120614484Y-82595595D01*
X120572782Y-82637297D01*
X120565875Y-82643698D01*
X120521104Y-82682134D01*
X120502480Y-82706194D01*
X120492107Y-82717971D01*
X118512181Y-84697899D01*
X118462818Y-84728149D01*
X118405102Y-84732691D01*
X118351615Y-84710536D01*
X118314015Y-84666513D01*
X118300500Y-84610218D01*
X118300500Y-83364279D01*
X118300540Y-83361137D01*
X118302757Y-83273638D01*
X118292350Y-83215574D01*
X118291041Y-83206242D01*
X118288571Y-83181954D01*
X118285074Y-83147562D01*
X118275964Y-83118528D01*
X118272227Y-83103305D01*
X118266858Y-83073347D01*
X118244969Y-83018549D01*
X118241816Y-83009689D01*
X118224160Y-82953415D01*
X118224159Y-82953414D01*
X118224159Y-82953412D01*
X118209396Y-82926816D01*
X118202663Y-82912636D01*
X118191379Y-82884385D01*
X118191378Y-82884383D01*
X118158901Y-82835106D01*
X118154040Y-82827082D01*
X118125409Y-82775498D01*
X118125408Y-82775496D01*
X118105593Y-82752415D01*
X118096144Y-82739883D01*
X118079402Y-82714481D01*
X118037699Y-82672779D01*
X118031292Y-82665866D01*
X117992865Y-82621103D01*
X117968802Y-82602477D01*
X117957022Y-82592102D01*
X110127101Y-74762181D01*
X110096851Y-74712818D01*
X110092309Y-74655102D01*
X110114464Y-74601615D01*
X110158487Y-74564015D01*
X110214782Y-74550500D01*
X110760663Y-74550500D01*
X110798982Y-74556569D01*
X110833550Y-74574183D01*
X110847271Y-74584152D01*
X111020197Y-74661144D01*
X111205352Y-74700500D01*
X111205354Y-74700500D01*
X111394646Y-74700500D01*
X111394648Y-74700500D01*
X111525996Y-74672581D01*
X111579803Y-74661144D01*
X111752730Y-74584151D01*
X111905871Y-74472888D01*
X112032533Y-74332216D01*
X112127179Y-74168284D01*
X112185674Y-73988256D01*
X112205460Y-73800000D01*
X112185674Y-73611744D01*
X112127179Y-73431716D01*
X112127179Y-73431715D01*
X112032533Y-73267783D01*
X111905870Y-73127110D01*
X111752730Y-73015848D01*
X111579802Y-72938855D01*
X111394648Y-72899500D01*
X111394646Y-72899500D01*
X111205354Y-72899500D01*
X111205352Y-72899500D01*
X111020197Y-72938855D01*
X110847271Y-73015847D01*
X110833550Y-73025817D01*
X110798982Y-73043431D01*
X110760663Y-73049500D01*
X108490783Y-73049500D01*
X108443330Y-73040061D01*
X108403102Y-73013181D01*
X103402101Y-68012181D01*
X103371851Y-67962818D01*
X103367309Y-67905102D01*
X103389464Y-67851615D01*
X103433487Y-67814015D01*
X103489782Y-67800500D01*
X104835721Y-67800500D01*
X104838862Y-67800539D01*
X104926363Y-67802757D01*
X104984432Y-67792348D01*
X104993736Y-67791043D01*
X105052438Y-67785074D01*
X105081467Y-67775965D01*
X105096700Y-67772226D01*
X105126653Y-67766858D01*
X105181426Y-67744978D01*
X105190301Y-67741819D01*
X105207675Y-67736367D01*
X105246588Y-67724159D01*
X105273194Y-67709390D01*
X105287362Y-67702662D01*
X105315617Y-67691377D01*
X105364879Y-67658909D01*
X105372910Y-67654043D01*
X105424502Y-67625409D01*
X105447587Y-67605589D01*
X105460114Y-67596144D01*
X105485519Y-67579402D01*
X105527251Y-67537668D01*
X105534123Y-67531300D01*
X105578895Y-67492866D01*
X105597524Y-67468798D01*
X105607883Y-67457036D01*
X113337818Y-59727101D01*
X113387182Y-59696851D01*
X113444898Y-59692309D01*
X113498385Y-59714464D01*
X113535985Y-59758487D01*
X113549500Y-59814782D01*
X113549500Y-60265678D01*
X113532887Y-60327678D01*
X113472820Y-60431715D01*
X113414326Y-60611742D01*
X113394540Y-60800000D01*
X113414326Y-60988257D01*
X113472820Y-61168284D01*
X113567466Y-61332216D01*
X113694129Y-61472889D01*
X113847269Y-61584151D01*
X114020197Y-61661144D01*
X114205352Y-61700500D01*
X114205354Y-61700500D01*
X114394646Y-61700500D01*
X114394648Y-61700500D01*
X114518083Y-61674262D01*
X114579803Y-61661144D01*
X114752730Y-61584151D01*
X114905871Y-61472888D01*
X115032533Y-61332216D01*
X115127179Y-61168284D01*
X115185674Y-60988256D01*
X115205460Y-60800000D01*
X115185674Y-60611744D01*
X115127179Y-60431716D01*
X115127179Y-60431715D01*
X115067113Y-60327678D01*
X115050500Y-60265678D01*
X115050500Y-58065783D01*
X115059939Y-58018331D01*
X115086818Y-57978103D01*
X115200306Y-57864613D01*
X115200311Y-57864609D01*
X115210517Y-57854402D01*
X115210519Y-57854402D01*
X117997389Y-55067529D01*
X117999559Y-55065413D01*
X118063053Y-55005059D01*
X118096759Y-54956630D01*
X118102428Y-54949113D01*
X118139698Y-54903407D01*
X118153783Y-54876439D01*
X118161918Y-54863015D01*
X118168373Y-54853740D01*
X118179295Y-54838049D01*
X118202568Y-54783815D01*
X118206598Y-54775331D01*
X118233908Y-54723051D01*
X118233909Y-54723049D01*
X118242278Y-54693797D01*
X118247534Y-54679032D01*
X118259540Y-54651058D01*
X118271418Y-54593256D01*
X118273651Y-54584156D01*
X118289887Y-54527418D01*
X118292197Y-54497077D01*
X118294376Y-54481535D01*
X118300500Y-54451741D01*
X118300500Y-54392758D01*
X118300858Y-54383344D01*
X118300964Y-54381946D01*
X118305337Y-54324524D01*
X118301493Y-54294348D01*
X118300500Y-54278683D01*
X118300500Y-53014783D01*
X118314015Y-52958488D01*
X118351615Y-52914465D01*
X118405102Y-52892310D01*
X118462818Y-52896852D01*
G37*
%TD.AperFunction*%
%TA.AperFunction,Conductor*%
G36*
X122637318Y-49791021D02*
G01*
X122686681Y-49821271D01*
X138388181Y-65522772D01*
X138415061Y-65563000D01*
X138424500Y-65610453D01*
X138424500Y-65615603D01*
X138410194Y-65673424D01*
X138370577Y-65717903D01*
X138314790Y-65738777D01*
X138255706Y-65731229D01*
X138148073Y-65689531D01*
X138148070Y-65689530D01*
X138148069Y-65689530D01*
X137933926Y-65649500D01*
X137716074Y-65649500D01*
X137531033Y-65684090D01*
X137501926Y-65689531D01*
X137298791Y-65768226D01*
X137237903Y-65805927D01*
X137172626Y-65824500D01*
X134290782Y-65824500D01*
X134243329Y-65815061D01*
X134203101Y-65788181D01*
X131843632Y-63428712D01*
X131843628Y-63428706D01*
X119903236Y-51488316D01*
X119873808Y-51441396D01*
X119867743Y-51386345D01*
X119886251Y-51334144D01*
X119925640Y-51295208D01*
X119943315Y-51284263D01*
X120011432Y-51242088D01*
X120022781Y-51231741D01*
X120083701Y-51201458D01*
X120151435Y-51207877D01*
X120205586Y-51249067D01*
X120267810Y-51332188D01*
X120382910Y-51418352D01*
X120517624Y-51468597D01*
X120577176Y-51475000D01*
X121050000Y-51475000D01*
X121050000Y-50550000D01*
X121550000Y-50550000D01*
X121550000Y-51475000D01*
X122022824Y-51475000D01*
X122082375Y-51468597D01*
X122217089Y-51418352D01*
X122332188Y-51332188D01*
X122418352Y-51217089D01*
X122468597Y-51082375D01*
X122475000Y-51022824D01*
X122475000Y-50550000D01*
X121550000Y-50550000D01*
X121050000Y-50550000D01*
X121050000Y-50174000D01*
X121066613Y-50112000D01*
X121112000Y-50066613D01*
X121174000Y-50050000D01*
X122475000Y-50050000D01*
X122475000Y-49908952D01*
X122488515Y-49852657D01*
X122526115Y-49808634D01*
X122579602Y-49786479D01*
X122637318Y-49791021D01*
G37*
%TD.AperFunction*%
%TA.AperFunction,Conductor*%
G36*
X116126274Y-49708416D02*
G01*
X116182259Y-49748690D01*
X116208068Y-49812644D01*
X116199160Y-49861587D01*
X116202327Y-49862489D01*
X116139564Y-50083074D01*
X116119464Y-50299999D01*
X116139564Y-50516925D01*
X116199181Y-50726457D01*
X116286500Y-50901815D01*
X116299500Y-50957087D01*
X116299500Y-53884217D01*
X116290061Y-53931670D01*
X116263181Y-53971898D01*
X113939481Y-56295598D01*
X104471899Y-65763181D01*
X104431671Y-65790061D01*
X104384218Y-65799500D01*
X101427374Y-65799500D01*
X101362097Y-65780927D01*
X101301208Y-65743226D01*
X101098073Y-65664531D01*
X101098070Y-65664530D01*
X101098069Y-65664530D01*
X100883926Y-65624500D01*
X100666074Y-65624500D01*
X100532335Y-65649500D01*
X100451930Y-65664530D01*
X100376695Y-65693677D01*
X100310243Y-65700144D01*
X100250070Y-65671215D01*
X100213621Y-65615277D01*
X100211462Y-65548546D01*
X100244218Y-65490371D01*
X115997031Y-49737559D01*
X116057433Y-49704279D01*
X116126274Y-49708416D01*
G37*
%TD.AperFunction*%
%TA.AperFunction,Conductor*%
G36*
X134302562Y-48800605D02*
G01*
X134517600Y-48809500D01*
X134713455Y-48818052D01*
X134723330Y-48818881D01*
X134936706Y-48845479D01*
X134936793Y-48845490D01*
X135134945Y-48871577D01*
X135144192Y-48873153D01*
X135353521Y-48917044D01*
X135354765Y-48917312D01*
X135550386Y-48960680D01*
X135558901Y-48962889D01*
X135763665Y-49023850D01*
X135765325Y-49024359D01*
X135956696Y-49084698D01*
X135964453Y-49087431D01*
X136163363Y-49165046D01*
X136165513Y-49165911D01*
X136351024Y-49242752D01*
X136357972Y-49245886D01*
X136525903Y-49327982D01*
X136549587Y-49339561D01*
X136552383Y-49340972D01*
X136730420Y-49433652D01*
X136736636Y-49437118D01*
X136919793Y-49546255D01*
X136922929Y-49548187D01*
X136986491Y-49588681D01*
X137092282Y-49656078D01*
X137097710Y-49659741D01*
X137271184Y-49783599D01*
X137274616Y-49786140D01*
X137433912Y-49908372D01*
X137438567Y-49912126D01*
X137601226Y-50049891D01*
X137604838Y-50053072D01*
X137752925Y-50188769D01*
X137756807Y-50192486D01*
X137907512Y-50343191D01*
X137911232Y-50347076D01*
X138046921Y-50495155D01*
X138050107Y-50498772D01*
X138187872Y-50661431D01*
X138191626Y-50666086D01*
X138313858Y-50825382D01*
X138316399Y-50828814D01*
X138440257Y-51002288D01*
X138443920Y-51007716D01*
X138551800Y-51177052D01*
X138553743Y-51180205D01*
X138662880Y-51363362D01*
X138666346Y-51369578D01*
X138759026Y-51547615D01*
X138760437Y-51550411D01*
X138854099Y-51741997D01*
X138857260Y-51749005D01*
X138934051Y-51934395D01*
X138934991Y-51936734D01*
X138940797Y-51951610D01*
X139012559Y-52135523D01*
X139015302Y-52143309D01*
X139075602Y-52334554D01*
X139076186Y-52336460D01*
X139137105Y-52541084D01*
X139139321Y-52549627D01*
X139182671Y-52745166D01*
X139182971Y-52746559D01*
X139226844Y-52955802D01*
X139228422Y-52965062D01*
X139254459Y-53162829D01*
X139254568Y-53163677D01*
X139281114Y-53376641D01*
X139281948Y-53386570D01*
X139290513Y-53582728D01*
X139290525Y-53583013D01*
X139299394Y-53797438D01*
X139299500Y-53802562D01*
X139299500Y-64365547D01*
X139285985Y-64421842D01*
X139248385Y-64465865D01*
X139194898Y-64488020D01*
X139137182Y-64483478D01*
X139087819Y-64453228D01*
X127502355Y-52867764D01*
X133445787Y-52867764D01*
X133475413Y-53137016D01*
X133486898Y-53180946D01*
X133543928Y-53399088D01*
X133649870Y-53648390D01*
X133649871Y-53648392D01*
X133790982Y-53879611D01*
X133880253Y-53986881D01*
X133964255Y-54087820D01*
X134165998Y-54268582D01*
X134391910Y-54418044D01*
X134463790Y-54451740D01*
X134637177Y-54533021D01*
X134896562Y-54611058D01*
X134896569Y-54611060D01*
X135164561Y-54650500D01*
X135367631Y-54650500D01*
X135367634Y-54650500D01*
X135570156Y-54635677D01*
X135570156Y-54635676D01*
X135834553Y-54576780D01*
X136087558Y-54480014D01*
X136323777Y-54347441D01*
X136538177Y-54181888D01*
X136726186Y-53986881D01*
X136883799Y-53766579D01*
X137007656Y-53525675D01*
X137095118Y-53269305D01*
X137144319Y-53002933D01*
X137154212Y-52732235D01*
X137124586Y-52462982D01*
X137056072Y-52200912D01*
X136950130Y-51951610D01*
X136809018Y-51720390D01*
X136809017Y-51720388D01*
X136635746Y-51512181D01*
X136594249Y-51475000D01*
X136434002Y-51331418D01*
X136208090Y-51181956D01*
X136197629Y-51177052D01*
X135962822Y-51066978D01*
X135703437Y-50988941D01*
X135703431Y-50988940D01*
X135435439Y-50949500D01*
X135232369Y-50949500D01*
X135232366Y-50949500D01*
X135029843Y-50964322D01*
X134765449Y-51023219D01*
X134512441Y-51119986D01*
X134276223Y-51252559D01*
X134061825Y-51418109D01*
X133873813Y-51613120D01*
X133716201Y-51833420D01*
X133592342Y-52074329D01*
X133504881Y-52330695D01*
X133455680Y-52597066D01*
X133445787Y-52867764D01*
X127502355Y-52867764D01*
X123646772Y-49012181D01*
X123616522Y-48962818D01*
X123611980Y-48905102D01*
X123634135Y-48851615D01*
X123678158Y-48814015D01*
X123734453Y-48800500D01*
X134297439Y-48800500D01*
X134302562Y-48800605D01*
G37*
%TD.AperFunction*%
%TA.AperFunction,Conductor*%
G36*
X114921843Y-48814015D02*
G01*
X114965866Y-48851615D01*
X114988021Y-48905102D01*
X114983479Y-48962818D01*
X114953229Y-49012181D01*
X99512181Y-64453228D01*
X99462818Y-64483478D01*
X99405102Y-64488020D01*
X99351615Y-64465865D01*
X99314015Y-64421842D01*
X99300500Y-64365547D01*
X99300500Y-53802561D01*
X99300606Y-53797437D01*
X99301882Y-53766579D01*
X99309488Y-53582687D01*
X99318052Y-53386540D01*
X99318881Y-53376673D01*
X99345491Y-53163195D01*
X99371578Y-52965045D01*
X99373151Y-52955816D01*
X99391613Y-52867764D01*
X101445787Y-52867764D01*
X101475413Y-53137016D01*
X101486898Y-53180946D01*
X101543928Y-53399088D01*
X101649870Y-53648390D01*
X101649871Y-53648392D01*
X101790982Y-53879611D01*
X101880253Y-53986881D01*
X101964255Y-54087820D01*
X102165998Y-54268582D01*
X102391910Y-54418044D01*
X102463790Y-54451740D01*
X102637177Y-54533021D01*
X102896562Y-54611058D01*
X102896569Y-54611060D01*
X103164561Y-54650500D01*
X103367631Y-54650500D01*
X103367634Y-54650500D01*
X103570156Y-54635677D01*
X103570156Y-54635676D01*
X103834553Y-54576780D01*
X104087558Y-54480014D01*
X104323777Y-54347441D01*
X104538177Y-54181888D01*
X104726186Y-53986881D01*
X104883799Y-53766579D01*
X105007656Y-53525675D01*
X105095118Y-53269305D01*
X105144319Y-53002933D01*
X105154212Y-52732235D01*
X105124586Y-52462982D01*
X105056072Y-52200912D01*
X104950130Y-51951610D01*
X104809018Y-51720390D01*
X104809017Y-51720388D01*
X104635746Y-51512181D01*
X104594249Y-51475000D01*
X104434002Y-51331418D01*
X104208090Y-51181956D01*
X104197629Y-51177052D01*
X103962822Y-51066978D01*
X103703437Y-50988941D01*
X103703431Y-50988940D01*
X103435439Y-50949500D01*
X103232369Y-50949500D01*
X103232366Y-50949500D01*
X103029843Y-50964322D01*
X102765449Y-51023219D01*
X102512441Y-51119986D01*
X102276223Y-51252559D01*
X102061825Y-51418109D01*
X101873813Y-51613120D01*
X101716201Y-51833420D01*
X101592342Y-52074329D01*
X101504881Y-52330695D01*
X101455680Y-52597066D01*
X101445787Y-52867764D01*
X99391613Y-52867764D01*
X99417062Y-52746392D01*
X99417297Y-52745302D01*
X99460684Y-52549599D01*
X99462885Y-52541111D01*
X99523875Y-52336253D01*
X99524337Y-52334743D01*
X99584704Y-52143284D01*
X99587423Y-52135565D01*
X99665074Y-51936564D01*
X99665883Y-51934553D01*
X99742762Y-51748951D01*
X99745874Y-51742051D01*
X99839587Y-51550357D01*
X99840945Y-51547667D01*
X99933667Y-51369551D01*
X99937118Y-51363362D01*
X99941045Y-51356772D01*
X100046295Y-51180139D01*
X100048150Y-51177129D01*
X100156090Y-51007697D01*
X100159721Y-51002316D01*
X100283635Y-50828764D01*
X100286102Y-50825433D01*
X100408401Y-50666048D01*
X100412114Y-50661445D01*
X100549903Y-50498758D01*
X100553027Y-50495211D01*
X100688811Y-50347028D01*
X100692440Y-50343238D01*
X100843238Y-50192440D01*
X100847028Y-50188811D01*
X100995211Y-50053027D01*
X100998758Y-50049903D01*
X101161445Y-49912114D01*
X101166048Y-49908401D01*
X101325433Y-49786102D01*
X101328764Y-49783635D01*
X101502316Y-49659721D01*
X101507697Y-49656090D01*
X101677129Y-49548150D01*
X101680139Y-49546295D01*
X101863373Y-49437111D01*
X101869551Y-49433667D01*
X102047667Y-49340945D01*
X102050357Y-49339587D01*
X102242051Y-49245874D01*
X102248951Y-49242762D01*
X102434553Y-49165883D01*
X102436564Y-49165074D01*
X102635565Y-49087423D01*
X102643284Y-49084704D01*
X102834743Y-49024337D01*
X102836253Y-49023875D01*
X103041111Y-48962885D01*
X103049599Y-48960684D01*
X103245302Y-48917297D01*
X103246392Y-48917062D01*
X103455816Y-48873151D01*
X103465045Y-48871578D01*
X103663195Y-48845491D01*
X103876673Y-48818881D01*
X103886540Y-48818052D01*
X104082628Y-48809490D01*
X104297437Y-48800605D01*
X104302561Y-48800500D01*
X114865548Y-48800500D01*
X114921843Y-48814015D01*
G37*
%TD.AperFunction*%
%TD*%
%TA.AperFunction,Conductor*%
%TO.N,GND*%
G36*
X139248385Y-117884134D02*
G01*
X139285985Y-117928157D01*
X139299500Y-117984452D01*
X139299500Y-128797438D01*
X139299394Y-128802563D01*
X139290525Y-129016987D01*
X139290513Y-129017271D01*
X139281948Y-129213428D01*
X139281114Y-129223357D01*
X139254568Y-129436321D01*
X139254459Y-129437169D01*
X139228422Y-129634936D01*
X139226844Y-129644196D01*
X139182971Y-129853439D01*
X139182671Y-129854832D01*
X139139321Y-130050371D01*
X139137105Y-130058914D01*
X139076186Y-130263538D01*
X139075602Y-130265444D01*
X139015302Y-130456689D01*
X139012559Y-130464475D01*
X138935008Y-130663224D01*
X138934051Y-130665603D01*
X138857260Y-130850993D01*
X138854099Y-130858001D01*
X138760437Y-131049587D01*
X138759026Y-131052383D01*
X138666346Y-131230420D01*
X138662880Y-131236636D01*
X138553743Y-131419793D01*
X138551800Y-131422946D01*
X138443920Y-131592282D01*
X138440257Y-131597710D01*
X138316399Y-131771184D01*
X138313858Y-131774616D01*
X138191626Y-131933912D01*
X138187872Y-131938567D01*
X138050107Y-132101226D01*
X138046908Y-132104858D01*
X137911254Y-132252899D01*
X137907512Y-132256807D01*
X137756807Y-132407512D01*
X137752899Y-132411254D01*
X137604858Y-132546908D01*
X137601226Y-132550107D01*
X137438567Y-132687872D01*
X137433912Y-132691626D01*
X137274616Y-132813858D01*
X137271184Y-132816399D01*
X137097710Y-132940257D01*
X137092282Y-132943920D01*
X136922946Y-133051800D01*
X136919793Y-133053743D01*
X136736636Y-133162880D01*
X136730420Y-133166346D01*
X136552383Y-133259026D01*
X136549587Y-133260437D01*
X136358001Y-133354099D01*
X136350993Y-133357260D01*
X136165603Y-133434051D01*
X136163224Y-133435008D01*
X135964475Y-133512559D01*
X135956689Y-133515302D01*
X135765444Y-133575602D01*
X135763538Y-133576186D01*
X135558914Y-133637105D01*
X135550371Y-133639321D01*
X135354832Y-133682671D01*
X135353439Y-133682971D01*
X135144196Y-133726844D01*
X135134936Y-133728422D01*
X134937169Y-133754459D01*
X134936321Y-133754568D01*
X134723357Y-133781114D01*
X134713428Y-133781948D01*
X134517381Y-133790508D01*
X134517097Y-133790520D01*
X134302563Y-133799394D01*
X134297438Y-133799500D01*
X123484452Y-133799500D01*
X123428157Y-133785985D01*
X123384134Y-133748385D01*
X123361979Y-133694898D01*
X123366521Y-133637182D01*
X123396771Y-133587819D01*
X125285315Y-131699275D01*
X127116825Y-129867764D01*
X133445787Y-129867764D01*
X133475413Y-130137016D01*
X133475414Y-130137018D01*
X133543928Y-130399088D01*
X133597720Y-130525670D01*
X133649871Y-130648392D01*
X133790982Y-130879611D01*
X133880253Y-130986881D01*
X133964255Y-131087820D01*
X134165998Y-131268582D01*
X134391910Y-131418044D01*
X134498211Y-131467875D01*
X134637177Y-131533021D01*
X134896562Y-131611058D01*
X134896569Y-131611060D01*
X135164561Y-131650500D01*
X135367631Y-131650500D01*
X135367634Y-131650500D01*
X135570156Y-131635677D01*
X135570156Y-131635676D01*
X135834553Y-131576780D01*
X136087558Y-131480014D01*
X136323777Y-131347441D01*
X136538177Y-131181888D01*
X136726186Y-130986881D01*
X136883799Y-130766579D01*
X137007656Y-130525675D01*
X137095118Y-130269305D01*
X137144319Y-130002933D01*
X137154212Y-129732235D01*
X137124586Y-129462982D01*
X137056072Y-129200912D01*
X136950130Y-128951610D01*
X136859168Y-128802563D01*
X136809017Y-128720388D01*
X136635746Y-128512181D01*
X136545941Y-128431716D01*
X136434002Y-128331418D01*
X136208090Y-128181956D01*
X136168383Y-128163342D01*
X135962822Y-128066978D01*
X135703437Y-127988941D01*
X135703431Y-127988940D01*
X135435439Y-127949500D01*
X135232369Y-127949500D01*
X135232366Y-127949500D01*
X135029843Y-127964322D01*
X134765449Y-128023219D01*
X134512441Y-128119986D01*
X134276223Y-128252559D01*
X134061825Y-128418109D01*
X133873813Y-128613120D01*
X133716201Y-128833420D01*
X133592342Y-129074329D01*
X133504881Y-129330695D01*
X133455680Y-129597066D01*
X133445787Y-129867764D01*
X127116825Y-129867764D01*
X127192200Y-129792389D01*
X127210178Y-129777517D01*
X127216938Y-129772924D01*
X127253631Y-129731301D01*
X127258934Y-129725655D01*
X127270120Y-129714471D01*
X127270121Y-129714468D01*
X127280906Y-129703685D01*
X127280913Y-129703675D01*
X139087818Y-117896771D01*
X139137182Y-117866521D01*
X139194898Y-117861979D01*
X139248385Y-117884134D01*
G37*
%TD.AperFunction*%
%TA.AperFunction,Conductor*%
G36*
X99462818Y-122866521D02*
G01*
X99512181Y-122896771D01*
X110203229Y-133587819D01*
X110233479Y-133637182D01*
X110238021Y-133694898D01*
X110215866Y-133748385D01*
X110171843Y-133785985D01*
X110115548Y-133799500D01*
X104302562Y-133799500D01*
X104297437Y-133799394D01*
X104082901Y-133790520D01*
X104082617Y-133790508D01*
X103886570Y-133781948D01*
X103876641Y-133781114D01*
X103663677Y-133754568D01*
X103662829Y-133754459D01*
X103465062Y-133728422D01*
X103455802Y-133726844D01*
X103246559Y-133682971D01*
X103245166Y-133682671D01*
X103049627Y-133639321D01*
X103041084Y-133637105D01*
X102836460Y-133576186D01*
X102834554Y-133575602D01*
X102643309Y-133515302D01*
X102635523Y-133512559D01*
X102506985Y-133462404D01*
X102436734Y-133434991D01*
X102434395Y-133434051D01*
X102249005Y-133357260D01*
X102241997Y-133354099D01*
X102050411Y-133260437D01*
X102047615Y-133259026D01*
X101869578Y-133166346D01*
X101863362Y-133162880D01*
X101680205Y-133053743D01*
X101677052Y-133051800D01*
X101507716Y-132943920D01*
X101502288Y-132940257D01*
X101328814Y-132816399D01*
X101325382Y-132813858D01*
X101166086Y-132691626D01*
X101161431Y-132687872D01*
X100998772Y-132550107D01*
X100995155Y-132546921D01*
X100847076Y-132411232D01*
X100843191Y-132407512D01*
X100692486Y-132256807D01*
X100688769Y-132252925D01*
X100553072Y-132104838D01*
X100549891Y-132101226D01*
X100412126Y-131938567D01*
X100408372Y-131933912D01*
X100286140Y-131774616D01*
X100283599Y-131771184D01*
X100159741Y-131597710D01*
X100156078Y-131592282D01*
X100048198Y-131422946D01*
X100046255Y-131419793D01*
X100045213Y-131418045D01*
X99970591Y-131292812D01*
X99937118Y-131236636D01*
X99933652Y-131230420D01*
X99840972Y-131052383D01*
X99839561Y-131049587D01*
X99827982Y-131025903D01*
X99745886Y-130857972D01*
X99742752Y-130851024D01*
X99665911Y-130665513D01*
X99665046Y-130663363D01*
X99587431Y-130464453D01*
X99584696Y-130456689D01*
X99566534Y-130399087D01*
X99524359Y-130265325D01*
X99523850Y-130263665D01*
X99462889Y-130058901D01*
X99460680Y-130050386D01*
X99420194Y-129867764D01*
X101445787Y-129867764D01*
X101475413Y-130137016D01*
X101475414Y-130137018D01*
X101543928Y-130399088D01*
X101597720Y-130525670D01*
X101649871Y-130648392D01*
X101790982Y-130879611D01*
X101880253Y-130986881D01*
X101964255Y-131087820D01*
X102165998Y-131268582D01*
X102391910Y-131418044D01*
X102498211Y-131467875D01*
X102637177Y-131533021D01*
X102896562Y-131611058D01*
X102896569Y-131611060D01*
X103164561Y-131650500D01*
X103367631Y-131650500D01*
X103367634Y-131650500D01*
X103570156Y-131635677D01*
X103570156Y-131635676D01*
X103834553Y-131576780D01*
X104087558Y-131480014D01*
X104323777Y-131347441D01*
X104538177Y-131181888D01*
X104726186Y-130986881D01*
X104883799Y-130766579D01*
X105007656Y-130525675D01*
X105095118Y-130269305D01*
X105144319Y-130002933D01*
X105154212Y-129732235D01*
X105124586Y-129462982D01*
X105056072Y-129200912D01*
X104950130Y-128951610D01*
X104859168Y-128802563D01*
X104809017Y-128720388D01*
X104635746Y-128512181D01*
X104545941Y-128431716D01*
X104434002Y-128331418D01*
X104208090Y-128181956D01*
X104168383Y-128163342D01*
X103962822Y-128066978D01*
X103703437Y-127988941D01*
X103703431Y-127988940D01*
X103435439Y-127949500D01*
X103232369Y-127949500D01*
X103232366Y-127949500D01*
X103029843Y-127964322D01*
X102765449Y-128023219D01*
X102512441Y-128119986D01*
X102276223Y-128252559D01*
X102061825Y-128418109D01*
X101873813Y-128613120D01*
X101716201Y-128833420D01*
X101592342Y-129074329D01*
X101504881Y-129330695D01*
X101455680Y-129597066D01*
X101445787Y-129867764D01*
X99420194Y-129867764D01*
X99417312Y-129854765D01*
X99417027Y-129853439D01*
X99411495Y-129827057D01*
X99373153Y-129644192D01*
X99371576Y-129634936D01*
X99368322Y-129610218D01*
X99345490Y-129436793D01*
X99345483Y-129436743D01*
X99318881Y-129223330D01*
X99318052Y-129213455D01*
X99309486Y-129017271D01*
X99300605Y-128802562D01*
X99300500Y-128797439D01*
X99300500Y-122984452D01*
X99314015Y-122928157D01*
X99351615Y-122884134D01*
X99405102Y-122861979D01*
X99462818Y-122866521D01*
G37*
%TD.AperFunction*%
%TA.AperFunction,Conductor*%
G36*
X101966745Y-114406666D02*
G01*
X107174830Y-119614751D01*
X107195566Y-119642252D01*
X107199589Y-119649499D01*
X107199591Y-119649502D01*
X107219404Y-119672581D01*
X107228856Y-119685116D01*
X107245599Y-119710520D01*
X107287300Y-119752221D01*
X107293705Y-119759132D01*
X107332134Y-119803896D01*
X107356193Y-119822519D01*
X107367972Y-119832893D01*
X116263181Y-128728101D01*
X116290061Y-128768329D01*
X116299500Y-128815782D01*
X116299500Y-131667913D01*
X116286500Y-131723185D01*
X116199181Y-131898542D01*
X116139564Y-132108074D01*
X116119464Y-132325000D01*
X116139564Y-132541925D01*
X116202327Y-132762511D01*
X116199873Y-132763208D01*
X116208948Y-132806230D01*
X116190506Y-132865779D01*
X116145418Y-132908830D01*
X116085080Y-132924500D01*
X111360452Y-132924500D01*
X111312999Y-132915061D01*
X111272771Y-132888181D01*
X100086819Y-121702228D01*
X100059939Y-121662000D01*
X100050500Y-121614547D01*
X100050500Y-117099000D01*
X100067113Y-117037000D01*
X100112500Y-116991613D01*
X100174500Y-116975000D01*
X100525000Y-116975000D01*
X100525000Y-116050000D01*
X101025000Y-116050000D01*
X101025000Y-116975000D01*
X101497824Y-116975000D01*
X101557375Y-116968597D01*
X101692089Y-116918352D01*
X101807188Y-116832188D01*
X101893352Y-116717089D01*
X101943597Y-116582375D01*
X101950000Y-116522824D01*
X101950000Y-116050000D01*
X101025000Y-116050000D01*
X100525000Y-116050000D01*
X100525000Y-115674000D01*
X100541613Y-115612000D01*
X100587000Y-115566613D01*
X100649000Y-115550000D01*
X101950000Y-115550000D01*
X101950000Y-115077176D01*
X101943597Y-115017624D01*
X101893352Y-114882910D01*
X101807188Y-114767811D01*
X101721594Y-114703735D01*
X101681848Y-114653121D01*
X101672824Y-114589402D01*
X101696951Y-114529742D01*
X101780110Y-114419621D01*
X101836056Y-114378044D01*
X101905592Y-114373218D01*
X101966745Y-114406666D01*
G37*
%TD.AperFunction*%
%TA.AperFunction,Conductor*%
G36*
X136763943Y-114403043D02*
G01*
X136819889Y-114444620D01*
X136903048Y-114554741D01*
X136927175Y-114614401D01*
X136918151Y-114678119D01*
X136878406Y-114728733D01*
X136792811Y-114792809D01*
X136706647Y-114907910D01*
X136656402Y-115042624D01*
X136650000Y-115102176D01*
X136650000Y-115575000D01*
X137951000Y-115575000D01*
X138013000Y-115591613D01*
X138058387Y-115637000D01*
X138075000Y-115699000D01*
X138075000Y-117012793D01*
X138089617Y-117038110D01*
X138089617Y-117102298D01*
X138057523Y-117157885D01*
X127084700Y-128130707D01*
X127027019Y-128163342D01*
X126960769Y-128161609D01*
X126917118Y-128133803D01*
X126916415Y-128134772D01*
X126752730Y-128015848D01*
X126579802Y-127938855D01*
X126394648Y-127899500D01*
X126394646Y-127899500D01*
X126205354Y-127899500D01*
X126205352Y-127899500D01*
X126020197Y-127938855D01*
X125847269Y-128015848D01*
X125694129Y-128127110D01*
X125567466Y-128267783D01*
X125472820Y-128431715D01*
X125414326Y-128611742D01*
X125394540Y-128800000D01*
X125414326Y-128988257D01*
X125472820Y-129168284D01*
X125567466Y-129332216D01*
X125638318Y-129410905D01*
X125666990Y-129465983D01*
X125665364Y-129528056D01*
X125633849Y-129581558D01*
X122645385Y-132570023D01*
X122589798Y-132602117D01*
X122525610Y-132602117D01*
X122478643Y-132575000D01*
X121174000Y-132575000D01*
X121112000Y-132558387D01*
X121066613Y-132513000D01*
X121050000Y-132451000D01*
X121050000Y-131150000D01*
X121550000Y-131150000D01*
X121550000Y-132075000D01*
X122475000Y-132075000D01*
X122475000Y-131602176D01*
X122468597Y-131542624D01*
X122418352Y-131407910D01*
X122332188Y-131292811D01*
X122217089Y-131206647D01*
X122082375Y-131156402D01*
X122022824Y-131150000D01*
X121550000Y-131150000D01*
X121050000Y-131150000D01*
X120577176Y-131150000D01*
X120517624Y-131156402D01*
X120382910Y-131206647D01*
X120267808Y-131292812D01*
X120205585Y-131375932D01*
X120151435Y-131417122D01*
X120083703Y-131423541D01*
X120022780Y-131393257D01*
X120011433Y-131382913D01*
X120011432Y-131382912D01*
X119954144Y-131347441D01*
X119925639Y-131329791D01*
X119886251Y-131290855D01*
X119867743Y-131238654D01*
X119873808Y-131183602D01*
X119903234Y-131136685D01*
X121814753Y-129225166D01*
X121842254Y-129204431D01*
X121849502Y-129200409D01*
X121872587Y-129180589D01*
X121885114Y-129171144D01*
X121910519Y-129154402D01*
X121952251Y-129112668D01*
X121959123Y-129106300D01*
X122003895Y-129067866D01*
X122022519Y-129043803D01*
X122032880Y-129032039D01*
X134989919Y-116075000D01*
X136650000Y-116075000D01*
X136650000Y-116547824D01*
X136656402Y-116607375D01*
X136706647Y-116742089D01*
X136792811Y-116857188D01*
X136907910Y-116943352D01*
X137042624Y-116993597D01*
X137102176Y-117000000D01*
X137575000Y-117000000D01*
X137575000Y-116075000D01*
X136650000Y-116075000D01*
X134989919Y-116075000D01*
X136633256Y-114431663D01*
X136694407Y-114398217D01*
X136763943Y-114403043D01*
G37*
%TD.AperFunction*%
%TA.AperFunction,Conductor*%
G36*
X118462818Y-97896852D02*
G01*
X118512181Y-97927102D01*
X128422898Y-107837819D01*
X128453148Y-107887182D01*
X128457690Y-107944898D01*
X128435535Y-107998385D01*
X128391512Y-108035985D01*
X128335217Y-108049500D01*
X127839337Y-108049500D01*
X127801018Y-108043431D01*
X127766450Y-108025817D01*
X127752728Y-108015847D01*
X127579802Y-107938855D01*
X127394648Y-107899500D01*
X127394646Y-107899500D01*
X127205354Y-107899500D01*
X127205352Y-107899500D01*
X127020197Y-107938855D01*
X126847269Y-108015848D01*
X126694129Y-108127110D01*
X126567466Y-108267783D01*
X126472820Y-108431715D01*
X126414326Y-108611742D01*
X126394540Y-108799999D01*
X126414326Y-108988257D01*
X126472820Y-109168284D01*
X126567466Y-109332216D01*
X126694129Y-109472889D01*
X126847269Y-109584151D01*
X127020197Y-109661144D01*
X127205352Y-109700500D01*
X127205354Y-109700500D01*
X127394646Y-109700500D01*
X127394648Y-109700500D01*
X127557385Y-109665909D01*
X127579803Y-109661144D01*
X127752730Y-109584151D01*
X127766449Y-109574183D01*
X127801018Y-109556569D01*
X127839337Y-109550500D01*
X130084217Y-109550500D01*
X130131670Y-109559939D01*
X130171898Y-109586819D01*
X133107449Y-112522370D01*
X133109642Y-112524619D01*
X133161717Y-112579402D01*
X133169941Y-112588053D01*
X133218358Y-112621752D01*
X133225865Y-112627413D01*
X133271593Y-112664698D01*
X133298556Y-112678782D01*
X133311980Y-112686915D01*
X133336951Y-112704295D01*
X133389818Y-112726982D01*
X133391163Y-112727559D01*
X133399663Y-112731595D01*
X133425286Y-112744980D01*
X133451951Y-112758909D01*
X133481196Y-112767277D01*
X133495986Y-112772543D01*
X133503464Y-112775752D01*
X133523942Y-112784540D01*
X133581737Y-112796416D01*
X133590854Y-112798654D01*
X133647582Y-112814887D01*
X133677916Y-112817196D01*
X133693453Y-112819374D01*
X133723259Y-112825500D01*
X133782243Y-112825500D01*
X133791657Y-112825858D01*
X133850477Y-112830337D01*
X133880652Y-112826493D01*
X133896318Y-112825500D01*
X135110217Y-112825500D01*
X135166512Y-112839015D01*
X135210535Y-112876615D01*
X135232690Y-112930102D01*
X135228148Y-112987818D01*
X135197898Y-113037181D01*
X120710248Y-127524830D01*
X120682752Y-127545564D01*
X120675497Y-127549591D01*
X120652407Y-127569412D01*
X120639882Y-127578856D01*
X120614484Y-127595595D01*
X120572782Y-127637297D01*
X120565875Y-127643698D01*
X120521104Y-127682134D01*
X120502480Y-127706194D01*
X120492107Y-127717971D01*
X118512181Y-129697899D01*
X118462818Y-129728149D01*
X118405102Y-129732691D01*
X118351615Y-129710536D01*
X118314015Y-129666513D01*
X118300500Y-129610218D01*
X118300500Y-128364279D01*
X118300540Y-128361137D01*
X118302757Y-128273638D01*
X118292350Y-128215574D01*
X118291041Y-128206242D01*
X118288571Y-128181954D01*
X118285074Y-128147562D01*
X118275964Y-128118528D01*
X118272227Y-128103305D01*
X118266858Y-128073347D01*
X118244969Y-128018549D01*
X118241816Y-128009689D01*
X118224160Y-127953415D01*
X118224159Y-127953414D01*
X118224159Y-127953412D01*
X118209396Y-127926816D01*
X118202663Y-127912636D01*
X118191379Y-127884385D01*
X118191378Y-127884383D01*
X118158901Y-127835106D01*
X118154040Y-127827082D01*
X118125409Y-127775498D01*
X118125408Y-127775496D01*
X118105593Y-127752415D01*
X118096144Y-127739883D01*
X118079402Y-127714481D01*
X118037699Y-127672779D01*
X118031292Y-127665866D01*
X117992865Y-127621103D01*
X117968802Y-127602477D01*
X117957022Y-127592102D01*
X110127101Y-119762181D01*
X110096851Y-119712818D01*
X110092309Y-119655102D01*
X110114464Y-119601615D01*
X110158487Y-119564015D01*
X110214782Y-119550500D01*
X110760663Y-119550500D01*
X110798982Y-119556569D01*
X110833550Y-119574183D01*
X110847271Y-119584152D01*
X111020197Y-119661144D01*
X111205352Y-119700500D01*
X111205354Y-119700500D01*
X111394646Y-119700500D01*
X111394648Y-119700500D01*
X111525996Y-119672581D01*
X111579803Y-119661144D01*
X111752730Y-119584151D01*
X111905871Y-119472888D01*
X112032533Y-119332216D01*
X112127179Y-119168284D01*
X112185674Y-118988256D01*
X112205460Y-118800000D01*
X112185674Y-118611744D01*
X112127179Y-118431716D01*
X112127179Y-118431715D01*
X112032533Y-118267783D01*
X111905870Y-118127110D01*
X111752730Y-118015848D01*
X111579802Y-117938855D01*
X111394648Y-117899500D01*
X111394646Y-117899500D01*
X111205354Y-117899500D01*
X111205352Y-117899500D01*
X111020197Y-117938855D01*
X110847271Y-118015847D01*
X110833550Y-118025817D01*
X110798982Y-118043431D01*
X110760663Y-118049500D01*
X108490783Y-118049500D01*
X108443330Y-118040061D01*
X108403102Y-118013181D01*
X103402101Y-113012181D01*
X103371851Y-112962818D01*
X103367309Y-112905102D01*
X103389464Y-112851615D01*
X103433487Y-112814015D01*
X103489782Y-112800500D01*
X104835721Y-112800500D01*
X104838862Y-112800539D01*
X104926363Y-112802757D01*
X104984432Y-112792348D01*
X104993736Y-112791043D01*
X105052438Y-112785074D01*
X105081467Y-112775965D01*
X105096700Y-112772226D01*
X105126653Y-112766858D01*
X105181426Y-112744978D01*
X105190301Y-112741819D01*
X105207675Y-112736367D01*
X105246588Y-112724159D01*
X105273194Y-112709390D01*
X105287362Y-112702662D01*
X105315617Y-112691377D01*
X105364879Y-112658909D01*
X105372910Y-112654043D01*
X105424502Y-112625409D01*
X105447587Y-112605589D01*
X105460114Y-112596144D01*
X105485519Y-112579402D01*
X105527251Y-112537668D01*
X105534123Y-112531300D01*
X105578895Y-112492866D01*
X105597524Y-112468798D01*
X105607883Y-112457036D01*
X113337818Y-104727101D01*
X113387182Y-104696851D01*
X113444898Y-104692309D01*
X113498385Y-104714464D01*
X113535985Y-104758487D01*
X113549500Y-104814782D01*
X113549500Y-105265678D01*
X113532887Y-105327678D01*
X113472820Y-105431715D01*
X113414326Y-105611742D01*
X113394540Y-105800000D01*
X113414326Y-105988257D01*
X113472820Y-106168284D01*
X113567466Y-106332216D01*
X113694129Y-106472889D01*
X113847269Y-106584151D01*
X114020197Y-106661144D01*
X114205352Y-106700500D01*
X114205354Y-106700500D01*
X114394646Y-106700500D01*
X114394648Y-106700500D01*
X114518083Y-106674262D01*
X114579803Y-106661144D01*
X114752730Y-106584151D01*
X114905871Y-106472888D01*
X115032533Y-106332216D01*
X115127179Y-106168284D01*
X115185674Y-105988256D01*
X115205460Y-105800000D01*
X115185674Y-105611744D01*
X115127179Y-105431716D01*
X115127179Y-105431715D01*
X115067113Y-105327678D01*
X115050500Y-105265678D01*
X115050500Y-103065783D01*
X115059939Y-103018331D01*
X115086818Y-102978103D01*
X115200306Y-102864613D01*
X115200311Y-102864609D01*
X115210517Y-102854402D01*
X115210519Y-102854402D01*
X117997389Y-100067529D01*
X117999559Y-100065413D01*
X118063053Y-100005059D01*
X118096759Y-99956630D01*
X118102428Y-99949113D01*
X118139698Y-99903407D01*
X118153783Y-99876439D01*
X118161918Y-99863015D01*
X118168373Y-99853740D01*
X118179295Y-99838049D01*
X118202568Y-99783815D01*
X118206598Y-99775331D01*
X118233908Y-99723051D01*
X118233909Y-99723049D01*
X118242278Y-99693797D01*
X118247534Y-99679032D01*
X118259540Y-99651058D01*
X118271418Y-99593256D01*
X118273651Y-99584156D01*
X118289887Y-99527418D01*
X118292197Y-99497077D01*
X118294376Y-99481535D01*
X118300500Y-99451741D01*
X118300500Y-99392758D01*
X118300858Y-99383344D01*
X118300964Y-99381946D01*
X118305337Y-99324524D01*
X118301493Y-99294348D01*
X118300500Y-99278683D01*
X118300500Y-98014783D01*
X118314015Y-97958488D01*
X118351615Y-97914465D01*
X118405102Y-97892310D01*
X118462818Y-97896852D01*
G37*
%TD.AperFunction*%
%TA.AperFunction,Conductor*%
G36*
X122637318Y-94791021D02*
G01*
X122686681Y-94821271D01*
X138388181Y-110522772D01*
X138415061Y-110563000D01*
X138424500Y-110610453D01*
X138424500Y-110615603D01*
X138410194Y-110673424D01*
X138370577Y-110717903D01*
X138314790Y-110738777D01*
X138255706Y-110731229D01*
X138148073Y-110689531D01*
X138148070Y-110689530D01*
X138148069Y-110689530D01*
X137933926Y-110649500D01*
X137716074Y-110649500D01*
X137531033Y-110684090D01*
X137501926Y-110689531D01*
X137298791Y-110768226D01*
X137237903Y-110805927D01*
X137172626Y-110824500D01*
X134290782Y-110824500D01*
X134243329Y-110815061D01*
X134203101Y-110788181D01*
X131843632Y-108428712D01*
X131843628Y-108428706D01*
X119903236Y-96488316D01*
X119873808Y-96441396D01*
X119867743Y-96386345D01*
X119886251Y-96334144D01*
X119925640Y-96295208D01*
X119943315Y-96284263D01*
X120011432Y-96242088D01*
X120022781Y-96231741D01*
X120083701Y-96201458D01*
X120151435Y-96207877D01*
X120205586Y-96249067D01*
X120267810Y-96332188D01*
X120382910Y-96418352D01*
X120517624Y-96468597D01*
X120577176Y-96475000D01*
X121050000Y-96475000D01*
X121050000Y-95550000D01*
X121550000Y-95550000D01*
X121550000Y-96475000D01*
X122022824Y-96475000D01*
X122082375Y-96468597D01*
X122217089Y-96418352D01*
X122332188Y-96332188D01*
X122418352Y-96217089D01*
X122468597Y-96082375D01*
X122475000Y-96022824D01*
X122475000Y-95550000D01*
X121550000Y-95550000D01*
X121050000Y-95550000D01*
X121050000Y-95174000D01*
X121066613Y-95112000D01*
X121112000Y-95066613D01*
X121174000Y-95050000D01*
X122475000Y-95050000D01*
X122475000Y-94908952D01*
X122488515Y-94852657D01*
X122526115Y-94808634D01*
X122579602Y-94786479D01*
X122637318Y-94791021D01*
G37*
%TD.AperFunction*%
%TA.AperFunction,Conductor*%
G36*
X116126274Y-94708416D02*
G01*
X116182259Y-94748690D01*
X116208068Y-94812644D01*
X116199160Y-94861587D01*
X116202327Y-94862489D01*
X116139564Y-95083074D01*
X116119464Y-95299999D01*
X116139564Y-95516925D01*
X116199181Y-95726457D01*
X116286500Y-95901815D01*
X116299500Y-95957087D01*
X116299500Y-98884217D01*
X116290061Y-98931670D01*
X116263181Y-98971898D01*
X113939481Y-101295598D01*
X104471899Y-110763181D01*
X104431671Y-110790061D01*
X104384218Y-110799500D01*
X101427374Y-110799500D01*
X101362097Y-110780927D01*
X101301208Y-110743226D01*
X101098073Y-110664531D01*
X101098070Y-110664530D01*
X101098069Y-110664530D01*
X100883926Y-110624500D01*
X100666074Y-110624500D01*
X100532335Y-110649500D01*
X100451930Y-110664530D01*
X100376695Y-110693677D01*
X100310243Y-110700144D01*
X100250070Y-110671215D01*
X100213621Y-110615277D01*
X100211462Y-110548546D01*
X100244218Y-110490371D01*
X115997031Y-94737559D01*
X116057433Y-94704279D01*
X116126274Y-94708416D01*
G37*
%TD.AperFunction*%
%TA.AperFunction,Conductor*%
G36*
X134302562Y-93800605D02*
G01*
X134517600Y-93809500D01*
X134713455Y-93818052D01*
X134723330Y-93818881D01*
X134936706Y-93845479D01*
X134936793Y-93845490D01*
X135134945Y-93871577D01*
X135144192Y-93873153D01*
X135353521Y-93917044D01*
X135354765Y-93917312D01*
X135550386Y-93960680D01*
X135558901Y-93962889D01*
X135763665Y-94023850D01*
X135765325Y-94024359D01*
X135956696Y-94084698D01*
X135964453Y-94087431D01*
X136163363Y-94165046D01*
X136165513Y-94165911D01*
X136351024Y-94242752D01*
X136357972Y-94245886D01*
X136525903Y-94327982D01*
X136549587Y-94339561D01*
X136552383Y-94340972D01*
X136730420Y-94433652D01*
X136736636Y-94437118D01*
X136919793Y-94546255D01*
X136922929Y-94548187D01*
X136986491Y-94588681D01*
X137092282Y-94656078D01*
X137097710Y-94659741D01*
X137271184Y-94783599D01*
X137274616Y-94786140D01*
X137433912Y-94908372D01*
X137438567Y-94912126D01*
X137601226Y-95049891D01*
X137604838Y-95053072D01*
X137752925Y-95188769D01*
X137756807Y-95192486D01*
X137907512Y-95343191D01*
X137911232Y-95347076D01*
X138046921Y-95495155D01*
X138050107Y-95498772D01*
X138187872Y-95661431D01*
X138191626Y-95666086D01*
X138313858Y-95825382D01*
X138316399Y-95828814D01*
X138440257Y-96002288D01*
X138443920Y-96007716D01*
X138551800Y-96177052D01*
X138553743Y-96180205D01*
X138662880Y-96363362D01*
X138666346Y-96369578D01*
X138759026Y-96547615D01*
X138760437Y-96550411D01*
X138854099Y-96741997D01*
X138857260Y-96749005D01*
X138934051Y-96934395D01*
X138934991Y-96936734D01*
X138940797Y-96951610D01*
X139012559Y-97135523D01*
X139015302Y-97143309D01*
X139075602Y-97334554D01*
X139076186Y-97336460D01*
X139137105Y-97541084D01*
X139139321Y-97549627D01*
X139182671Y-97745166D01*
X139182971Y-97746559D01*
X139226844Y-97955802D01*
X139228422Y-97965062D01*
X139254459Y-98162829D01*
X139254568Y-98163677D01*
X139281114Y-98376641D01*
X139281948Y-98386570D01*
X139290513Y-98582728D01*
X139290525Y-98583013D01*
X139299394Y-98797438D01*
X139299500Y-98802562D01*
X139299500Y-109365547D01*
X139285985Y-109421842D01*
X139248385Y-109465865D01*
X139194898Y-109488020D01*
X139137182Y-109483478D01*
X139087819Y-109453228D01*
X127502355Y-97867764D01*
X133445787Y-97867764D01*
X133475413Y-98137016D01*
X133486898Y-98180946D01*
X133543928Y-98399088D01*
X133649870Y-98648390D01*
X133649871Y-98648392D01*
X133790982Y-98879611D01*
X133880253Y-98986881D01*
X133964255Y-99087820D01*
X134165998Y-99268582D01*
X134391910Y-99418044D01*
X134463790Y-99451740D01*
X134637177Y-99533021D01*
X134896562Y-99611058D01*
X134896569Y-99611060D01*
X135164561Y-99650500D01*
X135367631Y-99650500D01*
X135367634Y-99650500D01*
X135570156Y-99635677D01*
X135570156Y-99635676D01*
X135834553Y-99576780D01*
X136087558Y-99480014D01*
X136323777Y-99347441D01*
X136538177Y-99181888D01*
X136726186Y-98986881D01*
X136883799Y-98766579D01*
X137007656Y-98525675D01*
X137095118Y-98269305D01*
X137144319Y-98002933D01*
X137154212Y-97732235D01*
X137124586Y-97462982D01*
X137056072Y-97200912D01*
X136950130Y-96951610D01*
X136809018Y-96720390D01*
X136809017Y-96720388D01*
X136635746Y-96512181D01*
X136594249Y-96475000D01*
X136434002Y-96331418D01*
X136208090Y-96181956D01*
X136197629Y-96177052D01*
X135962822Y-96066978D01*
X135703437Y-95988941D01*
X135703431Y-95988940D01*
X135435439Y-95949500D01*
X135232369Y-95949500D01*
X135232366Y-95949500D01*
X135029843Y-95964322D01*
X134765449Y-96023219D01*
X134512441Y-96119986D01*
X134276223Y-96252559D01*
X134061825Y-96418109D01*
X133873813Y-96613120D01*
X133716201Y-96833420D01*
X133592342Y-97074329D01*
X133504881Y-97330695D01*
X133455680Y-97597066D01*
X133445787Y-97867764D01*
X127502355Y-97867764D01*
X123646772Y-94012181D01*
X123616522Y-93962818D01*
X123611980Y-93905102D01*
X123634135Y-93851615D01*
X123678158Y-93814015D01*
X123734453Y-93800500D01*
X134297439Y-93800500D01*
X134302562Y-93800605D01*
G37*
%TD.AperFunction*%
%TA.AperFunction,Conductor*%
G36*
X114921843Y-93814015D02*
G01*
X114965866Y-93851615D01*
X114988021Y-93905102D01*
X114983479Y-93962818D01*
X114953229Y-94012181D01*
X99512181Y-109453228D01*
X99462818Y-109483478D01*
X99405102Y-109488020D01*
X99351615Y-109465865D01*
X99314015Y-109421842D01*
X99300500Y-109365547D01*
X99300500Y-98802561D01*
X99300606Y-98797437D01*
X99301882Y-98766579D01*
X99309488Y-98582687D01*
X99318052Y-98386540D01*
X99318881Y-98376673D01*
X99345491Y-98163195D01*
X99371578Y-97965045D01*
X99373151Y-97955816D01*
X99391613Y-97867764D01*
X101445787Y-97867764D01*
X101475413Y-98137016D01*
X101486898Y-98180946D01*
X101543928Y-98399088D01*
X101649870Y-98648390D01*
X101649871Y-98648392D01*
X101790982Y-98879611D01*
X101880253Y-98986881D01*
X101964255Y-99087820D01*
X102165998Y-99268582D01*
X102391910Y-99418044D01*
X102463790Y-99451740D01*
X102637177Y-99533021D01*
X102896562Y-99611058D01*
X102896569Y-99611060D01*
X103164561Y-99650500D01*
X103367631Y-99650500D01*
X103367634Y-99650500D01*
X103570156Y-99635677D01*
X103570156Y-99635676D01*
X103834553Y-99576780D01*
X104087558Y-99480014D01*
X104323777Y-99347441D01*
X104538177Y-99181888D01*
X104726186Y-98986881D01*
X104883799Y-98766579D01*
X105007656Y-98525675D01*
X105095118Y-98269305D01*
X105144319Y-98002933D01*
X105154212Y-97732235D01*
X105124586Y-97462982D01*
X105056072Y-97200912D01*
X104950130Y-96951610D01*
X104809018Y-96720390D01*
X104809017Y-96720388D01*
X104635746Y-96512181D01*
X104594249Y-96475000D01*
X104434002Y-96331418D01*
X104208090Y-96181956D01*
X104197629Y-96177052D01*
X103962822Y-96066978D01*
X103703437Y-95988941D01*
X103703431Y-95988940D01*
X103435439Y-95949500D01*
X103232369Y-95949500D01*
X103232366Y-95949500D01*
X103029843Y-95964322D01*
X102765449Y-96023219D01*
X102512441Y-96119986D01*
X102276223Y-96252559D01*
X102061825Y-96418109D01*
X101873813Y-96613120D01*
X101716201Y-96833420D01*
X101592342Y-97074329D01*
X101504881Y-97330695D01*
X101455680Y-97597066D01*
X101445787Y-97867764D01*
X99391613Y-97867764D01*
X99417062Y-97746392D01*
X99417297Y-97745302D01*
X99460684Y-97549599D01*
X99462885Y-97541111D01*
X99523875Y-97336253D01*
X99524337Y-97334743D01*
X99584704Y-97143284D01*
X99587423Y-97135565D01*
X99665074Y-96936564D01*
X99665883Y-96934553D01*
X99742762Y-96748951D01*
X99745874Y-96742051D01*
X99839587Y-96550357D01*
X99840945Y-96547667D01*
X99933667Y-96369551D01*
X99937118Y-96363362D01*
X99941045Y-96356772D01*
X100046295Y-96180139D01*
X100048150Y-96177129D01*
X100156090Y-96007697D01*
X100159721Y-96002316D01*
X100283635Y-95828764D01*
X100286102Y-95825433D01*
X100408401Y-95666048D01*
X100412114Y-95661445D01*
X100549903Y-95498758D01*
X100553027Y-95495211D01*
X100688811Y-95347028D01*
X100692440Y-95343238D01*
X100843238Y-95192440D01*
X100847028Y-95188811D01*
X100995211Y-95053027D01*
X100998758Y-95049903D01*
X101161445Y-94912114D01*
X101166048Y-94908401D01*
X101325433Y-94786102D01*
X101328764Y-94783635D01*
X101502316Y-94659721D01*
X101507697Y-94656090D01*
X101677129Y-94548150D01*
X101680139Y-94546295D01*
X101863373Y-94437111D01*
X101869551Y-94433667D01*
X102047667Y-94340945D01*
X102050357Y-94339587D01*
X102242051Y-94245874D01*
X102248951Y-94242762D01*
X102434553Y-94165883D01*
X102436564Y-94165074D01*
X102635565Y-94087423D01*
X102643284Y-94084704D01*
X102834743Y-94024337D01*
X102836253Y-94023875D01*
X103041111Y-93962885D01*
X103049599Y-93960684D01*
X103245302Y-93917297D01*
X103246392Y-93917062D01*
X103455816Y-93873151D01*
X103465045Y-93871578D01*
X103663195Y-93845491D01*
X103876673Y-93818881D01*
X103886540Y-93818052D01*
X104082628Y-93809490D01*
X104297437Y-93800605D01*
X104302561Y-93800500D01*
X114865548Y-93800500D01*
X114921843Y-93814015D01*
G37*
%TD.AperFunction*%
%TD*%
%TA.AperFunction,Conductor*%
%TO.N,GND*%
G36*
X184248385Y-72884134D02*
G01*
X184285985Y-72928157D01*
X184299500Y-72984452D01*
X184299500Y-83797438D01*
X184299394Y-83802563D01*
X184290525Y-84016987D01*
X184290513Y-84017271D01*
X184281948Y-84213428D01*
X184281114Y-84223357D01*
X184254568Y-84436321D01*
X184254459Y-84437169D01*
X184228422Y-84634936D01*
X184226844Y-84644196D01*
X184182971Y-84853439D01*
X184182671Y-84854832D01*
X184139321Y-85050371D01*
X184137105Y-85058914D01*
X184076186Y-85263538D01*
X184075602Y-85265444D01*
X184015302Y-85456689D01*
X184012559Y-85464475D01*
X183935008Y-85663224D01*
X183934051Y-85665603D01*
X183857260Y-85850993D01*
X183854099Y-85858001D01*
X183760437Y-86049587D01*
X183759026Y-86052383D01*
X183666346Y-86230420D01*
X183662880Y-86236636D01*
X183553743Y-86419793D01*
X183551800Y-86422946D01*
X183443920Y-86592282D01*
X183440257Y-86597710D01*
X183316399Y-86771184D01*
X183313858Y-86774616D01*
X183191626Y-86933912D01*
X183187872Y-86938567D01*
X183050107Y-87101226D01*
X183046908Y-87104858D01*
X182911254Y-87252899D01*
X182907512Y-87256807D01*
X182756807Y-87407512D01*
X182752899Y-87411254D01*
X182604858Y-87546908D01*
X182601226Y-87550107D01*
X182438567Y-87687872D01*
X182433912Y-87691626D01*
X182274616Y-87813858D01*
X182271184Y-87816399D01*
X182097710Y-87940257D01*
X182092282Y-87943920D01*
X181922946Y-88051800D01*
X181919793Y-88053743D01*
X181736636Y-88162880D01*
X181730420Y-88166346D01*
X181552383Y-88259026D01*
X181549587Y-88260437D01*
X181358001Y-88354099D01*
X181350993Y-88357260D01*
X181165603Y-88434051D01*
X181163224Y-88435008D01*
X180964475Y-88512559D01*
X180956689Y-88515302D01*
X180765444Y-88575602D01*
X180763538Y-88576186D01*
X180558914Y-88637105D01*
X180550371Y-88639321D01*
X180354832Y-88682671D01*
X180353439Y-88682971D01*
X180144196Y-88726844D01*
X180134936Y-88728422D01*
X179937169Y-88754459D01*
X179936321Y-88754568D01*
X179723357Y-88781114D01*
X179713428Y-88781948D01*
X179517381Y-88790508D01*
X179517097Y-88790520D01*
X179302563Y-88799394D01*
X179297438Y-88799500D01*
X168484452Y-88799500D01*
X168428157Y-88785985D01*
X168384134Y-88748385D01*
X168361979Y-88694898D01*
X168366521Y-88637182D01*
X168396771Y-88587819D01*
X170285315Y-86699275D01*
X172116825Y-84867764D01*
X178445787Y-84867764D01*
X178475413Y-85137016D01*
X178475414Y-85137018D01*
X178543928Y-85399088D01*
X178597720Y-85525670D01*
X178649871Y-85648392D01*
X178790982Y-85879611D01*
X178880253Y-85986881D01*
X178964255Y-86087820D01*
X179165998Y-86268582D01*
X179391910Y-86418044D01*
X179498211Y-86467875D01*
X179637177Y-86533021D01*
X179896562Y-86611058D01*
X179896569Y-86611060D01*
X180164561Y-86650500D01*
X180367631Y-86650500D01*
X180367634Y-86650500D01*
X180570156Y-86635677D01*
X180570156Y-86635676D01*
X180834553Y-86576780D01*
X181087558Y-86480014D01*
X181323777Y-86347441D01*
X181538177Y-86181888D01*
X181726186Y-85986881D01*
X181883799Y-85766579D01*
X182007656Y-85525675D01*
X182095118Y-85269305D01*
X182144319Y-85002933D01*
X182154212Y-84732235D01*
X182124586Y-84462982D01*
X182056072Y-84200912D01*
X181950130Y-83951610D01*
X181859168Y-83802563D01*
X181809017Y-83720388D01*
X181635746Y-83512181D01*
X181545941Y-83431716D01*
X181434002Y-83331418D01*
X181208090Y-83181956D01*
X181168383Y-83163342D01*
X180962822Y-83066978D01*
X180703437Y-82988941D01*
X180703431Y-82988940D01*
X180435439Y-82949500D01*
X180232369Y-82949500D01*
X180232366Y-82949500D01*
X180029843Y-82964322D01*
X179765449Y-83023219D01*
X179512441Y-83119986D01*
X179276223Y-83252559D01*
X179061825Y-83418109D01*
X178873813Y-83613120D01*
X178716201Y-83833420D01*
X178592342Y-84074329D01*
X178504881Y-84330695D01*
X178455680Y-84597066D01*
X178445787Y-84867764D01*
X172116825Y-84867764D01*
X172192200Y-84792389D01*
X172210178Y-84777517D01*
X172216938Y-84772924D01*
X172253631Y-84731301D01*
X172258934Y-84725655D01*
X172270120Y-84714471D01*
X172270121Y-84714468D01*
X172280906Y-84703685D01*
X172280913Y-84703675D01*
X184087818Y-72896771D01*
X184137182Y-72866521D01*
X184194898Y-72861979D01*
X184248385Y-72884134D01*
G37*
%TD.AperFunction*%
%TA.AperFunction,Conductor*%
G36*
X144462818Y-77866521D02*
G01*
X144512181Y-77896771D01*
X155203229Y-88587819D01*
X155233479Y-88637182D01*
X155238021Y-88694898D01*
X155215866Y-88748385D01*
X155171843Y-88785985D01*
X155115548Y-88799500D01*
X149302562Y-88799500D01*
X149297437Y-88799394D01*
X149082901Y-88790520D01*
X149082617Y-88790508D01*
X148886570Y-88781948D01*
X148876641Y-88781114D01*
X148663677Y-88754568D01*
X148662829Y-88754459D01*
X148465062Y-88728422D01*
X148455802Y-88726844D01*
X148246559Y-88682971D01*
X148245166Y-88682671D01*
X148049627Y-88639321D01*
X148041084Y-88637105D01*
X147836460Y-88576186D01*
X147834554Y-88575602D01*
X147643309Y-88515302D01*
X147635523Y-88512559D01*
X147506985Y-88462404D01*
X147436734Y-88434991D01*
X147434395Y-88434051D01*
X147249005Y-88357260D01*
X147241997Y-88354099D01*
X147050411Y-88260437D01*
X147047615Y-88259026D01*
X146869578Y-88166346D01*
X146863362Y-88162880D01*
X146680205Y-88053743D01*
X146677052Y-88051800D01*
X146507716Y-87943920D01*
X146502288Y-87940257D01*
X146328814Y-87816399D01*
X146325382Y-87813858D01*
X146166086Y-87691626D01*
X146161431Y-87687872D01*
X145998772Y-87550107D01*
X145995155Y-87546921D01*
X145847076Y-87411232D01*
X145843191Y-87407512D01*
X145692486Y-87256807D01*
X145688769Y-87252925D01*
X145553072Y-87104838D01*
X145549891Y-87101226D01*
X145412126Y-86938567D01*
X145408372Y-86933912D01*
X145286140Y-86774616D01*
X145283599Y-86771184D01*
X145159741Y-86597710D01*
X145156078Y-86592282D01*
X145048198Y-86422946D01*
X145046255Y-86419793D01*
X145045213Y-86418045D01*
X144970591Y-86292812D01*
X144937118Y-86236636D01*
X144933652Y-86230420D01*
X144840972Y-86052383D01*
X144839561Y-86049587D01*
X144827982Y-86025903D01*
X144745886Y-85857972D01*
X144742752Y-85851024D01*
X144665911Y-85665513D01*
X144665046Y-85663363D01*
X144587431Y-85464453D01*
X144584696Y-85456689D01*
X144566534Y-85399087D01*
X144524359Y-85265325D01*
X144523850Y-85263665D01*
X144462889Y-85058901D01*
X144460680Y-85050386D01*
X144420194Y-84867764D01*
X146445787Y-84867764D01*
X146475413Y-85137016D01*
X146475414Y-85137018D01*
X146543928Y-85399088D01*
X146597720Y-85525670D01*
X146649871Y-85648392D01*
X146790982Y-85879611D01*
X146880253Y-85986881D01*
X146964255Y-86087820D01*
X147165998Y-86268582D01*
X147391910Y-86418044D01*
X147498211Y-86467875D01*
X147637177Y-86533021D01*
X147896562Y-86611058D01*
X147896569Y-86611060D01*
X148164561Y-86650500D01*
X148367631Y-86650500D01*
X148367634Y-86650500D01*
X148570156Y-86635677D01*
X148570156Y-86635676D01*
X148834553Y-86576780D01*
X149087558Y-86480014D01*
X149323777Y-86347441D01*
X149538177Y-86181888D01*
X149726186Y-85986881D01*
X149883799Y-85766579D01*
X150007656Y-85525675D01*
X150095118Y-85269305D01*
X150144319Y-85002933D01*
X150154212Y-84732235D01*
X150124586Y-84462982D01*
X150056072Y-84200912D01*
X149950130Y-83951610D01*
X149859168Y-83802563D01*
X149809017Y-83720388D01*
X149635746Y-83512181D01*
X149545941Y-83431716D01*
X149434002Y-83331418D01*
X149208090Y-83181956D01*
X149168383Y-83163342D01*
X148962822Y-83066978D01*
X148703437Y-82988941D01*
X148703431Y-82988940D01*
X148435439Y-82949500D01*
X148232369Y-82949500D01*
X148232366Y-82949500D01*
X148029843Y-82964322D01*
X147765449Y-83023219D01*
X147512441Y-83119986D01*
X147276223Y-83252559D01*
X147061825Y-83418109D01*
X146873813Y-83613120D01*
X146716201Y-83833420D01*
X146592342Y-84074329D01*
X146504881Y-84330695D01*
X146455680Y-84597066D01*
X146445787Y-84867764D01*
X144420194Y-84867764D01*
X144417312Y-84854765D01*
X144417027Y-84853439D01*
X144411495Y-84827057D01*
X144373153Y-84644192D01*
X144371576Y-84634936D01*
X144368322Y-84610218D01*
X144345490Y-84436793D01*
X144345483Y-84436743D01*
X144318881Y-84223330D01*
X144318052Y-84213455D01*
X144309486Y-84017271D01*
X144300605Y-83802562D01*
X144300500Y-83797439D01*
X144300500Y-77984452D01*
X144314015Y-77928157D01*
X144351615Y-77884134D01*
X144405102Y-77861979D01*
X144462818Y-77866521D01*
G37*
%TD.AperFunction*%
%TA.AperFunction,Conductor*%
G36*
X146966745Y-69406666D02*
G01*
X152174830Y-74614751D01*
X152195566Y-74642252D01*
X152199589Y-74649499D01*
X152199591Y-74649502D01*
X152219404Y-74672581D01*
X152228856Y-74685116D01*
X152245599Y-74710520D01*
X152287300Y-74752221D01*
X152293705Y-74759132D01*
X152332134Y-74803896D01*
X152356193Y-74822519D01*
X152367972Y-74832893D01*
X161263181Y-83728101D01*
X161290061Y-83768329D01*
X161299500Y-83815782D01*
X161299500Y-86667913D01*
X161286500Y-86723185D01*
X161199181Y-86898542D01*
X161139564Y-87108074D01*
X161119464Y-87325000D01*
X161139564Y-87541925D01*
X161202327Y-87762511D01*
X161199873Y-87763208D01*
X161208948Y-87806230D01*
X161190506Y-87865779D01*
X161145418Y-87908830D01*
X161085080Y-87924500D01*
X156360452Y-87924500D01*
X156312999Y-87915061D01*
X156272771Y-87888181D01*
X145086819Y-76702228D01*
X145059939Y-76662000D01*
X145050500Y-76614547D01*
X145050500Y-72099000D01*
X145067113Y-72037000D01*
X145112500Y-71991613D01*
X145174500Y-71975000D01*
X145525000Y-71975000D01*
X145525000Y-71050000D01*
X146025000Y-71050000D01*
X146025000Y-71975000D01*
X146497824Y-71975000D01*
X146557375Y-71968597D01*
X146692089Y-71918352D01*
X146807188Y-71832188D01*
X146893352Y-71717089D01*
X146943597Y-71582375D01*
X146950000Y-71522824D01*
X146950000Y-71050000D01*
X146025000Y-71050000D01*
X145525000Y-71050000D01*
X145525000Y-70674000D01*
X145541613Y-70612000D01*
X145587000Y-70566613D01*
X145649000Y-70550000D01*
X146950000Y-70550000D01*
X146950000Y-70077176D01*
X146943597Y-70017624D01*
X146893352Y-69882910D01*
X146807188Y-69767811D01*
X146721594Y-69703735D01*
X146681848Y-69653121D01*
X146672824Y-69589402D01*
X146696951Y-69529742D01*
X146780110Y-69419621D01*
X146836056Y-69378044D01*
X146905592Y-69373218D01*
X146966745Y-69406666D01*
G37*
%TD.AperFunction*%
%TA.AperFunction,Conductor*%
G36*
X181763943Y-69403043D02*
G01*
X181819889Y-69444620D01*
X181903048Y-69554741D01*
X181927175Y-69614401D01*
X181918151Y-69678119D01*
X181878406Y-69728733D01*
X181792811Y-69792809D01*
X181706647Y-69907910D01*
X181656402Y-70042624D01*
X181650000Y-70102176D01*
X181650000Y-70575000D01*
X182951000Y-70575000D01*
X183013000Y-70591613D01*
X183058387Y-70637000D01*
X183075000Y-70699000D01*
X183075000Y-72012793D01*
X183089617Y-72038110D01*
X183089617Y-72102298D01*
X183057523Y-72157885D01*
X172084700Y-83130707D01*
X172027019Y-83163342D01*
X171960769Y-83161609D01*
X171917118Y-83133803D01*
X171916415Y-83134772D01*
X171752730Y-83015848D01*
X171579802Y-82938855D01*
X171394648Y-82899500D01*
X171394646Y-82899500D01*
X171205354Y-82899500D01*
X171205352Y-82899500D01*
X171020197Y-82938855D01*
X170847269Y-83015848D01*
X170694129Y-83127110D01*
X170567466Y-83267783D01*
X170472820Y-83431715D01*
X170414326Y-83611742D01*
X170394540Y-83800000D01*
X170414326Y-83988257D01*
X170472820Y-84168284D01*
X170567466Y-84332216D01*
X170638318Y-84410905D01*
X170666990Y-84465983D01*
X170665364Y-84528056D01*
X170633849Y-84581558D01*
X167645385Y-87570023D01*
X167589798Y-87602117D01*
X167525610Y-87602117D01*
X167478643Y-87575000D01*
X166174000Y-87575000D01*
X166112000Y-87558387D01*
X166066613Y-87513000D01*
X166050000Y-87451000D01*
X166050000Y-86150000D01*
X166550000Y-86150000D01*
X166550000Y-87075000D01*
X167475000Y-87075000D01*
X167475000Y-86602176D01*
X167468597Y-86542624D01*
X167418352Y-86407910D01*
X167332188Y-86292811D01*
X167217089Y-86206647D01*
X167082375Y-86156402D01*
X167022824Y-86150000D01*
X166550000Y-86150000D01*
X166050000Y-86150000D01*
X165577176Y-86150000D01*
X165517624Y-86156402D01*
X165382910Y-86206647D01*
X165267808Y-86292812D01*
X165205585Y-86375932D01*
X165151435Y-86417122D01*
X165083703Y-86423541D01*
X165022780Y-86393257D01*
X165011433Y-86382913D01*
X165011432Y-86382912D01*
X164954144Y-86347441D01*
X164925639Y-86329791D01*
X164886251Y-86290855D01*
X164867743Y-86238654D01*
X164873808Y-86183602D01*
X164903234Y-86136685D01*
X166814753Y-84225166D01*
X166842254Y-84204431D01*
X166849502Y-84200409D01*
X166872587Y-84180589D01*
X166885114Y-84171144D01*
X166910519Y-84154402D01*
X166952251Y-84112668D01*
X166959123Y-84106300D01*
X167003895Y-84067866D01*
X167022519Y-84043803D01*
X167032880Y-84032039D01*
X179989919Y-71075000D01*
X181650000Y-71075000D01*
X181650000Y-71547824D01*
X181656402Y-71607375D01*
X181706647Y-71742089D01*
X181792811Y-71857188D01*
X181907910Y-71943352D01*
X182042624Y-71993597D01*
X182102176Y-72000000D01*
X182575000Y-72000000D01*
X182575000Y-71075000D01*
X181650000Y-71075000D01*
X179989919Y-71075000D01*
X181633256Y-69431663D01*
X181694407Y-69398217D01*
X181763943Y-69403043D01*
G37*
%TD.AperFunction*%
%TA.AperFunction,Conductor*%
G36*
X163462818Y-52896852D02*
G01*
X163512181Y-52927102D01*
X173422898Y-62837819D01*
X173453148Y-62887182D01*
X173457690Y-62944898D01*
X173435535Y-62998385D01*
X173391512Y-63035985D01*
X173335217Y-63049500D01*
X172839337Y-63049500D01*
X172801018Y-63043431D01*
X172766450Y-63025817D01*
X172752728Y-63015847D01*
X172579802Y-62938855D01*
X172394648Y-62899500D01*
X172394646Y-62899500D01*
X172205354Y-62899500D01*
X172205352Y-62899500D01*
X172020197Y-62938855D01*
X171847269Y-63015848D01*
X171694129Y-63127110D01*
X171567466Y-63267783D01*
X171472820Y-63431715D01*
X171414326Y-63611742D01*
X171394540Y-63799999D01*
X171414326Y-63988257D01*
X171472820Y-64168284D01*
X171567466Y-64332216D01*
X171694129Y-64472889D01*
X171847269Y-64584151D01*
X172020197Y-64661144D01*
X172205352Y-64700500D01*
X172205354Y-64700500D01*
X172394646Y-64700500D01*
X172394648Y-64700500D01*
X172557385Y-64665909D01*
X172579803Y-64661144D01*
X172752730Y-64584151D01*
X172766449Y-64574183D01*
X172801018Y-64556569D01*
X172839337Y-64550500D01*
X175084217Y-64550500D01*
X175131670Y-64559939D01*
X175171898Y-64586819D01*
X178107449Y-67522370D01*
X178109642Y-67524619D01*
X178161717Y-67579402D01*
X178169941Y-67588053D01*
X178218358Y-67621752D01*
X178225865Y-67627413D01*
X178271593Y-67664698D01*
X178298556Y-67678782D01*
X178311980Y-67686915D01*
X178336951Y-67704295D01*
X178389818Y-67726982D01*
X178391163Y-67727559D01*
X178399663Y-67731595D01*
X178425286Y-67744980D01*
X178451951Y-67758909D01*
X178481196Y-67767277D01*
X178495986Y-67772543D01*
X178503464Y-67775752D01*
X178523942Y-67784540D01*
X178581737Y-67796416D01*
X178590854Y-67798654D01*
X178647582Y-67814887D01*
X178677916Y-67817196D01*
X178693453Y-67819374D01*
X178723259Y-67825500D01*
X178782243Y-67825500D01*
X178791657Y-67825858D01*
X178850477Y-67830337D01*
X178880652Y-67826493D01*
X178896318Y-67825500D01*
X180110217Y-67825500D01*
X180166512Y-67839015D01*
X180210535Y-67876615D01*
X180232690Y-67930102D01*
X180228148Y-67987818D01*
X180197898Y-68037181D01*
X165710248Y-82524830D01*
X165682752Y-82545564D01*
X165675497Y-82549591D01*
X165652407Y-82569412D01*
X165639882Y-82578856D01*
X165614484Y-82595595D01*
X165572782Y-82637297D01*
X165565875Y-82643698D01*
X165521104Y-82682134D01*
X165502480Y-82706194D01*
X165492107Y-82717971D01*
X163512181Y-84697899D01*
X163462818Y-84728149D01*
X163405102Y-84732691D01*
X163351615Y-84710536D01*
X163314015Y-84666513D01*
X163300500Y-84610218D01*
X163300500Y-83364279D01*
X163300540Y-83361137D01*
X163302757Y-83273638D01*
X163292350Y-83215574D01*
X163291041Y-83206242D01*
X163288571Y-83181954D01*
X163285074Y-83147562D01*
X163275964Y-83118528D01*
X163272227Y-83103305D01*
X163266858Y-83073347D01*
X163244969Y-83018549D01*
X163241816Y-83009689D01*
X163224160Y-82953415D01*
X163224159Y-82953414D01*
X163224159Y-82953412D01*
X163209396Y-82926816D01*
X163202663Y-82912636D01*
X163191379Y-82884385D01*
X163191378Y-82884383D01*
X163158901Y-82835106D01*
X163154040Y-82827082D01*
X163125409Y-82775498D01*
X163125408Y-82775496D01*
X163105593Y-82752415D01*
X163096144Y-82739883D01*
X163079402Y-82714481D01*
X163037699Y-82672779D01*
X163031292Y-82665866D01*
X162992865Y-82621103D01*
X162968802Y-82602477D01*
X162957022Y-82592102D01*
X155127101Y-74762181D01*
X155096851Y-74712818D01*
X155092309Y-74655102D01*
X155114464Y-74601615D01*
X155158487Y-74564015D01*
X155214782Y-74550500D01*
X155760663Y-74550500D01*
X155798982Y-74556569D01*
X155833550Y-74574183D01*
X155847271Y-74584152D01*
X156020197Y-74661144D01*
X156205352Y-74700500D01*
X156205354Y-74700500D01*
X156394646Y-74700500D01*
X156394648Y-74700500D01*
X156525996Y-74672581D01*
X156579803Y-74661144D01*
X156752730Y-74584151D01*
X156905871Y-74472888D01*
X157032533Y-74332216D01*
X157127179Y-74168284D01*
X157185674Y-73988256D01*
X157205460Y-73800000D01*
X157185674Y-73611744D01*
X157127179Y-73431716D01*
X157127179Y-73431715D01*
X157032533Y-73267783D01*
X156905870Y-73127110D01*
X156752730Y-73015848D01*
X156579802Y-72938855D01*
X156394648Y-72899500D01*
X156394646Y-72899500D01*
X156205354Y-72899500D01*
X156205352Y-72899500D01*
X156020197Y-72938855D01*
X155847271Y-73015847D01*
X155833550Y-73025817D01*
X155798982Y-73043431D01*
X155760663Y-73049500D01*
X153490783Y-73049500D01*
X153443330Y-73040061D01*
X153403102Y-73013181D01*
X148402101Y-68012181D01*
X148371851Y-67962818D01*
X148367309Y-67905102D01*
X148389464Y-67851615D01*
X148433487Y-67814015D01*
X148489782Y-67800500D01*
X149835721Y-67800500D01*
X149838862Y-67800539D01*
X149926363Y-67802757D01*
X149984432Y-67792348D01*
X149993736Y-67791043D01*
X150052438Y-67785074D01*
X150081467Y-67775965D01*
X150096700Y-67772226D01*
X150126653Y-67766858D01*
X150181426Y-67744978D01*
X150190301Y-67741819D01*
X150207675Y-67736367D01*
X150246588Y-67724159D01*
X150273194Y-67709390D01*
X150287362Y-67702662D01*
X150315617Y-67691377D01*
X150364879Y-67658909D01*
X150372910Y-67654043D01*
X150424502Y-67625409D01*
X150447587Y-67605589D01*
X150460114Y-67596144D01*
X150485519Y-67579402D01*
X150527251Y-67537668D01*
X150534123Y-67531300D01*
X150578895Y-67492866D01*
X150597524Y-67468798D01*
X150607883Y-67457036D01*
X158337818Y-59727101D01*
X158387182Y-59696851D01*
X158444898Y-59692309D01*
X158498385Y-59714464D01*
X158535985Y-59758487D01*
X158549500Y-59814782D01*
X158549500Y-60265678D01*
X158532887Y-60327678D01*
X158472820Y-60431715D01*
X158414326Y-60611742D01*
X158394540Y-60800000D01*
X158414326Y-60988257D01*
X158472820Y-61168284D01*
X158567466Y-61332216D01*
X158694129Y-61472889D01*
X158847269Y-61584151D01*
X159020197Y-61661144D01*
X159205352Y-61700500D01*
X159205354Y-61700500D01*
X159394646Y-61700500D01*
X159394648Y-61700500D01*
X159518083Y-61674262D01*
X159579803Y-61661144D01*
X159752730Y-61584151D01*
X159905871Y-61472888D01*
X160032533Y-61332216D01*
X160127179Y-61168284D01*
X160185674Y-60988256D01*
X160205460Y-60800000D01*
X160185674Y-60611744D01*
X160127179Y-60431716D01*
X160127179Y-60431715D01*
X160067113Y-60327678D01*
X160050500Y-60265678D01*
X160050500Y-58065783D01*
X160059939Y-58018331D01*
X160086818Y-57978103D01*
X160200306Y-57864613D01*
X160200311Y-57864609D01*
X160210517Y-57854402D01*
X160210519Y-57854402D01*
X162997389Y-55067529D01*
X162999559Y-55065413D01*
X163063053Y-55005059D01*
X163096759Y-54956630D01*
X163102428Y-54949113D01*
X163139698Y-54903407D01*
X163153783Y-54876439D01*
X163161918Y-54863015D01*
X163168373Y-54853740D01*
X163179295Y-54838049D01*
X163202568Y-54783815D01*
X163206598Y-54775331D01*
X163233908Y-54723051D01*
X163233909Y-54723049D01*
X163242278Y-54693797D01*
X163247534Y-54679032D01*
X163259540Y-54651058D01*
X163271418Y-54593256D01*
X163273651Y-54584156D01*
X163289887Y-54527418D01*
X163292197Y-54497077D01*
X163294376Y-54481535D01*
X163300500Y-54451741D01*
X163300500Y-54392758D01*
X163300858Y-54383344D01*
X163300964Y-54381946D01*
X163305337Y-54324524D01*
X163301493Y-54294348D01*
X163300500Y-54278683D01*
X163300500Y-53014783D01*
X163314015Y-52958488D01*
X163351615Y-52914465D01*
X163405102Y-52892310D01*
X163462818Y-52896852D01*
G37*
%TD.AperFunction*%
%TA.AperFunction,Conductor*%
G36*
X167637318Y-49791021D02*
G01*
X167686681Y-49821271D01*
X183388181Y-65522772D01*
X183415061Y-65563000D01*
X183424500Y-65610453D01*
X183424500Y-65615603D01*
X183410194Y-65673424D01*
X183370577Y-65717903D01*
X183314790Y-65738777D01*
X183255706Y-65731229D01*
X183148073Y-65689531D01*
X183148070Y-65689530D01*
X183148069Y-65689530D01*
X182933926Y-65649500D01*
X182716074Y-65649500D01*
X182531033Y-65684090D01*
X182501926Y-65689531D01*
X182298791Y-65768226D01*
X182237903Y-65805927D01*
X182172626Y-65824500D01*
X179290782Y-65824500D01*
X179243329Y-65815061D01*
X179203101Y-65788181D01*
X176843632Y-63428712D01*
X176843628Y-63428706D01*
X164903236Y-51488316D01*
X164873808Y-51441396D01*
X164867743Y-51386345D01*
X164886251Y-51334144D01*
X164925640Y-51295208D01*
X164943315Y-51284263D01*
X165011432Y-51242088D01*
X165022781Y-51231741D01*
X165083701Y-51201458D01*
X165151435Y-51207877D01*
X165205586Y-51249067D01*
X165267810Y-51332188D01*
X165382910Y-51418352D01*
X165517624Y-51468597D01*
X165577176Y-51475000D01*
X166050000Y-51475000D01*
X166050000Y-50550000D01*
X166550000Y-50550000D01*
X166550000Y-51475000D01*
X167022824Y-51475000D01*
X167082375Y-51468597D01*
X167217089Y-51418352D01*
X167332188Y-51332188D01*
X167418352Y-51217089D01*
X167468597Y-51082375D01*
X167475000Y-51022824D01*
X167475000Y-50550000D01*
X166550000Y-50550000D01*
X166050000Y-50550000D01*
X166050000Y-50174000D01*
X166066613Y-50112000D01*
X166112000Y-50066613D01*
X166174000Y-50050000D01*
X167475000Y-50050000D01*
X167475000Y-49908952D01*
X167488515Y-49852657D01*
X167526115Y-49808634D01*
X167579602Y-49786479D01*
X167637318Y-49791021D01*
G37*
%TD.AperFunction*%
%TA.AperFunction,Conductor*%
G36*
X161126274Y-49708416D02*
G01*
X161182259Y-49748690D01*
X161208068Y-49812644D01*
X161199160Y-49861587D01*
X161202327Y-49862489D01*
X161139564Y-50083074D01*
X161119464Y-50299999D01*
X161139564Y-50516925D01*
X161199181Y-50726457D01*
X161286500Y-50901815D01*
X161299500Y-50957087D01*
X161299500Y-53884217D01*
X161290061Y-53931670D01*
X161263181Y-53971898D01*
X158939481Y-56295598D01*
X149471899Y-65763181D01*
X149431671Y-65790061D01*
X149384218Y-65799500D01*
X146427374Y-65799500D01*
X146362097Y-65780927D01*
X146301208Y-65743226D01*
X146098073Y-65664531D01*
X146098070Y-65664530D01*
X146098069Y-65664530D01*
X145883926Y-65624500D01*
X145666074Y-65624500D01*
X145532335Y-65649500D01*
X145451930Y-65664530D01*
X145376695Y-65693677D01*
X145310243Y-65700144D01*
X145250070Y-65671215D01*
X145213621Y-65615277D01*
X145211462Y-65548546D01*
X145244218Y-65490371D01*
X160997031Y-49737559D01*
X161057433Y-49704279D01*
X161126274Y-49708416D01*
G37*
%TD.AperFunction*%
%TA.AperFunction,Conductor*%
G36*
X179302562Y-48800605D02*
G01*
X179517600Y-48809500D01*
X179713455Y-48818052D01*
X179723330Y-48818881D01*
X179936706Y-48845479D01*
X179936793Y-48845490D01*
X180134945Y-48871577D01*
X180144192Y-48873153D01*
X180353521Y-48917044D01*
X180354765Y-48917312D01*
X180550386Y-48960680D01*
X180558901Y-48962889D01*
X180763665Y-49023850D01*
X180765325Y-49024359D01*
X180956696Y-49084698D01*
X180964453Y-49087431D01*
X181163363Y-49165046D01*
X181165513Y-49165911D01*
X181351024Y-49242752D01*
X181357972Y-49245886D01*
X181525903Y-49327982D01*
X181549587Y-49339561D01*
X181552383Y-49340972D01*
X181730420Y-49433652D01*
X181736636Y-49437118D01*
X181919793Y-49546255D01*
X181922929Y-49548187D01*
X181986491Y-49588681D01*
X182092282Y-49656078D01*
X182097710Y-49659741D01*
X182271184Y-49783599D01*
X182274616Y-49786140D01*
X182433912Y-49908372D01*
X182438567Y-49912126D01*
X182601226Y-50049891D01*
X182604838Y-50053072D01*
X182752925Y-50188769D01*
X182756807Y-50192486D01*
X182907512Y-50343191D01*
X182911232Y-50347076D01*
X183046921Y-50495155D01*
X183050107Y-50498772D01*
X183187872Y-50661431D01*
X183191626Y-50666086D01*
X183313858Y-50825382D01*
X183316399Y-50828814D01*
X183440257Y-51002288D01*
X183443920Y-51007716D01*
X183551800Y-51177052D01*
X183553743Y-51180205D01*
X183662880Y-51363362D01*
X183666346Y-51369578D01*
X183759026Y-51547615D01*
X183760437Y-51550411D01*
X183854099Y-51741997D01*
X183857260Y-51749005D01*
X183934051Y-51934395D01*
X183934991Y-51936734D01*
X183940797Y-51951610D01*
X184012559Y-52135523D01*
X184015302Y-52143309D01*
X184075602Y-52334554D01*
X184076186Y-52336460D01*
X184137105Y-52541084D01*
X184139321Y-52549627D01*
X184182671Y-52745166D01*
X184182971Y-52746559D01*
X184226844Y-52955802D01*
X184228422Y-52965062D01*
X184254459Y-53162829D01*
X184254568Y-53163677D01*
X184281114Y-53376641D01*
X184281948Y-53386570D01*
X184290513Y-53582728D01*
X184290525Y-53583013D01*
X184299394Y-53797438D01*
X184299500Y-53802562D01*
X184299500Y-64365547D01*
X184285985Y-64421842D01*
X184248385Y-64465865D01*
X184194898Y-64488020D01*
X184137182Y-64483478D01*
X184087819Y-64453228D01*
X172502355Y-52867764D01*
X178445787Y-52867764D01*
X178475413Y-53137016D01*
X178486898Y-53180946D01*
X178543928Y-53399088D01*
X178649870Y-53648390D01*
X178649871Y-53648392D01*
X178790982Y-53879611D01*
X178880253Y-53986881D01*
X178964255Y-54087820D01*
X179165998Y-54268582D01*
X179391910Y-54418044D01*
X179463790Y-54451740D01*
X179637177Y-54533021D01*
X179896562Y-54611058D01*
X179896569Y-54611060D01*
X180164561Y-54650500D01*
X180367631Y-54650500D01*
X180367634Y-54650500D01*
X180570156Y-54635677D01*
X180570156Y-54635676D01*
X180834553Y-54576780D01*
X181087558Y-54480014D01*
X181323777Y-54347441D01*
X181538177Y-54181888D01*
X181726186Y-53986881D01*
X181883799Y-53766579D01*
X182007656Y-53525675D01*
X182095118Y-53269305D01*
X182144319Y-53002933D01*
X182154212Y-52732235D01*
X182124586Y-52462982D01*
X182056072Y-52200912D01*
X181950130Y-51951610D01*
X181809018Y-51720390D01*
X181809017Y-51720388D01*
X181635746Y-51512181D01*
X181594249Y-51475000D01*
X181434002Y-51331418D01*
X181208090Y-51181956D01*
X181197629Y-51177052D01*
X180962822Y-51066978D01*
X180703437Y-50988941D01*
X180703431Y-50988940D01*
X180435439Y-50949500D01*
X180232369Y-50949500D01*
X180232366Y-50949500D01*
X180029843Y-50964322D01*
X179765449Y-51023219D01*
X179512441Y-51119986D01*
X179276223Y-51252559D01*
X179061825Y-51418109D01*
X178873813Y-51613120D01*
X178716201Y-51833420D01*
X178592342Y-52074329D01*
X178504881Y-52330695D01*
X178455680Y-52597066D01*
X178445787Y-52867764D01*
X172502355Y-52867764D01*
X168646772Y-49012181D01*
X168616522Y-48962818D01*
X168611980Y-48905102D01*
X168634135Y-48851615D01*
X168678158Y-48814015D01*
X168734453Y-48800500D01*
X179297439Y-48800500D01*
X179302562Y-48800605D01*
G37*
%TD.AperFunction*%
%TA.AperFunction,Conductor*%
G36*
X159921843Y-48814015D02*
G01*
X159965866Y-48851615D01*
X159988021Y-48905102D01*
X159983479Y-48962818D01*
X159953229Y-49012181D01*
X144512181Y-64453228D01*
X144462818Y-64483478D01*
X144405102Y-64488020D01*
X144351615Y-64465865D01*
X144314015Y-64421842D01*
X144300500Y-64365547D01*
X144300500Y-53802561D01*
X144300606Y-53797437D01*
X144301882Y-53766579D01*
X144309488Y-53582687D01*
X144318052Y-53386540D01*
X144318881Y-53376673D01*
X144345491Y-53163195D01*
X144371578Y-52965045D01*
X144373151Y-52955816D01*
X144391613Y-52867764D01*
X146445787Y-52867764D01*
X146475413Y-53137016D01*
X146486898Y-53180946D01*
X146543928Y-53399088D01*
X146649870Y-53648390D01*
X146649871Y-53648392D01*
X146790982Y-53879611D01*
X146880253Y-53986881D01*
X146964255Y-54087820D01*
X147165998Y-54268582D01*
X147391910Y-54418044D01*
X147463790Y-54451740D01*
X147637177Y-54533021D01*
X147896562Y-54611058D01*
X147896569Y-54611060D01*
X148164561Y-54650500D01*
X148367631Y-54650500D01*
X148367634Y-54650500D01*
X148570156Y-54635677D01*
X148570156Y-54635676D01*
X148834553Y-54576780D01*
X149087558Y-54480014D01*
X149323777Y-54347441D01*
X149538177Y-54181888D01*
X149726186Y-53986881D01*
X149883799Y-53766579D01*
X150007656Y-53525675D01*
X150095118Y-53269305D01*
X150144319Y-53002933D01*
X150154212Y-52732235D01*
X150124586Y-52462982D01*
X150056072Y-52200912D01*
X149950130Y-51951610D01*
X149809018Y-51720390D01*
X149809017Y-51720388D01*
X149635746Y-51512181D01*
X149594249Y-51475000D01*
X149434002Y-51331418D01*
X149208090Y-51181956D01*
X149197629Y-51177052D01*
X148962822Y-51066978D01*
X148703437Y-50988941D01*
X148703431Y-50988940D01*
X148435439Y-50949500D01*
X148232369Y-50949500D01*
X148232366Y-50949500D01*
X148029843Y-50964322D01*
X147765449Y-51023219D01*
X147512441Y-51119986D01*
X147276223Y-51252559D01*
X147061825Y-51418109D01*
X146873813Y-51613120D01*
X146716201Y-51833420D01*
X146592342Y-52074329D01*
X146504881Y-52330695D01*
X146455680Y-52597066D01*
X146445787Y-52867764D01*
X144391613Y-52867764D01*
X144417062Y-52746392D01*
X144417297Y-52745302D01*
X144460684Y-52549599D01*
X144462885Y-52541111D01*
X144523875Y-52336253D01*
X144524337Y-52334743D01*
X144584704Y-52143284D01*
X144587423Y-52135565D01*
X144665074Y-51936564D01*
X144665883Y-51934553D01*
X144742762Y-51748951D01*
X144745874Y-51742051D01*
X144839587Y-51550357D01*
X144840945Y-51547667D01*
X144933667Y-51369551D01*
X144937118Y-51363362D01*
X144941045Y-51356772D01*
X145046295Y-51180139D01*
X145048150Y-51177129D01*
X145156090Y-51007697D01*
X145159721Y-51002316D01*
X145283635Y-50828764D01*
X145286102Y-50825433D01*
X145408401Y-50666048D01*
X145412114Y-50661445D01*
X145549903Y-50498758D01*
X145553027Y-50495211D01*
X145688811Y-50347028D01*
X145692440Y-50343238D01*
X145843238Y-50192440D01*
X145847028Y-50188811D01*
X145995211Y-50053027D01*
X145998758Y-50049903D01*
X146161445Y-49912114D01*
X146166048Y-49908401D01*
X146325433Y-49786102D01*
X146328764Y-49783635D01*
X146502316Y-49659721D01*
X146507697Y-49656090D01*
X146677129Y-49548150D01*
X146680139Y-49546295D01*
X146863373Y-49437111D01*
X146869551Y-49433667D01*
X147047667Y-49340945D01*
X147050357Y-49339587D01*
X147242051Y-49245874D01*
X147248951Y-49242762D01*
X147434553Y-49165883D01*
X147436564Y-49165074D01*
X147635565Y-49087423D01*
X147643284Y-49084704D01*
X147834743Y-49024337D01*
X147836253Y-49023875D01*
X148041111Y-48962885D01*
X148049599Y-48960684D01*
X148245302Y-48917297D01*
X148246392Y-48917062D01*
X148455816Y-48873151D01*
X148465045Y-48871578D01*
X148663195Y-48845491D01*
X148876673Y-48818881D01*
X148886540Y-48818052D01*
X149082628Y-48809490D01*
X149297437Y-48800605D01*
X149302561Y-48800500D01*
X159865548Y-48800500D01*
X159921843Y-48814015D01*
G37*
%TD.AperFunction*%
%TD*%
M02*
