M48
; DRILL file {KiCad 7.0.1} date Sun Sep 10 14:19:30 2023
; FORMAT={-:-/ absolute / inch / decimal}
; #@! TF.CreationDate,2023-09-10T14:19:30+09:00
; #@! TF.GenerationSoftware,Kicad,Pcbnew,7.0.1
; #@! TF.FileFunction,Plated,1,2,PTH
FMAT,2
INCH
; #@! TA.AperFunction,Plated,PTH,ViaDrill
T1C0.0118
; #@! TA.AperFunction,Plated,PTH,ViaDrill
T2C0.0157
; #@! TA.AperFunction,Plated,PTH,ComponentDrill
T3C0.0315
%
G90
G05
T1
X4.9488Y-3.1181
X4.9488Y-4.8898
X6.7205Y-3.1181
X6.7205Y-4.8898
T2
X4.0039Y-2.3386
X4.0039Y-4.1102
X4.2244Y-3.4567
X4.2244Y-5.2283
X4.3031Y-2.0
X4.3031Y-2.315
X4.3031Y-3.2205
X4.3031Y-3.7717
X4.3031Y-4.0866
X4.3031Y-4.9921
X4.3425Y-2.5512
X4.3425Y-4.3228
X4.3819Y-2.9055
X4.3819Y-4.6772
X4.5Y-2.3937
X4.5Y-4.1654
X4.5787Y-3.063
X4.5787Y-4.8346
X4.6024Y-2.4488
X4.6024Y-4.2205
X4.689Y-2.8189
X4.689Y-4.5906
X4.815Y-2.5984
X4.815Y-4.3701
X4.8543Y-2.315
X4.8543Y-4.0866
X4.9724Y-3.2992
X4.9724Y-5.0709
X5.0118Y-2.5118
X5.0118Y-3.4567
X5.0118Y-4.2835
X5.0118Y-5.2283
X5.0512Y-2.8661
X5.0512Y-4.6378
X5.0906Y-2.315
X5.0906Y-4.0866
X5.1299Y-2.0
X5.1299Y-3.7717
X5.2874Y-2.9055
X5.2874Y-4.6772
X5.4055Y-3.063
X5.4055Y-4.8346
X5.7756Y-2.3386
X5.7756Y-4.1102
X5.9961Y-3.4567
X5.9961Y-5.2283
X6.0748Y-2.0
X6.0748Y-2.315
X6.0748Y-3.2205
X6.0748Y-3.7717
X6.0748Y-4.0866
X6.0748Y-4.9921
X6.1142Y-2.5512
X6.1142Y-4.3228
X6.1535Y-2.9055
X6.1535Y-4.6772
X6.2717Y-2.3937
X6.2717Y-4.1654
X6.3504Y-3.063
X6.3504Y-4.8346
X6.374Y-2.4488
X6.374Y-4.2205
X6.4606Y-2.8189
X6.4606Y-4.5906
X6.5866Y-2.5984
X6.5866Y-4.3701
X6.626Y-2.315
X6.626Y-4.0866
X6.7441Y-3.2992
X6.7441Y-5.0709
X6.7835Y-2.5118
X6.7835Y-3.4567
X6.7835Y-4.2835
X6.7835Y-5.2283
X6.8228Y-2.8661
X6.8228Y-4.6378
X6.8622Y-2.315
X6.8622Y-4.0866
X6.9016Y-2.0
X6.9016Y-3.7717
X7.0591Y-2.9055
X7.0591Y-4.6772
X7.1772Y-3.063
X7.1772Y-4.8346
T3
X3.9675Y-2.6299
X3.9675Y-2.7087
X3.9675Y-2.7874
X3.9675Y-4.4016
X3.9675Y-4.4803
X3.9675Y-4.5591
X4.6181Y-1.9803
X4.6181Y-3.438
X4.6181Y-3.752
X4.6181Y-5.2096
X4.6969Y-1.9803
X4.6969Y-3.438
X4.6969Y-3.752
X4.6969Y-5.2096
X4.7756Y-1.9803
X4.7756Y-3.438
X4.7756Y-3.752
X4.7756Y-5.2096
X5.4262Y-2.6309
X5.4262Y-2.7096
X5.4262Y-2.7884
X5.4262Y-4.4026
X5.4262Y-4.4813
X5.4262Y-4.56
X5.7392Y-2.6299
X5.7392Y-2.7087
X5.7392Y-2.7874
X5.7392Y-4.4016
X5.7392Y-4.4803
X5.7392Y-4.5591
X6.3898Y-1.9803
X6.3898Y-3.438
X6.3898Y-3.752
X6.3898Y-5.2096
X6.4685Y-1.9803
X6.4685Y-3.438
X6.4685Y-3.752
X6.4685Y-5.2096
X6.5472Y-1.9803
X6.5472Y-3.438
X6.5472Y-3.752
X6.5472Y-5.2096
X7.1978Y-2.6309
X7.1978Y-2.7096
X7.1978Y-2.7884
X7.1978Y-4.4026
X7.1978Y-4.4813
X7.1978Y-4.56
T0
M30
