M48
; DRILL file {KiCad 7.0.1} date Sun Sep 10 14:19:30 2023
; FORMAT={-:-/ absolute / inch / decimal}
; #@! TF.CreationDate,2023-09-10T14:19:30+09:00
; #@! TF.GenerationSoftware,Kicad,Pcbnew,7.0.1
; #@! TF.FileFunction,NonPlated,1,2,NPTH
FMAT,2
INCH
; #@! TA.AperFunction,NonPlated,NPTH,ComponentDrill
T1C0.0236
; #@! TA.AperFunction,NonPlated,NPTH,ComponentDrill
T2C0.1260
%
G90
G05
T1
X4.5866Y-3.5079
X4.5866Y-3.6811
X4.6181Y-3.5079
X4.6181Y-3.6811
X4.6496Y-3.5079
X4.6496Y-3.6811
X4.6811Y-3.5079
X4.6811Y-3.6811
X4.7126Y-3.5079
X4.7126Y-3.6811
X4.7441Y-3.5079
X4.7441Y-3.6811
X4.7756Y-3.5079
X4.7756Y-3.6811
X4.8071Y-3.5079
X4.8071Y-3.6811
X5.4961Y-2.5984
X5.4961Y-2.6299
X5.4961Y-2.6614
X5.4961Y-2.6929
X5.4961Y-2.7244
X5.4961Y-2.7559
X5.4961Y-2.7874
X5.4961Y-2.8189
X5.4961Y-4.3701
X5.4961Y-4.4016
X5.4961Y-4.4331
X5.4961Y-4.4646
X5.4961Y-4.4961
X5.4961Y-4.5276
X5.4961Y-4.5591
X5.4961Y-4.5906
X5.6693Y-2.5984
X5.6693Y-2.6299
X5.6693Y-2.6614
X5.6693Y-2.6929
X5.6693Y-2.7244
X5.6693Y-2.7559
X5.6693Y-2.7874
X5.6693Y-2.8189
X5.6693Y-4.3701
X5.6693Y-4.4016
X5.6693Y-4.4331
X5.6693Y-4.4646
X5.6693Y-4.4961
X5.6693Y-4.5276
X5.6693Y-4.5591
X5.6693Y-4.5906
X6.3583Y-3.5079
X6.3583Y-3.6811
X6.3898Y-3.5079
X6.3898Y-3.6811
X6.4213Y-3.5079
X6.4213Y-3.6811
X6.4528Y-3.5079
X6.4528Y-3.6811
X6.4843Y-3.5079
X6.4843Y-3.6811
X6.5157Y-3.5079
X6.5157Y-3.6811
X6.5472Y-3.5079
X6.5472Y-3.6811
X6.5787Y-3.5079
X6.5787Y-3.6811
T2
X4.0669Y-2.0787
X4.0669Y-3.3386
X4.0669Y-3.8504
X4.0669Y-5.1102
X5.3268Y-2.0787
X5.3268Y-3.3386
X5.3268Y-3.8504
X5.3268Y-5.1102
X5.8386Y-2.0787
X5.8386Y-3.3386
X5.8386Y-3.8504
X5.8386Y-5.1102
X7.0984Y-2.0787
X7.0984Y-3.3386
X7.0984Y-3.8504
X7.0984Y-5.1102
T0
M30
