%TF.GenerationSoftware,KiCad,Pcbnew,7.0.1*%
%TF.CreationDate,2023-09-10T14:19:26+09:00*%
%TF.ProjectId,cross_led,63726f73-735f-46c6-9564-2e6b69636164,rev?*%
%TF.SameCoordinates,Original*%
%TF.FileFunction,Profile,NP*%
%FSLAX46Y46*%
G04 Gerber Fmt 4.6, Leading zero omitted, Abs format (unit mm)*
G04 Created by KiCad (PCBNEW 7.0.1) date 2023-09-10 14:19:26*
%MOMM*%
%LPD*%
G01*
G04 APERTURE LIST*
%TA.AperFunction,Profile*%
%ADD10C,0.100000*%
%TD*%
G04 APERTURE END LIST*
D10*
X99300000Y-128800000D02*
G75*
G03*
X104300000Y-133800000I5000000J0D01*
G01*
X139300000Y-128800000D02*
X139300000Y-117000000D01*
X139300000Y-72100000D02*
X139300000Y-83800000D01*
X184300000Y-98800000D02*
G75*
G03*
X179300000Y-93800000I-5000000J0D01*
G01*
X144300000Y-128800000D02*
G75*
G03*
X149300000Y-133800000I5000000J0D01*
G01*
X134300000Y-48800000D02*
X104300000Y-48800000D01*
X149300000Y-93800000D02*
G75*
G03*
X144300000Y-98800000I0J-5000000D01*
G01*
X144300000Y-65600000D02*
X139300000Y-65600000D01*
X104300000Y-48800000D02*
G75*
G03*
X99300000Y-53800000I0J-5000000D01*
G01*
X179300000Y-88800000D02*
X167500000Y-88800000D01*
X161000000Y-93800000D02*
X149300000Y-93800000D01*
X144300000Y-83800000D02*
G75*
G03*
X149300000Y-88800000I5000000J0D01*
G01*
X134300000Y-93800000D02*
X122600000Y-93800000D01*
X104300000Y-93800000D02*
G75*
G03*
X99300000Y-98800000I0J-5000000D01*
G01*
X167500000Y-88800000D02*
X167500000Y-93800000D01*
X167500000Y-93800000D02*
X179300000Y-93800000D01*
X149300000Y-133800000D02*
X179300000Y-133800000D01*
X144300000Y-83800000D02*
X144300000Y-72100000D01*
X122600000Y-93800000D02*
X122600000Y-88800000D01*
X144300000Y-110400000D02*
X139300000Y-110400000D01*
X116100000Y-88800000D02*
X116100000Y-93800000D01*
X104300000Y-133800000D02*
X134300000Y-133800000D01*
X99300000Y-53800000D02*
X99300000Y-83800000D01*
X161000000Y-88800000D02*
X161000000Y-93800000D01*
X99300000Y-83800000D02*
G75*
G03*
X104300000Y-88800000I5000000J0D01*
G01*
X139300000Y-53800000D02*
G75*
G03*
X134300000Y-48800000I-5000000J0D01*
G01*
X122600000Y-88800000D02*
X134300000Y-88800000D01*
X139300000Y-117000000D02*
X144300000Y-117000000D01*
X179300000Y-48800000D02*
X149300000Y-48800000D01*
X179300000Y-133800000D02*
G75*
G03*
X184300000Y-128800000I0J5000000D01*
G01*
X144300000Y-98800000D02*
X144300000Y-110400000D01*
X134300000Y-88800000D02*
G75*
G03*
X139300000Y-83800000I0J5000000D01*
G01*
X116100000Y-93800000D02*
X104300000Y-93800000D01*
X184300000Y-83800000D02*
X184300000Y-53800000D01*
X139300000Y-65600000D02*
X139300000Y-53800000D01*
X104300000Y-88800000D02*
X116100000Y-88800000D01*
X179300000Y-88800000D02*
G75*
G03*
X184300000Y-83800000I0J5000000D01*
G01*
X149300000Y-48800000D02*
G75*
G03*
X144300000Y-53800000I0J-5000000D01*
G01*
X134300000Y-133800000D02*
G75*
G03*
X139300000Y-128800000I0J5000000D01*
G01*
X144300000Y-117000000D02*
X144300000Y-128800000D01*
X144300000Y-53800000D02*
X144300000Y-65600000D01*
X184300000Y-53800000D02*
G75*
G03*
X179300000Y-48800000I-5000000J0D01*
G01*
X139300000Y-98800000D02*
G75*
G03*
X134300000Y-93800000I-5000000J0D01*
G01*
X144300000Y-72100000D02*
X139300000Y-72100000D01*
X99300000Y-98800000D02*
X99300000Y-128800000D01*
X149300000Y-88800000D02*
X161000000Y-88800000D01*
X139300000Y-110400000D02*
X139300000Y-98800000D01*
X184300000Y-128800000D02*
X184300000Y-98800000D01*
M02*
