%TF.GenerationSoftware,KiCad,Pcbnew,7.0.1*%
%TF.CreationDate,2023-09-10T14:19:26+09:00*%
%TF.ProjectId,cross_led,63726f73-735f-46c6-9564-2e6b69636164,rev?*%
%TF.SameCoordinates,Original*%
%TF.FileFunction,Soldermask,Top*%
%TF.FilePolarity,Negative*%
%FSLAX46Y46*%
G04 Gerber Fmt 4.6, Leading zero omitted, Abs format (unit mm)*
G04 Created by KiCad (PCBNEW 7.0.1) date 2023-09-10 14:19:26*
%MOMM*%
%LPD*%
G01*
G04 APERTURE LIST*
G04 Aperture macros list*
%AMRoundRect*
0 Rectangle with rounded corners*
0 $1 Rounding radius*
0 $2 $3 $4 $5 $6 $7 $8 $9 X,Y pos of 4 corners*
0 Add a 4 corners polygon primitive as box body*
4,1,4,$2,$3,$4,$5,$6,$7,$8,$9,$2,$3,0*
0 Add four circle primitives for the rounded corners*
1,1,$1+$1,$2,$3*
1,1,$1+$1,$4,$5*
1,1,$1+$1,$6,$7*
1,1,$1+$1,$8,$9*
0 Add four rect primitives between the rounded corners*
20,1,$1+$1,$2,$3,$4,$5,0*
20,1,$1+$1,$4,$5,$6,$7,0*
20,1,$1+$1,$6,$7,$8,$9,0*
20,1,$1+$1,$8,$9,$2,$3,0*%
G04 Aperture macros list end*
%ADD10R,2.200000X2.500000*%
%ADD11R,2.200000X1.550000*%
%ADD12RoundRect,0.250000X0.400000X0.625000X-0.400000X0.625000X-0.400000X-0.625000X0.400000X-0.625000X0*%
%ADD13RoundRect,0.250000X0.625000X-0.400000X0.625000X0.400000X-0.625000X0.400000X-0.625000X-0.400000X0*%
%ADD14C,3.200000*%
%ADD15R,1.350000X1.350000*%
%ADD16O,1.350000X1.350000*%
%ADD17R,2.500000X2.200000*%
%ADD18R,1.550000X2.200000*%
%ADD19RoundRect,0.250000X-0.625000X0.400000X-0.625000X-0.400000X0.625000X-0.400000X0.625000X0.400000X0*%
%ADD20RoundRect,0.250000X-0.400000X-0.625000X0.400000X-0.625000X0.400000X0.625000X-0.400000X0.625000X0*%
%ADD21RoundRect,0.150000X-0.512500X-0.150000X0.512500X-0.150000X0.512500X0.150000X-0.512500X0.150000X0*%
%ADD22C,0.600000*%
G04 APERTURE END LIST*
D10*
%TO.C,D206*%
X119275000Y-76375000D03*
D11*
X119275000Y-73800000D03*
%TD*%
D12*
%TO.C,R203*%
X159775000Y-118825000D03*
X156675000Y-118825000D03*
%TD*%
D13*
%TO.C,R204*%
X114275000Y-109375000D03*
X114275000Y-106275000D03*
%TD*%
D14*
%TO.C,REF\u002A\u002A*%
X103300000Y-84800000D03*
%TD*%
D15*
%TO.C,J202*%
X182825000Y-70825000D03*
D16*
X182825000Y-68825000D03*
X182825000Y-66825000D03*
%TD*%
D15*
%TO.C,J203*%
X121300000Y-132325000D03*
D16*
X119300000Y-132325000D03*
X117300000Y-132325000D03*
%TD*%
D17*
%TO.C,D207*%
X105200000Y-113875000D03*
D18*
X107775000Y-113875000D03*
%TD*%
D14*
%TO.C,REF\u002A\u002A*%
X180300000Y-97800000D03*
%TD*%
%TO.C,REF\u002A\u002A*%
X135300000Y-97800000D03*
%TD*%
D19*
%TO.C,R202*%
X124325000Y-118325000D03*
X124325000Y-121425000D03*
%TD*%
D17*
%TO.C,D208*%
X111725000Y-113875000D03*
D18*
X114300000Y-113875000D03*
%TD*%
D20*
%TO.C,R205*%
X167750000Y-124550000D03*
X170850000Y-124550000D03*
%TD*%
D17*
%TO.C,D209*%
X163050000Y-113800000D03*
D18*
X165625000Y-113800000D03*
%TD*%
D21*
%TO.C,Q201*%
X130162500Y-120100000D03*
X130162500Y-122000000D03*
X132437500Y-121050000D03*
%TD*%
D20*
%TO.C,R201*%
X123800000Y-63800000D03*
X126900000Y-63800000D03*
%TD*%
%TO.C,R201*%
X168800000Y-108800000D03*
X171900000Y-108800000D03*
%TD*%
D19*
%TO.C,R202*%
X169325000Y-118325000D03*
X169325000Y-121425000D03*
%TD*%
D14*
%TO.C,REF\u002A\u002A*%
X135300000Y-52800000D03*
%TD*%
D22*
%TO.C,REF\u002A\u002A*%
X116500000Y-89100000D03*
X116500000Y-93500000D03*
X117300000Y-89100000D03*
X117300000Y-93500000D03*
X118100000Y-89100000D03*
X118100000Y-93500000D03*
X118900000Y-89100000D03*
X118900000Y-93500000D03*
X119700000Y-89100000D03*
X119700000Y-93500000D03*
X120500000Y-89100000D03*
X120500000Y-93500000D03*
X121300000Y-89100000D03*
X121300000Y-93500000D03*
X122100000Y-89100000D03*
X122100000Y-93500000D03*
%TD*%
D14*
%TO.C,REF\u002A\u002A*%
X148300000Y-129800000D03*
%TD*%
D17*
%TO.C,D204*%
X171875000Y-113825000D03*
D18*
X169300000Y-113825000D03*
%TD*%
D12*
%TO.C,R203*%
X114775000Y-118825000D03*
X111675000Y-118825000D03*
%TD*%
D17*
%TO.C,D203*%
X178400000Y-113825000D03*
D18*
X175825000Y-113825000D03*
%TD*%
D10*
%TO.C,D206*%
X164275000Y-76375000D03*
D11*
X164275000Y-73800000D03*
%TD*%
D17*
%TO.C,D208*%
X156725000Y-68875000D03*
D18*
X159300000Y-68875000D03*
%TD*%
D20*
%TO.C,R206*%
X174900000Y-80400000D03*
X178000000Y-80400000D03*
%TD*%
D10*
%TO.C,D202*%
X164300000Y-106250000D03*
D11*
X164300000Y-108825000D03*
%TD*%
D15*
%TO.C,J201*%
X121300000Y-50300000D03*
D16*
X119300000Y-50300000D03*
X117300000Y-50300000D03*
%TD*%
D15*
%TO.C,J204*%
X145775000Y-70800000D03*
D16*
X145775000Y-68800000D03*
X145775000Y-66800000D03*
%TD*%
D19*
%TO.C,R202*%
X124325000Y-73325000D03*
X124325000Y-76425000D03*
%TD*%
D17*
%TO.C,D207*%
X150200000Y-68875000D03*
D18*
X152775000Y-68875000D03*
%TD*%
D20*
%TO.C,R205*%
X167750000Y-79550000D03*
X170850000Y-79550000D03*
%TD*%
D14*
%TO.C,REF\u002A\u002A*%
X135300000Y-84800000D03*
%TD*%
D17*
%TO.C,D204*%
X171875000Y-68825000D03*
D18*
X169300000Y-68825000D03*
%TD*%
D20*
%TO.C,R206*%
X129900000Y-125400000D03*
X133000000Y-125400000D03*
%TD*%
D13*
%TO.C,R204*%
X114275000Y-64375000D03*
X114275000Y-61275000D03*
%TD*%
D17*
%TO.C,D203*%
X178400000Y-68825000D03*
D18*
X175825000Y-68825000D03*
%TD*%
D13*
%TO.C,R204*%
X159275000Y-109375000D03*
X159275000Y-106275000D03*
%TD*%
D20*
%TO.C,R205*%
X122750000Y-124550000D03*
X125850000Y-124550000D03*
%TD*%
D15*
%TO.C,J201*%
X166300000Y-95300000D03*
D16*
X164300000Y-95300000D03*
X162300000Y-95300000D03*
%TD*%
D22*
%TO.C,REF\u002A\u002A*%
X139600000Y-116600000D03*
X144000000Y-116600000D03*
X139600000Y-115800000D03*
X144000000Y-115800000D03*
X139600000Y-115000000D03*
X144000000Y-115000000D03*
X139600000Y-114200000D03*
X144000000Y-114200000D03*
X139600000Y-113400000D03*
X144000000Y-113400000D03*
X139600000Y-112600000D03*
X144000000Y-112600000D03*
X139600000Y-111800000D03*
X144000000Y-111800000D03*
X139600000Y-111000000D03*
X144000000Y-111000000D03*
%TD*%
D17*
%TO.C,D203*%
X133400000Y-113825000D03*
D18*
X130825000Y-113825000D03*
%TD*%
D14*
%TO.C,REF\u002A\u002A*%
X103300000Y-129800000D03*
%TD*%
D17*
%TO.C,D209*%
X118050000Y-68800000D03*
D18*
X120625000Y-68800000D03*
%TD*%
D12*
%TO.C,R207*%
X129900000Y-129000000D03*
X126800000Y-129000000D03*
%TD*%
D14*
%TO.C,REF\u002A\u002A*%
X148300000Y-52800000D03*
%TD*%
%TO.C,REF\u002A\u002A*%
X148300000Y-97800000D03*
%TD*%
D10*
%TO.C,D201*%
X164300000Y-99725000D03*
D11*
X164300000Y-102300000D03*
%TD*%
D12*
%TO.C,R207*%
X174900000Y-129000000D03*
X171800000Y-129000000D03*
%TD*%
D10*
%TO.C,D202*%
X164300000Y-61250000D03*
D11*
X164300000Y-63825000D03*
%TD*%
D15*
%TO.C,J204*%
X145775000Y-115800000D03*
D16*
X145775000Y-113800000D03*
X145775000Y-111800000D03*
%TD*%
D19*
%TO.C,R202*%
X169325000Y-73325000D03*
X169325000Y-76425000D03*
%TD*%
D20*
%TO.C,R206*%
X174900000Y-125400000D03*
X178000000Y-125400000D03*
%TD*%
%TO.C,R205*%
X122750000Y-79550000D03*
X125850000Y-79550000D03*
%TD*%
D10*
%TO.C,D205*%
X119275000Y-82900000D03*
D11*
X119275000Y-80325000D03*
%TD*%
D15*
%TO.C,J201*%
X121300000Y-95300000D03*
D16*
X119300000Y-95300000D03*
X117300000Y-95300000D03*
%TD*%
D14*
%TO.C,REF\u002A\u002A*%
X148300000Y-84800000D03*
%TD*%
D12*
%TO.C,R203*%
X159775000Y-73825000D03*
X156675000Y-73825000D03*
%TD*%
D10*
%TO.C,D205*%
X164275000Y-82900000D03*
D11*
X164275000Y-80325000D03*
%TD*%
D17*
%TO.C,D208*%
X111725000Y-68875000D03*
D18*
X114300000Y-68875000D03*
%TD*%
D12*
%TO.C,R207*%
X129900000Y-84000000D03*
X126800000Y-84000000D03*
%TD*%
D15*
%TO.C,J201*%
X166300000Y-50300000D03*
D16*
X164300000Y-50300000D03*
X162300000Y-50300000D03*
%TD*%
D14*
%TO.C,REF\u002A\u002A*%
X103300000Y-52800000D03*
%TD*%
%TO.C,REF\u002A\u002A*%
X135300000Y-129800000D03*
%TD*%
D20*
%TO.C,R201*%
X123800000Y-108800000D03*
X126900000Y-108800000D03*
%TD*%
D10*
%TO.C,D205*%
X164275000Y-127900000D03*
D11*
X164275000Y-125325000D03*
%TD*%
D17*
%TO.C,D209*%
X118050000Y-113800000D03*
D18*
X120625000Y-113800000D03*
%TD*%
D20*
%TO.C,R206*%
X129900000Y-80400000D03*
X133000000Y-80400000D03*
%TD*%
D15*
%TO.C,J202*%
X182825000Y-115825000D03*
D16*
X182825000Y-113825000D03*
X182825000Y-111825000D03*
%TD*%
D15*
%TO.C,J203*%
X166300000Y-87325000D03*
D16*
X164300000Y-87325000D03*
X162300000Y-87325000D03*
%TD*%
D10*
%TO.C,D201*%
X164300000Y-54725000D03*
D11*
X164300000Y-57300000D03*
%TD*%
D14*
%TO.C,REF\u002A\u002A*%
X103300000Y-97800000D03*
%TD*%
D17*
%TO.C,D207*%
X150200000Y-113875000D03*
D18*
X152775000Y-113875000D03*
%TD*%
D14*
%TO.C,REF\u002A\u002A*%
X180300000Y-129800000D03*
%TD*%
D20*
%TO.C,R201*%
X168800000Y-63800000D03*
X171900000Y-63800000D03*
%TD*%
D21*
%TO.C,Q201*%
X130162500Y-75100000D03*
X130162500Y-77000000D03*
X132437500Y-76050000D03*
%TD*%
D10*
%TO.C,D206*%
X119275000Y-121375000D03*
D11*
X119275000Y-118800000D03*
%TD*%
D15*
%TO.C,J204*%
X100775000Y-115800000D03*
D16*
X100775000Y-113800000D03*
X100775000Y-111800000D03*
%TD*%
D17*
%TO.C,D204*%
X126875000Y-68825000D03*
D18*
X124300000Y-68825000D03*
%TD*%
D15*
%TO.C,J202*%
X137825000Y-115825000D03*
D16*
X137825000Y-113825000D03*
X137825000Y-111825000D03*
%TD*%
D10*
%TO.C,D205*%
X119275000Y-127900000D03*
D11*
X119275000Y-125325000D03*
%TD*%
D14*
%TO.C,REF\u002A\u002A*%
X180300000Y-84800000D03*
%TD*%
D17*
%TO.C,D208*%
X156725000Y-113875000D03*
D18*
X159300000Y-113875000D03*
%TD*%
D10*
%TO.C,D202*%
X119300000Y-106250000D03*
D11*
X119300000Y-108825000D03*
%TD*%
D10*
%TO.C,D201*%
X119300000Y-99725000D03*
D11*
X119300000Y-102300000D03*
%TD*%
D13*
%TO.C,R204*%
X159275000Y-64375000D03*
X159275000Y-61275000D03*
%TD*%
D15*
%TO.C,J202*%
X137825000Y-70825000D03*
D16*
X137825000Y-68825000D03*
X137825000Y-66825000D03*
%TD*%
D10*
%TO.C,D202*%
X119300000Y-61250000D03*
D11*
X119300000Y-63825000D03*
%TD*%
D21*
%TO.C,Q201*%
X175162500Y-75100000D03*
X175162500Y-77000000D03*
X177437500Y-76050000D03*
%TD*%
D22*
%TO.C,REF\u002A\u002A*%
X167100000Y-93500000D03*
X167100000Y-89100000D03*
X166300000Y-93500000D03*
X166300000Y-89100000D03*
X165500000Y-93500000D03*
X165500000Y-89100000D03*
X164700000Y-93500000D03*
X164700000Y-89100000D03*
X163900000Y-93500000D03*
X163900000Y-89100000D03*
X163100000Y-93500000D03*
X163100000Y-89100000D03*
X162300000Y-93500000D03*
X162300000Y-89100000D03*
X161500000Y-93500000D03*
X161500000Y-89100000D03*
%TD*%
D15*
%TO.C,J204*%
X100775000Y-70800000D03*
D16*
X100775000Y-68800000D03*
X100775000Y-66800000D03*
%TD*%
D17*
%TO.C,D204*%
X126875000Y-113825000D03*
D18*
X124300000Y-113825000D03*
%TD*%
D12*
%TO.C,R203*%
X114775000Y-73825000D03*
X111675000Y-73825000D03*
%TD*%
D15*
%TO.C,J203*%
X121300000Y-87325000D03*
D16*
X119300000Y-87325000D03*
X117300000Y-87325000D03*
%TD*%
D10*
%TO.C,D206*%
X164275000Y-121375000D03*
D11*
X164275000Y-118800000D03*
%TD*%
D12*
%TO.C,R207*%
X174900000Y-84000000D03*
X171800000Y-84000000D03*
%TD*%
D10*
%TO.C,D201*%
X119300000Y-54725000D03*
D11*
X119300000Y-57300000D03*
%TD*%
D17*
%TO.C,D207*%
X105200000Y-68875000D03*
D18*
X107775000Y-68875000D03*
%TD*%
D17*
%TO.C,D203*%
X133400000Y-68825000D03*
D18*
X130825000Y-68825000D03*
%TD*%
D14*
%TO.C,REF\u002A\u002A*%
X180300000Y-52800000D03*
%TD*%
D22*
%TO.C,REF\u002A\u002A*%
X144000000Y-66000000D03*
X139600000Y-66000000D03*
X144000000Y-66800000D03*
X139600000Y-66800000D03*
X144000000Y-67600000D03*
X139600000Y-67600000D03*
X144000000Y-68400000D03*
X139600000Y-68400000D03*
X144000000Y-69200000D03*
X139600000Y-69200000D03*
X144000000Y-70000000D03*
X139600000Y-70000000D03*
X144000000Y-70800000D03*
X139600000Y-70800000D03*
X144000000Y-71600000D03*
X139600000Y-71600000D03*
%TD*%
D15*
%TO.C,J203*%
X166300000Y-132325000D03*
D16*
X164300000Y-132325000D03*
X162300000Y-132325000D03*
%TD*%
D21*
%TO.C,Q201*%
X175162500Y-120100000D03*
X175162500Y-122000000D03*
X177437500Y-121050000D03*
%TD*%
D17*
%TO.C,D209*%
X163050000Y-68800000D03*
D18*
X165625000Y-68800000D03*
%TD*%
M02*
