%TF.GenerationSoftware,KiCad,Pcbnew,7.0.1*%
%TF.CreationDate,2023-09-10T14:19:26+09:00*%
%TF.ProjectId,cross_led,63726f73-735f-46c6-9564-2e6b69636164,rev?*%
%TF.SameCoordinates,Original*%
%TF.FileFunction,Soldermask,Bot*%
%TF.FilePolarity,Negative*%
%FSLAX46Y46*%
G04 Gerber Fmt 4.6, Leading zero omitted, Abs format (unit mm)*
G04 Created by KiCad (PCBNEW 7.0.1) date 2023-09-10 14:19:26*
%MOMM*%
%LPD*%
G01*
G04 APERTURE LIST*
%ADD10C,3.200000*%
%ADD11R,1.350000X1.350000*%
%ADD12O,1.350000X1.350000*%
%ADD13C,0.600000*%
G04 APERTURE END LIST*
D10*
%TO.C,REF\u002A\u002A*%
X103300000Y-84800000D03*
%TD*%
D11*
%TO.C,J202*%
X182825000Y-70825000D03*
D12*
X182825000Y-68825000D03*
X182825000Y-66825000D03*
%TD*%
D11*
%TO.C,J203*%
X121300000Y-132325000D03*
D12*
X119300000Y-132325000D03*
X117300000Y-132325000D03*
%TD*%
D10*
%TO.C,REF\u002A\u002A*%
X180300000Y-97800000D03*
%TD*%
%TO.C,REF\u002A\u002A*%
X135300000Y-97800000D03*
%TD*%
%TO.C,REF\u002A\u002A*%
X135300000Y-52800000D03*
%TD*%
D13*
%TO.C,REF\u002A\u002A*%
X116500000Y-89100000D03*
X116500000Y-93500000D03*
X117300000Y-89100000D03*
X117300000Y-93500000D03*
X118100000Y-89100000D03*
X118100000Y-93500000D03*
X118900000Y-89100000D03*
X118900000Y-93500000D03*
X119700000Y-89100000D03*
X119700000Y-93500000D03*
X120500000Y-89100000D03*
X120500000Y-93500000D03*
X121300000Y-89100000D03*
X121300000Y-93500000D03*
X122100000Y-89100000D03*
X122100000Y-93500000D03*
%TD*%
D10*
%TO.C,REF\u002A\u002A*%
X148300000Y-129800000D03*
%TD*%
D11*
%TO.C,J201*%
X121300000Y-50300000D03*
D12*
X119300000Y-50300000D03*
X117300000Y-50300000D03*
%TD*%
D11*
%TO.C,J204*%
X145775000Y-70800000D03*
D12*
X145775000Y-68800000D03*
X145775000Y-66800000D03*
%TD*%
D10*
%TO.C,REF\u002A\u002A*%
X135300000Y-84800000D03*
%TD*%
D11*
%TO.C,J201*%
X166300000Y-95300000D03*
D12*
X164300000Y-95300000D03*
X162300000Y-95300000D03*
%TD*%
D13*
%TO.C,REF\u002A\u002A*%
X139600000Y-116600000D03*
X144000000Y-116600000D03*
X139600000Y-115800000D03*
X144000000Y-115800000D03*
X139600000Y-115000000D03*
X144000000Y-115000000D03*
X139600000Y-114200000D03*
X144000000Y-114200000D03*
X139600000Y-113400000D03*
X144000000Y-113400000D03*
X139600000Y-112600000D03*
X144000000Y-112600000D03*
X139600000Y-111800000D03*
X144000000Y-111800000D03*
X139600000Y-111000000D03*
X144000000Y-111000000D03*
%TD*%
D10*
%TO.C,REF\u002A\u002A*%
X103300000Y-129800000D03*
%TD*%
%TO.C,REF\u002A\u002A*%
X148300000Y-52800000D03*
%TD*%
%TO.C,REF\u002A\u002A*%
X148300000Y-97800000D03*
%TD*%
D11*
%TO.C,J204*%
X145775000Y-115800000D03*
D12*
X145775000Y-113800000D03*
X145775000Y-111800000D03*
%TD*%
D11*
%TO.C,J201*%
X121300000Y-95300000D03*
D12*
X119300000Y-95300000D03*
X117300000Y-95300000D03*
%TD*%
D10*
%TO.C,REF\u002A\u002A*%
X148300000Y-84800000D03*
%TD*%
D11*
%TO.C,J201*%
X166300000Y-50300000D03*
D12*
X164300000Y-50300000D03*
X162300000Y-50300000D03*
%TD*%
D10*
%TO.C,REF\u002A\u002A*%
X103300000Y-52800000D03*
%TD*%
%TO.C,REF\u002A\u002A*%
X135300000Y-129800000D03*
%TD*%
D11*
%TO.C,J202*%
X182825000Y-115825000D03*
D12*
X182825000Y-113825000D03*
X182825000Y-111825000D03*
%TD*%
D11*
%TO.C,J203*%
X166300000Y-87325000D03*
D12*
X164300000Y-87325000D03*
X162300000Y-87325000D03*
%TD*%
D10*
%TO.C,REF\u002A\u002A*%
X103300000Y-97800000D03*
%TD*%
%TO.C,REF\u002A\u002A*%
X180300000Y-129800000D03*
%TD*%
D11*
%TO.C,J204*%
X100775000Y-115800000D03*
D12*
X100775000Y-113800000D03*
X100775000Y-111800000D03*
%TD*%
D11*
%TO.C,J202*%
X137825000Y-115825000D03*
D12*
X137825000Y-113825000D03*
X137825000Y-111825000D03*
%TD*%
D10*
%TO.C,REF\u002A\u002A*%
X180300000Y-84800000D03*
%TD*%
D11*
%TO.C,J202*%
X137825000Y-70825000D03*
D12*
X137825000Y-68825000D03*
X137825000Y-66825000D03*
%TD*%
D13*
%TO.C,REF\u002A\u002A*%
X167100000Y-93500000D03*
X167100000Y-89100000D03*
X166300000Y-93500000D03*
X166300000Y-89100000D03*
X165500000Y-93500000D03*
X165500000Y-89100000D03*
X164700000Y-93500000D03*
X164700000Y-89100000D03*
X163900000Y-93500000D03*
X163900000Y-89100000D03*
X163100000Y-93500000D03*
X163100000Y-89100000D03*
X162300000Y-93500000D03*
X162300000Y-89100000D03*
X161500000Y-93500000D03*
X161500000Y-89100000D03*
%TD*%
D11*
%TO.C,J204*%
X100775000Y-70800000D03*
D12*
X100775000Y-68800000D03*
X100775000Y-66800000D03*
%TD*%
D11*
%TO.C,J203*%
X121300000Y-87325000D03*
D12*
X119300000Y-87325000D03*
X117300000Y-87325000D03*
%TD*%
D10*
%TO.C,REF\u002A\u002A*%
X180300000Y-52800000D03*
%TD*%
D13*
%TO.C,REF\u002A\u002A*%
X144000000Y-66000000D03*
X139600000Y-66000000D03*
X144000000Y-66800000D03*
X139600000Y-66800000D03*
X144000000Y-67600000D03*
X139600000Y-67600000D03*
X144000000Y-68400000D03*
X139600000Y-68400000D03*
X144000000Y-69200000D03*
X139600000Y-69200000D03*
X144000000Y-70000000D03*
X139600000Y-70000000D03*
X144000000Y-70800000D03*
X139600000Y-70800000D03*
X144000000Y-71600000D03*
X139600000Y-71600000D03*
%TD*%
D11*
%TO.C,J203*%
X166300000Y-132325000D03*
D12*
X164300000Y-132325000D03*
X162300000Y-132325000D03*
%TD*%
M02*
