M48
; DRILL file {KiCad 7.0.1} date Sun Sep 10 14:17:09 2023
; FORMAT={-:-/ absolute / inch / decimal}
; #@! TF.CreationDate,2023-09-10T14:17:09+09:00
; #@! TF.GenerationSoftware,Kicad,Pcbnew,7.0.1
; #@! TF.FileFunction,NonPlated,1,2,NPTH
FMAT,2
INCH
; #@! TA.AperFunction,NonPlated,NPTH,ComponentDrill
T1C0.0236
%
G90
G05
T1
X4.3888Y-3.5173
X4.3888Y-3.6906
X4.4203Y-3.5173
X4.4203Y-3.6906
X4.4518Y-3.5173
X4.4518Y-3.6906
X4.4833Y-3.5173
X4.4833Y-3.6906
X4.5148Y-3.5173
X4.5148Y-3.6906
X4.5463Y-3.5173
X4.5463Y-3.6906
X4.5778Y-3.5173
X4.5778Y-3.6906
X4.6093Y-3.5173
X4.6093Y-3.6906
X5.2982Y-2.6079
X5.2982Y-2.6394
X5.2982Y-2.6709
X5.2982Y-2.7024
X5.2982Y-2.7339
X5.2982Y-2.7654
X5.2982Y-2.7969
X5.2982Y-2.8283
X5.2982Y-4.3795
X5.2982Y-4.411
X5.2982Y-4.4425
X5.2982Y-4.474
X5.2982Y-4.5055
X5.2982Y-4.537
X5.2982Y-4.5685
X5.2982Y-4.6
X5.4715Y-2.6079
X5.4715Y-2.6394
X5.4715Y-2.6709
X5.4715Y-2.7024
X5.4715Y-2.7339
X5.4715Y-2.7654
X5.4715Y-2.7969
X5.4715Y-2.8283
X5.4715Y-4.3795
X5.4715Y-4.411
X5.4715Y-4.4425
X5.4715Y-4.474
X5.4715Y-4.5055
X5.4715Y-4.537
X5.4715Y-4.5685
X5.4715Y-4.6
X6.1604Y-3.5173
X6.1604Y-3.6906
X6.1919Y-3.5173
X6.1919Y-3.6906
X6.2234Y-3.5173
X6.2234Y-3.6906
X6.2549Y-3.5173
X6.2549Y-3.6906
X6.2864Y-3.5173
X6.2864Y-3.6906
X6.3179Y-3.5173
X6.3179Y-3.6906
X6.3494Y-3.5173
X6.3494Y-3.6906
X6.3809Y-3.5173
X6.3809Y-3.6906
T0
M30
