%TF.GenerationSoftware,KiCad,Pcbnew,7.0.1*%
%TF.CreationDate,2023-09-10T14:17:04+09:00*%
%TF.ProjectId,logic_block,6c6f6769-635f-4626-9c6f-636b2e6b6963,rev?*%
%TF.SameCoordinates,Original*%
%TF.FileFunction,Soldermask,Bot*%
%TF.FilePolarity,Negative*%
%FSLAX46Y46*%
G04 Gerber Fmt 4.6, Leading zero omitted, Abs format (unit mm)*
G04 Created by KiCad (PCBNEW 7.0.1) date 2023-09-10 14:17:04*
%MOMM*%
%LPD*%
G01*
G04 APERTURE LIST*
G04 Aperture macros list*
%AMRoundRect*
0 Rectangle with rounded corners*
0 $1 Rounding radius*
0 $2 $3 $4 $5 $6 $7 $8 $9 X,Y pos of 4 corners*
0 Add a 4 corners polygon primitive as box body*
4,1,4,$2,$3,$4,$5,$6,$7,$8,$9,$2,$3,0*
0 Add four circle primitives for the rounded corners*
1,1,$1+$1,$2,$3*
1,1,$1+$1,$4,$5*
1,1,$1+$1,$6,$7*
1,1,$1+$1,$8,$9*
0 Add four rect primitives between the rounded corners*
20,1,$1+$1,$2,$3,$4,$5,0*
20,1,$1+$1,$4,$5,$6,$7,0*
20,1,$1+$1,$6,$7,$8,$9,0*
20,1,$1+$1,$8,$9,$2,$3,0*%
G04 Aperture macros list end*
%ADD10R,1.159000X1.159000*%
%ADD11R,1.000000X0.700000*%
%ADD12RoundRect,0.150000X0.825000X0.150000X-0.825000X0.150000X-0.825000X-0.150000X0.825000X-0.150000X0*%
%ADD13R,1.350000X1.350000*%
%ADD14C,0.600000*%
G04 APERTURE END LIST*
D10*
%TO.C,J305*%
X164725000Y-50940000D03*
%TD*%
%TO.C,J306*%
X153775000Y-87140000D03*
%TD*%
%TO.C,J303*%
X164675000Y-87140000D03*
%TD*%
%TO.C,J301*%
X153825000Y-50940000D03*
%TD*%
%TO.C,J304*%
X141175000Y-74540000D03*
%TD*%
D11*
%TO.C,D309*%
X176750000Y-72540000D03*
X176750000Y-76540000D03*
X170800000Y-76540000D03*
X170800000Y-72540000D03*
%TD*%
D10*
%TO.C,J302*%
X177375000Y-63640000D03*
%TD*%
D12*
%TO.C,U301*%
X161750000Y-65230000D03*
X161750000Y-66500000D03*
X161750000Y-67770000D03*
X161750000Y-69040000D03*
X161750000Y-70310000D03*
X161750000Y-71580000D03*
X161750000Y-72850000D03*
X156800000Y-72850000D03*
X156800000Y-71580000D03*
X156800000Y-70310000D03*
X156800000Y-69040000D03*
X156800000Y-67770000D03*
X156800000Y-66500000D03*
X156800000Y-65230000D03*
%TD*%
D13*
%TO.C,J307*%
X148275000Y-74540000D03*
%TD*%
D10*
%TO.C,J305*%
X164725000Y-95940000D03*
%TD*%
%TO.C,J306*%
X153775000Y-132140000D03*
%TD*%
%TO.C,J303*%
X164675000Y-132140000D03*
%TD*%
%TO.C,J301*%
X153825000Y-95940000D03*
%TD*%
%TO.C,J304*%
X141175000Y-119540000D03*
%TD*%
D11*
%TO.C,D309*%
X176750000Y-117540000D03*
X176750000Y-121540000D03*
X170800000Y-121540000D03*
X170800000Y-117540000D03*
%TD*%
D10*
%TO.C,J302*%
X177375000Y-108640000D03*
%TD*%
D12*
%TO.C,U301*%
X161750000Y-110230000D03*
X161750000Y-111500000D03*
X161750000Y-112770000D03*
X161750000Y-114040000D03*
X161750000Y-115310000D03*
X161750000Y-116580000D03*
X161750000Y-117850000D03*
X156800000Y-117850000D03*
X156800000Y-116580000D03*
X156800000Y-115310000D03*
X156800000Y-114040000D03*
X156800000Y-112770000D03*
X156800000Y-111500000D03*
X156800000Y-110230000D03*
%TD*%
D13*
%TO.C,J307*%
X148275000Y-119540000D03*
%TD*%
D10*
%TO.C,J305*%
X119725000Y-95940000D03*
%TD*%
%TO.C,J306*%
X108775000Y-132140000D03*
%TD*%
%TO.C,J303*%
X119675000Y-132140000D03*
%TD*%
%TO.C,J301*%
X108825000Y-95940000D03*
%TD*%
%TO.C,J304*%
X96175000Y-119540000D03*
%TD*%
D11*
%TO.C,D309*%
X131750000Y-117540000D03*
X131750000Y-121540000D03*
X125800000Y-121540000D03*
X125800000Y-117540000D03*
%TD*%
D10*
%TO.C,J302*%
X132375000Y-108640000D03*
%TD*%
D12*
%TO.C,U301*%
X116750000Y-110230000D03*
X116750000Y-111500000D03*
X116750000Y-112770000D03*
X116750000Y-114040000D03*
X116750000Y-115310000D03*
X116750000Y-116580000D03*
X116750000Y-117850000D03*
X111800000Y-117850000D03*
X111800000Y-116580000D03*
X111800000Y-115310000D03*
X111800000Y-114040000D03*
X111800000Y-112770000D03*
X111800000Y-111500000D03*
X111800000Y-110230000D03*
%TD*%
D13*
%TO.C,J307*%
X103275000Y-119540000D03*
%TD*%
D10*
%TO.C,J305*%
X119725000Y-50940000D03*
%TD*%
%TO.C,J306*%
X108775000Y-87140000D03*
%TD*%
%TO.C,J303*%
X119675000Y-87140000D03*
%TD*%
%TO.C,J301*%
X108825000Y-50940000D03*
%TD*%
%TO.C,J304*%
X96175000Y-74540000D03*
%TD*%
D11*
%TO.C,D309*%
X131750000Y-72540000D03*
X131750000Y-76540000D03*
X125800000Y-76540000D03*
X125800000Y-72540000D03*
%TD*%
D10*
%TO.C,J302*%
X132375000Y-63640000D03*
%TD*%
D12*
%TO.C,U301*%
X116750000Y-65230000D03*
X116750000Y-66500000D03*
X116750000Y-67770000D03*
X116750000Y-69040000D03*
X116750000Y-70310000D03*
X116750000Y-71580000D03*
X116750000Y-72850000D03*
X111800000Y-72850000D03*
X111800000Y-71580000D03*
X111800000Y-70310000D03*
X111800000Y-69040000D03*
X111800000Y-67770000D03*
X111800000Y-66500000D03*
X111800000Y-65230000D03*
%TD*%
D13*
%TO.C,J307*%
X103275000Y-74540000D03*
%TD*%
D14*
%TO.C,REF\u002A\u002A*%
X162075000Y-93740000D03*
X162075000Y-89340000D03*
X161275000Y-93740000D03*
X161275000Y-89340000D03*
X160475000Y-93740000D03*
X160475000Y-89340000D03*
X159675000Y-93740000D03*
X159675000Y-89340000D03*
X158875000Y-93740000D03*
X158875000Y-89340000D03*
X158075000Y-93740000D03*
X158075000Y-89340000D03*
X157275000Y-93740000D03*
X157275000Y-89340000D03*
X156475000Y-93740000D03*
X156475000Y-89340000D03*
%TD*%
%TO.C,REF\u002A\u002A*%
X138975000Y-66240000D03*
X134575000Y-66240000D03*
X138975000Y-67040000D03*
X134575000Y-67040000D03*
X138975000Y-67840000D03*
X134575000Y-67840000D03*
X138975000Y-68640000D03*
X134575000Y-68640000D03*
X138975000Y-69440000D03*
X134575000Y-69440000D03*
X138975000Y-70240000D03*
X134575000Y-70240000D03*
X138975000Y-71040000D03*
X134575000Y-71040000D03*
X138975000Y-71840000D03*
X134575000Y-71840000D03*
%TD*%
%TO.C,REF\u002A\u002A*%
X134575000Y-116840000D03*
X138975000Y-116840000D03*
X134575000Y-116040000D03*
X138975000Y-116040000D03*
X134575000Y-115240000D03*
X138975000Y-115240000D03*
X134575000Y-114440000D03*
X138975000Y-114440000D03*
X134575000Y-113640000D03*
X138975000Y-113640000D03*
X134575000Y-112840000D03*
X138975000Y-112840000D03*
X134575000Y-112040000D03*
X138975000Y-112040000D03*
X134575000Y-111240000D03*
X138975000Y-111240000D03*
%TD*%
%TO.C,REF\u002A\u002A*%
X111475000Y-89340000D03*
X111475000Y-93740000D03*
X112275000Y-89340000D03*
X112275000Y-93740000D03*
X113075000Y-89340000D03*
X113075000Y-93740000D03*
X113875000Y-89340000D03*
X113875000Y-93740000D03*
X114675000Y-89340000D03*
X114675000Y-93740000D03*
X115475000Y-89340000D03*
X115475000Y-93740000D03*
X116275000Y-89340000D03*
X116275000Y-93740000D03*
X117075000Y-89340000D03*
X117075000Y-93740000D03*
%TD*%
M02*
