M48
; DRILL file {KiCad 7.0.1} date Sun Sep 10 14:17:09 2023
; FORMAT={-:-/ absolute / inch / decimal}
; #@! TF.CreationDate,2023-09-10T14:17:09+09:00
; #@! TF.GenerationSoftware,Kicad,Pcbnew,7.0.1
; #@! TF.FileFunction,Plated,1,2,PTH
FMAT,2
INCH
; #@! TA.AperFunction,Plated,PTH,ViaDrill
T1C0.0157
; #@! TA.AperFunction,Plated,PTH,ComponentDrill
T2C0.0249
; #@! TA.AperFunction,Plated,PTH,ComponentDrill
T3C0.0315
%
G90
G05
T1
X3.814Y-2.6
X3.814Y-4.3717
X3.936Y-3.1433
X3.936Y-4.915
X4.1053Y-2.1315
X4.1053Y-3.9031
X4.1211Y-2.6098
X4.1211Y-4.3815
X4.1998Y-2.915
X4.1998Y-4.6866
X4.2234Y-2.6197
X4.2234Y-4.3913
X4.3022Y-2.2811
X4.3022Y-2.4228
X4.3022Y-4.0528
X4.3022Y-4.1945
X4.3809Y-2.9937
X4.3809Y-3.1079
X4.3809Y-4.7654
X4.3809Y-4.8795
X4.4006Y-2.7693
X4.4006Y-4.5409
X4.499Y-2.7181
X4.499Y-4.4898
X4.5069Y-2.0134
X4.5069Y-3.785
X4.5974Y-2.5685
X4.5974Y-2.6197
X4.5974Y-2.8165
X4.5974Y-4.3402
X4.5974Y-4.3913
X4.5974Y-4.5882
X4.6132Y-2.3264
X4.6132Y-4.098
X4.6565Y-3.1276
X4.6565Y-4.8992
X4.6959Y-2.5803
X4.6959Y-4.352
X4.6998Y-3.0331
X4.6998Y-4.8047
X4.7352Y-2.8165
X4.7352Y-4.5882
X4.7746Y-2.6197
X4.7746Y-4.3913
X4.7943Y-2.5213
X4.7943Y-4.2929
X4.8888Y-3.2693
X4.8888Y-5.0409
X5.0148Y-2.3677
X5.0148Y-4.1394
X5.5856Y-2.6
X5.5856Y-4.3717
X5.7077Y-3.1433
X5.7077Y-4.915
X5.877Y-2.1315
X5.877Y-3.9031
X5.8927Y-2.6098
X5.8927Y-4.3815
X5.9715Y-2.915
X5.9715Y-4.6866
X5.9951Y-2.6197
X5.9951Y-4.3913
X6.0738Y-2.2811
X6.0738Y-2.4228
X6.0738Y-4.0528
X6.0738Y-4.1945
X6.1526Y-2.9937
X6.1526Y-3.1079
X6.1526Y-4.7654
X6.1526Y-4.8795
X6.1722Y-2.7693
X6.1722Y-4.5409
X6.2707Y-2.7181
X6.2707Y-4.4898
X6.2785Y-2.0134
X6.2785Y-3.785
X6.3691Y-2.5685
X6.3691Y-2.6197
X6.3691Y-2.8165
X6.3691Y-4.3402
X6.3691Y-4.3913
X6.3691Y-4.5882
X6.3848Y-2.3264
X6.3848Y-4.098
X6.4281Y-3.1276
X6.4281Y-4.8992
X6.4675Y-2.5803
X6.4675Y-4.352
X6.4715Y-3.0331
X6.4715Y-4.8047
X6.5069Y-2.8165
X6.5069Y-4.5882
X6.5463Y-2.6197
X6.5463Y-4.3913
X6.5659Y-2.5213
X6.5659Y-4.2929
X6.6604Y-3.2693
X6.6604Y-5.0409
X6.7864Y-2.3677
X6.7864Y-4.1394
T2
X3.7864Y-2.9346
X3.7864Y-4.7063
X4.2825Y-3.4307
X4.2825Y-5.2024
X4.2844Y-2.0055
X4.2844Y-3.7772
X4.7116Y-3.4307
X4.7116Y-5.2024
X4.7136Y-2.0055
X4.7136Y-3.7772
X5.2116Y-2.5055
X5.2116Y-4.2772
X5.5581Y-2.9346
X5.5581Y-4.7063
X6.0541Y-3.4307
X6.0541Y-5.2024
X6.0561Y-2.0055
X6.0561Y-3.7772
X6.4833Y-3.4307
X6.4833Y-5.2024
X6.4852Y-2.0055
X6.4852Y-3.7772
X6.9833Y-2.5055
X6.9833Y-4.2772
T3
X4.0659Y-2.9346
X4.0659Y-4.7063
X5.8376Y-2.9346
X5.8376Y-4.7063
T0
M30
