%TF.GenerationSoftware,KiCad,Pcbnew,7.0.1*%
%TF.CreationDate,2023-09-10T14:17:03+09:00*%
%TF.ProjectId,logic_block,6c6f6769-635f-4626-9c6f-636b2e6b6963,rev?*%
%TF.SameCoordinates,Original*%
%TF.FileFunction,Copper,L2,Bot*%
%TF.FilePolarity,Positive*%
%FSLAX46Y46*%
G04 Gerber Fmt 4.6, Leading zero omitted, Abs format (unit mm)*
G04 Created by KiCad (PCBNEW 7.0.1) date 2023-09-10 14:17:03*
%MOMM*%
%LPD*%
G01*
G04 APERTURE LIST*
G04 Aperture macros list*
%AMRoundRect*
0 Rectangle with rounded corners*
0 $1 Rounding radius*
0 $2 $3 $4 $5 $6 $7 $8 $9 X,Y pos of 4 corners*
0 Add a 4 corners polygon primitive as box body*
4,1,4,$2,$3,$4,$5,$6,$7,$8,$9,$2,$3,0*
0 Add four circle primitives for the rounded corners*
1,1,$1+$1,$2,$3*
1,1,$1+$1,$4,$5*
1,1,$1+$1,$6,$7*
1,1,$1+$1,$8,$9*
0 Add four rect primitives between the rounded corners*
20,1,$1+$1,$2,$3,$4,$5,0*
20,1,$1+$1,$4,$5,$6,$7,0*
20,1,$1+$1,$6,$7,$8,$9,0*
20,1,$1+$1,$8,$9,$2,$3,0*%
G04 Aperture macros list end*
%TA.AperFunction,ComponentPad*%
%ADD10R,1.159000X1.159000*%
%TD*%
%TA.AperFunction,SMDPad,CuDef*%
%ADD11R,1.000000X0.700000*%
%TD*%
%TA.AperFunction,SMDPad,CuDef*%
%ADD12RoundRect,0.150000X0.825000X0.150000X-0.825000X0.150000X-0.825000X-0.150000X0.825000X-0.150000X0*%
%TD*%
%TA.AperFunction,ComponentPad*%
%ADD13R,1.350000X1.350000*%
%TD*%
%TA.AperFunction,ViaPad*%
%ADD14C,0.800000*%
%TD*%
%TA.AperFunction,Conductor*%
%ADD15C,0.250000*%
%TD*%
G04 APERTURE END LIST*
D10*
%TO.P,J305,1,Pin_1*%
%TO.N,Net-(J305-Pin_1)*%
X164725000Y-50940000D03*
%TD*%
%TO.P,J306,1,Pin_1*%
%TO.N,Net-(J306-Pin_1)*%
X153775000Y-87140000D03*
%TD*%
%TO.P,J303,1,Pin_1*%
%TO.N,S_S*%
X164675000Y-87140000D03*
%TD*%
%TO.P,J301,1,Pin_1*%
%TO.N,N_S*%
X153825000Y-50940000D03*
%TD*%
%TO.P,J304,1,Pin_1*%
%TO.N,W_S*%
X141175000Y-74540000D03*
%TD*%
D11*
%TO.P,D309,1,+*%
%TO.N,+5V*%
X176750000Y-72540000D03*
%TO.P,D309,2,-*%
%TO.N,GND*%
X176750000Y-76540000D03*
%TO.P,D309,3*%
%TO.N,Net-(J306-Pin_1)*%
X170800000Y-76540000D03*
%TO.P,D309,4*%
%TO.N,Net-(J305-Pin_1)*%
X170800000Y-72540000D03*
%TD*%
D10*
%TO.P,J302,1,Pin_1*%
%TO.N,E_S*%
X177375000Y-63640000D03*
%TD*%
D12*
%TO.P,U301,1,VCC*%
%TO.N,+5V*%
X161750000Y-65230000D03*
%TO.P,U301,2,PA4*%
%TO.N,N_S*%
X161750000Y-66500000D03*
%TO.P,U301,3,PA5*%
%TO.N,N_LED*%
X161750000Y-67770000D03*
%TO.P,U301,4,PA6*%
%TO.N,E_S*%
X161750000Y-69040000D03*
%TO.P,U301,5,PA7*%
%TO.N,E_LED*%
X161750000Y-70310000D03*
%TO.P,U301,6,PB3*%
%TO.N,S_S*%
X161750000Y-71580000D03*
%TO.P,U301,7,PB2*%
%TO.N,S_LED*%
X161750000Y-72850000D03*
%TO.P,U301,8,PB1*%
%TO.N,W_S*%
X156800000Y-72850000D03*
%TO.P,U301,9,PB0*%
%TO.N,W_LED*%
X156800000Y-71580000D03*
%TO.P,U301,10,~{RESET}/PA0*%
%TO.N,UPDI*%
X156800000Y-70310000D03*
%TO.P,U301,11,PA1*%
%TO.N,unconnected-(U301-PA1-Pad11)*%
X156800000Y-69040000D03*
%TO.P,U301,12,PA2*%
%TO.N,unconnected-(U301-PA2-Pad12)*%
X156800000Y-67770000D03*
%TO.P,U301,13,PA3*%
%TO.N,unconnected-(U301-PA3-Pad13)*%
X156800000Y-66500000D03*
%TO.P,U301,14,GND*%
%TO.N,GND*%
X156800000Y-65230000D03*
%TD*%
D13*
%TO.P,J307,1,Pin_1*%
%TO.N,UPDI*%
X148275000Y-74540000D03*
%TD*%
D10*
%TO.P,J305,1,Pin_1*%
%TO.N,Net-(J305-Pin_1)*%
X164725000Y-95940000D03*
%TD*%
%TO.P,J306,1,Pin_1*%
%TO.N,Net-(J306-Pin_1)*%
X153775000Y-132140000D03*
%TD*%
%TO.P,J303,1,Pin_1*%
%TO.N,S_S*%
X164675000Y-132140000D03*
%TD*%
%TO.P,J301,1,Pin_1*%
%TO.N,N_S*%
X153825000Y-95940000D03*
%TD*%
%TO.P,J304,1,Pin_1*%
%TO.N,W_S*%
X141175000Y-119540000D03*
%TD*%
D11*
%TO.P,D309,1,+*%
%TO.N,+5V*%
X176750000Y-117540000D03*
%TO.P,D309,2,-*%
%TO.N,GND*%
X176750000Y-121540000D03*
%TO.P,D309,3*%
%TO.N,Net-(J306-Pin_1)*%
X170800000Y-121540000D03*
%TO.P,D309,4*%
%TO.N,Net-(J305-Pin_1)*%
X170800000Y-117540000D03*
%TD*%
D10*
%TO.P,J302,1,Pin_1*%
%TO.N,E_S*%
X177375000Y-108640000D03*
%TD*%
D12*
%TO.P,U301,1,VCC*%
%TO.N,+5V*%
X161750000Y-110230000D03*
%TO.P,U301,2,PA4*%
%TO.N,N_S*%
X161750000Y-111500000D03*
%TO.P,U301,3,PA5*%
%TO.N,N_LED*%
X161750000Y-112770000D03*
%TO.P,U301,4,PA6*%
%TO.N,E_S*%
X161750000Y-114040000D03*
%TO.P,U301,5,PA7*%
%TO.N,E_LED*%
X161750000Y-115310000D03*
%TO.P,U301,6,PB3*%
%TO.N,S_S*%
X161750000Y-116580000D03*
%TO.P,U301,7,PB2*%
%TO.N,S_LED*%
X161750000Y-117850000D03*
%TO.P,U301,8,PB1*%
%TO.N,W_S*%
X156800000Y-117850000D03*
%TO.P,U301,9,PB0*%
%TO.N,W_LED*%
X156800000Y-116580000D03*
%TO.P,U301,10,~{RESET}/PA0*%
%TO.N,UPDI*%
X156800000Y-115310000D03*
%TO.P,U301,11,PA1*%
%TO.N,unconnected-(U301-PA1-Pad11)*%
X156800000Y-114040000D03*
%TO.P,U301,12,PA2*%
%TO.N,unconnected-(U301-PA2-Pad12)*%
X156800000Y-112770000D03*
%TO.P,U301,13,PA3*%
%TO.N,unconnected-(U301-PA3-Pad13)*%
X156800000Y-111500000D03*
%TO.P,U301,14,GND*%
%TO.N,GND*%
X156800000Y-110230000D03*
%TD*%
D13*
%TO.P,J307,1,Pin_1*%
%TO.N,UPDI*%
X148275000Y-119540000D03*
%TD*%
D10*
%TO.P,J305,1,Pin_1*%
%TO.N,Net-(J305-Pin_1)*%
X119725000Y-95940000D03*
%TD*%
%TO.P,J306,1,Pin_1*%
%TO.N,Net-(J306-Pin_1)*%
X108775000Y-132140000D03*
%TD*%
%TO.P,J303,1,Pin_1*%
%TO.N,S_S*%
X119675000Y-132140000D03*
%TD*%
%TO.P,J301,1,Pin_1*%
%TO.N,N_S*%
X108825000Y-95940000D03*
%TD*%
%TO.P,J304,1,Pin_1*%
%TO.N,W_S*%
X96175000Y-119540000D03*
%TD*%
D11*
%TO.P,D309,1,+*%
%TO.N,+5V*%
X131750000Y-117540000D03*
%TO.P,D309,2,-*%
%TO.N,GND*%
X131750000Y-121540000D03*
%TO.P,D309,3*%
%TO.N,Net-(J306-Pin_1)*%
X125800000Y-121540000D03*
%TO.P,D309,4*%
%TO.N,Net-(J305-Pin_1)*%
X125800000Y-117540000D03*
%TD*%
D10*
%TO.P,J302,1,Pin_1*%
%TO.N,E_S*%
X132375000Y-108640000D03*
%TD*%
D12*
%TO.P,U301,1,VCC*%
%TO.N,+5V*%
X116750000Y-110230000D03*
%TO.P,U301,2,PA4*%
%TO.N,N_S*%
X116750000Y-111500000D03*
%TO.P,U301,3,PA5*%
%TO.N,N_LED*%
X116750000Y-112770000D03*
%TO.P,U301,4,PA6*%
%TO.N,E_S*%
X116750000Y-114040000D03*
%TO.P,U301,5,PA7*%
%TO.N,E_LED*%
X116750000Y-115310000D03*
%TO.P,U301,6,PB3*%
%TO.N,S_S*%
X116750000Y-116580000D03*
%TO.P,U301,7,PB2*%
%TO.N,S_LED*%
X116750000Y-117850000D03*
%TO.P,U301,8,PB1*%
%TO.N,W_S*%
X111800000Y-117850000D03*
%TO.P,U301,9,PB0*%
%TO.N,W_LED*%
X111800000Y-116580000D03*
%TO.P,U301,10,~{RESET}/PA0*%
%TO.N,UPDI*%
X111800000Y-115310000D03*
%TO.P,U301,11,PA1*%
%TO.N,unconnected-(U301-PA1-Pad11)*%
X111800000Y-114040000D03*
%TO.P,U301,12,PA2*%
%TO.N,unconnected-(U301-PA2-Pad12)*%
X111800000Y-112770000D03*
%TO.P,U301,13,PA3*%
%TO.N,unconnected-(U301-PA3-Pad13)*%
X111800000Y-111500000D03*
%TO.P,U301,14,GND*%
%TO.N,GND*%
X111800000Y-110230000D03*
%TD*%
D13*
%TO.P,J307,1,Pin_1*%
%TO.N,UPDI*%
X103275000Y-119540000D03*
%TD*%
D10*
%TO.P,J305,1,Pin_1*%
%TO.N,Net-(J305-Pin_1)*%
X119725000Y-50940000D03*
%TD*%
%TO.P,J306,1,Pin_1*%
%TO.N,Net-(J306-Pin_1)*%
X108775000Y-87140000D03*
%TD*%
%TO.P,J303,1,Pin_1*%
%TO.N,S_S*%
X119675000Y-87140000D03*
%TD*%
%TO.P,J301,1,Pin_1*%
%TO.N,N_S*%
X108825000Y-50940000D03*
%TD*%
%TO.P,J304,1,Pin_1*%
%TO.N,W_S*%
X96175000Y-74540000D03*
%TD*%
D11*
%TO.P,D309,1,+*%
%TO.N,+5V*%
X131750000Y-72540000D03*
%TO.P,D309,2,-*%
%TO.N,GND*%
X131750000Y-76540000D03*
%TO.P,D309,3*%
%TO.N,Net-(J306-Pin_1)*%
X125800000Y-76540000D03*
%TO.P,D309,4*%
%TO.N,Net-(J305-Pin_1)*%
X125800000Y-72540000D03*
%TD*%
D10*
%TO.P,J302,1,Pin_1*%
%TO.N,E_S*%
X132375000Y-63640000D03*
%TD*%
D12*
%TO.P,U301,1,VCC*%
%TO.N,+5V*%
X116750000Y-65230000D03*
%TO.P,U301,2,PA4*%
%TO.N,N_S*%
X116750000Y-66500000D03*
%TO.P,U301,3,PA5*%
%TO.N,N_LED*%
X116750000Y-67770000D03*
%TO.P,U301,4,PA6*%
%TO.N,E_S*%
X116750000Y-69040000D03*
%TO.P,U301,5,PA7*%
%TO.N,E_LED*%
X116750000Y-70310000D03*
%TO.P,U301,6,PB3*%
%TO.N,S_S*%
X116750000Y-71580000D03*
%TO.P,U301,7,PB2*%
%TO.N,S_LED*%
X116750000Y-72850000D03*
%TO.P,U301,8,PB1*%
%TO.N,W_S*%
X111800000Y-72850000D03*
%TO.P,U301,9,PB0*%
%TO.N,W_LED*%
X111800000Y-71580000D03*
%TO.P,U301,10,~{RESET}/PA0*%
%TO.N,UPDI*%
X111800000Y-70310000D03*
%TO.P,U301,11,PA1*%
%TO.N,unconnected-(U301-PA1-Pad11)*%
X111800000Y-69040000D03*
%TO.P,U301,12,PA2*%
%TO.N,unconnected-(U301-PA2-Pad12)*%
X111800000Y-67770000D03*
%TO.P,U301,13,PA3*%
%TO.N,unconnected-(U301-PA3-Pad13)*%
X111800000Y-66500000D03*
%TO.P,U301,14,GND*%
%TO.N,GND*%
X111800000Y-65230000D03*
%TD*%
D13*
%TO.P,J307,1,Pin_1*%
%TO.N,UPDI*%
X103275000Y-74540000D03*
%TD*%
D14*
%TO.N,+5V*%
X164375000Y-77040000D03*
X166775000Y-64040000D03*
%TO.N,N_S*%
X161775000Y-66540000D03*
%TO.N,GND*%
X149675000Y-66290000D03*
X159475000Y-51140000D03*
%TO.N,+5V*%
X151675000Y-74040000D03*
%TO.N,W_LED*%
X152275000Y-66540000D03*
%TO.N,S_LED*%
X156275000Y-76040000D03*
%TO.N,E_LED*%
X165275000Y-71540000D03*
%TO.N,N_LED*%
X164275000Y-65540000D03*
%TO.N,GND*%
X154275000Y-57940000D03*
%TO.N,UPDI*%
X156775000Y-70340000D03*
%TO.N,GND*%
X159275000Y-69040000D03*
%TO.N,S_S*%
X161775000Y-71540000D03*
%TO.N,E_S*%
X166275000Y-66540000D03*
%TO.N,GND*%
X156275000Y-78940000D03*
X141875000Y-66040000D03*
%TO.N,+5V*%
X161775000Y-65240000D03*
%TO.N,GND*%
X149275000Y-54140000D03*
X144975000Y-79840000D03*
X162175000Y-59090000D03*
%TO.N,+5V*%
X154275000Y-61540000D03*
%TO.N,GND*%
X163275000Y-79440000D03*
X169175000Y-83040000D03*
X172375000Y-60140000D03*
%TO.N,+5V*%
X164375000Y-122040000D03*
X166775000Y-109040000D03*
%TO.N,N_S*%
X161775000Y-111540000D03*
%TO.N,GND*%
X149675000Y-111290000D03*
X159475000Y-96140000D03*
%TO.N,+5V*%
X151675000Y-119040000D03*
%TO.N,W_LED*%
X152275000Y-111540000D03*
%TO.N,S_LED*%
X156275000Y-121040000D03*
%TO.N,E_LED*%
X165275000Y-116540000D03*
%TO.N,N_LED*%
X164275000Y-110540000D03*
%TO.N,GND*%
X154275000Y-102940000D03*
%TO.N,UPDI*%
X156775000Y-115340000D03*
%TO.N,GND*%
X159275000Y-114040000D03*
%TO.N,S_S*%
X161775000Y-116540000D03*
%TO.N,E_S*%
X166275000Y-111540000D03*
%TO.N,GND*%
X156275000Y-123940000D03*
X141875000Y-111040000D03*
%TO.N,+5V*%
X161775000Y-110240000D03*
%TO.N,GND*%
X149275000Y-99140000D03*
X144975000Y-124840000D03*
X162175000Y-104090000D03*
%TO.N,+5V*%
X154275000Y-106540000D03*
%TO.N,GND*%
X163275000Y-124440000D03*
X169175000Y-128040000D03*
X172375000Y-105140000D03*
%TO.N,+5V*%
X119375000Y-122040000D03*
X121775000Y-109040000D03*
%TO.N,N_S*%
X116775000Y-111540000D03*
%TO.N,GND*%
X104675000Y-111290000D03*
X114475000Y-96140000D03*
%TO.N,+5V*%
X106675000Y-119040000D03*
%TO.N,W_LED*%
X107275000Y-111540000D03*
%TO.N,S_LED*%
X111275000Y-121040000D03*
%TO.N,E_LED*%
X120275000Y-116540000D03*
%TO.N,N_LED*%
X119275000Y-110540000D03*
%TO.N,GND*%
X109275000Y-102940000D03*
%TO.N,UPDI*%
X111775000Y-115340000D03*
%TO.N,GND*%
X114275000Y-114040000D03*
%TO.N,S_S*%
X116775000Y-116540000D03*
%TO.N,E_S*%
X121275000Y-111540000D03*
%TO.N,GND*%
X111275000Y-123940000D03*
X96875000Y-111040000D03*
%TO.N,+5V*%
X116775000Y-110240000D03*
%TO.N,GND*%
X104275000Y-99140000D03*
X99975000Y-124840000D03*
X117175000Y-104090000D03*
%TO.N,+5V*%
X109275000Y-106540000D03*
%TO.N,GND*%
X118275000Y-124440000D03*
X124175000Y-128040000D03*
X127375000Y-105140000D03*
%TO.N,+5V*%
X119375000Y-77040000D03*
X121775000Y-64040000D03*
%TO.N,N_S*%
X116775000Y-66540000D03*
%TO.N,GND*%
X104675000Y-66290000D03*
X114475000Y-51140000D03*
%TO.N,+5V*%
X106675000Y-74040000D03*
%TO.N,W_LED*%
X107275000Y-66540000D03*
%TO.N,S_LED*%
X111275000Y-76040000D03*
%TO.N,E_LED*%
X120275000Y-71540000D03*
%TO.N,N_LED*%
X119275000Y-65540000D03*
%TO.N,GND*%
X109275000Y-57940000D03*
%TO.N,UPDI*%
X111775000Y-70340000D03*
%TO.N,GND*%
X114275000Y-69040000D03*
%TO.N,S_S*%
X116775000Y-71540000D03*
%TO.N,E_S*%
X121275000Y-66540000D03*
%TO.N,GND*%
X111275000Y-78940000D03*
X96875000Y-66040000D03*
%TO.N,+5V*%
X116775000Y-65240000D03*
%TO.N,GND*%
X104275000Y-54140000D03*
X99975000Y-79840000D03*
X117175000Y-59090000D03*
%TO.N,+5V*%
X109275000Y-61540000D03*
%TO.N,GND*%
X118275000Y-79440000D03*
X124175000Y-83040000D03*
X127375000Y-60140000D03*
%TD*%
D15*
%TO.N,W_LED*%
X152275000Y-69540000D02*
X152275000Y-66540000D01*
%TO.N,S_LED*%
X161750000Y-72850000D02*
X158560000Y-76040000D01*
%TO.N,W_LED*%
X156800000Y-71580000D02*
X154315000Y-71580000D01*
%TO.N,E_LED*%
X161750000Y-70310000D02*
X164045000Y-70310000D01*
%TO.N,N_LED*%
X164275000Y-65540000D02*
X164275000Y-65621751D01*
X164275000Y-65621751D02*
X162126751Y-67770000D01*
%TO.N,W_LED*%
X154315000Y-71580000D02*
X152275000Y-69540000D01*
%TO.N,E_LED*%
X164045000Y-70310000D02*
X165275000Y-71540000D01*
%TO.N,S_LED*%
X158560000Y-76040000D02*
X156275000Y-76040000D01*
%TO.N,N_LED*%
X162126751Y-67770000D02*
X161750000Y-67770000D01*
%TO.N,+5V*%
X175275000Y-72540000D02*
X166775000Y-64040000D01*
X164375000Y-77040000D02*
X167625000Y-77040000D01*
X158075000Y-61540000D02*
X154275000Y-61540000D01*
%TO.N,Net-(J305-Pin_1)*%
X164725000Y-63964695D02*
X164725000Y-50940000D01*
%TO.N,Net-(J306-Pin_1)*%
X160175000Y-87140000D02*
X153775000Y-87140000D01*
X170775000Y-76540000D02*
X160175000Y-87140000D01*
%TO.N,+5V*%
X167625000Y-77040000D02*
X172125000Y-72540000D01*
%TO.N,Net-(J305-Pin_1)*%
X170800000Y-70039695D02*
X164725000Y-63964695D01*
%TO.N,E_S*%
X161750000Y-69040000D02*
X162126751Y-69040000D01*
%TO.N,W_S*%
X142865000Y-72850000D02*
X141175000Y-74540000D01*
%TO.N,E_S*%
X164626751Y-66540000D02*
X166275000Y-66540000D01*
%TO.N,Net-(J306-Pin_1)*%
X170800000Y-76540000D02*
X170775000Y-76540000D01*
%TO.N,W_S*%
X156800000Y-72850000D02*
X142865000Y-72850000D01*
%TO.N,E_S*%
X162126751Y-69040000D02*
X164626751Y-66540000D01*
%TO.N,+5V*%
X154675000Y-77040000D02*
X151675000Y-74040000D01*
X161775000Y-65240000D02*
X158075000Y-61540000D01*
X176750000Y-72540000D02*
X175275000Y-72540000D01*
X164375000Y-77040000D02*
X154675000Y-77040000D01*
%TO.N,Net-(J305-Pin_1)*%
X170800000Y-72540000D02*
X170800000Y-70039695D01*
%TO.N,+5V*%
X172125000Y-72540000D02*
X176750000Y-72540000D01*
%TO.N,W_LED*%
X152275000Y-114540000D02*
X152275000Y-111540000D01*
%TO.N,S_LED*%
X161750000Y-117850000D02*
X158560000Y-121040000D01*
%TO.N,W_LED*%
X156800000Y-116580000D02*
X154315000Y-116580000D01*
%TO.N,E_LED*%
X161750000Y-115310000D02*
X164045000Y-115310000D01*
%TO.N,N_LED*%
X164275000Y-110540000D02*
X164275000Y-110621751D01*
X164275000Y-110621751D02*
X162126751Y-112770000D01*
%TO.N,W_LED*%
X154315000Y-116580000D02*
X152275000Y-114540000D01*
%TO.N,E_LED*%
X164045000Y-115310000D02*
X165275000Y-116540000D01*
%TO.N,S_LED*%
X158560000Y-121040000D02*
X156275000Y-121040000D01*
%TO.N,N_LED*%
X162126751Y-112770000D02*
X161750000Y-112770000D01*
%TO.N,+5V*%
X175275000Y-117540000D02*
X166775000Y-109040000D01*
X164375000Y-122040000D02*
X167625000Y-122040000D01*
X158075000Y-106540000D02*
X154275000Y-106540000D01*
%TO.N,Net-(J305-Pin_1)*%
X164725000Y-108964695D02*
X164725000Y-95940000D01*
%TO.N,Net-(J306-Pin_1)*%
X160175000Y-132140000D02*
X153775000Y-132140000D01*
X170775000Y-121540000D02*
X160175000Y-132140000D01*
%TO.N,+5V*%
X167625000Y-122040000D02*
X172125000Y-117540000D01*
%TO.N,Net-(J305-Pin_1)*%
X170800000Y-115039695D02*
X164725000Y-108964695D01*
%TO.N,E_S*%
X161750000Y-114040000D02*
X162126751Y-114040000D01*
%TO.N,W_S*%
X142865000Y-117850000D02*
X141175000Y-119540000D01*
%TO.N,E_S*%
X164626751Y-111540000D02*
X166275000Y-111540000D01*
%TO.N,Net-(J306-Pin_1)*%
X170800000Y-121540000D02*
X170775000Y-121540000D01*
%TO.N,W_S*%
X156800000Y-117850000D02*
X142865000Y-117850000D01*
%TO.N,E_S*%
X162126751Y-114040000D02*
X164626751Y-111540000D01*
%TO.N,+5V*%
X154675000Y-122040000D02*
X151675000Y-119040000D01*
X161775000Y-110240000D02*
X158075000Y-106540000D01*
X176750000Y-117540000D02*
X175275000Y-117540000D01*
X164375000Y-122040000D02*
X154675000Y-122040000D01*
%TO.N,Net-(J305-Pin_1)*%
X170800000Y-117540000D02*
X170800000Y-115039695D01*
%TO.N,+5V*%
X172125000Y-117540000D02*
X176750000Y-117540000D01*
%TO.N,W_LED*%
X107275000Y-114540000D02*
X107275000Y-111540000D01*
%TO.N,S_LED*%
X116750000Y-117850000D02*
X113560000Y-121040000D01*
%TO.N,W_LED*%
X111800000Y-116580000D02*
X109315000Y-116580000D01*
%TO.N,E_LED*%
X116750000Y-115310000D02*
X119045000Y-115310000D01*
%TO.N,N_LED*%
X119275000Y-110540000D02*
X119275000Y-110621751D01*
X119275000Y-110621751D02*
X117126751Y-112770000D01*
%TO.N,W_LED*%
X109315000Y-116580000D02*
X107275000Y-114540000D01*
%TO.N,E_LED*%
X119045000Y-115310000D02*
X120275000Y-116540000D01*
%TO.N,S_LED*%
X113560000Y-121040000D02*
X111275000Y-121040000D01*
%TO.N,N_LED*%
X117126751Y-112770000D02*
X116750000Y-112770000D01*
%TO.N,+5V*%
X130275000Y-117540000D02*
X121775000Y-109040000D01*
X119375000Y-122040000D02*
X122625000Y-122040000D01*
X113075000Y-106540000D02*
X109275000Y-106540000D01*
%TO.N,Net-(J305-Pin_1)*%
X119725000Y-108964695D02*
X119725000Y-95940000D01*
%TO.N,Net-(J306-Pin_1)*%
X115175000Y-132140000D02*
X108775000Y-132140000D01*
X125775000Y-121540000D02*
X115175000Y-132140000D01*
%TO.N,+5V*%
X122625000Y-122040000D02*
X127125000Y-117540000D01*
%TO.N,Net-(J305-Pin_1)*%
X125800000Y-115039695D02*
X119725000Y-108964695D01*
%TO.N,E_S*%
X116750000Y-114040000D02*
X117126751Y-114040000D01*
%TO.N,W_S*%
X97865000Y-117850000D02*
X96175000Y-119540000D01*
%TO.N,E_S*%
X119626751Y-111540000D02*
X121275000Y-111540000D01*
%TO.N,Net-(J306-Pin_1)*%
X125800000Y-121540000D02*
X125775000Y-121540000D01*
%TO.N,W_S*%
X111800000Y-117850000D02*
X97865000Y-117850000D01*
%TO.N,E_S*%
X117126751Y-114040000D02*
X119626751Y-111540000D01*
%TO.N,+5V*%
X109675000Y-122040000D02*
X106675000Y-119040000D01*
X116775000Y-110240000D02*
X113075000Y-106540000D01*
X131750000Y-117540000D02*
X130275000Y-117540000D01*
X119375000Y-122040000D02*
X109675000Y-122040000D01*
%TO.N,Net-(J305-Pin_1)*%
X125800000Y-117540000D02*
X125800000Y-115039695D01*
%TO.N,+5V*%
X127125000Y-117540000D02*
X131750000Y-117540000D01*
%TO.N,W_LED*%
X107275000Y-69540000D02*
X107275000Y-66540000D01*
%TO.N,S_LED*%
X116750000Y-72850000D02*
X113560000Y-76040000D01*
%TO.N,W_LED*%
X111800000Y-71580000D02*
X109315000Y-71580000D01*
%TO.N,E_LED*%
X116750000Y-70310000D02*
X119045000Y-70310000D01*
%TO.N,N_LED*%
X119275000Y-65540000D02*
X119275000Y-65621751D01*
X119275000Y-65621751D02*
X117126751Y-67770000D01*
%TO.N,W_LED*%
X109315000Y-71580000D02*
X107275000Y-69540000D01*
%TO.N,E_LED*%
X119045000Y-70310000D02*
X120275000Y-71540000D01*
%TO.N,S_LED*%
X113560000Y-76040000D02*
X111275000Y-76040000D01*
%TO.N,N_LED*%
X117126751Y-67770000D02*
X116750000Y-67770000D01*
%TO.N,+5V*%
X130275000Y-72540000D02*
X121775000Y-64040000D01*
X119375000Y-77040000D02*
X122625000Y-77040000D01*
X113075000Y-61540000D02*
X109275000Y-61540000D01*
%TO.N,Net-(J305-Pin_1)*%
X119725000Y-63964695D02*
X119725000Y-50940000D01*
%TO.N,Net-(J306-Pin_1)*%
X115175000Y-87140000D02*
X108775000Y-87140000D01*
X125775000Y-76540000D02*
X115175000Y-87140000D01*
%TO.N,+5V*%
X122625000Y-77040000D02*
X127125000Y-72540000D01*
%TO.N,Net-(J305-Pin_1)*%
X125800000Y-70039695D02*
X119725000Y-63964695D01*
%TO.N,E_S*%
X116750000Y-69040000D02*
X117126751Y-69040000D01*
%TO.N,W_S*%
X97865000Y-72850000D02*
X96175000Y-74540000D01*
%TO.N,E_S*%
X119626751Y-66540000D02*
X121275000Y-66540000D01*
%TO.N,Net-(J306-Pin_1)*%
X125800000Y-76540000D02*
X125775000Y-76540000D01*
%TO.N,W_S*%
X111800000Y-72850000D02*
X97865000Y-72850000D01*
%TO.N,E_S*%
X117126751Y-69040000D02*
X119626751Y-66540000D01*
%TO.N,+5V*%
X109675000Y-77040000D02*
X106675000Y-74040000D01*
X116775000Y-65240000D02*
X113075000Y-61540000D01*
X131750000Y-72540000D02*
X130275000Y-72540000D01*
X119375000Y-77040000D02*
X109675000Y-77040000D01*
%TO.N,Net-(J305-Pin_1)*%
X125800000Y-72540000D02*
X125800000Y-70039695D01*
%TO.N,+5V*%
X127125000Y-72540000D02*
X131750000Y-72540000D01*
%TD*%
%TA.AperFunction,Conductor*%
%TO.N,GND*%
G36*
X126612500Y-49057113D02*
G01*
X126657887Y-49102500D01*
X126674500Y-49164500D01*
X126674500Y-53216880D01*
X126709175Y-53568945D01*
X126778189Y-53915898D01*
X126880883Y-54254437D01*
X127016262Y-54581272D01*
X127183021Y-54893257D01*
X127379564Y-55187402D01*
X127603989Y-55460866D01*
X127854133Y-55711010D01*
X128127597Y-55935435D01*
X128421742Y-56131978D01*
X128733727Y-56298737D01*
X128733731Y-56298739D01*
X129060565Y-56434118D01*
X129399095Y-56536809D01*
X129567651Y-56570337D01*
X129746054Y-56605824D01*
X129746055Y-56605824D01*
X129746060Y-56605825D01*
X130098119Y-56640500D01*
X130274901Y-56640500D01*
X130275000Y-56640500D01*
X130275500Y-56640500D01*
X134150500Y-56640500D01*
X134212500Y-56657113D01*
X134257887Y-56702500D01*
X134274500Y-56764500D01*
X134274500Y-81315500D01*
X134257887Y-81377500D01*
X134212500Y-81422887D01*
X134150500Y-81439500D01*
X130275500Y-81439500D01*
X130275000Y-81439500D01*
X130098119Y-81439500D01*
X130087550Y-81440541D01*
X129746054Y-81474175D01*
X129399101Y-81543189D01*
X129060562Y-81645883D01*
X128733727Y-81781262D01*
X128421742Y-81948021D01*
X128127597Y-82144564D01*
X127854133Y-82368989D01*
X127603989Y-82619133D01*
X127379564Y-82892597D01*
X127183021Y-83186742D01*
X127016262Y-83498727D01*
X126880883Y-83825562D01*
X126778189Y-84164101D01*
X126709175Y-84511054D01*
X126674500Y-84863120D01*
X126674500Y-88915500D01*
X126657887Y-88977500D01*
X126612500Y-89022887D01*
X126550500Y-89039500D01*
X101999500Y-89039500D01*
X101937500Y-89022887D01*
X101892113Y-88977500D01*
X101875500Y-88915500D01*
X101875500Y-84863120D01*
X101840824Y-84511054D01*
X101771810Y-84164101D01*
X101771809Y-84164095D01*
X101669118Y-83825565D01*
X101533739Y-83498731D01*
X101533737Y-83498727D01*
X101366978Y-83186742D01*
X101170435Y-82892597D01*
X100946010Y-82619133D01*
X100695866Y-82368989D01*
X100422402Y-82144564D01*
X100128257Y-81948021D01*
X99816272Y-81781262D01*
X99489437Y-81645883D01*
X99489438Y-81645883D01*
X99489435Y-81645882D01*
X99150905Y-81543191D01*
X99150903Y-81543190D01*
X99150898Y-81543189D01*
X98803945Y-81474175D01*
X98462450Y-81440541D01*
X98451881Y-81439500D01*
X98451880Y-81439500D01*
X94399500Y-81439500D01*
X94337500Y-81422887D01*
X94292113Y-81377500D01*
X94275500Y-81315500D01*
X94275500Y-75167369D01*
X95095000Y-75167369D01*
X95101409Y-75226984D01*
X95114795Y-75262872D01*
X95151704Y-75361831D01*
X95237954Y-75477046D01*
X95353169Y-75563296D01*
X95488017Y-75613591D01*
X95547627Y-75620000D01*
X96802372Y-75619999D01*
X96861983Y-75613591D01*
X96996831Y-75563296D01*
X97112046Y-75477046D01*
X97198296Y-75361831D01*
X97248591Y-75226983D01*
X97255000Y-75167373D01*
X97254999Y-74395951D01*
X97264438Y-74348499D01*
X97291315Y-74308274D01*
X98087771Y-73511819D01*
X98128000Y-73484939D01*
X98175453Y-73475500D01*
X102032502Y-73475500D01*
X102089977Y-73489624D01*
X102134358Y-73528780D01*
X102155535Y-73584047D01*
X102148684Y-73642829D01*
X102132278Y-73686819D01*
X102105909Y-73757516D01*
X102099500Y-73817130D01*
X102099500Y-75262869D01*
X102105909Y-75322484D01*
X102122555Y-75367113D01*
X102156204Y-75457331D01*
X102242454Y-75572546D01*
X102357669Y-75658796D01*
X102492517Y-75709091D01*
X102552127Y-75715500D01*
X103997872Y-75715499D01*
X104057483Y-75709091D01*
X104192331Y-75658796D01*
X104307546Y-75572546D01*
X104393796Y-75457331D01*
X104444091Y-75322483D01*
X104450500Y-75262873D01*
X104450499Y-73817128D01*
X104444091Y-73757517D01*
X104401315Y-73642829D01*
X104394465Y-73584047D01*
X104415642Y-73528780D01*
X104460023Y-73489624D01*
X104517498Y-73475500D01*
X105746332Y-73475500D01*
X105808332Y-73492113D01*
X105853719Y-73537500D01*
X105870332Y-73599501D01*
X105853719Y-73661501D01*
X105847819Y-73671718D01*
X105789326Y-73851742D01*
X105769540Y-74040000D01*
X105789326Y-74228257D01*
X105847820Y-74408284D01*
X105942466Y-74572216D01*
X106069129Y-74712889D01*
X106222269Y-74824151D01*
X106395197Y-74901144D01*
X106580352Y-74940500D01*
X106580354Y-74940500D01*
X106639548Y-74940500D01*
X106687001Y-74949939D01*
X106727229Y-74976819D01*
X109174197Y-77423787D01*
X109187098Y-77439889D01*
X109189212Y-77441874D01*
X109189214Y-77441877D01*
X109236561Y-77486339D01*
X109238240Y-77487916D01*
X109241036Y-77490626D01*
X109260530Y-77510120D01*
X109263704Y-77512582D01*
X109272568Y-77520153D01*
X109304418Y-77550062D01*
X109314914Y-77555832D01*
X109321974Y-77559714D01*
X109338231Y-77570392D01*
X109354064Y-77582674D01*
X109370185Y-77589649D01*
X109394156Y-77600023D01*
X109404643Y-77605160D01*
X109442908Y-77626197D01*
X109462316Y-77631180D01*
X109480710Y-77637478D01*
X109499105Y-77645438D01*
X109542254Y-77652271D01*
X109553680Y-77654638D01*
X109569222Y-77658629D01*
X109595980Y-77665500D01*
X109595981Y-77665500D01*
X109616016Y-77665500D01*
X109635413Y-77667026D01*
X109655196Y-77670160D01*
X109698674Y-77666050D01*
X109710344Y-77665500D01*
X118671253Y-77665500D01*
X118721688Y-77676220D01*
X118763401Y-77706526D01*
X118769129Y-77712888D01*
X118922270Y-77824151D01*
X118922271Y-77824151D01*
X118922272Y-77824152D01*
X119095197Y-77901144D01*
X119280352Y-77940500D01*
X119280354Y-77940500D01*
X119469646Y-77940500D01*
X119469648Y-77940500D01*
X119593083Y-77914262D01*
X119654803Y-77901144D01*
X119827730Y-77824151D01*
X119980871Y-77712888D01*
X119986598Y-77706526D01*
X120028312Y-77676220D01*
X120078747Y-77665500D01*
X122542256Y-77665500D01*
X122562762Y-77667764D01*
X122565665Y-77667672D01*
X122565667Y-77667673D01*
X122632872Y-77665561D01*
X122636768Y-77665500D01*
X122664349Y-77665500D01*
X122664350Y-77665500D01*
X122668319Y-77664998D01*
X122679965Y-77664080D01*
X122723627Y-77662709D01*
X122742859Y-77657120D01*
X122761918Y-77653174D01*
X122769091Y-77652268D01*
X122781792Y-77650664D01*
X122822407Y-77634582D01*
X122833444Y-77630803D01*
X122875390Y-77618618D01*
X122892629Y-77608422D01*
X122910102Y-77599862D01*
X122928732Y-77592486D01*
X122964064Y-77566814D01*
X122973830Y-77560400D01*
X123011418Y-77538171D01*
X123011417Y-77538171D01*
X123011420Y-77538170D01*
X123025585Y-77524004D01*
X123040373Y-77511373D01*
X123056587Y-77499594D01*
X123084438Y-77465926D01*
X123092279Y-77457309D01*
X124604401Y-75945188D01*
X124662273Y-75912506D01*
X124728710Y-75914404D01*
X124784624Y-75950336D01*
X124813950Y-76009980D01*
X124808264Y-76076201D01*
X124805909Y-76082514D01*
X124805909Y-76082517D01*
X124799783Y-76139500D01*
X124799500Y-76142131D01*
X124799500Y-76579547D01*
X124790061Y-76627000D01*
X124763181Y-76667228D01*
X114952228Y-86478181D01*
X114912000Y-86505061D01*
X114864547Y-86514500D01*
X109957618Y-86514500D01*
X109908805Y-86504488D01*
X109867875Y-86476070D01*
X109841436Y-86433833D01*
X109835422Y-86417711D01*
X109798296Y-86318169D01*
X109712046Y-86202954D01*
X109596831Y-86116704D01*
X109461983Y-86066409D01*
X109402373Y-86060000D01*
X109402369Y-86060000D01*
X108147630Y-86060000D01*
X108088015Y-86066409D01*
X107953169Y-86116704D01*
X107837954Y-86202954D01*
X107751704Y-86318168D01*
X107701409Y-86453015D01*
X107701409Y-86453017D01*
X107695814Y-86505061D01*
X107695000Y-86512630D01*
X107695000Y-87767369D01*
X107698931Y-87803930D01*
X107701409Y-87826983D01*
X107751704Y-87961831D01*
X107837954Y-88077046D01*
X107953169Y-88163296D01*
X108088017Y-88213591D01*
X108147627Y-88220000D01*
X109402372Y-88219999D01*
X109461983Y-88213591D01*
X109596831Y-88163296D01*
X109712046Y-88077046D01*
X109798296Y-87961831D01*
X109841435Y-87846167D01*
X109867875Y-87803930D01*
X109908805Y-87775512D01*
X109957618Y-87765500D01*
X115092256Y-87765500D01*
X115112762Y-87767764D01*
X115115665Y-87767672D01*
X115115667Y-87767673D01*
X115125340Y-87767369D01*
X118595000Y-87767369D01*
X118598931Y-87803930D01*
X118601409Y-87826983D01*
X118651704Y-87961831D01*
X118737954Y-88077046D01*
X118853169Y-88163296D01*
X118988017Y-88213591D01*
X119047627Y-88220000D01*
X120302372Y-88219999D01*
X120361983Y-88213591D01*
X120496831Y-88163296D01*
X120612046Y-88077046D01*
X120698296Y-87961831D01*
X120748591Y-87826983D01*
X120755000Y-87767373D01*
X120754999Y-86512628D01*
X120748591Y-86453017D01*
X120698296Y-86318169D01*
X120612046Y-86202954D01*
X120496831Y-86116704D01*
X120361983Y-86066409D01*
X120302373Y-86060000D01*
X120302369Y-86060000D01*
X119047630Y-86060000D01*
X118988015Y-86066409D01*
X118853169Y-86116704D01*
X118737954Y-86202954D01*
X118651704Y-86318168D01*
X118601409Y-86453015D01*
X118601409Y-86453017D01*
X118595814Y-86505061D01*
X118595000Y-86512630D01*
X118595000Y-87767369D01*
X115125340Y-87767369D01*
X115182872Y-87765561D01*
X115186768Y-87765500D01*
X115214349Y-87765500D01*
X115214350Y-87765500D01*
X115218319Y-87764998D01*
X115229965Y-87764080D01*
X115273627Y-87762709D01*
X115292859Y-87757120D01*
X115311918Y-87753174D01*
X115318196Y-87752381D01*
X115331792Y-87750664D01*
X115372407Y-87734582D01*
X115383444Y-87730803D01*
X115425390Y-87718618D01*
X115442629Y-87708422D01*
X115460102Y-87699862D01*
X115478732Y-87692486D01*
X115514064Y-87666814D01*
X115523830Y-87660400D01*
X115561418Y-87638171D01*
X115561417Y-87638171D01*
X115561420Y-87638170D01*
X115575585Y-87624004D01*
X115590373Y-87611373D01*
X115606587Y-87599594D01*
X115634438Y-87565926D01*
X115642279Y-87557309D01*
X125772770Y-77426818D01*
X125812999Y-77399938D01*
X125860452Y-77390499D01*
X126347870Y-77390499D01*
X126347872Y-77390499D01*
X126407483Y-77384091D01*
X126542331Y-77333796D01*
X126657546Y-77247546D01*
X126743796Y-77132331D01*
X126794091Y-76997483D01*
X126800500Y-76937873D01*
X126800500Y-76790000D01*
X130750000Y-76790000D01*
X130750000Y-76937824D01*
X130756402Y-76997375D01*
X130806647Y-77132089D01*
X130892811Y-77247188D01*
X131007910Y-77333352D01*
X131142624Y-77383597D01*
X131202176Y-77390000D01*
X131500000Y-77390000D01*
X131500000Y-76790000D01*
X132000000Y-76790000D01*
X132000000Y-77390000D01*
X132297824Y-77390000D01*
X132357375Y-77383597D01*
X132492089Y-77333352D01*
X132607188Y-77247188D01*
X132693352Y-77132089D01*
X132743597Y-76997375D01*
X132750000Y-76937824D01*
X132750000Y-76790000D01*
X132000000Y-76790000D01*
X131500000Y-76790000D01*
X130750000Y-76790000D01*
X126800500Y-76790000D01*
X126800499Y-76290000D01*
X130750000Y-76290000D01*
X131500000Y-76290000D01*
X131500000Y-75690000D01*
X132000000Y-75690000D01*
X132000000Y-76290000D01*
X132750000Y-76290000D01*
X132750000Y-76142176D01*
X132743597Y-76082624D01*
X132693352Y-75947910D01*
X132607188Y-75832811D01*
X132492089Y-75746647D01*
X132357375Y-75696402D01*
X132297824Y-75690000D01*
X132000000Y-75690000D01*
X131500000Y-75690000D01*
X131202176Y-75690000D01*
X131142624Y-75696402D01*
X131007910Y-75746647D01*
X130892811Y-75832811D01*
X130806647Y-75947910D01*
X130756402Y-76082624D01*
X130750000Y-76142176D01*
X130750000Y-76290000D01*
X126800499Y-76290000D01*
X126800499Y-76142128D01*
X126794091Y-76082517D01*
X126743796Y-75947669D01*
X126657546Y-75832454D01*
X126542331Y-75746204D01*
X126407483Y-75695909D01*
X126347873Y-75689500D01*
X126347869Y-75689500D01*
X125252130Y-75689500D01*
X125192511Y-75695909D01*
X125186199Y-75698264D01*
X125119979Y-75703950D01*
X125060335Y-75674623D01*
X125024403Y-75618709D01*
X125022506Y-75552273D01*
X125055187Y-75494402D01*
X127347771Y-73201819D01*
X127388000Y-73174939D01*
X127435453Y-73165500D01*
X130195981Y-73165500D01*
X130216016Y-73165500D01*
X130235415Y-73167027D01*
X130255196Y-73170160D01*
X130298674Y-73166050D01*
X130310344Y-73165500D01*
X130768965Y-73165500D01*
X130824470Y-73178616D01*
X130868232Y-73215190D01*
X130892452Y-73247544D01*
X130892453Y-73247544D01*
X130892454Y-73247546D01*
X131007669Y-73333796D01*
X131142517Y-73384091D01*
X131202127Y-73390500D01*
X132297872Y-73390499D01*
X132357483Y-73384091D01*
X132492331Y-73333796D01*
X132607546Y-73247546D01*
X132693796Y-73132331D01*
X132744091Y-72997483D01*
X132750500Y-72937873D01*
X132750499Y-72142128D01*
X132744091Y-72082517D01*
X132693796Y-71947669D01*
X132607546Y-71832454D01*
X132492331Y-71746204D01*
X132357483Y-71695909D01*
X132297873Y-71689500D01*
X132297869Y-71689500D01*
X131202130Y-71689500D01*
X131142515Y-71695909D01*
X131007669Y-71746204D01*
X130892452Y-71832455D01*
X130868232Y-71864810D01*
X130824470Y-71901384D01*
X130768965Y-71914500D01*
X130585453Y-71914500D01*
X130538000Y-71905061D01*
X130497772Y-71878181D01*
X122886960Y-64267369D01*
X131295000Y-64267369D01*
X131301409Y-64326984D01*
X131318266Y-64372179D01*
X131351704Y-64461831D01*
X131437954Y-64577046D01*
X131553169Y-64663296D01*
X131688017Y-64713591D01*
X131747627Y-64720000D01*
X133002372Y-64719999D01*
X133061983Y-64713591D01*
X133196831Y-64663296D01*
X133312046Y-64577046D01*
X133398296Y-64461831D01*
X133448591Y-64326983D01*
X133455000Y-64267373D01*
X133454999Y-63012628D01*
X133448591Y-62953017D01*
X133398296Y-62818169D01*
X133312046Y-62702954D01*
X133196831Y-62616704D01*
X133061983Y-62566409D01*
X133002373Y-62560000D01*
X133002369Y-62560000D01*
X131747630Y-62560000D01*
X131688015Y-62566409D01*
X131553169Y-62616704D01*
X131437954Y-62702954D01*
X131351704Y-62818168D01*
X131301409Y-62953016D01*
X131295000Y-63012630D01*
X131295000Y-64267369D01*
X122886960Y-64267369D01*
X122713960Y-64094369D01*
X122689720Y-64060071D01*
X122678321Y-64019655D01*
X122660674Y-63851744D01*
X122602179Y-63671716D01*
X122602179Y-63671715D01*
X122507533Y-63507783D01*
X122380870Y-63367110D01*
X122227730Y-63255848D01*
X122054802Y-63178855D01*
X121869648Y-63139500D01*
X121869646Y-63139500D01*
X121680354Y-63139500D01*
X121680352Y-63139500D01*
X121495197Y-63178855D01*
X121322269Y-63255848D01*
X121169129Y-63367110D01*
X121042466Y-63507783D01*
X120947820Y-63671715D01*
X120889326Y-63851742D01*
X120879153Y-63948536D01*
X120853211Y-64012342D01*
X120797224Y-64052462D01*
X120728465Y-64056516D01*
X120668151Y-64023255D01*
X120386819Y-63741923D01*
X120359939Y-63701695D01*
X120350500Y-63654242D01*
X120350500Y-52122618D01*
X120360512Y-52073805D01*
X120388930Y-52032875D01*
X120431167Y-52006436D01*
X120443371Y-52001883D01*
X120546831Y-51963296D01*
X120662046Y-51877046D01*
X120748296Y-51761831D01*
X120798591Y-51626983D01*
X120805000Y-51567373D01*
X120804999Y-50312628D01*
X120798591Y-50253017D01*
X120748296Y-50118169D01*
X120662046Y-50002954D01*
X120546831Y-49916704D01*
X120411983Y-49866409D01*
X120352373Y-49860000D01*
X120352369Y-49860000D01*
X119097630Y-49860000D01*
X119038015Y-49866409D01*
X118903169Y-49916704D01*
X118787954Y-50002954D01*
X118701704Y-50118168D01*
X118651409Y-50253016D01*
X118645000Y-50312630D01*
X118645000Y-51567369D01*
X118651409Y-51626983D01*
X118701704Y-51761831D01*
X118787954Y-51877046D01*
X118903169Y-51963296D01*
X119002711Y-52000422D01*
X119018833Y-52006436D01*
X119061070Y-52032875D01*
X119089488Y-52073805D01*
X119099500Y-52122618D01*
X119099500Y-63881951D01*
X119097235Y-63902457D01*
X119099439Y-63972568D01*
X119099500Y-63976463D01*
X119099500Y-64004044D01*
X119100003Y-64008029D01*
X119100918Y-64019662D01*
X119102290Y-64063321D01*
X119107879Y-64082555D01*
X119111825Y-64101611D01*
X119114335Y-64121487D01*
X119130414Y-64162099D01*
X119134197Y-64173146D01*
X119146382Y-64215086D01*
X119156580Y-64232330D01*
X119165136Y-64249795D01*
X119172514Y-64268427D01*
X119172515Y-64268428D01*
X119198180Y-64303754D01*
X119204593Y-64313517D01*
X119226826Y-64351111D01*
X119226829Y-64351114D01*
X119226830Y-64351115D01*
X119240995Y-64365280D01*
X119253627Y-64380070D01*
X119265406Y-64396282D01*
X119294023Y-64419956D01*
X119329692Y-64468407D01*
X119338357Y-64527945D01*
X119317977Y-64584552D01*
X119273350Y-64624904D01*
X119214983Y-64639500D01*
X119180352Y-64639500D01*
X118995197Y-64678855D01*
X118822269Y-64755848D01*
X118669129Y-64867110D01*
X118542466Y-65007784D01*
X118456887Y-65156012D01*
X118411500Y-65201399D01*
X118349500Y-65218012D01*
X118287500Y-65201399D01*
X118242113Y-65156012D01*
X118225500Y-65094012D01*
X118225500Y-65014308D01*
X118225500Y-65014306D01*
X118222598Y-64977431D01*
X118211868Y-64940500D01*
X118176744Y-64819602D01*
X118139040Y-64755848D01*
X118093081Y-64678135D01*
X117976865Y-64561919D01*
X117836178Y-64478717D01*
X117835397Y-64478255D01*
X117677572Y-64432402D01*
X117655444Y-64430660D01*
X117640694Y-64429500D01*
X117640692Y-64429500D01*
X117194907Y-64429500D01*
X117144471Y-64418779D01*
X117054802Y-64378855D01*
X116869648Y-64339500D01*
X116869646Y-64339500D01*
X116810453Y-64339500D01*
X116763000Y-64330061D01*
X116722772Y-64303181D01*
X113575802Y-61156211D01*
X113562906Y-61140113D01*
X113511775Y-61092098D01*
X113508978Y-61089387D01*
X113489470Y-61069879D01*
X113486290Y-61067412D01*
X113477424Y-61059839D01*
X113445582Y-61029938D01*
X113428024Y-61020285D01*
X113411764Y-61009604D01*
X113395936Y-60997327D01*
X113355851Y-60979980D01*
X113345361Y-60974841D01*
X113307091Y-60953802D01*
X113287691Y-60948821D01*
X113269284Y-60942519D01*
X113250897Y-60934562D01*
X113207758Y-60927729D01*
X113196324Y-60925361D01*
X113154019Y-60914500D01*
X113133984Y-60914500D01*
X113114586Y-60912973D01*
X113107162Y-60911797D01*
X113094805Y-60909840D01*
X113094804Y-60909840D01*
X113061751Y-60912964D01*
X113051325Y-60913950D01*
X113039656Y-60914500D01*
X109978747Y-60914500D01*
X109928312Y-60903780D01*
X109886598Y-60873473D01*
X109880871Y-60867112D01*
X109727730Y-60755849D01*
X109727729Y-60755848D01*
X109727727Y-60755847D01*
X109554802Y-60678855D01*
X109369648Y-60639500D01*
X109369646Y-60639500D01*
X109180354Y-60639500D01*
X109180352Y-60639500D01*
X108995197Y-60678855D01*
X108822269Y-60755848D01*
X108669129Y-60867110D01*
X108542466Y-61007783D01*
X108447820Y-61171715D01*
X108389326Y-61351742D01*
X108369540Y-61539999D01*
X108389326Y-61728257D01*
X108447820Y-61908284D01*
X108542466Y-62072216D01*
X108669129Y-62212889D01*
X108822269Y-62324151D01*
X108995197Y-62401144D01*
X109180352Y-62440500D01*
X109180354Y-62440500D01*
X109369646Y-62440500D01*
X109369648Y-62440500D01*
X109493084Y-62414262D01*
X109554803Y-62401144D01*
X109727730Y-62324151D01*
X109880871Y-62212888D01*
X109886598Y-62206526D01*
X109928312Y-62176220D01*
X109978747Y-62165500D01*
X112764548Y-62165500D01*
X112812001Y-62174939D01*
X112852229Y-62201819D01*
X115309780Y-64659371D01*
X115338768Y-64705047D01*
X115345549Y-64758718D01*
X115328833Y-64810169D01*
X115323256Y-64819599D01*
X115277402Y-64977427D01*
X115274500Y-65014308D01*
X115274500Y-65445692D01*
X115277402Y-65482572D01*
X115323255Y-65640397D01*
X115414893Y-65795348D01*
X115413319Y-65796278D01*
X115434467Y-65832906D01*
X115434467Y-65897094D01*
X115413319Y-65933721D01*
X115414893Y-65934652D01*
X115323255Y-66089602D01*
X115277402Y-66247427D01*
X115274500Y-66284308D01*
X115274500Y-66715692D01*
X115277402Y-66752572D01*
X115323255Y-66910397D01*
X115414893Y-67065348D01*
X115413319Y-67066278D01*
X115434467Y-67102906D01*
X115434467Y-67167094D01*
X115413319Y-67203721D01*
X115414893Y-67204652D01*
X115323255Y-67359602D01*
X115277402Y-67517427D01*
X115274500Y-67554308D01*
X115274500Y-67985692D01*
X115277402Y-68022572D01*
X115323255Y-68180397D01*
X115414893Y-68335348D01*
X115413319Y-68336278D01*
X115434467Y-68372906D01*
X115434467Y-68437094D01*
X115413319Y-68473721D01*
X115414893Y-68474652D01*
X115323255Y-68629602D01*
X115277402Y-68787427D01*
X115274500Y-68824308D01*
X115274500Y-69255692D01*
X115277402Y-69292572D01*
X115323255Y-69450397D01*
X115335408Y-69470946D01*
X115397859Y-69576546D01*
X115414893Y-69605348D01*
X115413319Y-69606278D01*
X115434467Y-69642906D01*
X115434467Y-69707094D01*
X115413319Y-69743721D01*
X115414893Y-69744652D01*
X115323255Y-69899602D01*
X115277402Y-70057427D01*
X115274500Y-70094308D01*
X115274500Y-70525692D01*
X115277402Y-70562572D01*
X115323255Y-70720397D01*
X115414893Y-70875348D01*
X115413319Y-70876278D01*
X115434467Y-70912906D01*
X115434467Y-70977094D01*
X115413319Y-71013721D01*
X115414893Y-71014652D01*
X115323255Y-71169602D01*
X115277402Y-71327427D01*
X115274500Y-71364308D01*
X115274500Y-71795692D01*
X115277402Y-71832572D01*
X115323255Y-71990397D01*
X115371643Y-72072216D01*
X115401483Y-72122674D01*
X115414893Y-72145348D01*
X115413319Y-72146278D01*
X115434467Y-72182906D01*
X115434467Y-72247094D01*
X115413319Y-72283721D01*
X115414893Y-72284652D01*
X115323255Y-72439602D01*
X115277402Y-72597427D01*
X115274500Y-72634308D01*
X115274500Y-73065692D01*
X115277402Y-73102572D01*
X115323255Y-73260396D01*
X115323257Y-73260399D01*
X115339975Y-73311851D01*
X115333194Y-73365523D01*
X115304206Y-73411201D01*
X113337228Y-75378181D01*
X113297000Y-75405061D01*
X113249547Y-75414500D01*
X111978747Y-75414500D01*
X111928312Y-75403780D01*
X111886598Y-75373473D01*
X111880871Y-75367112D01*
X111727730Y-75255849D01*
X111727729Y-75255848D01*
X111727727Y-75255847D01*
X111554802Y-75178855D01*
X111369648Y-75139500D01*
X111369646Y-75139500D01*
X111180354Y-75139500D01*
X111180352Y-75139500D01*
X110995197Y-75178855D01*
X110822269Y-75255848D01*
X110669129Y-75367110D01*
X110542466Y-75507783D01*
X110447820Y-75671715D01*
X110389326Y-75851742D01*
X110369540Y-76039999D01*
X110389326Y-76228259D01*
X110397100Y-76252183D01*
X110401642Y-76309899D01*
X110379487Y-76363386D01*
X110335464Y-76400985D01*
X110279169Y-76414500D01*
X109985452Y-76414500D01*
X109937999Y-76405061D01*
X109897771Y-76378181D01*
X107613960Y-74094369D01*
X107589720Y-74060071D01*
X107578321Y-74019655D01*
X107560674Y-73851744D01*
X107517272Y-73718168D01*
X107502180Y-73671718D01*
X107496281Y-73661501D01*
X107479668Y-73599501D01*
X107496281Y-73537500D01*
X107541668Y-73492113D01*
X107603668Y-73475500D01*
X110479192Y-73475500D01*
X110526645Y-73484939D01*
X110566873Y-73511819D01*
X110573135Y-73518081D01*
X110684678Y-73584047D01*
X110714602Y-73601744D01*
X110872427Y-73647597D01*
X110872431Y-73647598D01*
X110909306Y-73650500D01*
X112690692Y-73650500D01*
X112690694Y-73650500D01*
X112727569Y-73647598D01*
X112885398Y-73601744D01*
X113026865Y-73518081D01*
X113143081Y-73401865D01*
X113226744Y-73260398D01*
X113272598Y-73102569D01*
X113275500Y-73065694D01*
X113275500Y-72634306D01*
X113272598Y-72597431D01*
X113226744Y-72439602D01*
X113143081Y-72298135D01*
X113143080Y-72298134D01*
X113135107Y-72284652D01*
X113136680Y-72283721D01*
X113115533Y-72247094D01*
X113115533Y-72182906D01*
X113136680Y-72146278D01*
X113135107Y-72145348D01*
X113143081Y-72131865D01*
X113226744Y-71990398D01*
X113272598Y-71832569D01*
X113275500Y-71795694D01*
X113275500Y-71364306D01*
X113272598Y-71327431D01*
X113226744Y-71169602D01*
X113143081Y-71028135D01*
X113143080Y-71028134D01*
X113135107Y-71014652D01*
X113136680Y-71013721D01*
X113115533Y-70977094D01*
X113115533Y-70912906D01*
X113136680Y-70876278D01*
X113135107Y-70875348D01*
X113162206Y-70829526D01*
X113226744Y-70720398D01*
X113272598Y-70562569D01*
X113275500Y-70525694D01*
X113275500Y-70094306D01*
X113272598Y-70057431D01*
X113264031Y-70027945D01*
X113226744Y-69899602D01*
X113135107Y-69744652D01*
X113136680Y-69743721D01*
X113115533Y-69707094D01*
X113115533Y-69642906D01*
X113136680Y-69606278D01*
X113135107Y-69605348D01*
X113150483Y-69579349D01*
X113226744Y-69450398D01*
X113272598Y-69292569D01*
X113275500Y-69255694D01*
X113275500Y-68824306D01*
X113272598Y-68787431D01*
X113226744Y-68629602D01*
X113143081Y-68488135D01*
X113143080Y-68488134D01*
X113135107Y-68474652D01*
X113136680Y-68473721D01*
X113115533Y-68437094D01*
X113115533Y-68372906D01*
X113136680Y-68336278D01*
X113135107Y-68335348D01*
X113143081Y-68321865D01*
X113226744Y-68180398D01*
X113272598Y-68022569D01*
X113275500Y-67985694D01*
X113275500Y-67554306D01*
X113272598Y-67517431D01*
X113226744Y-67359602D01*
X113143081Y-67218135D01*
X113143080Y-67218134D01*
X113135107Y-67204652D01*
X113136680Y-67203721D01*
X113115533Y-67167094D01*
X113115533Y-67102906D01*
X113136680Y-67066278D01*
X113135107Y-67065348D01*
X113143081Y-67051865D01*
X113226744Y-66910398D01*
X113272598Y-66752569D01*
X113275500Y-66715694D01*
X113275500Y-66284306D01*
X113272598Y-66247431D01*
X113226744Y-66089602D01*
X113143081Y-65948135D01*
X113143080Y-65948134D01*
X113135107Y-65934652D01*
X113136569Y-65933786D01*
X113115178Y-65896733D01*
X113115182Y-65832540D01*
X113136296Y-65795979D01*
X113134709Y-65795040D01*
X113226280Y-65640200D01*
X113272099Y-65482488D01*
X113272295Y-65480000D01*
X110327704Y-65480000D01*
X110327900Y-65482488D01*
X110373719Y-65640200D01*
X110465291Y-65795040D01*
X110463703Y-65795978D01*
X110484817Y-65832547D01*
X110484822Y-65896728D01*
X110463431Y-65933787D01*
X110464893Y-65934652D01*
X110373255Y-66089602D01*
X110327402Y-66247427D01*
X110324500Y-66284308D01*
X110324500Y-66715692D01*
X110327402Y-66752572D01*
X110373255Y-66910397D01*
X110464893Y-67065348D01*
X110463319Y-67066278D01*
X110484467Y-67102906D01*
X110484467Y-67167094D01*
X110463319Y-67203721D01*
X110464893Y-67204652D01*
X110373255Y-67359602D01*
X110327402Y-67517427D01*
X110324500Y-67554308D01*
X110324500Y-67985692D01*
X110327402Y-68022572D01*
X110373255Y-68180397D01*
X110464893Y-68335348D01*
X110463319Y-68336278D01*
X110484467Y-68372906D01*
X110484467Y-68437094D01*
X110463319Y-68473721D01*
X110464893Y-68474652D01*
X110373255Y-68629602D01*
X110327402Y-68787427D01*
X110324500Y-68824308D01*
X110324500Y-69255692D01*
X110327402Y-69292572D01*
X110373255Y-69450397D01*
X110385408Y-69470946D01*
X110447859Y-69576546D01*
X110464893Y-69605348D01*
X110463319Y-69606278D01*
X110484467Y-69642906D01*
X110484467Y-69707094D01*
X110463319Y-69743721D01*
X110464893Y-69744652D01*
X110373255Y-69899602D01*
X110327402Y-70057427D01*
X110324500Y-70094308D01*
X110324500Y-70525692D01*
X110327402Y-70562572D01*
X110373255Y-70720397D01*
X110401040Y-70767379D01*
X110418304Y-70829526D01*
X110402018Y-70891937D01*
X110356589Y-70937725D01*
X110294308Y-70954500D01*
X109625452Y-70954500D01*
X109577999Y-70945061D01*
X109537771Y-70918181D01*
X107936819Y-69317228D01*
X107909939Y-69277000D01*
X107900500Y-69229547D01*
X107900500Y-67238687D01*
X107908736Y-67194249D01*
X107932347Y-67155717D01*
X108007533Y-67072216D01*
X108010962Y-67066278D01*
X108102179Y-66908284D01*
X108152774Y-66752569D01*
X108160674Y-66728256D01*
X108180460Y-66540000D01*
X108160674Y-66351744D01*
X108102179Y-66171716D01*
X108102179Y-66171715D01*
X108007533Y-66007783D01*
X107880870Y-65867110D01*
X107727730Y-65755848D01*
X107554802Y-65678855D01*
X107369648Y-65639500D01*
X107369646Y-65639500D01*
X107180354Y-65639500D01*
X107180352Y-65639500D01*
X106995197Y-65678855D01*
X106822269Y-65755848D01*
X106669129Y-65867110D01*
X106542466Y-66007783D01*
X106447820Y-66171715D01*
X106389326Y-66351742D01*
X106369540Y-66539999D01*
X106389326Y-66728257D01*
X106447820Y-66908284D01*
X106542464Y-67072213D01*
X106542467Y-67072216D01*
X106617652Y-67155717D01*
X106641264Y-67194249D01*
X106649500Y-67238687D01*
X106649500Y-69457256D01*
X106647235Y-69477762D01*
X106649439Y-69547873D01*
X106649500Y-69551768D01*
X106649500Y-69579349D01*
X106650003Y-69583334D01*
X106650918Y-69594967D01*
X106652290Y-69638626D01*
X106657879Y-69657860D01*
X106661825Y-69676916D01*
X106664335Y-69696792D01*
X106680414Y-69737404D01*
X106684197Y-69748451D01*
X106696382Y-69790391D01*
X106706580Y-69807635D01*
X106715136Y-69825100D01*
X106722514Y-69843732D01*
X106722515Y-69843733D01*
X106748180Y-69879059D01*
X106754593Y-69888822D01*
X106776826Y-69926416D01*
X106776829Y-69926419D01*
X106776830Y-69926420D01*
X106790995Y-69940585D01*
X106803627Y-69955375D01*
X106815406Y-69971587D01*
X106849058Y-69999426D01*
X106857699Y-70007289D01*
X108814197Y-71963787D01*
X108827098Y-71979889D01*
X108829212Y-71981874D01*
X108829214Y-71981877D01*
X108859278Y-72010109D01*
X108891324Y-72059231D01*
X108897210Y-72117587D01*
X108875619Y-72172119D01*
X108831381Y-72210629D01*
X108774393Y-72224500D01*
X97947744Y-72224500D01*
X97927237Y-72222235D01*
X97857127Y-72224439D01*
X97853232Y-72224500D01*
X97825650Y-72224500D01*
X97821665Y-72225003D01*
X97810033Y-72225918D01*
X97766369Y-72227290D01*
X97747129Y-72232880D01*
X97728081Y-72236825D01*
X97708209Y-72239335D01*
X97667599Y-72255413D01*
X97656554Y-72259194D01*
X97614610Y-72271381D01*
X97597365Y-72281579D01*
X97579904Y-72290133D01*
X97561267Y-72297512D01*
X97525931Y-72323185D01*
X97516174Y-72329595D01*
X97478580Y-72351829D01*
X97464413Y-72365996D01*
X97449624Y-72378626D01*
X97433413Y-72390404D01*
X97405572Y-72424058D01*
X97397711Y-72432697D01*
X96406727Y-73423681D01*
X96366499Y-73450561D01*
X96319046Y-73460000D01*
X95547630Y-73460000D01*
X95488015Y-73466409D01*
X95353169Y-73516704D01*
X95237954Y-73602954D01*
X95151704Y-73718168D01*
X95101409Y-73853016D01*
X95095000Y-73912630D01*
X95095000Y-75167369D01*
X94275500Y-75167369D01*
X94275500Y-64979999D01*
X110327704Y-64979999D01*
X110327705Y-64980000D01*
X111550000Y-64980000D01*
X111550000Y-64430000D01*
X112050000Y-64430000D01*
X112050000Y-64980000D01*
X113272295Y-64980000D01*
X113272295Y-64979999D01*
X113272099Y-64977511D01*
X113226280Y-64819799D01*
X113142682Y-64678442D01*
X113026557Y-64562317D01*
X112885197Y-64478717D01*
X112727493Y-64432900D01*
X112690639Y-64430000D01*
X112050000Y-64430000D01*
X111550000Y-64430000D01*
X110909361Y-64430000D01*
X110872506Y-64432900D01*
X110714802Y-64478717D01*
X110573442Y-64562317D01*
X110457317Y-64678442D01*
X110373719Y-64819799D01*
X110327900Y-64977511D01*
X110327704Y-64979999D01*
X94275500Y-64979999D01*
X94275500Y-56764500D01*
X94292113Y-56702500D01*
X94337500Y-56657113D01*
X94399500Y-56640500D01*
X98451880Y-56640500D01*
X98451881Y-56640500D01*
X98803940Y-56605825D01*
X99150905Y-56536809D01*
X99489435Y-56434118D01*
X99816269Y-56298739D01*
X99909451Y-56248931D01*
X100128257Y-56131978D01*
X100276574Y-56032875D01*
X100422402Y-55935436D01*
X100695864Y-55711012D01*
X100946012Y-55460864D01*
X101170436Y-55187402D01*
X101288575Y-55010594D01*
X101366978Y-54893257D01*
X101533737Y-54581272D01*
X101533739Y-54581269D01*
X101669118Y-54254435D01*
X101771809Y-53915905D01*
X101840825Y-53568940D01*
X101875500Y-53216881D01*
X101875500Y-53040000D01*
X101875500Y-53039500D01*
X101875500Y-51567369D01*
X107745000Y-51567369D01*
X107751409Y-51626983D01*
X107801704Y-51761831D01*
X107887954Y-51877046D01*
X108003169Y-51963296D01*
X108138017Y-52013591D01*
X108197627Y-52020000D01*
X109452372Y-52019999D01*
X109511983Y-52013591D01*
X109646831Y-51963296D01*
X109762046Y-51877046D01*
X109848296Y-51761831D01*
X109898591Y-51626983D01*
X109905000Y-51567373D01*
X109904999Y-50312628D01*
X109898591Y-50253017D01*
X109848296Y-50118169D01*
X109762046Y-50002954D01*
X109646831Y-49916704D01*
X109511983Y-49866409D01*
X109452373Y-49860000D01*
X109452369Y-49860000D01*
X108197630Y-49860000D01*
X108138015Y-49866409D01*
X108003169Y-49916704D01*
X107887954Y-50002954D01*
X107801704Y-50118168D01*
X107751409Y-50253016D01*
X107745000Y-50312630D01*
X107745000Y-51567369D01*
X101875500Y-51567369D01*
X101875500Y-49164500D01*
X101892113Y-49102500D01*
X101937500Y-49057113D01*
X101999500Y-49040500D01*
X126550500Y-49040500D01*
X126612500Y-49057113D01*
G37*
%TD.AperFunction*%
%TD*%
%TA.AperFunction,Conductor*%
%TO.N,GND*%
G36*
X126612500Y-94057113D02*
G01*
X126657887Y-94102500D01*
X126674500Y-94164500D01*
X126674500Y-98216880D01*
X126709175Y-98568945D01*
X126778189Y-98915898D01*
X126880883Y-99254437D01*
X127016262Y-99581272D01*
X127183021Y-99893257D01*
X127379564Y-100187402D01*
X127603989Y-100460866D01*
X127854133Y-100711010D01*
X128127597Y-100935435D01*
X128421742Y-101131978D01*
X128733727Y-101298737D01*
X128733731Y-101298739D01*
X129060565Y-101434118D01*
X129399095Y-101536809D01*
X129567651Y-101570337D01*
X129746054Y-101605824D01*
X129746055Y-101605824D01*
X129746060Y-101605825D01*
X130098119Y-101640500D01*
X130274901Y-101640500D01*
X130275000Y-101640500D01*
X130275500Y-101640500D01*
X134150500Y-101640500D01*
X134212500Y-101657113D01*
X134257887Y-101702500D01*
X134274500Y-101764500D01*
X134274500Y-126315500D01*
X134257887Y-126377500D01*
X134212500Y-126422887D01*
X134150500Y-126439500D01*
X130275500Y-126439500D01*
X130275000Y-126439500D01*
X130098119Y-126439500D01*
X130087550Y-126440541D01*
X129746054Y-126474175D01*
X129399101Y-126543189D01*
X129060562Y-126645883D01*
X128733727Y-126781262D01*
X128421742Y-126948021D01*
X128127597Y-127144564D01*
X127854133Y-127368989D01*
X127603989Y-127619133D01*
X127379564Y-127892597D01*
X127183021Y-128186742D01*
X127016262Y-128498727D01*
X126880883Y-128825562D01*
X126778189Y-129164101D01*
X126709175Y-129511054D01*
X126674500Y-129863120D01*
X126674500Y-133915500D01*
X126657887Y-133977500D01*
X126612500Y-134022887D01*
X126550500Y-134039500D01*
X101999500Y-134039500D01*
X101937500Y-134022887D01*
X101892113Y-133977500D01*
X101875500Y-133915500D01*
X101875500Y-129863120D01*
X101840824Y-129511054D01*
X101771810Y-129164101D01*
X101771809Y-129164095D01*
X101669118Y-128825565D01*
X101533739Y-128498731D01*
X101533737Y-128498727D01*
X101366978Y-128186742D01*
X101170435Y-127892597D01*
X100946010Y-127619133D01*
X100695866Y-127368989D01*
X100422402Y-127144564D01*
X100128257Y-126948021D01*
X99816272Y-126781262D01*
X99489437Y-126645883D01*
X99489438Y-126645883D01*
X99489435Y-126645882D01*
X99150905Y-126543191D01*
X99150903Y-126543190D01*
X99150898Y-126543189D01*
X98803945Y-126474175D01*
X98462450Y-126440541D01*
X98451881Y-126439500D01*
X98451880Y-126439500D01*
X94399500Y-126439500D01*
X94337500Y-126422887D01*
X94292113Y-126377500D01*
X94275500Y-126315500D01*
X94275500Y-120167369D01*
X95095000Y-120167369D01*
X95101409Y-120226984D01*
X95114795Y-120262872D01*
X95151704Y-120361831D01*
X95237954Y-120477046D01*
X95353169Y-120563296D01*
X95488017Y-120613591D01*
X95547627Y-120620000D01*
X96802372Y-120619999D01*
X96861983Y-120613591D01*
X96996831Y-120563296D01*
X97112046Y-120477046D01*
X97198296Y-120361831D01*
X97248591Y-120226983D01*
X97255000Y-120167373D01*
X97254999Y-119395951D01*
X97264438Y-119348499D01*
X97291315Y-119308274D01*
X98087771Y-118511819D01*
X98128000Y-118484939D01*
X98175453Y-118475500D01*
X102032502Y-118475500D01*
X102089977Y-118489624D01*
X102134358Y-118528780D01*
X102155535Y-118584047D01*
X102148684Y-118642829D01*
X102132278Y-118686819D01*
X102105909Y-118757516D01*
X102099500Y-118817130D01*
X102099500Y-120262869D01*
X102105909Y-120322484D01*
X102122555Y-120367113D01*
X102156204Y-120457331D01*
X102242454Y-120572546D01*
X102357669Y-120658796D01*
X102492517Y-120709091D01*
X102552127Y-120715500D01*
X103997872Y-120715499D01*
X104057483Y-120709091D01*
X104192331Y-120658796D01*
X104307546Y-120572546D01*
X104393796Y-120457331D01*
X104444091Y-120322483D01*
X104450500Y-120262873D01*
X104450499Y-118817128D01*
X104444091Y-118757517D01*
X104401315Y-118642829D01*
X104394465Y-118584047D01*
X104415642Y-118528780D01*
X104460023Y-118489624D01*
X104517498Y-118475500D01*
X105746332Y-118475500D01*
X105808332Y-118492113D01*
X105853719Y-118537500D01*
X105870332Y-118599501D01*
X105853719Y-118661501D01*
X105847819Y-118671718D01*
X105789326Y-118851742D01*
X105769540Y-119040000D01*
X105789326Y-119228257D01*
X105847820Y-119408284D01*
X105942466Y-119572216D01*
X106069129Y-119712889D01*
X106222269Y-119824151D01*
X106395197Y-119901144D01*
X106580352Y-119940500D01*
X106580354Y-119940500D01*
X106639548Y-119940500D01*
X106687001Y-119949939D01*
X106727229Y-119976819D01*
X109174197Y-122423787D01*
X109187098Y-122439889D01*
X109189212Y-122441874D01*
X109189214Y-122441877D01*
X109236561Y-122486339D01*
X109238240Y-122487916D01*
X109241036Y-122490626D01*
X109260530Y-122510120D01*
X109263704Y-122512582D01*
X109272568Y-122520153D01*
X109304418Y-122550062D01*
X109314914Y-122555832D01*
X109321974Y-122559714D01*
X109338231Y-122570392D01*
X109354064Y-122582674D01*
X109370185Y-122589649D01*
X109394156Y-122600023D01*
X109404643Y-122605160D01*
X109442908Y-122626197D01*
X109462316Y-122631180D01*
X109480710Y-122637478D01*
X109499105Y-122645438D01*
X109542254Y-122652271D01*
X109553680Y-122654638D01*
X109569222Y-122658629D01*
X109595980Y-122665500D01*
X109595981Y-122665500D01*
X109616016Y-122665500D01*
X109635413Y-122667026D01*
X109655196Y-122670160D01*
X109698674Y-122666050D01*
X109710344Y-122665500D01*
X118671253Y-122665500D01*
X118721688Y-122676220D01*
X118763401Y-122706526D01*
X118769129Y-122712888D01*
X118922270Y-122824151D01*
X118922271Y-122824151D01*
X118922272Y-122824152D01*
X119095197Y-122901144D01*
X119280352Y-122940500D01*
X119280354Y-122940500D01*
X119469646Y-122940500D01*
X119469648Y-122940500D01*
X119593083Y-122914262D01*
X119654803Y-122901144D01*
X119827730Y-122824151D01*
X119980871Y-122712888D01*
X119986598Y-122706526D01*
X120028312Y-122676220D01*
X120078747Y-122665500D01*
X122542256Y-122665500D01*
X122562762Y-122667764D01*
X122565665Y-122667672D01*
X122565667Y-122667673D01*
X122632872Y-122665561D01*
X122636768Y-122665500D01*
X122664349Y-122665500D01*
X122664350Y-122665500D01*
X122668319Y-122664998D01*
X122679965Y-122664080D01*
X122723627Y-122662709D01*
X122742859Y-122657120D01*
X122761918Y-122653174D01*
X122769091Y-122652268D01*
X122781792Y-122650664D01*
X122822407Y-122634582D01*
X122833444Y-122630803D01*
X122875390Y-122618618D01*
X122892629Y-122608422D01*
X122910102Y-122599862D01*
X122928732Y-122592486D01*
X122964064Y-122566814D01*
X122973830Y-122560400D01*
X123011418Y-122538171D01*
X123011417Y-122538171D01*
X123011420Y-122538170D01*
X123025585Y-122524004D01*
X123040373Y-122511373D01*
X123056587Y-122499594D01*
X123084438Y-122465926D01*
X123092279Y-122457309D01*
X124604401Y-120945188D01*
X124662273Y-120912506D01*
X124728710Y-120914404D01*
X124784624Y-120950336D01*
X124813950Y-121009980D01*
X124808264Y-121076201D01*
X124805909Y-121082514D01*
X124805909Y-121082517D01*
X124799783Y-121139500D01*
X124799500Y-121142131D01*
X124799500Y-121579547D01*
X124790061Y-121627000D01*
X124763181Y-121667228D01*
X114952228Y-131478181D01*
X114912000Y-131505061D01*
X114864547Y-131514500D01*
X109957618Y-131514500D01*
X109908805Y-131504488D01*
X109867875Y-131476070D01*
X109841436Y-131433833D01*
X109835422Y-131417711D01*
X109798296Y-131318169D01*
X109712046Y-131202954D01*
X109596831Y-131116704D01*
X109461983Y-131066409D01*
X109402373Y-131060000D01*
X109402369Y-131060000D01*
X108147630Y-131060000D01*
X108088015Y-131066409D01*
X107953169Y-131116704D01*
X107837954Y-131202954D01*
X107751704Y-131318168D01*
X107701409Y-131453015D01*
X107701409Y-131453017D01*
X107695814Y-131505061D01*
X107695000Y-131512630D01*
X107695000Y-132767369D01*
X107698931Y-132803930D01*
X107701409Y-132826983D01*
X107751704Y-132961831D01*
X107837954Y-133077046D01*
X107953169Y-133163296D01*
X108088017Y-133213591D01*
X108147627Y-133220000D01*
X109402372Y-133219999D01*
X109461983Y-133213591D01*
X109596831Y-133163296D01*
X109712046Y-133077046D01*
X109798296Y-132961831D01*
X109841435Y-132846167D01*
X109867875Y-132803930D01*
X109908805Y-132775512D01*
X109957618Y-132765500D01*
X115092256Y-132765500D01*
X115112762Y-132767764D01*
X115115665Y-132767672D01*
X115115667Y-132767673D01*
X115125340Y-132767369D01*
X118595000Y-132767369D01*
X118598931Y-132803930D01*
X118601409Y-132826983D01*
X118651704Y-132961831D01*
X118737954Y-133077046D01*
X118853169Y-133163296D01*
X118988017Y-133213591D01*
X119047627Y-133220000D01*
X120302372Y-133219999D01*
X120361983Y-133213591D01*
X120496831Y-133163296D01*
X120612046Y-133077046D01*
X120698296Y-132961831D01*
X120748591Y-132826983D01*
X120755000Y-132767373D01*
X120754999Y-131512628D01*
X120748591Y-131453017D01*
X120698296Y-131318169D01*
X120612046Y-131202954D01*
X120496831Y-131116704D01*
X120361983Y-131066409D01*
X120302373Y-131060000D01*
X120302369Y-131060000D01*
X119047630Y-131060000D01*
X118988015Y-131066409D01*
X118853169Y-131116704D01*
X118737954Y-131202954D01*
X118651704Y-131318168D01*
X118601409Y-131453015D01*
X118601409Y-131453017D01*
X118595814Y-131505061D01*
X118595000Y-131512630D01*
X118595000Y-132767369D01*
X115125340Y-132767369D01*
X115182872Y-132765561D01*
X115186768Y-132765500D01*
X115214349Y-132765500D01*
X115214350Y-132765500D01*
X115218319Y-132764998D01*
X115229965Y-132764080D01*
X115273627Y-132762709D01*
X115292859Y-132757120D01*
X115311918Y-132753174D01*
X115318196Y-132752381D01*
X115331792Y-132750664D01*
X115372407Y-132734582D01*
X115383444Y-132730803D01*
X115425390Y-132718618D01*
X115442629Y-132708422D01*
X115460102Y-132699862D01*
X115478732Y-132692486D01*
X115514064Y-132666814D01*
X115523830Y-132660400D01*
X115561418Y-132638171D01*
X115561417Y-132638171D01*
X115561420Y-132638170D01*
X115575585Y-132624004D01*
X115590373Y-132611373D01*
X115606587Y-132599594D01*
X115634438Y-132565926D01*
X115642279Y-132557309D01*
X125772770Y-122426818D01*
X125812999Y-122399938D01*
X125860452Y-122390499D01*
X126347870Y-122390499D01*
X126347872Y-122390499D01*
X126407483Y-122384091D01*
X126542331Y-122333796D01*
X126657546Y-122247546D01*
X126743796Y-122132331D01*
X126794091Y-121997483D01*
X126800500Y-121937873D01*
X126800500Y-121790000D01*
X130750000Y-121790000D01*
X130750000Y-121937824D01*
X130756402Y-121997375D01*
X130806647Y-122132089D01*
X130892811Y-122247188D01*
X131007910Y-122333352D01*
X131142624Y-122383597D01*
X131202176Y-122390000D01*
X131500000Y-122390000D01*
X131500000Y-121790000D01*
X132000000Y-121790000D01*
X132000000Y-122390000D01*
X132297824Y-122390000D01*
X132357375Y-122383597D01*
X132492089Y-122333352D01*
X132607188Y-122247188D01*
X132693352Y-122132089D01*
X132743597Y-121997375D01*
X132750000Y-121937824D01*
X132750000Y-121790000D01*
X132000000Y-121790000D01*
X131500000Y-121790000D01*
X130750000Y-121790000D01*
X126800500Y-121790000D01*
X126800499Y-121290000D01*
X130750000Y-121290000D01*
X131500000Y-121290000D01*
X131500000Y-120690000D01*
X132000000Y-120690000D01*
X132000000Y-121290000D01*
X132750000Y-121290000D01*
X132750000Y-121142176D01*
X132743597Y-121082624D01*
X132693352Y-120947910D01*
X132607188Y-120832811D01*
X132492089Y-120746647D01*
X132357375Y-120696402D01*
X132297824Y-120690000D01*
X132000000Y-120690000D01*
X131500000Y-120690000D01*
X131202176Y-120690000D01*
X131142624Y-120696402D01*
X131007910Y-120746647D01*
X130892811Y-120832811D01*
X130806647Y-120947910D01*
X130756402Y-121082624D01*
X130750000Y-121142176D01*
X130750000Y-121290000D01*
X126800499Y-121290000D01*
X126800499Y-121142128D01*
X126794091Y-121082517D01*
X126743796Y-120947669D01*
X126657546Y-120832454D01*
X126542331Y-120746204D01*
X126407483Y-120695909D01*
X126347873Y-120689500D01*
X126347869Y-120689500D01*
X125252130Y-120689500D01*
X125192511Y-120695909D01*
X125186199Y-120698264D01*
X125119979Y-120703950D01*
X125060335Y-120674623D01*
X125024403Y-120618709D01*
X125022506Y-120552273D01*
X125055187Y-120494402D01*
X127347771Y-118201819D01*
X127388000Y-118174939D01*
X127435453Y-118165500D01*
X130195981Y-118165500D01*
X130216016Y-118165500D01*
X130235415Y-118167027D01*
X130255196Y-118170160D01*
X130298674Y-118166050D01*
X130310344Y-118165500D01*
X130768965Y-118165500D01*
X130824470Y-118178616D01*
X130868232Y-118215190D01*
X130892452Y-118247544D01*
X130892453Y-118247544D01*
X130892454Y-118247546D01*
X131007669Y-118333796D01*
X131142517Y-118384091D01*
X131202127Y-118390500D01*
X132297872Y-118390499D01*
X132357483Y-118384091D01*
X132492331Y-118333796D01*
X132607546Y-118247546D01*
X132693796Y-118132331D01*
X132744091Y-117997483D01*
X132750500Y-117937873D01*
X132750499Y-117142128D01*
X132744091Y-117082517D01*
X132693796Y-116947669D01*
X132607546Y-116832454D01*
X132492331Y-116746204D01*
X132357483Y-116695909D01*
X132297873Y-116689500D01*
X132297869Y-116689500D01*
X131202130Y-116689500D01*
X131142515Y-116695909D01*
X131007669Y-116746204D01*
X130892452Y-116832455D01*
X130868232Y-116864810D01*
X130824470Y-116901384D01*
X130768965Y-116914500D01*
X130585453Y-116914500D01*
X130538000Y-116905061D01*
X130497772Y-116878181D01*
X122886960Y-109267369D01*
X131295000Y-109267369D01*
X131301409Y-109326984D01*
X131318266Y-109372179D01*
X131351704Y-109461831D01*
X131437954Y-109577046D01*
X131553169Y-109663296D01*
X131688017Y-109713591D01*
X131747627Y-109720000D01*
X133002372Y-109719999D01*
X133061983Y-109713591D01*
X133196831Y-109663296D01*
X133312046Y-109577046D01*
X133398296Y-109461831D01*
X133448591Y-109326983D01*
X133455000Y-109267373D01*
X133454999Y-108012628D01*
X133448591Y-107953017D01*
X133398296Y-107818169D01*
X133312046Y-107702954D01*
X133196831Y-107616704D01*
X133061983Y-107566409D01*
X133002373Y-107560000D01*
X133002369Y-107560000D01*
X131747630Y-107560000D01*
X131688015Y-107566409D01*
X131553169Y-107616704D01*
X131437954Y-107702954D01*
X131351704Y-107818168D01*
X131301409Y-107953016D01*
X131295000Y-108012630D01*
X131295000Y-109267369D01*
X122886960Y-109267369D01*
X122713960Y-109094369D01*
X122689720Y-109060071D01*
X122678321Y-109019655D01*
X122660674Y-108851744D01*
X122602179Y-108671716D01*
X122602179Y-108671715D01*
X122507533Y-108507783D01*
X122380870Y-108367110D01*
X122227730Y-108255848D01*
X122054802Y-108178855D01*
X121869648Y-108139500D01*
X121869646Y-108139500D01*
X121680354Y-108139500D01*
X121680352Y-108139500D01*
X121495197Y-108178855D01*
X121322269Y-108255848D01*
X121169129Y-108367110D01*
X121042466Y-108507783D01*
X120947820Y-108671715D01*
X120889326Y-108851742D01*
X120879153Y-108948536D01*
X120853211Y-109012342D01*
X120797224Y-109052462D01*
X120728465Y-109056516D01*
X120668151Y-109023255D01*
X120386819Y-108741923D01*
X120359939Y-108701695D01*
X120350500Y-108654242D01*
X120350500Y-97122618D01*
X120360512Y-97073805D01*
X120388930Y-97032875D01*
X120431167Y-97006436D01*
X120443371Y-97001883D01*
X120546831Y-96963296D01*
X120662046Y-96877046D01*
X120748296Y-96761831D01*
X120798591Y-96626983D01*
X120805000Y-96567373D01*
X120804999Y-95312628D01*
X120798591Y-95253017D01*
X120748296Y-95118169D01*
X120662046Y-95002954D01*
X120546831Y-94916704D01*
X120411983Y-94866409D01*
X120352373Y-94860000D01*
X120352369Y-94860000D01*
X119097630Y-94860000D01*
X119038015Y-94866409D01*
X118903169Y-94916704D01*
X118787954Y-95002954D01*
X118701704Y-95118168D01*
X118651409Y-95253016D01*
X118645000Y-95312630D01*
X118645000Y-96567369D01*
X118651409Y-96626983D01*
X118701704Y-96761831D01*
X118787954Y-96877046D01*
X118903169Y-96963296D01*
X119002711Y-97000422D01*
X119018833Y-97006436D01*
X119061070Y-97032875D01*
X119089488Y-97073805D01*
X119099500Y-97122618D01*
X119099500Y-108881951D01*
X119097235Y-108902457D01*
X119099439Y-108972568D01*
X119099500Y-108976463D01*
X119099500Y-109004044D01*
X119100003Y-109008029D01*
X119100918Y-109019662D01*
X119102290Y-109063321D01*
X119107879Y-109082555D01*
X119111825Y-109101611D01*
X119114335Y-109121487D01*
X119130414Y-109162099D01*
X119134197Y-109173146D01*
X119146382Y-109215086D01*
X119156580Y-109232330D01*
X119165136Y-109249795D01*
X119172514Y-109268427D01*
X119172515Y-109268428D01*
X119198180Y-109303754D01*
X119204593Y-109313517D01*
X119226826Y-109351111D01*
X119226829Y-109351114D01*
X119226830Y-109351115D01*
X119240995Y-109365280D01*
X119253627Y-109380070D01*
X119265406Y-109396282D01*
X119294023Y-109419956D01*
X119329692Y-109468407D01*
X119338357Y-109527945D01*
X119317977Y-109584552D01*
X119273350Y-109624904D01*
X119214983Y-109639500D01*
X119180352Y-109639500D01*
X118995197Y-109678855D01*
X118822269Y-109755848D01*
X118669129Y-109867110D01*
X118542466Y-110007784D01*
X118456887Y-110156012D01*
X118411500Y-110201399D01*
X118349500Y-110218012D01*
X118287500Y-110201399D01*
X118242113Y-110156012D01*
X118225500Y-110094012D01*
X118225500Y-110014308D01*
X118225500Y-110014306D01*
X118222598Y-109977431D01*
X118211868Y-109940500D01*
X118176744Y-109819602D01*
X118139040Y-109755848D01*
X118093081Y-109678135D01*
X117976865Y-109561919D01*
X117836178Y-109478717D01*
X117835397Y-109478255D01*
X117677572Y-109432402D01*
X117655444Y-109430660D01*
X117640694Y-109429500D01*
X117640692Y-109429500D01*
X117194907Y-109429500D01*
X117144471Y-109418779D01*
X117054802Y-109378855D01*
X116869648Y-109339500D01*
X116869646Y-109339500D01*
X116810453Y-109339500D01*
X116763000Y-109330061D01*
X116722772Y-109303181D01*
X113575802Y-106156211D01*
X113562906Y-106140113D01*
X113511775Y-106092098D01*
X113508978Y-106089387D01*
X113489470Y-106069879D01*
X113486290Y-106067412D01*
X113477424Y-106059839D01*
X113445582Y-106029938D01*
X113428024Y-106020285D01*
X113411764Y-106009604D01*
X113395936Y-105997327D01*
X113355851Y-105979980D01*
X113345361Y-105974841D01*
X113307091Y-105953802D01*
X113287691Y-105948821D01*
X113269284Y-105942519D01*
X113250897Y-105934562D01*
X113207758Y-105927729D01*
X113196324Y-105925361D01*
X113154019Y-105914500D01*
X113133984Y-105914500D01*
X113114586Y-105912973D01*
X113107162Y-105911797D01*
X113094805Y-105909840D01*
X113094804Y-105909840D01*
X113061751Y-105912964D01*
X113051325Y-105913950D01*
X113039656Y-105914500D01*
X109978747Y-105914500D01*
X109928312Y-105903780D01*
X109886598Y-105873473D01*
X109880871Y-105867112D01*
X109727730Y-105755849D01*
X109727729Y-105755848D01*
X109727727Y-105755847D01*
X109554802Y-105678855D01*
X109369648Y-105639500D01*
X109369646Y-105639500D01*
X109180354Y-105639500D01*
X109180352Y-105639500D01*
X108995197Y-105678855D01*
X108822269Y-105755848D01*
X108669129Y-105867110D01*
X108542466Y-106007783D01*
X108447820Y-106171715D01*
X108389326Y-106351742D01*
X108369540Y-106539999D01*
X108389326Y-106728257D01*
X108447820Y-106908284D01*
X108542466Y-107072216D01*
X108669129Y-107212889D01*
X108822269Y-107324151D01*
X108995197Y-107401144D01*
X109180352Y-107440500D01*
X109180354Y-107440500D01*
X109369646Y-107440500D01*
X109369648Y-107440500D01*
X109493084Y-107414262D01*
X109554803Y-107401144D01*
X109727730Y-107324151D01*
X109880871Y-107212888D01*
X109886598Y-107206526D01*
X109928312Y-107176220D01*
X109978747Y-107165500D01*
X112764548Y-107165500D01*
X112812001Y-107174939D01*
X112852229Y-107201819D01*
X115309780Y-109659371D01*
X115338768Y-109705047D01*
X115345549Y-109758718D01*
X115328833Y-109810169D01*
X115323256Y-109819599D01*
X115277402Y-109977427D01*
X115274500Y-110014308D01*
X115274500Y-110445692D01*
X115277402Y-110482572D01*
X115323255Y-110640397D01*
X115414893Y-110795348D01*
X115413319Y-110796278D01*
X115434467Y-110832906D01*
X115434467Y-110897094D01*
X115413319Y-110933721D01*
X115414893Y-110934652D01*
X115323255Y-111089602D01*
X115277402Y-111247427D01*
X115274500Y-111284308D01*
X115274500Y-111715692D01*
X115277402Y-111752572D01*
X115323255Y-111910397D01*
X115414893Y-112065348D01*
X115413319Y-112066278D01*
X115434467Y-112102906D01*
X115434467Y-112167094D01*
X115413319Y-112203721D01*
X115414893Y-112204652D01*
X115323255Y-112359602D01*
X115277402Y-112517427D01*
X115274500Y-112554308D01*
X115274500Y-112985692D01*
X115277402Y-113022572D01*
X115323255Y-113180397D01*
X115414893Y-113335348D01*
X115413319Y-113336278D01*
X115434467Y-113372906D01*
X115434467Y-113437094D01*
X115413319Y-113473721D01*
X115414893Y-113474652D01*
X115323255Y-113629602D01*
X115277402Y-113787427D01*
X115274500Y-113824308D01*
X115274500Y-114255692D01*
X115277402Y-114292572D01*
X115323255Y-114450397D01*
X115335408Y-114470946D01*
X115397859Y-114576546D01*
X115414893Y-114605348D01*
X115413319Y-114606278D01*
X115434467Y-114642906D01*
X115434467Y-114707094D01*
X115413319Y-114743721D01*
X115414893Y-114744652D01*
X115323255Y-114899602D01*
X115277402Y-115057427D01*
X115274500Y-115094308D01*
X115274500Y-115525692D01*
X115277402Y-115562572D01*
X115323255Y-115720397D01*
X115414893Y-115875348D01*
X115413319Y-115876278D01*
X115434467Y-115912906D01*
X115434467Y-115977094D01*
X115413319Y-116013721D01*
X115414893Y-116014652D01*
X115323255Y-116169602D01*
X115277402Y-116327427D01*
X115274500Y-116364308D01*
X115274500Y-116795692D01*
X115277402Y-116832572D01*
X115323255Y-116990397D01*
X115371643Y-117072216D01*
X115401483Y-117122674D01*
X115414893Y-117145348D01*
X115413319Y-117146278D01*
X115434467Y-117182906D01*
X115434467Y-117247094D01*
X115413319Y-117283721D01*
X115414893Y-117284652D01*
X115323255Y-117439602D01*
X115277402Y-117597427D01*
X115274500Y-117634308D01*
X115274500Y-118065692D01*
X115277402Y-118102572D01*
X115323255Y-118260396D01*
X115323257Y-118260399D01*
X115339975Y-118311851D01*
X115333194Y-118365523D01*
X115304206Y-118411201D01*
X113337228Y-120378181D01*
X113297000Y-120405061D01*
X113249547Y-120414500D01*
X111978747Y-120414500D01*
X111928312Y-120403780D01*
X111886598Y-120373473D01*
X111880871Y-120367112D01*
X111727730Y-120255849D01*
X111727729Y-120255848D01*
X111727727Y-120255847D01*
X111554802Y-120178855D01*
X111369648Y-120139500D01*
X111369646Y-120139500D01*
X111180354Y-120139500D01*
X111180352Y-120139500D01*
X110995197Y-120178855D01*
X110822269Y-120255848D01*
X110669129Y-120367110D01*
X110542466Y-120507783D01*
X110447820Y-120671715D01*
X110389326Y-120851742D01*
X110369540Y-121039999D01*
X110389326Y-121228259D01*
X110397100Y-121252183D01*
X110401642Y-121309899D01*
X110379487Y-121363386D01*
X110335464Y-121400985D01*
X110279169Y-121414500D01*
X109985452Y-121414500D01*
X109937999Y-121405061D01*
X109897771Y-121378181D01*
X107613960Y-119094369D01*
X107589720Y-119060071D01*
X107578321Y-119019655D01*
X107560674Y-118851744D01*
X107517272Y-118718168D01*
X107502180Y-118671718D01*
X107496281Y-118661501D01*
X107479668Y-118599501D01*
X107496281Y-118537500D01*
X107541668Y-118492113D01*
X107603668Y-118475500D01*
X110479192Y-118475500D01*
X110526645Y-118484939D01*
X110566873Y-118511819D01*
X110573135Y-118518081D01*
X110684678Y-118584047D01*
X110714602Y-118601744D01*
X110872427Y-118647597D01*
X110872431Y-118647598D01*
X110909306Y-118650500D01*
X112690692Y-118650500D01*
X112690694Y-118650500D01*
X112727569Y-118647598D01*
X112885398Y-118601744D01*
X113026865Y-118518081D01*
X113143081Y-118401865D01*
X113226744Y-118260398D01*
X113272598Y-118102569D01*
X113275500Y-118065694D01*
X113275500Y-117634306D01*
X113272598Y-117597431D01*
X113226744Y-117439602D01*
X113143081Y-117298135D01*
X113143080Y-117298134D01*
X113135107Y-117284652D01*
X113136680Y-117283721D01*
X113115533Y-117247094D01*
X113115533Y-117182906D01*
X113136680Y-117146278D01*
X113135107Y-117145348D01*
X113143081Y-117131865D01*
X113226744Y-116990398D01*
X113272598Y-116832569D01*
X113275500Y-116795694D01*
X113275500Y-116364306D01*
X113272598Y-116327431D01*
X113226744Y-116169602D01*
X113143081Y-116028135D01*
X113143080Y-116028134D01*
X113135107Y-116014652D01*
X113136680Y-116013721D01*
X113115533Y-115977094D01*
X113115533Y-115912906D01*
X113136680Y-115876278D01*
X113135107Y-115875348D01*
X113162206Y-115829526D01*
X113226744Y-115720398D01*
X113272598Y-115562569D01*
X113275500Y-115525694D01*
X113275500Y-115094306D01*
X113272598Y-115057431D01*
X113264031Y-115027945D01*
X113226744Y-114899602D01*
X113135107Y-114744652D01*
X113136680Y-114743721D01*
X113115533Y-114707094D01*
X113115533Y-114642906D01*
X113136680Y-114606278D01*
X113135107Y-114605348D01*
X113150483Y-114579349D01*
X113226744Y-114450398D01*
X113272598Y-114292569D01*
X113275500Y-114255694D01*
X113275500Y-113824306D01*
X113272598Y-113787431D01*
X113226744Y-113629602D01*
X113143081Y-113488135D01*
X113143080Y-113488134D01*
X113135107Y-113474652D01*
X113136680Y-113473721D01*
X113115533Y-113437094D01*
X113115533Y-113372906D01*
X113136680Y-113336278D01*
X113135107Y-113335348D01*
X113143081Y-113321865D01*
X113226744Y-113180398D01*
X113272598Y-113022569D01*
X113275500Y-112985694D01*
X113275500Y-112554306D01*
X113272598Y-112517431D01*
X113226744Y-112359602D01*
X113143081Y-112218135D01*
X113143080Y-112218134D01*
X113135107Y-112204652D01*
X113136680Y-112203721D01*
X113115533Y-112167094D01*
X113115533Y-112102906D01*
X113136680Y-112066278D01*
X113135107Y-112065348D01*
X113143081Y-112051865D01*
X113226744Y-111910398D01*
X113272598Y-111752569D01*
X113275500Y-111715694D01*
X113275500Y-111284306D01*
X113272598Y-111247431D01*
X113226744Y-111089602D01*
X113143081Y-110948135D01*
X113143080Y-110948134D01*
X113135107Y-110934652D01*
X113136569Y-110933786D01*
X113115178Y-110896733D01*
X113115182Y-110832540D01*
X113136296Y-110795979D01*
X113134709Y-110795040D01*
X113226280Y-110640200D01*
X113272099Y-110482488D01*
X113272295Y-110480000D01*
X110327704Y-110480000D01*
X110327900Y-110482488D01*
X110373719Y-110640200D01*
X110465291Y-110795040D01*
X110463703Y-110795978D01*
X110484817Y-110832547D01*
X110484822Y-110896728D01*
X110463431Y-110933787D01*
X110464893Y-110934652D01*
X110373255Y-111089602D01*
X110327402Y-111247427D01*
X110324500Y-111284308D01*
X110324500Y-111715692D01*
X110327402Y-111752572D01*
X110373255Y-111910397D01*
X110464893Y-112065348D01*
X110463319Y-112066278D01*
X110484467Y-112102906D01*
X110484467Y-112167094D01*
X110463319Y-112203721D01*
X110464893Y-112204652D01*
X110373255Y-112359602D01*
X110327402Y-112517427D01*
X110324500Y-112554308D01*
X110324500Y-112985692D01*
X110327402Y-113022572D01*
X110373255Y-113180397D01*
X110464893Y-113335348D01*
X110463319Y-113336278D01*
X110484467Y-113372906D01*
X110484467Y-113437094D01*
X110463319Y-113473721D01*
X110464893Y-113474652D01*
X110373255Y-113629602D01*
X110327402Y-113787427D01*
X110324500Y-113824308D01*
X110324500Y-114255692D01*
X110327402Y-114292572D01*
X110373255Y-114450397D01*
X110385408Y-114470946D01*
X110447859Y-114576546D01*
X110464893Y-114605348D01*
X110463319Y-114606278D01*
X110484467Y-114642906D01*
X110484467Y-114707094D01*
X110463319Y-114743721D01*
X110464893Y-114744652D01*
X110373255Y-114899602D01*
X110327402Y-115057427D01*
X110324500Y-115094308D01*
X110324500Y-115525692D01*
X110327402Y-115562572D01*
X110373255Y-115720397D01*
X110401040Y-115767379D01*
X110418304Y-115829526D01*
X110402018Y-115891937D01*
X110356589Y-115937725D01*
X110294308Y-115954500D01*
X109625452Y-115954500D01*
X109577999Y-115945061D01*
X109537771Y-115918181D01*
X107936819Y-114317228D01*
X107909939Y-114277000D01*
X107900500Y-114229547D01*
X107900500Y-112238687D01*
X107908736Y-112194249D01*
X107932347Y-112155717D01*
X108007533Y-112072216D01*
X108010962Y-112066278D01*
X108102179Y-111908284D01*
X108152774Y-111752569D01*
X108160674Y-111728256D01*
X108180460Y-111540000D01*
X108160674Y-111351744D01*
X108102179Y-111171716D01*
X108102179Y-111171715D01*
X108007533Y-111007783D01*
X107880870Y-110867110D01*
X107727730Y-110755848D01*
X107554802Y-110678855D01*
X107369648Y-110639500D01*
X107369646Y-110639500D01*
X107180354Y-110639500D01*
X107180352Y-110639500D01*
X106995197Y-110678855D01*
X106822269Y-110755848D01*
X106669129Y-110867110D01*
X106542466Y-111007783D01*
X106447820Y-111171715D01*
X106389326Y-111351742D01*
X106369540Y-111539999D01*
X106389326Y-111728257D01*
X106447820Y-111908284D01*
X106542464Y-112072213D01*
X106542467Y-112072216D01*
X106617652Y-112155717D01*
X106641264Y-112194249D01*
X106649500Y-112238687D01*
X106649500Y-114457256D01*
X106647235Y-114477762D01*
X106649439Y-114547873D01*
X106649500Y-114551768D01*
X106649500Y-114579349D01*
X106650003Y-114583334D01*
X106650918Y-114594967D01*
X106652290Y-114638626D01*
X106657879Y-114657860D01*
X106661825Y-114676916D01*
X106664335Y-114696792D01*
X106680414Y-114737404D01*
X106684197Y-114748451D01*
X106696382Y-114790391D01*
X106706580Y-114807635D01*
X106715136Y-114825100D01*
X106722514Y-114843732D01*
X106722515Y-114843733D01*
X106748180Y-114879059D01*
X106754593Y-114888822D01*
X106776826Y-114926416D01*
X106776829Y-114926419D01*
X106776830Y-114926420D01*
X106790995Y-114940585D01*
X106803627Y-114955375D01*
X106815406Y-114971587D01*
X106849058Y-114999426D01*
X106857699Y-115007289D01*
X108814197Y-116963787D01*
X108827098Y-116979889D01*
X108829212Y-116981874D01*
X108829214Y-116981877D01*
X108859278Y-117010109D01*
X108891324Y-117059231D01*
X108897210Y-117117587D01*
X108875619Y-117172119D01*
X108831381Y-117210629D01*
X108774393Y-117224500D01*
X97947744Y-117224500D01*
X97927237Y-117222235D01*
X97857127Y-117224439D01*
X97853232Y-117224500D01*
X97825650Y-117224500D01*
X97821665Y-117225003D01*
X97810033Y-117225918D01*
X97766369Y-117227290D01*
X97747129Y-117232880D01*
X97728081Y-117236825D01*
X97708209Y-117239335D01*
X97667599Y-117255413D01*
X97656554Y-117259194D01*
X97614610Y-117271381D01*
X97597365Y-117281579D01*
X97579904Y-117290133D01*
X97561267Y-117297512D01*
X97525931Y-117323185D01*
X97516174Y-117329595D01*
X97478580Y-117351829D01*
X97464413Y-117365996D01*
X97449624Y-117378626D01*
X97433413Y-117390404D01*
X97405572Y-117424058D01*
X97397711Y-117432697D01*
X96406727Y-118423681D01*
X96366499Y-118450561D01*
X96319046Y-118460000D01*
X95547630Y-118460000D01*
X95488015Y-118466409D01*
X95353169Y-118516704D01*
X95237954Y-118602954D01*
X95151704Y-118718168D01*
X95101409Y-118853016D01*
X95095000Y-118912630D01*
X95095000Y-120167369D01*
X94275500Y-120167369D01*
X94275500Y-109979999D01*
X110327704Y-109979999D01*
X110327705Y-109980000D01*
X111550000Y-109980000D01*
X111550000Y-109430000D01*
X112050000Y-109430000D01*
X112050000Y-109980000D01*
X113272295Y-109980000D01*
X113272295Y-109979999D01*
X113272099Y-109977511D01*
X113226280Y-109819799D01*
X113142682Y-109678442D01*
X113026557Y-109562317D01*
X112885197Y-109478717D01*
X112727493Y-109432900D01*
X112690639Y-109430000D01*
X112050000Y-109430000D01*
X111550000Y-109430000D01*
X110909361Y-109430000D01*
X110872506Y-109432900D01*
X110714802Y-109478717D01*
X110573442Y-109562317D01*
X110457317Y-109678442D01*
X110373719Y-109819799D01*
X110327900Y-109977511D01*
X110327704Y-109979999D01*
X94275500Y-109979999D01*
X94275500Y-101764500D01*
X94292113Y-101702500D01*
X94337500Y-101657113D01*
X94399500Y-101640500D01*
X98451880Y-101640500D01*
X98451881Y-101640500D01*
X98803940Y-101605825D01*
X99150905Y-101536809D01*
X99489435Y-101434118D01*
X99816269Y-101298739D01*
X99909451Y-101248931D01*
X100128257Y-101131978D01*
X100276574Y-101032875D01*
X100422402Y-100935436D01*
X100695864Y-100711012D01*
X100946012Y-100460864D01*
X101170436Y-100187402D01*
X101288575Y-100010594D01*
X101366978Y-99893257D01*
X101533737Y-99581272D01*
X101533739Y-99581269D01*
X101669118Y-99254435D01*
X101771809Y-98915905D01*
X101840825Y-98568940D01*
X101875500Y-98216881D01*
X101875500Y-98040000D01*
X101875500Y-98039500D01*
X101875500Y-96567369D01*
X107745000Y-96567369D01*
X107751409Y-96626983D01*
X107801704Y-96761831D01*
X107887954Y-96877046D01*
X108003169Y-96963296D01*
X108138017Y-97013591D01*
X108197627Y-97020000D01*
X109452372Y-97019999D01*
X109511983Y-97013591D01*
X109646831Y-96963296D01*
X109762046Y-96877046D01*
X109848296Y-96761831D01*
X109898591Y-96626983D01*
X109905000Y-96567373D01*
X109904999Y-95312628D01*
X109898591Y-95253017D01*
X109848296Y-95118169D01*
X109762046Y-95002954D01*
X109646831Y-94916704D01*
X109511983Y-94866409D01*
X109452373Y-94860000D01*
X109452369Y-94860000D01*
X108197630Y-94860000D01*
X108138015Y-94866409D01*
X108003169Y-94916704D01*
X107887954Y-95002954D01*
X107801704Y-95118168D01*
X107751409Y-95253016D01*
X107745000Y-95312630D01*
X107745000Y-96567369D01*
X101875500Y-96567369D01*
X101875500Y-94164500D01*
X101892113Y-94102500D01*
X101937500Y-94057113D01*
X101999500Y-94040500D01*
X126550500Y-94040500D01*
X126612500Y-94057113D01*
G37*
%TD.AperFunction*%
%TD*%
%TA.AperFunction,Conductor*%
%TO.N,GND*%
G36*
X171612500Y-94057113D02*
G01*
X171657887Y-94102500D01*
X171674500Y-94164500D01*
X171674500Y-98216880D01*
X171709175Y-98568945D01*
X171778189Y-98915898D01*
X171880883Y-99254437D01*
X172016262Y-99581272D01*
X172183021Y-99893257D01*
X172379564Y-100187402D01*
X172603989Y-100460866D01*
X172854133Y-100711010D01*
X173127597Y-100935435D01*
X173421742Y-101131978D01*
X173733727Y-101298737D01*
X173733731Y-101298739D01*
X174060565Y-101434118D01*
X174399095Y-101536809D01*
X174567651Y-101570337D01*
X174746054Y-101605824D01*
X174746055Y-101605824D01*
X174746060Y-101605825D01*
X175098119Y-101640500D01*
X175274901Y-101640500D01*
X175275000Y-101640500D01*
X175275500Y-101640500D01*
X179150500Y-101640500D01*
X179212500Y-101657113D01*
X179257887Y-101702500D01*
X179274500Y-101764500D01*
X179274500Y-126315500D01*
X179257887Y-126377500D01*
X179212500Y-126422887D01*
X179150500Y-126439500D01*
X175275500Y-126439500D01*
X175275000Y-126439500D01*
X175098119Y-126439500D01*
X175087550Y-126440541D01*
X174746054Y-126474175D01*
X174399101Y-126543189D01*
X174060562Y-126645883D01*
X173733727Y-126781262D01*
X173421742Y-126948021D01*
X173127597Y-127144564D01*
X172854133Y-127368989D01*
X172603989Y-127619133D01*
X172379564Y-127892597D01*
X172183021Y-128186742D01*
X172016262Y-128498727D01*
X171880883Y-128825562D01*
X171778189Y-129164101D01*
X171709175Y-129511054D01*
X171674500Y-129863120D01*
X171674500Y-133915500D01*
X171657887Y-133977500D01*
X171612500Y-134022887D01*
X171550500Y-134039500D01*
X146999500Y-134039500D01*
X146937500Y-134022887D01*
X146892113Y-133977500D01*
X146875500Y-133915500D01*
X146875500Y-129863120D01*
X146840824Y-129511054D01*
X146771810Y-129164101D01*
X146771809Y-129164095D01*
X146669118Y-128825565D01*
X146533739Y-128498731D01*
X146533737Y-128498727D01*
X146366978Y-128186742D01*
X146170435Y-127892597D01*
X145946010Y-127619133D01*
X145695866Y-127368989D01*
X145422402Y-127144564D01*
X145128257Y-126948021D01*
X144816272Y-126781262D01*
X144489437Y-126645883D01*
X144489438Y-126645883D01*
X144489435Y-126645882D01*
X144150905Y-126543191D01*
X144150903Y-126543190D01*
X144150898Y-126543189D01*
X143803945Y-126474175D01*
X143462450Y-126440541D01*
X143451881Y-126439500D01*
X143451880Y-126439500D01*
X139399500Y-126439500D01*
X139337500Y-126422887D01*
X139292113Y-126377500D01*
X139275500Y-126315500D01*
X139275500Y-120167369D01*
X140095000Y-120167369D01*
X140101409Y-120226984D01*
X140114795Y-120262872D01*
X140151704Y-120361831D01*
X140237954Y-120477046D01*
X140353169Y-120563296D01*
X140488017Y-120613591D01*
X140547627Y-120620000D01*
X141802372Y-120619999D01*
X141861983Y-120613591D01*
X141996831Y-120563296D01*
X142112046Y-120477046D01*
X142198296Y-120361831D01*
X142248591Y-120226983D01*
X142255000Y-120167373D01*
X142254999Y-119395951D01*
X142264438Y-119348499D01*
X142291315Y-119308274D01*
X143087771Y-118511819D01*
X143128000Y-118484939D01*
X143175453Y-118475500D01*
X147032502Y-118475500D01*
X147089977Y-118489624D01*
X147134358Y-118528780D01*
X147155535Y-118584047D01*
X147148684Y-118642829D01*
X147132278Y-118686819D01*
X147105909Y-118757516D01*
X147099500Y-118817130D01*
X147099500Y-120262869D01*
X147105909Y-120322484D01*
X147122555Y-120367113D01*
X147156204Y-120457331D01*
X147242454Y-120572546D01*
X147357669Y-120658796D01*
X147492517Y-120709091D01*
X147552127Y-120715500D01*
X148997872Y-120715499D01*
X149057483Y-120709091D01*
X149192331Y-120658796D01*
X149307546Y-120572546D01*
X149393796Y-120457331D01*
X149444091Y-120322483D01*
X149450500Y-120262873D01*
X149450499Y-118817128D01*
X149444091Y-118757517D01*
X149401315Y-118642829D01*
X149394465Y-118584047D01*
X149415642Y-118528780D01*
X149460023Y-118489624D01*
X149517498Y-118475500D01*
X150746332Y-118475500D01*
X150808332Y-118492113D01*
X150853719Y-118537500D01*
X150870332Y-118599501D01*
X150853719Y-118661501D01*
X150847819Y-118671718D01*
X150789326Y-118851742D01*
X150769540Y-119040000D01*
X150789326Y-119228257D01*
X150847820Y-119408284D01*
X150942466Y-119572216D01*
X151069129Y-119712889D01*
X151222269Y-119824151D01*
X151395197Y-119901144D01*
X151580352Y-119940500D01*
X151580354Y-119940500D01*
X151639548Y-119940500D01*
X151687001Y-119949939D01*
X151727229Y-119976819D01*
X154174197Y-122423787D01*
X154187098Y-122439889D01*
X154189212Y-122441874D01*
X154189214Y-122441877D01*
X154236561Y-122486339D01*
X154238240Y-122487916D01*
X154241036Y-122490626D01*
X154260530Y-122510120D01*
X154263704Y-122512582D01*
X154272568Y-122520153D01*
X154304418Y-122550062D01*
X154314914Y-122555832D01*
X154321974Y-122559714D01*
X154338231Y-122570392D01*
X154354064Y-122582674D01*
X154370185Y-122589649D01*
X154394156Y-122600023D01*
X154404643Y-122605160D01*
X154442908Y-122626197D01*
X154462316Y-122631180D01*
X154480710Y-122637478D01*
X154499105Y-122645438D01*
X154542254Y-122652271D01*
X154553680Y-122654638D01*
X154569222Y-122658629D01*
X154595980Y-122665500D01*
X154595981Y-122665500D01*
X154616016Y-122665500D01*
X154635413Y-122667026D01*
X154655196Y-122670160D01*
X154698674Y-122666050D01*
X154710344Y-122665500D01*
X163671253Y-122665500D01*
X163721688Y-122676220D01*
X163763401Y-122706526D01*
X163769129Y-122712888D01*
X163922270Y-122824151D01*
X163922271Y-122824151D01*
X163922272Y-122824152D01*
X164095197Y-122901144D01*
X164280352Y-122940500D01*
X164280354Y-122940500D01*
X164469646Y-122940500D01*
X164469648Y-122940500D01*
X164593083Y-122914262D01*
X164654803Y-122901144D01*
X164827730Y-122824151D01*
X164980871Y-122712888D01*
X164986598Y-122706526D01*
X165028312Y-122676220D01*
X165078747Y-122665500D01*
X167542256Y-122665500D01*
X167562762Y-122667764D01*
X167565665Y-122667672D01*
X167565667Y-122667673D01*
X167632872Y-122665561D01*
X167636768Y-122665500D01*
X167664349Y-122665500D01*
X167664350Y-122665500D01*
X167668319Y-122664998D01*
X167679965Y-122664080D01*
X167723627Y-122662709D01*
X167742859Y-122657120D01*
X167761918Y-122653174D01*
X167769091Y-122652268D01*
X167781792Y-122650664D01*
X167822407Y-122634582D01*
X167833444Y-122630803D01*
X167875390Y-122618618D01*
X167892629Y-122608422D01*
X167910102Y-122599862D01*
X167928732Y-122592486D01*
X167964064Y-122566814D01*
X167973830Y-122560400D01*
X168011418Y-122538171D01*
X168011417Y-122538171D01*
X168011420Y-122538170D01*
X168025585Y-122524004D01*
X168040373Y-122511373D01*
X168056587Y-122499594D01*
X168084438Y-122465926D01*
X168092279Y-122457309D01*
X169604401Y-120945188D01*
X169662273Y-120912506D01*
X169728710Y-120914404D01*
X169784624Y-120950336D01*
X169813950Y-121009980D01*
X169808264Y-121076201D01*
X169805909Y-121082514D01*
X169805909Y-121082517D01*
X169799783Y-121139500D01*
X169799500Y-121142131D01*
X169799500Y-121579547D01*
X169790061Y-121627000D01*
X169763181Y-121667228D01*
X159952228Y-131478181D01*
X159912000Y-131505061D01*
X159864547Y-131514500D01*
X154957618Y-131514500D01*
X154908805Y-131504488D01*
X154867875Y-131476070D01*
X154841436Y-131433833D01*
X154835422Y-131417711D01*
X154798296Y-131318169D01*
X154712046Y-131202954D01*
X154596831Y-131116704D01*
X154461983Y-131066409D01*
X154402373Y-131060000D01*
X154402369Y-131060000D01*
X153147630Y-131060000D01*
X153088015Y-131066409D01*
X152953169Y-131116704D01*
X152837954Y-131202954D01*
X152751704Y-131318168D01*
X152701409Y-131453015D01*
X152701409Y-131453017D01*
X152695814Y-131505061D01*
X152695000Y-131512630D01*
X152695000Y-132767369D01*
X152698931Y-132803930D01*
X152701409Y-132826983D01*
X152751704Y-132961831D01*
X152837954Y-133077046D01*
X152953169Y-133163296D01*
X153088017Y-133213591D01*
X153147627Y-133220000D01*
X154402372Y-133219999D01*
X154461983Y-133213591D01*
X154596831Y-133163296D01*
X154712046Y-133077046D01*
X154798296Y-132961831D01*
X154841435Y-132846167D01*
X154867875Y-132803930D01*
X154908805Y-132775512D01*
X154957618Y-132765500D01*
X160092256Y-132765500D01*
X160112762Y-132767764D01*
X160115665Y-132767672D01*
X160115667Y-132767673D01*
X160125340Y-132767369D01*
X163595000Y-132767369D01*
X163598931Y-132803930D01*
X163601409Y-132826983D01*
X163651704Y-132961831D01*
X163737954Y-133077046D01*
X163853169Y-133163296D01*
X163988017Y-133213591D01*
X164047627Y-133220000D01*
X165302372Y-133219999D01*
X165361983Y-133213591D01*
X165496831Y-133163296D01*
X165612046Y-133077046D01*
X165698296Y-132961831D01*
X165748591Y-132826983D01*
X165755000Y-132767373D01*
X165754999Y-131512628D01*
X165748591Y-131453017D01*
X165698296Y-131318169D01*
X165612046Y-131202954D01*
X165496831Y-131116704D01*
X165361983Y-131066409D01*
X165302373Y-131060000D01*
X165302369Y-131060000D01*
X164047630Y-131060000D01*
X163988015Y-131066409D01*
X163853169Y-131116704D01*
X163737954Y-131202954D01*
X163651704Y-131318168D01*
X163601409Y-131453015D01*
X163601409Y-131453017D01*
X163595814Y-131505061D01*
X163595000Y-131512630D01*
X163595000Y-132767369D01*
X160125340Y-132767369D01*
X160182872Y-132765561D01*
X160186768Y-132765500D01*
X160214349Y-132765500D01*
X160214350Y-132765500D01*
X160218319Y-132764998D01*
X160229965Y-132764080D01*
X160273627Y-132762709D01*
X160292859Y-132757120D01*
X160311918Y-132753174D01*
X160318196Y-132752381D01*
X160331792Y-132750664D01*
X160372407Y-132734582D01*
X160383444Y-132730803D01*
X160425390Y-132718618D01*
X160442629Y-132708422D01*
X160460102Y-132699862D01*
X160478732Y-132692486D01*
X160514064Y-132666814D01*
X160523830Y-132660400D01*
X160561418Y-132638171D01*
X160561417Y-132638171D01*
X160561420Y-132638170D01*
X160575585Y-132624004D01*
X160590373Y-132611373D01*
X160606587Y-132599594D01*
X160634438Y-132565926D01*
X160642279Y-132557309D01*
X170772770Y-122426818D01*
X170812999Y-122399938D01*
X170860452Y-122390499D01*
X171347870Y-122390499D01*
X171347872Y-122390499D01*
X171407483Y-122384091D01*
X171542331Y-122333796D01*
X171657546Y-122247546D01*
X171743796Y-122132331D01*
X171794091Y-121997483D01*
X171800500Y-121937873D01*
X171800500Y-121790000D01*
X175750000Y-121790000D01*
X175750000Y-121937824D01*
X175756402Y-121997375D01*
X175806647Y-122132089D01*
X175892811Y-122247188D01*
X176007910Y-122333352D01*
X176142624Y-122383597D01*
X176202176Y-122390000D01*
X176500000Y-122390000D01*
X176500000Y-121790000D01*
X177000000Y-121790000D01*
X177000000Y-122390000D01*
X177297824Y-122390000D01*
X177357375Y-122383597D01*
X177492089Y-122333352D01*
X177607188Y-122247188D01*
X177693352Y-122132089D01*
X177743597Y-121997375D01*
X177750000Y-121937824D01*
X177750000Y-121790000D01*
X177000000Y-121790000D01*
X176500000Y-121790000D01*
X175750000Y-121790000D01*
X171800500Y-121790000D01*
X171800499Y-121290000D01*
X175750000Y-121290000D01*
X176500000Y-121290000D01*
X176500000Y-120690000D01*
X177000000Y-120690000D01*
X177000000Y-121290000D01*
X177750000Y-121290000D01*
X177750000Y-121142176D01*
X177743597Y-121082624D01*
X177693352Y-120947910D01*
X177607188Y-120832811D01*
X177492089Y-120746647D01*
X177357375Y-120696402D01*
X177297824Y-120690000D01*
X177000000Y-120690000D01*
X176500000Y-120690000D01*
X176202176Y-120690000D01*
X176142624Y-120696402D01*
X176007910Y-120746647D01*
X175892811Y-120832811D01*
X175806647Y-120947910D01*
X175756402Y-121082624D01*
X175750000Y-121142176D01*
X175750000Y-121290000D01*
X171800499Y-121290000D01*
X171800499Y-121142128D01*
X171794091Y-121082517D01*
X171743796Y-120947669D01*
X171657546Y-120832454D01*
X171542331Y-120746204D01*
X171407483Y-120695909D01*
X171347873Y-120689500D01*
X171347869Y-120689500D01*
X170252130Y-120689500D01*
X170192511Y-120695909D01*
X170186199Y-120698264D01*
X170119979Y-120703950D01*
X170060335Y-120674623D01*
X170024403Y-120618709D01*
X170022506Y-120552273D01*
X170055187Y-120494402D01*
X172347771Y-118201819D01*
X172388000Y-118174939D01*
X172435453Y-118165500D01*
X175195981Y-118165500D01*
X175216016Y-118165500D01*
X175235415Y-118167027D01*
X175255196Y-118170160D01*
X175298674Y-118166050D01*
X175310344Y-118165500D01*
X175768965Y-118165500D01*
X175824470Y-118178616D01*
X175868232Y-118215190D01*
X175892452Y-118247544D01*
X175892453Y-118247544D01*
X175892454Y-118247546D01*
X176007669Y-118333796D01*
X176142517Y-118384091D01*
X176202127Y-118390500D01*
X177297872Y-118390499D01*
X177357483Y-118384091D01*
X177492331Y-118333796D01*
X177607546Y-118247546D01*
X177693796Y-118132331D01*
X177744091Y-117997483D01*
X177750500Y-117937873D01*
X177750499Y-117142128D01*
X177744091Y-117082517D01*
X177693796Y-116947669D01*
X177607546Y-116832454D01*
X177492331Y-116746204D01*
X177357483Y-116695909D01*
X177297873Y-116689500D01*
X177297869Y-116689500D01*
X176202130Y-116689500D01*
X176142515Y-116695909D01*
X176007669Y-116746204D01*
X175892452Y-116832455D01*
X175868232Y-116864810D01*
X175824470Y-116901384D01*
X175768965Y-116914500D01*
X175585453Y-116914500D01*
X175538000Y-116905061D01*
X175497772Y-116878181D01*
X167886960Y-109267369D01*
X176295000Y-109267369D01*
X176301409Y-109326984D01*
X176318266Y-109372179D01*
X176351704Y-109461831D01*
X176437954Y-109577046D01*
X176553169Y-109663296D01*
X176688017Y-109713591D01*
X176747627Y-109720000D01*
X178002372Y-109719999D01*
X178061983Y-109713591D01*
X178196831Y-109663296D01*
X178312046Y-109577046D01*
X178398296Y-109461831D01*
X178448591Y-109326983D01*
X178455000Y-109267373D01*
X178454999Y-108012628D01*
X178448591Y-107953017D01*
X178398296Y-107818169D01*
X178312046Y-107702954D01*
X178196831Y-107616704D01*
X178061983Y-107566409D01*
X178002373Y-107560000D01*
X178002369Y-107560000D01*
X176747630Y-107560000D01*
X176688015Y-107566409D01*
X176553169Y-107616704D01*
X176437954Y-107702954D01*
X176351704Y-107818168D01*
X176301409Y-107953016D01*
X176295000Y-108012630D01*
X176295000Y-109267369D01*
X167886960Y-109267369D01*
X167713960Y-109094369D01*
X167689720Y-109060071D01*
X167678321Y-109019655D01*
X167660674Y-108851744D01*
X167602179Y-108671716D01*
X167602179Y-108671715D01*
X167507533Y-108507783D01*
X167380870Y-108367110D01*
X167227730Y-108255848D01*
X167054802Y-108178855D01*
X166869648Y-108139500D01*
X166869646Y-108139500D01*
X166680354Y-108139500D01*
X166680352Y-108139500D01*
X166495197Y-108178855D01*
X166322269Y-108255848D01*
X166169129Y-108367110D01*
X166042466Y-108507783D01*
X165947820Y-108671715D01*
X165889326Y-108851742D01*
X165879153Y-108948536D01*
X165853211Y-109012342D01*
X165797224Y-109052462D01*
X165728465Y-109056516D01*
X165668151Y-109023255D01*
X165386819Y-108741923D01*
X165359939Y-108701695D01*
X165350500Y-108654242D01*
X165350500Y-97122618D01*
X165360512Y-97073805D01*
X165388930Y-97032875D01*
X165431167Y-97006436D01*
X165443371Y-97001883D01*
X165546831Y-96963296D01*
X165662046Y-96877046D01*
X165748296Y-96761831D01*
X165798591Y-96626983D01*
X165805000Y-96567373D01*
X165804999Y-95312628D01*
X165798591Y-95253017D01*
X165748296Y-95118169D01*
X165662046Y-95002954D01*
X165546831Y-94916704D01*
X165411983Y-94866409D01*
X165352373Y-94860000D01*
X165352369Y-94860000D01*
X164097630Y-94860000D01*
X164038015Y-94866409D01*
X163903169Y-94916704D01*
X163787954Y-95002954D01*
X163701704Y-95118168D01*
X163651409Y-95253016D01*
X163645000Y-95312630D01*
X163645000Y-96567369D01*
X163651409Y-96626983D01*
X163701704Y-96761831D01*
X163787954Y-96877046D01*
X163903169Y-96963296D01*
X164002711Y-97000422D01*
X164018833Y-97006436D01*
X164061070Y-97032875D01*
X164089488Y-97073805D01*
X164099500Y-97122618D01*
X164099500Y-108881951D01*
X164097235Y-108902457D01*
X164099439Y-108972568D01*
X164099500Y-108976463D01*
X164099500Y-109004044D01*
X164100003Y-109008029D01*
X164100918Y-109019662D01*
X164102290Y-109063321D01*
X164107879Y-109082555D01*
X164111825Y-109101611D01*
X164114335Y-109121487D01*
X164130414Y-109162099D01*
X164134197Y-109173146D01*
X164146382Y-109215086D01*
X164156580Y-109232330D01*
X164165136Y-109249795D01*
X164172514Y-109268427D01*
X164172515Y-109268428D01*
X164198180Y-109303754D01*
X164204593Y-109313517D01*
X164226826Y-109351111D01*
X164226829Y-109351114D01*
X164226830Y-109351115D01*
X164240995Y-109365280D01*
X164253627Y-109380070D01*
X164265406Y-109396282D01*
X164294023Y-109419956D01*
X164329692Y-109468407D01*
X164338357Y-109527945D01*
X164317977Y-109584552D01*
X164273350Y-109624904D01*
X164214983Y-109639500D01*
X164180352Y-109639500D01*
X163995197Y-109678855D01*
X163822269Y-109755848D01*
X163669129Y-109867110D01*
X163542466Y-110007784D01*
X163456887Y-110156012D01*
X163411500Y-110201399D01*
X163349500Y-110218012D01*
X163287500Y-110201399D01*
X163242113Y-110156012D01*
X163225500Y-110094012D01*
X163225500Y-110014308D01*
X163225500Y-110014306D01*
X163222598Y-109977431D01*
X163211868Y-109940500D01*
X163176744Y-109819602D01*
X163139040Y-109755848D01*
X163093081Y-109678135D01*
X162976865Y-109561919D01*
X162836178Y-109478717D01*
X162835397Y-109478255D01*
X162677572Y-109432402D01*
X162655444Y-109430660D01*
X162640694Y-109429500D01*
X162640692Y-109429500D01*
X162194907Y-109429500D01*
X162144471Y-109418779D01*
X162054802Y-109378855D01*
X161869648Y-109339500D01*
X161869646Y-109339500D01*
X161810453Y-109339500D01*
X161763000Y-109330061D01*
X161722772Y-109303181D01*
X158575802Y-106156211D01*
X158562906Y-106140113D01*
X158511775Y-106092098D01*
X158508978Y-106089387D01*
X158489470Y-106069879D01*
X158486290Y-106067412D01*
X158477424Y-106059839D01*
X158445582Y-106029938D01*
X158428024Y-106020285D01*
X158411764Y-106009604D01*
X158395936Y-105997327D01*
X158355851Y-105979980D01*
X158345361Y-105974841D01*
X158307091Y-105953802D01*
X158287691Y-105948821D01*
X158269284Y-105942519D01*
X158250897Y-105934562D01*
X158207758Y-105927729D01*
X158196324Y-105925361D01*
X158154019Y-105914500D01*
X158133984Y-105914500D01*
X158114586Y-105912973D01*
X158107162Y-105911797D01*
X158094805Y-105909840D01*
X158094804Y-105909840D01*
X158061751Y-105912964D01*
X158051325Y-105913950D01*
X158039656Y-105914500D01*
X154978747Y-105914500D01*
X154928312Y-105903780D01*
X154886598Y-105873473D01*
X154880871Y-105867112D01*
X154727730Y-105755849D01*
X154727729Y-105755848D01*
X154727727Y-105755847D01*
X154554802Y-105678855D01*
X154369648Y-105639500D01*
X154369646Y-105639500D01*
X154180354Y-105639500D01*
X154180352Y-105639500D01*
X153995197Y-105678855D01*
X153822269Y-105755848D01*
X153669129Y-105867110D01*
X153542466Y-106007783D01*
X153447820Y-106171715D01*
X153389326Y-106351742D01*
X153369540Y-106539999D01*
X153389326Y-106728257D01*
X153447820Y-106908284D01*
X153542466Y-107072216D01*
X153669129Y-107212889D01*
X153822269Y-107324151D01*
X153995197Y-107401144D01*
X154180352Y-107440500D01*
X154180354Y-107440500D01*
X154369646Y-107440500D01*
X154369648Y-107440500D01*
X154493084Y-107414262D01*
X154554803Y-107401144D01*
X154727730Y-107324151D01*
X154880871Y-107212888D01*
X154886598Y-107206526D01*
X154928312Y-107176220D01*
X154978747Y-107165500D01*
X157764548Y-107165500D01*
X157812001Y-107174939D01*
X157852229Y-107201819D01*
X160309780Y-109659371D01*
X160338768Y-109705047D01*
X160345549Y-109758718D01*
X160328833Y-109810169D01*
X160323256Y-109819599D01*
X160277402Y-109977427D01*
X160274500Y-110014308D01*
X160274500Y-110445692D01*
X160277402Y-110482572D01*
X160323255Y-110640397D01*
X160414893Y-110795348D01*
X160413319Y-110796278D01*
X160434467Y-110832906D01*
X160434467Y-110897094D01*
X160413319Y-110933721D01*
X160414893Y-110934652D01*
X160323255Y-111089602D01*
X160277402Y-111247427D01*
X160274500Y-111284308D01*
X160274500Y-111715692D01*
X160277402Y-111752572D01*
X160323255Y-111910397D01*
X160414893Y-112065348D01*
X160413319Y-112066278D01*
X160434467Y-112102906D01*
X160434467Y-112167094D01*
X160413319Y-112203721D01*
X160414893Y-112204652D01*
X160323255Y-112359602D01*
X160277402Y-112517427D01*
X160274500Y-112554308D01*
X160274500Y-112985692D01*
X160277402Y-113022572D01*
X160323255Y-113180397D01*
X160414893Y-113335348D01*
X160413319Y-113336278D01*
X160434467Y-113372906D01*
X160434467Y-113437094D01*
X160413319Y-113473721D01*
X160414893Y-113474652D01*
X160323255Y-113629602D01*
X160277402Y-113787427D01*
X160274500Y-113824308D01*
X160274500Y-114255692D01*
X160277402Y-114292572D01*
X160323255Y-114450397D01*
X160335408Y-114470946D01*
X160397859Y-114576546D01*
X160414893Y-114605348D01*
X160413319Y-114606278D01*
X160434467Y-114642906D01*
X160434467Y-114707094D01*
X160413319Y-114743721D01*
X160414893Y-114744652D01*
X160323255Y-114899602D01*
X160277402Y-115057427D01*
X160274500Y-115094308D01*
X160274500Y-115525692D01*
X160277402Y-115562572D01*
X160323255Y-115720397D01*
X160414893Y-115875348D01*
X160413319Y-115876278D01*
X160434467Y-115912906D01*
X160434467Y-115977094D01*
X160413319Y-116013721D01*
X160414893Y-116014652D01*
X160323255Y-116169602D01*
X160277402Y-116327427D01*
X160274500Y-116364308D01*
X160274500Y-116795692D01*
X160277402Y-116832572D01*
X160323255Y-116990397D01*
X160371643Y-117072216D01*
X160401483Y-117122674D01*
X160414893Y-117145348D01*
X160413319Y-117146278D01*
X160434467Y-117182906D01*
X160434467Y-117247094D01*
X160413319Y-117283721D01*
X160414893Y-117284652D01*
X160323255Y-117439602D01*
X160277402Y-117597427D01*
X160274500Y-117634308D01*
X160274500Y-118065692D01*
X160277402Y-118102572D01*
X160323255Y-118260396D01*
X160323257Y-118260399D01*
X160339975Y-118311851D01*
X160333194Y-118365523D01*
X160304206Y-118411201D01*
X158337228Y-120378181D01*
X158297000Y-120405061D01*
X158249547Y-120414500D01*
X156978747Y-120414500D01*
X156928312Y-120403780D01*
X156886598Y-120373473D01*
X156880871Y-120367112D01*
X156727730Y-120255849D01*
X156727729Y-120255848D01*
X156727727Y-120255847D01*
X156554802Y-120178855D01*
X156369648Y-120139500D01*
X156369646Y-120139500D01*
X156180354Y-120139500D01*
X156180352Y-120139500D01*
X155995197Y-120178855D01*
X155822269Y-120255848D01*
X155669129Y-120367110D01*
X155542466Y-120507783D01*
X155447820Y-120671715D01*
X155389326Y-120851742D01*
X155369540Y-121039999D01*
X155389326Y-121228259D01*
X155397100Y-121252183D01*
X155401642Y-121309899D01*
X155379487Y-121363386D01*
X155335464Y-121400985D01*
X155279169Y-121414500D01*
X154985452Y-121414500D01*
X154937999Y-121405061D01*
X154897771Y-121378181D01*
X152613960Y-119094369D01*
X152589720Y-119060071D01*
X152578321Y-119019655D01*
X152560674Y-118851744D01*
X152517272Y-118718168D01*
X152502180Y-118671718D01*
X152496281Y-118661501D01*
X152479668Y-118599501D01*
X152496281Y-118537500D01*
X152541668Y-118492113D01*
X152603668Y-118475500D01*
X155479192Y-118475500D01*
X155526645Y-118484939D01*
X155566873Y-118511819D01*
X155573135Y-118518081D01*
X155684678Y-118584047D01*
X155714602Y-118601744D01*
X155872427Y-118647597D01*
X155872431Y-118647598D01*
X155909306Y-118650500D01*
X157690692Y-118650500D01*
X157690694Y-118650500D01*
X157727569Y-118647598D01*
X157885398Y-118601744D01*
X158026865Y-118518081D01*
X158143081Y-118401865D01*
X158226744Y-118260398D01*
X158272598Y-118102569D01*
X158275500Y-118065694D01*
X158275500Y-117634306D01*
X158272598Y-117597431D01*
X158226744Y-117439602D01*
X158143081Y-117298135D01*
X158143080Y-117298134D01*
X158135107Y-117284652D01*
X158136680Y-117283721D01*
X158115533Y-117247094D01*
X158115533Y-117182906D01*
X158136680Y-117146278D01*
X158135107Y-117145348D01*
X158143081Y-117131865D01*
X158226744Y-116990398D01*
X158272598Y-116832569D01*
X158275500Y-116795694D01*
X158275500Y-116364306D01*
X158272598Y-116327431D01*
X158226744Y-116169602D01*
X158143081Y-116028135D01*
X158143080Y-116028134D01*
X158135107Y-116014652D01*
X158136680Y-116013721D01*
X158115533Y-115977094D01*
X158115533Y-115912906D01*
X158136680Y-115876278D01*
X158135107Y-115875348D01*
X158162206Y-115829526D01*
X158226744Y-115720398D01*
X158272598Y-115562569D01*
X158275500Y-115525694D01*
X158275500Y-115094306D01*
X158272598Y-115057431D01*
X158264031Y-115027945D01*
X158226744Y-114899602D01*
X158135107Y-114744652D01*
X158136680Y-114743721D01*
X158115533Y-114707094D01*
X158115533Y-114642906D01*
X158136680Y-114606278D01*
X158135107Y-114605348D01*
X158150483Y-114579349D01*
X158226744Y-114450398D01*
X158272598Y-114292569D01*
X158275500Y-114255694D01*
X158275500Y-113824306D01*
X158272598Y-113787431D01*
X158226744Y-113629602D01*
X158143081Y-113488135D01*
X158143080Y-113488134D01*
X158135107Y-113474652D01*
X158136680Y-113473721D01*
X158115533Y-113437094D01*
X158115533Y-113372906D01*
X158136680Y-113336278D01*
X158135107Y-113335348D01*
X158143081Y-113321865D01*
X158226744Y-113180398D01*
X158272598Y-113022569D01*
X158275500Y-112985694D01*
X158275500Y-112554306D01*
X158272598Y-112517431D01*
X158226744Y-112359602D01*
X158143081Y-112218135D01*
X158143080Y-112218134D01*
X158135107Y-112204652D01*
X158136680Y-112203721D01*
X158115533Y-112167094D01*
X158115533Y-112102906D01*
X158136680Y-112066278D01*
X158135107Y-112065348D01*
X158143081Y-112051865D01*
X158226744Y-111910398D01*
X158272598Y-111752569D01*
X158275500Y-111715694D01*
X158275500Y-111284306D01*
X158272598Y-111247431D01*
X158226744Y-111089602D01*
X158143081Y-110948135D01*
X158143080Y-110948134D01*
X158135107Y-110934652D01*
X158136569Y-110933786D01*
X158115178Y-110896733D01*
X158115182Y-110832540D01*
X158136296Y-110795979D01*
X158134709Y-110795040D01*
X158226280Y-110640200D01*
X158272099Y-110482488D01*
X158272295Y-110480000D01*
X155327704Y-110480000D01*
X155327900Y-110482488D01*
X155373719Y-110640200D01*
X155465291Y-110795040D01*
X155463703Y-110795978D01*
X155484817Y-110832547D01*
X155484822Y-110896728D01*
X155463431Y-110933787D01*
X155464893Y-110934652D01*
X155373255Y-111089602D01*
X155327402Y-111247427D01*
X155324500Y-111284308D01*
X155324500Y-111715692D01*
X155327402Y-111752572D01*
X155373255Y-111910397D01*
X155464893Y-112065348D01*
X155463319Y-112066278D01*
X155484467Y-112102906D01*
X155484467Y-112167094D01*
X155463319Y-112203721D01*
X155464893Y-112204652D01*
X155373255Y-112359602D01*
X155327402Y-112517427D01*
X155324500Y-112554308D01*
X155324500Y-112985692D01*
X155327402Y-113022572D01*
X155373255Y-113180397D01*
X155464893Y-113335348D01*
X155463319Y-113336278D01*
X155484467Y-113372906D01*
X155484467Y-113437094D01*
X155463319Y-113473721D01*
X155464893Y-113474652D01*
X155373255Y-113629602D01*
X155327402Y-113787427D01*
X155324500Y-113824308D01*
X155324500Y-114255692D01*
X155327402Y-114292572D01*
X155373255Y-114450397D01*
X155385408Y-114470946D01*
X155447859Y-114576546D01*
X155464893Y-114605348D01*
X155463319Y-114606278D01*
X155484467Y-114642906D01*
X155484467Y-114707094D01*
X155463319Y-114743721D01*
X155464893Y-114744652D01*
X155373255Y-114899602D01*
X155327402Y-115057427D01*
X155324500Y-115094308D01*
X155324500Y-115525692D01*
X155327402Y-115562572D01*
X155373255Y-115720397D01*
X155401040Y-115767379D01*
X155418304Y-115829526D01*
X155402018Y-115891937D01*
X155356589Y-115937725D01*
X155294308Y-115954500D01*
X154625452Y-115954500D01*
X154577999Y-115945061D01*
X154537771Y-115918181D01*
X152936819Y-114317228D01*
X152909939Y-114277000D01*
X152900500Y-114229547D01*
X152900500Y-112238687D01*
X152908736Y-112194249D01*
X152932347Y-112155717D01*
X153007533Y-112072216D01*
X153010962Y-112066278D01*
X153102179Y-111908284D01*
X153152774Y-111752569D01*
X153160674Y-111728256D01*
X153180460Y-111540000D01*
X153160674Y-111351744D01*
X153102179Y-111171716D01*
X153102179Y-111171715D01*
X153007533Y-111007783D01*
X152880870Y-110867110D01*
X152727730Y-110755848D01*
X152554802Y-110678855D01*
X152369648Y-110639500D01*
X152369646Y-110639500D01*
X152180354Y-110639500D01*
X152180352Y-110639500D01*
X151995197Y-110678855D01*
X151822269Y-110755848D01*
X151669129Y-110867110D01*
X151542466Y-111007783D01*
X151447820Y-111171715D01*
X151389326Y-111351742D01*
X151369540Y-111539999D01*
X151389326Y-111728257D01*
X151447820Y-111908284D01*
X151542464Y-112072213D01*
X151542467Y-112072216D01*
X151617652Y-112155717D01*
X151641264Y-112194249D01*
X151649500Y-112238687D01*
X151649500Y-114457256D01*
X151647235Y-114477762D01*
X151649439Y-114547873D01*
X151649500Y-114551768D01*
X151649500Y-114579349D01*
X151650003Y-114583334D01*
X151650918Y-114594967D01*
X151652290Y-114638626D01*
X151657879Y-114657860D01*
X151661825Y-114676916D01*
X151664335Y-114696792D01*
X151680414Y-114737404D01*
X151684197Y-114748451D01*
X151696382Y-114790391D01*
X151706580Y-114807635D01*
X151715136Y-114825100D01*
X151722514Y-114843732D01*
X151722515Y-114843733D01*
X151748180Y-114879059D01*
X151754593Y-114888822D01*
X151776826Y-114926416D01*
X151776829Y-114926419D01*
X151776830Y-114926420D01*
X151790995Y-114940585D01*
X151803627Y-114955375D01*
X151815406Y-114971587D01*
X151849058Y-114999426D01*
X151857699Y-115007289D01*
X153814197Y-116963787D01*
X153827098Y-116979889D01*
X153829212Y-116981874D01*
X153829214Y-116981877D01*
X153859278Y-117010109D01*
X153891324Y-117059231D01*
X153897210Y-117117587D01*
X153875619Y-117172119D01*
X153831381Y-117210629D01*
X153774393Y-117224500D01*
X142947744Y-117224500D01*
X142927237Y-117222235D01*
X142857127Y-117224439D01*
X142853232Y-117224500D01*
X142825650Y-117224500D01*
X142821665Y-117225003D01*
X142810033Y-117225918D01*
X142766369Y-117227290D01*
X142747129Y-117232880D01*
X142728081Y-117236825D01*
X142708209Y-117239335D01*
X142667599Y-117255413D01*
X142656554Y-117259194D01*
X142614610Y-117271381D01*
X142597365Y-117281579D01*
X142579904Y-117290133D01*
X142561267Y-117297512D01*
X142525931Y-117323185D01*
X142516174Y-117329595D01*
X142478580Y-117351829D01*
X142464413Y-117365996D01*
X142449624Y-117378626D01*
X142433413Y-117390404D01*
X142405572Y-117424058D01*
X142397711Y-117432697D01*
X141406727Y-118423681D01*
X141366499Y-118450561D01*
X141319046Y-118460000D01*
X140547630Y-118460000D01*
X140488015Y-118466409D01*
X140353169Y-118516704D01*
X140237954Y-118602954D01*
X140151704Y-118718168D01*
X140101409Y-118853016D01*
X140095000Y-118912630D01*
X140095000Y-120167369D01*
X139275500Y-120167369D01*
X139275500Y-109979999D01*
X155327704Y-109979999D01*
X155327705Y-109980000D01*
X156550000Y-109980000D01*
X156550000Y-109430000D01*
X157050000Y-109430000D01*
X157050000Y-109980000D01*
X158272295Y-109980000D01*
X158272295Y-109979999D01*
X158272099Y-109977511D01*
X158226280Y-109819799D01*
X158142682Y-109678442D01*
X158026557Y-109562317D01*
X157885197Y-109478717D01*
X157727493Y-109432900D01*
X157690639Y-109430000D01*
X157050000Y-109430000D01*
X156550000Y-109430000D01*
X155909361Y-109430000D01*
X155872506Y-109432900D01*
X155714802Y-109478717D01*
X155573442Y-109562317D01*
X155457317Y-109678442D01*
X155373719Y-109819799D01*
X155327900Y-109977511D01*
X155327704Y-109979999D01*
X139275500Y-109979999D01*
X139275500Y-101764500D01*
X139292113Y-101702500D01*
X139337500Y-101657113D01*
X139399500Y-101640500D01*
X143451880Y-101640500D01*
X143451881Y-101640500D01*
X143803940Y-101605825D01*
X144150905Y-101536809D01*
X144489435Y-101434118D01*
X144816269Y-101298739D01*
X144909451Y-101248931D01*
X145128257Y-101131978D01*
X145276574Y-101032875D01*
X145422402Y-100935436D01*
X145695864Y-100711012D01*
X145946012Y-100460864D01*
X146170436Y-100187402D01*
X146288575Y-100010594D01*
X146366978Y-99893257D01*
X146533737Y-99581272D01*
X146533739Y-99581269D01*
X146669118Y-99254435D01*
X146771809Y-98915905D01*
X146840825Y-98568940D01*
X146875500Y-98216881D01*
X146875500Y-98040000D01*
X146875500Y-98039500D01*
X146875500Y-96567369D01*
X152745000Y-96567369D01*
X152751409Y-96626983D01*
X152801704Y-96761831D01*
X152887954Y-96877046D01*
X153003169Y-96963296D01*
X153138017Y-97013591D01*
X153197627Y-97020000D01*
X154452372Y-97019999D01*
X154511983Y-97013591D01*
X154646831Y-96963296D01*
X154762046Y-96877046D01*
X154848296Y-96761831D01*
X154898591Y-96626983D01*
X154905000Y-96567373D01*
X154904999Y-95312628D01*
X154898591Y-95253017D01*
X154848296Y-95118169D01*
X154762046Y-95002954D01*
X154646831Y-94916704D01*
X154511983Y-94866409D01*
X154452373Y-94860000D01*
X154452369Y-94860000D01*
X153197630Y-94860000D01*
X153138015Y-94866409D01*
X153003169Y-94916704D01*
X152887954Y-95002954D01*
X152801704Y-95118168D01*
X152751409Y-95253016D01*
X152745000Y-95312630D01*
X152745000Y-96567369D01*
X146875500Y-96567369D01*
X146875500Y-94164500D01*
X146892113Y-94102500D01*
X146937500Y-94057113D01*
X146999500Y-94040500D01*
X171550500Y-94040500D01*
X171612500Y-94057113D01*
G37*
%TD.AperFunction*%
%TD*%
%TA.AperFunction,Conductor*%
%TO.N,GND*%
G36*
X171612500Y-49057113D02*
G01*
X171657887Y-49102500D01*
X171674500Y-49164500D01*
X171674500Y-53216880D01*
X171709175Y-53568945D01*
X171778189Y-53915898D01*
X171880883Y-54254437D01*
X172016262Y-54581272D01*
X172183021Y-54893257D01*
X172379564Y-55187402D01*
X172603989Y-55460866D01*
X172854133Y-55711010D01*
X173127597Y-55935435D01*
X173421742Y-56131978D01*
X173733727Y-56298737D01*
X173733731Y-56298739D01*
X174060565Y-56434118D01*
X174399095Y-56536809D01*
X174567651Y-56570337D01*
X174746054Y-56605824D01*
X174746055Y-56605824D01*
X174746060Y-56605825D01*
X175098119Y-56640500D01*
X175274901Y-56640500D01*
X175275000Y-56640500D01*
X175275500Y-56640500D01*
X179150500Y-56640500D01*
X179212500Y-56657113D01*
X179257887Y-56702500D01*
X179274500Y-56764500D01*
X179274500Y-81315500D01*
X179257887Y-81377500D01*
X179212500Y-81422887D01*
X179150500Y-81439500D01*
X175275500Y-81439500D01*
X175275000Y-81439500D01*
X175098119Y-81439500D01*
X175087550Y-81440541D01*
X174746054Y-81474175D01*
X174399101Y-81543189D01*
X174060562Y-81645883D01*
X173733727Y-81781262D01*
X173421742Y-81948021D01*
X173127597Y-82144564D01*
X172854133Y-82368989D01*
X172603989Y-82619133D01*
X172379564Y-82892597D01*
X172183021Y-83186742D01*
X172016262Y-83498727D01*
X171880883Y-83825562D01*
X171778189Y-84164101D01*
X171709175Y-84511054D01*
X171674500Y-84863120D01*
X171674500Y-88915500D01*
X171657887Y-88977500D01*
X171612500Y-89022887D01*
X171550500Y-89039500D01*
X146999500Y-89039500D01*
X146937500Y-89022887D01*
X146892113Y-88977500D01*
X146875500Y-88915500D01*
X146875500Y-84863120D01*
X146840824Y-84511054D01*
X146771810Y-84164101D01*
X146771809Y-84164095D01*
X146669118Y-83825565D01*
X146533739Y-83498731D01*
X146533737Y-83498727D01*
X146366978Y-83186742D01*
X146170435Y-82892597D01*
X145946010Y-82619133D01*
X145695866Y-82368989D01*
X145422402Y-82144564D01*
X145128257Y-81948021D01*
X144816272Y-81781262D01*
X144489437Y-81645883D01*
X144489438Y-81645883D01*
X144489435Y-81645882D01*
X144150905Y-81543191D01*
X144150903Y-81543190D01*
X144150898Y-81543189D01*
X143803945Y-81474175D01*
X143462450Y-81440541D01*
X143451881Y-81439500D01*
X143451880Y-81439500D01*
X139399500Y-81439500D01*
X139337500Y-81422887D01*
X139292113Y-81377500D01*
X139275500Y-81315500D01*
X139275500Y-75167369D01*
X140095000Y-75167369D01*
X140101409Y-75226984D01*
X140114795Y-75262872D01*
X140151704Y-75361831D01*
X140237954Y-75477046D01*
X140353169Y-75563296D01*
X140488017Y-75613591D01*
X140547627Y-75620000D01*
X141802372Y-75619999D01*
X141861983Y-75613591D01*
X141996831Y-75563296D01*
X142112046Y-75477046D01*
X142198296Y-75361831D01*
X142248591Y-75226983D01*
X142255000Y-75167373D01*
X142254999Y-74395951D01*
X142264438Y-74348499D01*
X142291315Y-74308274D01*
X143087771Y-73511819D01*
X143128000Y-73484939D01*
X143175453Y-73475500D01*
X147032502Y-73475500D01*
X147089977Y-73489624D01*
X147134358Y-73528780D01*
X147155535Y-73584047D01*
X147148684Y-73642829D01*
X147132278Y-73686819D01*
X147105909Y-73757516D01*
X147099500Y-73817130D01*
X147099500Y-75262869D01*
X147105909Y-75322484D01*
X147122555Y-75367113D01*
X147156204Y-75457331D01*
X147242454Y-75572546D01*
X147357669Y-75658796D01*
X147492517Y-75709091D01*
X147552127Y-75715500D01*
X148997872Y-75715499D01*
X149057483Y-75709091D01*
X149192331Y-75658796D01*
X149307546Y-75572546D01*
X149393796Y-75457331D01*
X149444091Y-75322483D01*
X149450500Y-75262873D01*
X149450499Y-73817128D01*
X149444091Y-73757517D01*
X149401315Y-73642829D01*
X149394465Y-73584047D01*
X149415642Y-73528780D01*
X149460023Y-73489624D01*
X149517498Y-73475500D01*
X150746332Y-73475500D01*
X150808332Y-73492113D01*
X150853719Y-73537500D01*
X150870332Y-73599501D01*
X150853719Y-73661501D01*
X150847819Y-73671718D01*
X150789326Y-73851742D01*
X150769540Y-74040000D01*
X150789326Y-74228257D01*
X150847820Y-74408284D01*
X150942466Y-74572216D01*
X151069129Y-74712889D01*
X151222269Y-74824151D01*
X151395197Y-74901144D01*
X151580352Y-74940500D01*
X151580354Y-74940500D01*
X151639548Y-74940500D01*
X151687001Y-74949939D01*
X151727229Y-74976819D01*
X154174197Y-77423787D01*
X154187098Y-77439889D01*
X154189212Y-77441874D01*
X154189214Y-77441877D01*
X154236561Y-77486339D01*
X154238240Y-77487916D01*
X154241036Y-77490626D01*
X154260530Y-77510120D01*
X154263704Y-77512582D01*
X154272568Y-77520153D01*
X154304418Y-77550062D01*
X154314914Y-77555832D01*
X154321974Y-77559714D01*
X154338231Y-77570392D01*
X154354064Y-77582674D01*
X154370185Y-77589649D01*
X154394156Y-77600023D01*
X154404643Y-77605160D01*
X154442908Y-77626197D01*
X154462316Y-77631180D01*
X154480710Y-77637478D01*
X154499105Y-77645438D01*
X154542254Y-77652271D01*
X154553680Y-77654638D01*
X154569222Y-77658629D01*
X154595980Y-77665500D01*
X154595981Y-77665500D01*
X154616016Y-77665500D01*
X154635413Y-77667026D01*
X154655196Y-77670160D01*
X154698674Y-77666050D01*
X154710344Y-77665500D01*
X163671253Y-77665500D01*
X163721688Y-77676220D01*
X163763401Y-77706526D01*
X163769129Y-77712888D01*
X163922270Y-77824151D01*
X163922271Y-77824151D01*
X163922272Y-77824152D01*
X164095197Y-77901144D01*
X164280352Y-77940500D01*
X164280354Y-77940500D01*
X164469646Y-77940500D01*
X164469648Y-77940500D01*
X164593083Y-77914262D01*
X164654803Y-77901144D01*
X164827730Y-77824151D01*
X164980871Y-77712888D01*
X164986598Y-77706526D01*
X165028312Y-77676220D01*
X165078747Y-77665500D01*
X167542256Y-77665500D01*
X167562762Y-77667764D01*
X167565665Y-77667672D01*
X167565667Y-77667673D01*
X167632872Y-77665561D01*
X167636768Y-77665500D01*
X167664349Y-77665500D01*
X167664350Y-77665500D01*
X167668319Y-77664998D01*
X167679965Y-77664080D01*
X167723627Y-77662709D01*
X167742859Y-77657120D01*
X167761918Y-77653174D01*
X167769091Y-77652268D01*
X167781792Y-77650664D01*
X167822407Y-77634582D01*
X167833444Y-77630803D01*
X167875390Y-77618618D01*
X167892629Y-77608422D01*
X167910102Y-77599862D01*
X167928732Y-77592486D01*
X167964064Y-77566814D01*
X167973830Y-77560400D01*
X168011418Y-77538171D01*
X168011417Y-77538171D01*
X168011420Y-77538170D01*
X168025585Y-77524004D01*
X168040373Y-77511373D01*
X168056587Y-77499594D01*
X168084438Y-77465926D01*
X168092279Y-77457309D01*
X169604401Y-75945188D01*
X169662273Y-75912506D01*
X169728710Y-75914404D01*
X169784624Y-75950336D01*
X169813950Y-76009980D01*
X169808264Y-76076201D01*
X169805909Y-76082514D01*
X169805909Y-76082517D01*
X169799783Y-76139500D01*
X169799500Y-76142131D01*
X169799500Y-76579547D01*
X169790061Y-76627000D01*
X169763181Y-76667228D01*
X159952228Y-86478181D01*
X159912000Y-86505061D01*
X159864547Y-86514500D01*
X154957618Y-86514500D01*
X154908805Y-86504488D01*
X154867875Y-86476070D01*
X154841436Y-86433833D01*
X154835422Y-86417711D01*
X154798296Y-86318169D01*
X154712046Y-86202954D01*
X154596831Y-86116704D01*
X154461983Y-86066409D01*
X154402373Y-86060000D01*
X154402369Y-86060000D01*
X153147630Y-86060000D01*
X153088015Y-86066409D01*
X152953169Y-86116704D01*
X152837954Y-86202954D01*
X152751704Y-86318168D01*
X152701409Y-86453015D01*
X152701409Y-86453017D01*
X152695814Y-86505061D01*
X152695000Y-86512630D01*
X152695000Y-87767369D01*
X152698931Y-87803930D01*
X152701409Y-87826983D01*
X152751704Y-87961831D01*
X152837954Y-88077046D01*
X152953169Y-88163296D01*
X153088017Y-88213591D01*
X153147627Y-88220000D01*
X154402372Y-88219999D01*
X154461983Y-88213591D01*
X154596831Y-88163296D01*
X154712046Y-88077046D01*
X154798296Y-87961831D01*
X154841435Y-87846167D01*
X154867875Y-87803930D01*
X154908805Y-87775512D01*
X154957618Y-87765500D01*
X160092256Y-87765500D01*
X160112762Y-87767764D01*
X160115665Y-87767672D01*
X160115667Y-87767673D01*
X160125340Y-87767369D01*
X163595000Y-87767369D01*
X163598931Y-87803930D01*
X163601409Y-87826983D01*
X163651704Y-87961831D01*
X163737954Y-88077046D01*
X163853169Y-88163296D01*
X163988017Y-88213591D01*
X164047627Y-88220000D01*
X165302372Y-88219999D01*
X165361983Y-88213591D01*
X165496831Y-88163296D01*
X165612046Y-88077046D01*
X165698296Y-87961831D01*
X165748591Y-87826983D01*
X165755000Y-87767373D01*
X165754999Y-86512628D01*
X165748591Y-86453017D01*
X165698296Y-86318169D01*
X165612046Y-86202954D01*
X165496831Y-86116704D01*
X165361983Y-86066409D01*
X165302373Y-86060000D01*
X165302369Y-86060000D01*
X164047630Y-86060000D01*
X163988015Y-86066409D01*
X163853169Y-86116704D01*
X163737954Y-86202954D01*
X163651704Y-86318168D01*
X163601409Y-86453015D01*
X163601409Y-86453017D01*
X163595814Y-86505061D01*
X163595000Y-86512630D01*
X163595000Y-87767369D01*
X160125340Y-87767369D01*
X160182872Y-87765561D01*
X160186768Y-87765500D01*
X160214349Y-87765500D01*
X160214350Y-87765500D01*
X160218319Y-87764998D01*
X160229965Y-87764080D01*
X160273627Y-87762709D01*
X160292859Y-87757120D01*
X160311918Y-87753174D01*
X160318196Y-87752381D01*
X160331792Y-87750664D01*
X160372407Y-87734582D01*
X160383444Y-87730803D01*
X160425390Y-87718618D01*
X160442629Y-87708422D01*
X160460102Y-87699862D01*
X160478732Y-87692486D01*
X160514064Y-87666814D01*
X160523830Y-87660400D01*
X160561418Y-87638171D01*
X160561417Y-87638171D01*
X160561420Y-87638170D01*
X160575585Y-87624004D01*
X160590373Y-87611373D01*
X160606587Y-87599594D01*
X160634438Y-87565926D01*
X160642279Y-87557309D01*
X170772770Y-77426818D01*
X170812999Y-77399938D01*
X170860452Y-77390499D01*
X171347870Y-77390499D01*
X171347872Y-77390499D01*
X171407483Y-77384091D01*
X171542331Y-77333796D01*
X171657546Y-77247546D01*
X171743796Y-77132331D01*
X171794091Y-76997483D01*
X171800500Y-76937873D01*
X171800500Y-76790000D01*
X175750000Y-76790000D01*
X175750000Y-76937824D01*
X175756402Y-76997375D01*
X175806647Y-77132089D01*
X175892811Y-77247188D01*
X176007910Y-77333352D01*
X176142624Y-77383597D01*
X176202176Y-77390000D01*
X176500000Y-77390000D01*
X176500000Y-76790000D01*
X177000000Y-76790000D01*
X177000000Y-77390000D01*
X177297824Y-77390000D01*
X177357375Y-77383597D01*
X177492089Y-77333352D01*
X177607188Y-77247188D01*
X177693352Y-77132089D01*
X177743597Y-76997375D01*
X177750000Y-76937824D01*
X177750000Y-76790000D01*
X177000000Y-76790000D01*
X176500000Y-76790000D01*
X175750000Y-76790000D01*
X171800500Y-76790000D01*
X171800499Y-76290000D01*
X175750000Y-76290000D01*
X176500000Y-76290000D01*
X176500000Y-75690000D01*
X177000000Y-75690000D01*
X177000000Y-76290000D01*
X177750000Y-76290000D01*
X177750000Y-76142176D01*
X177743597Y-76082624D01*
X177693352Y-75947910D01*
X177607188Y-75832811D01*
X177492089Y-75746647D01*
X177357375Y-75696402D01*
X177297824Y-75690000D01*
X177000000Y-75690000D01*
X176500000Y-75690000D01*
X176202176Y-75690000D01*
X176142624Y-75696402D01*
X176007910Y-75746647D01*
X175892811Y-75832811D01*
X175806647Y-75947910D01*
X175756402Y-76082624D01*
X175750000Y-76142176D01*
X175750000Y-76290000D01*
X171800499Y-76290000D01*
X171800499Y-76142128D01*
X171794091Y-76082517D01*
X171743796Y-75947669D01*
X171657546Y-75832454D01*
X171542331Y-75746204D01*
X171407483Y-75695909D01*
X171347873Y-75689500D01*
X171347869Y-75689500D01*
X170252130Y-75689500D01*
X170192511Y-75695909D01*
X170186199Y-75698264D01*
X170119979Y-75703950D01*
X170060335Y-75674623D01*
X170024403Y-75618709D01*
X170022506Y-75552273D01*
X170055187Y-75494402D01*
X172347771Y-73201819D01*
X172388000Y-73174939D01*
X172435453Y-73165500D01*
X175195981Y-73165500D01*
X175216016Y-73165500D01*
X175235415Y-73167027D01*
X175255196Y-73170160D01*
X175298674Y-73166050D01*
X175310344Y-73165500D01*
X175768965Y-73165500D01*
X175824470Y-73178616D01*
X175868232Y-73215190D01*
X175892452Y-73247544D01*
X175892453Y-73247544D01*
X175892454Y-73247546D01*
X176007669Y-73333796D01*
X176142517Y-73384091D01*
X176202127Y-73390500D01*
X177297872Y-73390499D01*
X177357483Y-73384091D01*
X177492331Y-73333796D01*
X177607546Y-73247546D01*
X177693796Y-73132331D01*
X177744091Y-72997483D01*
X177750500Y-72937873D01*
X177750499Y-72142128D01*
X177744091Y-72082517D01*
X177693796Y-71947669D01*
X177607546Y-71832454D01*
X177492331Y-71746204D01*
X177357483Y-71695909D01*
X177297873Y-71689500D01*
X177297869Y-71689500D01*
X176202130Y-71689500D01*
X176142515Y-71695909D01*
X176007669Y-71746204D01*
X175892452Y-71832455D01*
X175868232Y-71864810D01*
X175824470Y-71901384D01*
X175768965Y-71914500D01*
X175585453Y-71914500D01*
X175538000Y-71905061D01*
X175497772Y-71878181D01*
X167886960Y-64267369D01*
X176295000Y-64267369D01*
X176301409Y-64326984D01*
X176318266Y-64372179D01*
X176351704Y-64461831D01*
X176437954Y-64577046D01*
X176553169Y-64663296D01*
X176688017Y-64713591D01*
X176747627Y-64720000D01*
X178002372Y-64719999D01*
X178061983Y-64713591D01*
X178196831Y-64663296D01*
X178312046Y-64577046D01*
X178398296Y-64461831D01*
X178448591Y-64326983D01*
X178455000Y-64267373D01*
X178454999Y-63012628D01*
X178448591Y-62953017D01*
X178398296Y-62818169D01*
X178312046Y-62702954D01*
X178196831Y-62616704D01*
X178061983Y-62566409D01*
X178002373Y-62560000D01*
X178002369Y-62560000D01*
X176747630Y-62560000D01*
X176688015Y-62566409D01*
X176553169Y-62616704D01*
X176437954Y-62702954D01*
X176351704Y-62818168D01*
X176301409Y-62953016D01*
X176295000Y-63012630D01*
X176295000Y-64267369D01*
X167886960Y-64267369D01*
X167713960Y-64094369D01*
X167689720Y-64060071D01*
X167678321Y-64019655D01*
X167660674Y-63851744D01*
X167602179Y-63671716D01*
X167602179Y-63671715D01*
X167507533Y-63507783D01*
X167380870Y-63367110D01*
X167227730Y-63255848D01*
X167054802Y-63178855D01*
X166869648Y-63139500D01*
X166869646Y-63139500D01*
X166680354Y-63139500D01*
X166680352Y-63139500D01*
X166495197Y-63178855D01*
X166322269Y-63255848D01*
X166169129Y-63367110D01*
X166042466Y-63507783D01*
X165947820Y-63671715D01*
X165889326Y-63851742D01*
X165879153Y-63948536D01*
X165853211Y-64012342D01*
X165797224Y-64052462D01*
X165728465Y-64056516D01*
X165668151Y-64023255D01*
X165386819Y-63741923D01*
X165359939Y-63701695D01*
X165350500Y-63654242D01*
X165350500Y-52122618D01*
X165360512Y-52073805D01*
X165388930Y-52032875D01*
X165431167Y-52006436D01*
X165443371Y-52001883D01*
X165546831Y-51963296D01*
X165662046Y-51877046D01*
X165748296Y-51761831D01*
X165798591Y-51626983D01*
X165805000Y-51567373D01*
X165804999Y-50312628D01*
X165798591Y-50253017D01*
X165748296Y-50118169D01*
X165662046Y-50002954D01*
X165546831Y-49916704D01*
X165411983Y-49866409D01*
X165352373Y-49860000D01*
X165352369Y-49860000D01*
X164097630Y-49860000D01*
X164038015Y-49866409D01*
X163903169Y-49916704D01*
X163787954Y-50002954D01*
X163701704Y-50118168D01*
X163651409Y-50253016D01*
X163645000Y-50312630D01*
X163645000Y-51567369D01*
X163651409Y-51626983D01*
X163701704Y-51761831D01*
X163787954Y-51877046D01*
X163903169Y-51963296D01*
X164002711Y-52000422D01*
X164018833Y-52006436D01*
X164061070Y-52032875D01*
X164089488Y-52073805D01*
X164099500Y-52122618D01*
X164099500Y-63881951D01*
X164097235Y-63902457D01*
X164099439Y-63972568D01*
X164099500Y-63976463D01*
X164099500Y-64004044D01*
X164100003Y-64008029D01*
X164100918Y-64019662D01*
X164102290Y-64063321D01*
X164107879Y-64082555D01*
X164111825Y-64101611D01*
X164114335Y-64121487D01*
X164130414Y-64162099D01*
X164134197Y-64173146D01*
X164146382Y-64215086D01*
X164156580Y-64232330D01*
X164165136Y-64249795D01*
X164172514Y-64268427D01*
X164172515Y-64268428D01*
X164198180Y-64303754D01*
X164204593Y-64313517D01*
X164226826Y-64351111D01*
X164226829Y-64351114D01*
X164226830Y-64351115D01*
X164240995Y-64365280D01*
X164253627Y-64380070D01*
X164265406Y-64396282D01*
X164294023Y-64419956D01*
X164329692Y-64468407D01*
X164338357Y-64527945D01*
X164317977Y-64584552D01*
X164273350Y-64624904D01*
X164214983Y-64639500D01*
X164180352Y-64639500D01*
X163995197Y-64678855D01*
X163822269Y-64755848D01*
X163669129Y-64867110D01*
X163542466Y-65007784D01*
X163456887Y-65156012D01*
X163411500Y-65201399D01*
X163349500Y-65218012D01*
X163287500Y-65201399D01*
X163242113Y-65156012D01*
X163225500Y-65094012D01*
X163225500Y-65014308D01*
X163225500Y-65014306D01*
X163222598Y-64977431D01*
X163211868Y-64940500D01*
X163176744Y-64819602D01*
X163139040Y-64755848D01*
X163093081Y-64678135D01*
X162976865Y-64561919D01*
X162836178Y-64478717D01*
X162835397Y-64478255D01*
X162677572Y-64432402D01*
X162655444Y-64430660D01*
X162640694Y-64429500D01*
X162640692Y-64429500D01*
X162194907Y-64429500D01*
X162144471Y-64418779D01*
X162054802Y-64378855D01*
X161869648Y-64339500D01*
X161869646Y-64339500D01*
X161810453Y-64339500D01*
X161763000Y-64330061D01*
X161722772Y-64303181D01*
X158575802Y-61156211D01*
X158562906Y-61140113D01*
X158511775Y-61092098D01*
X158508978Y-61089387D01*
X158489470Y-61069879D01*
X158486290Y-61067412D01*
X158477424Y-61059839D01*
X158445582Y-61029938D01*
X158428024Y-61020285D01*
X158411764Y-61009604D01*
X158395936Y-60997327D01*
X158355851Y-60979980D01*
X158345361Y-60974841D01*
X158307091Y-60953802D01*
X158287691Y-60948821D01*
X158269284Y-60942519D01*
X158250897Y-60934562D01*
X158207758Y-60927729D01*
X158196324Y-60925361D01*
X158154019Y-60914500D01*
X158133984Y-60914500D01*
X158114586Y-60912973D01*
X158107162Y-60911797D01*
X158094805Y-60909840D01*
X158094804Y-60909840D01*
X158061751Y-60912964D01*
X158051325Y-60913950D01*
X158039656Y-60914500D01*
X154978747Y-60914500D01*
X154928312Y-60903780D01*
X154886598Y-60873473D01*
X154880871Y-60867112D01*
X154727730Y-60755849D01*
X154727729Y-60755848D01*
X154727727Y-60755847D01*
X154554802Y-60678855D01*
X154369648Y-60639500D01*
X154369646Y-60639500D01*
X154180354Y-60639500D01*
X154180352Y-60639500D01*
X153995197Y-60678855D01*
X153822269Y-60755848D01*
X153669129Y-60867110D01*
X153542466Y-61007783D01*
X153447820Y-61171715D01*
X153389326Y-61351742D01*
X153369540Y-61539999D01*
X153389326Y-61728257D01*
X153447820Y-61908284D01*
X153542466Y-62072216D01*
X153669129Y-62212889D01*
X153822269Y-62324151D01*
X153995197Y-62401144D01*
X154180352Y-62440500D01*
X154180354Y-62440500D01*
X154369646Y-62440500D01*
X154369648Y-62440500D01*
X154493084Y-62414262D01*
X154554803Y-62401144D01*
X154727730Y-62324151D01*
X154880871Y-62212888D01*
X154886598Y-62206526D01*
X154928312Y-62176220D01*
X154978747Y-62165500D01*
X157764548Y-62165500D01*
X157812001Y-62174939D01*
X157852229Y-62201819D01*
X160309780Y-64659371D01*
X160338768Y-64705047D01*
X160345549Y-64758718D01*
X160328833Y-64810169D01*
X160323256Y-64819599D01*
X160277402Y-64977427D01*
X160274500Y-65014308D01*
X160274500Y-65445692D01*
X160277402Y-65482572D01*
X160323255Y-65640397D01*
X160414893Y-65795348D01*
X160413319Y-65796278D01*
X160434467Y-65832906D01*
X160434467Y-65897094D01*
X160413319Y-65933721D01*
X160414893Y-65934652D01*
X160323255Y-66089602D01*
X160277402Y-66247427D01*
X160274500Y-66284308D01*
X160274500Y-66715692D01*
X160277402Y-66752572D01*
X160323255Y-66910397D01*
X160414893Y-67065348D01*
X160413319Y-67066278D01*
X160434467Y-67102906D01*
X160434467Y-67167094D01*
X160413319Y-67203721D01*
X160414893Y-67204652D01*
X160323255Y-67359602D01*
X160277402Y-67517427D01*
X160274500Y-67554308D01*
X160274500Y-67985692D01*
X160277402Y-68022572D01*
X160323255Y-68180397D01*
X160414893Y-68335348D01*
X160413319Y-68336278D01*
X160434467Y-68372906D01*
X160434467Y-68437094D01*
X160413319Y-68473721D01*
X160414893Y-68474652D01*
X160323255Y-68629602D01*
X160277402Y-68787427D01*
X160274500Y-68824308D01*
X160274500Y-69255692D01*
X160277402Y-69292572D01*
X160323255Y-69450397D01*
X160335408Y-69470946D01*
X160397859Y-69576546D01*
X160414893Y-69605348D01*
X160413319Y-69606278D01*
X160434467Y-69642906D01*
X160434467Y-69707094D01*
X160413319Y-69743721D01*
X160414893Y-69744652D01*
X160323255Y-69899602D01*
X160277402Y-70057427D01*
X160274500Y-70094308D01*
X160274500Y-70525692D01*
X160277402Y-70562572D01*
X160323255Y-70720397D01*
X160414893Y-70875348D01*
X160413319Y-70876278D01*
X160434467Y-70912906D01*
X160434467Y-70977094D01*
X160413319Y-71013721D01*
X160414893Y-71014652D01*
X160323255Y-71169602D01*
X160277402Y-71327427D01*
X160274500Y-71364308D01*
X160274500Y-71795692D01*
X160277402Y-71832572D01*
X160323255Y-71990397D01*
X160371643Y-72072216D01*
X160401483Y-72122674D01*
X160414893Y-72145348D01*
X160413319Y-72146278D01*
X160434467Y-72182906D01*
X160434467Y-72247094D01*
X160413319Y-72283721D01*
X160414893Y-72284652D01*
X160323255Y-72439602D01*
X160277402Y-72597427D01*
X160274500Y-72634308D01*
X160274500Y-73065692D01*
X160277402Y-73102572D01*
X160323255Y-73260396D01*
X160323257Y-73260399D01*
X160339975Y-73311851D01*
X160333194Y-73365523D01*
X160304206Y-73411201D01*
X158337228Y-75378181D01*
X158297000Y-75405061D01*
X158249547Y-75414500D01*
X156978747Y-75414500D01*
X156928312Y-75403780D01*
X156886598Y-75373473D01*
X156880871Y-75367112D01*
X156727730Y-75255849D01*
X156727729Y-75255848D01*
X156727727Y-75255847D01*
X156554802Y-75178855D01*
X156369648Y-75139500D01*
X156369646Y-75139500D01*
X156180354Y-75139500D01*
X156180352Y-75139500D01*
X155995197Y-75178855D01*
X155822269Y-75255848D01*
X155669129Y-75367110D01*
X155542466Y-75507783D01*
X155447820Y-75671715D01*
X155389326Y-75851742D01*
X155369540Y-76039999D01*
X155389326Y-76228259D01*
X155397100Y-76252183D01*
X155401642Y-76309899D01*
X155379487Y-76363386D01*
X155335464Y-76400985D01*
X155279169Y-76414500D01*
X154985452Y-76414500D01*
X154937999Y-76405061D01*
X154897771Y-76378181D01*
X152613960Y-74094369D01*
X152589720Y-74060071D01*
X152578321Y-74019655D01*
X152560674Y-73851744D01*
X152517272Y-73718168D01*
X152502180Y-73671718D01*
X152496281Y-73661501D01*
X152479668Y-73599501D01*
X152496281Y-73537500D01*
X152541668Y-73492113D01*
X152603668Y-73475500D01*
X155479192Y-73475500D01*
X155526645Y-73484939D01*
X155566873Y-73511819D01*
X155573135Y-73518081D01*
X155684678Y-73584047D01*
X155714602Y-73601744D01*
X155872427Y-73647597D01*
X155872431Y-73647598D01*
X155909306Y-73650500D01*
X157690692Y-73650500D01*
X157690694Y-73650500D01*
X157727569Y-73647598D01*
X157885398Y-73601744D01*
X158026865Y-73518081D01*
X158143081Y-73401865D01*
X158226744Y-73260398D01*
X158272598Y-73102569D01*
X158275500Y-73065694D01*
X158275500Y-72634306D01*
X158272598Y-72597431D01*
X158226744Y-72439602D01*
X158143081Y-72298135D01*
X158143080Y-72298134D01*
X158135107Y-72284652D01*
X158136680Y-72283721D01*
X158115533Y-72247094D01*
X158115533Y-72182906D01*
X158136680Y-72146278D01*
X158135107Y-72145348D01*
X158143081Y-72131865D01*
X158226744Y-71990398D01*
X158272598Y-71832569D01*
X158275500Y-71795694D01*
X158275500Y-71364306D01*
X158272598Y-71327431D01*
X158226744Y-71169602D01*
X158143081Y-71028135D01*
X158143080Y-71028134D01*
X158135107Y-71014652D01*
X158136680Y-71013721D01*
X158115533Y-70977094D01*
X158115533Y-70912906D01*
X158136680Y-70876278D01*
X158135107Y-70875348D01*
X158162206Y-70829526D01*
X158226744Y-70720398D01*
X158272598Y-70562569D01*
X158275500Y-70525694D01*
X158275500Y-70094306D01*
X158272598Y-70057431D01*
X158264031Y-70027945D01*
X158226744Y-69899602D01*
X158135107Y-69744652D01*
X158136680Y-69743721D01*
X158115533Y-69707094D01*
X158115533Y-69642906D01*
X158136680Y-69606278D01*
X158135107Y-69605348D01*
X158150483Y-69579349D01*
X158226744Y-69450398D01*
X158272598Y-69292569D01*
X158275500Y-69255694D01*
X158275500Y-68824306D01*
X158272598Y-68787431D01*
X158226744Y-68629602D01*
X158143081Y-68488135D01*
X158143080Y-68488134D01*
X158135107Y-68474652D01*
X158136680Y-68473721D01*
X158115533Y-68437094D01*
X158115533Y-68372906D01*
X158136680Y-68336278D01*
X158135107Y-68335348D01*
X158143081Y-68321865D01*
X158226744Y-68180398D01*
X158272598Y-68022569D01*
X158275500Y-67985694D01*
X158275500Y-67554306D01*
X158272598Y-67517431D01*
X158226744Y-67359602D01*
X158143081Y-67218135D01*
X158143080Y-67218134D01*
X158135107Y-67204652D01*
X158136680Y-67203721D01*
X158115533Y-67167094D01*
X158115533Y-67102906D01*
X158136680Y-67066278D01*
X158135107Y-67065348D01*
X158143081Y-67051865D01*
X158226744Y-66910398D01*
X158272598Y-66752569D01*
X158275500Y-66715694D01*
X158275500Y-66284306D01*
X158272598Y-66247431D01*
X158226744Y-66089602D01*
X158143081Y-65948135D01*
X158143080Y-65948134D01*
X158135107Y-65934652D01*
X158136569Y-65933786D01*
X158115178Y-65896733D01*
X158115182Y-65832540D01*
X158136296Y-65795979D01*
X158134709Y-65795040D01*
X158226280Y-65640200D01*
X158272099Y-65482488D01*
X158272295Y-65480000D01*
X155327704Y-65480000D01*
X155327900Y-65482488D01*
X155373719Y-65640200D01*
X155465291Y-65795040D01*
X155463703Y-65795978D01*
X155484817Y-65832547D01*
X155484822Y-65896728D01*
X155463431Y-65933787D01*
X155464893Y-65934652D01*
X155373255Y-66089602D01*
X155327402Y-66247427D01*
X155324500Y-66284308D01*
X155324500Y-66715692D01*
X155327402Y-66752572D01*
X155373255Y-66910397D01*
X155464893Y-67065348D01*
X155463319Y-67066278D01*
X155484467Y-67102906D01*
X155484467Y-67167094D01*
X155463319Y-67203721D01*
X155464893Y-67204652D01*
X155373255Y-67359602D01*
X155327402Y-67517427D01*
X155324500Y-67554308D01*
X155324500Y-67985692D01*
X155327402Y-68022572D01*
X155373255Y-68180397D01*
X155464893Y-68335348D01*
X155463319Y-68336278D01*
X155484467Y-68372906D01*
X155484467Y-68437094D01*
X155463319Y-68473721D01*
X155464893Y-68474652D01*
X155373255Y-68629602D01*
X155327402Y-68787427D01*
X155324500Y-68824308D01*
X155324500Y-69255692D01*
X155327402Y-69292572D01*
X155373255Y-69450397D01*
X155385408Y-69470946D01*
X155447859Y-69576546D01*
X155464893Y-69605348D01*
X155463319Y-69606278D01*
X155484467Y-69642906D01*
X155484467Y-69707094D01*
X155463319Y-69743721D01*
X155464893Y-69744652D01*
X155373255Y-69899602D01*
X155327402Y-70057427D01*
X155324500Y-70094308D01*
X155324500Y-70525692D01*
X155327402Y-70562572D01*
X155373255Y-70720397D01*
X155401040Y-70767379D01*
X155418304Y-70829526D01*
X155402018Y-70891937D01*
X155356589Y-70937725D01*
X155294308Y-70954500D01*
X154625452Y-70954500D01*
X154577999Y-70945061D01*
X154537771Y-70918181D01*
X152936819Y-69317228D01*
X152909939Y-69277000D01*
X152900500Y-69229547D01*
X152900500Y-67238687D01*
X152908736Y-67194249D01*
X152932347Y-67155717D01*
X153007533Y-67072216D01*
X153010962Y-67066278D01*
X153102179Y-66908284D01*
X153152774Y-66752569D01*
X153160674Y-66728256D01*
X153180460Y-66540000D01*
X153160674Y-66351744D01*
X153102179Y-66171716D01*
X153102179Y-66171715D01*
X153007533Y-66007783D01*
X152880870Y-65867110D01*
X152727730Y-65755848D01*
X152554802Y-65678855D01*
X152369648Y-65639500D01*
X152369646Y-65639500D01*
X152180354Y-65639500D01*
X152180352Y-65639500D01*
X151995197Y-65678855D01*
X151822269Y-65755848D01*
X151669129Y-65867110D01*
X151542466Y-66007783D01*
X151447820Y-66171715D01*
X151389326Y-66351742D01*
X151369540Y-66539999D01*
X151389326Y-66728257D01*
X151447820Y-66908284D01*
X151542464Y-67072213D01*
X151542467Y-67072216D01*
X151617652Y-67155717D01*
X151641264Y-67194249D01*
X151649500Y-67238687D01*
X151649500Y-69457256D01*
X151647235Y-69477762D01*
X151649439Y-69547873D01*
X151649500Y-69551768D01*
X151649500Y-69579349D01*
X151650003Y-69583334D01*
X151650918Y-69594967D01*
X151652290Y-69638626D01*
X151657879Y-69657860D01*
X151661825Y-69676916D01*
X151664335Y-69696792D01*
X151680414Y-69737404D01*
X151684197Y-69748451D01*
X151696382Y-69790391D01*
X151706580Y-69807635D01*
X151715136Y-69825100D01*
X151722514Y-69843732D01*
X151722515Y-69843733D01*
X151748180Y-69879059D01*
X151754593Y-69888822D01*
X151776826Y-69926416D01*
X151776829Y-69926419D01*
X151776830Y-69926420D01*
X151790995Y-69940585D01*
X151803627Y-69955375D01*
X151815406Y-69971587D01*
X151849058Y-69999426D01*
X151857699Y-70007289D01*
X153814197Y-71963787D01*
X153827098Y-71979889D01*
X153829212Y-71981874D01*
X153829214Y-71981877D01*
X153859278Y-72010109D01*
X153891324Y-72059231D01*
X153897210Y-72117587D01*
X153875619Y-72172119D01*
X153831381Y-72210629D01*
X153774393Y-72224500D01*
X142947744Y-72224500D01*
X142927237Y-72222235D01*
X142857127Y-72224439D01*
X142853232Y-72224500D01*
X142825650Y-72224500D01*
X142821665Y-72225003D01*
X142810033Y-72225918D01*
X142766369Y-72227290D01*
X142747129Y-72232880D01*
X142728081Y-72236825D01*
X142708209Y-72239335D01*
X142667599Y-72255413D01*
X142656554Y-72259194D01*
X142614610Y-72271381D01*
X142597365Y-72281579D01*
X142579904Y-72290133D01*
X142561267Y-72297512D01*
X142525931Y-72323185D01*
X142516174Y-72329595D01*
X142478580Y-72351829D01*
X142464413Y-72365996D01*
X142449624Y-72378626D01*
X142433413Y-72390404D01*
X142405572Y-72424058D01*
X142397711Y-72432697D01*
X141406727Y-73423681D01*
X141366499Y-73450561D01*
X141319046Y-73460000D01*
X140547630Y-73460000D01*
X140488015Y-73466409D01*
X140353169Y-73516704D01*
X140237954Y-73602954D01*
X140151704Y-73718168D01*
X140101409Y-73853016D01*
X140095000Y-73912630D01*
X140095000Y-75167369D01*
X139275500Y-75167369D01*
X139275500Y-64979999D01*
X155327704Y-64979999D01*
X155327705Y-64980000D01*
X156550000Y-64980000D01*
X156550000Y-64430000D01*
X157050000Y-64430000D01*
X157050000Y-64980000D01*
X158272295Y-64980000D01*
X158272295Y-64979999D01*
X158272099Y-64977511D01*
X158226280Y-64819799D01*
X158142682Y-64678442D01*
X158026557Y-64562317D01*
X157885197Y-64478717D01*
X157727493Y-64432900D01*
X157690639Y-64430000D01*
X157050000Y-64430000D01*
X156550000Y-64430000D01*
X155909361Y-64430000D01*
X155872506Y-64432900D01*
X155714802Y-64478717D01*
X155573442Y-64562317D01*
X155457317Y-64678442D01*
X155373719Y-64819799D01*
X155327900Y-64977511D01*
X155327704Y-64979999D01*
X139275500Y-64979999D01*
X139275500Y-56764500D01*
X139292113Y-56702500D01*
X139337500Y-56657113D01*
X139399500Y-56640500D01*
X143451880Y-56640500D01*
X143451881Y-56640500D01*
X143803940Y-56605825D01*
X144150905Y-56536809D01*
X144489435Y-56434118D01*
X144816269Y-56298739D01*
X144909451Y-56248931D01*
X145128257Y-56131978D01*
X145276574Y-56032875D01*
X145422402Y-55935436D01*
X145695864Y-55711012D01*
X145946012Y-55460864D01*
X146170436Y-55187402D01*
X146288575Y-55010594D01*
X146366978Y-54893257D01*
X146533737Y-54581272D01*
X146533739Y-54581269D01*
X146669118Y-54254435D01*
X146771809Y-53915905D01*
X146840825Y-53568940D01*
X146875500Y-53216881D01*
X146875500Y-53040000D01*
X146875500Y-53039500D01*
X146875500Y-51567369D01*
X152745000Y-51567369D01*
X152751409Y-51626983D01*
X152801704Y-51761831D01*
X152887954Y-51877046D01*
X153003169Y-51963296D01*
X153138017Y-52013591D01*
X153197627Y-52020000D01*
X154452372Y-52019999D01*
X154511983Y-52013591D01*
X154646831Y-51963296D01*
X154762046Y-51877046D01*
X154848296Y-51761831D01*
X154898591Y-51626983D01*
X154905000Y-51567373D01*
X154904999Y-50312628D01*
X154898591Y-50253017D01*
X154848296Y-50118169D01*
X154762046Y-50002954D01*
X154646831Y-49916704D01*
X154511983Y-49866409D01*
X154452373Y-49860000D01*
X154452369Y-49860000D01*
X153197630Y-49860000D01*
X153138015Y-49866409D01*
X153003169Y-49916704D01*
X152887954Y-50002954D01*
X152801704Y-50118168D01*
X152751409Y-50253016D01*
X152745000Y-50312630D01*
X152745000Y-51567369D01*
X146875500Y-51567369D01*
X146875500Y-49164500D01*
X146892113Y-49102500D01*
X146937500Y-49057113D01*
X146999500Y-49040500D01*
X171550500Y-49040500D01*
X171612500Y-49057113D01*
G37*
%TD.AperFunction*%
%TD*%
M02*
