%TF.GenerationSoftware,KiCad,Pcbnew,7.0.1*%
%TF.CreationDate,2023-09-10T14:17:04+09:00*%
%TF.ProjectId,logic_block,6c6f6769-635f-4626-9c6f-636b2e6b6963,rev?*%
%TF.SameCoordinates,Original*%
%TF.FileFunction,Soldermask,Top*%
%TF.FilePolarity,Negative*%
%FSLAX46Y46*%
G04 Gerber Fmt 4.6, Leading zero omitted, Abs format (unit mm)*
G04 Created by KiCad (PCBNEW 7.0.1) date 2023-09-10 14:17:04*
%MOMM*%
%LPD*%
G01*
G04 APERTURE LIST*
G04 Aperture macros list*
%AMRoundRect*
0 Rectangle with rounded corners*
0 $1 Rounding radius*
0 $2 $3 $4 $5 $6 $7 $8 $9 X,Y pos of 4 corners*
0 Add a 4 corners polygon primitive as box body*
4,1,4,$2,$3,$4,$5,$6,$7,$8,$9,$2,$3,0*
0 Add four circle primitives for the rounded corners*
1,1,$1+$1,$2,$3*
1,1,$1+$1,$4,$5*
1,1,$1+$1,$6,$7*
1,1,$1+$1,$8,$9*
0 Add four rect primitives between the rounded corners*
20,1,$1+$1,$2,$3,$4,$5,0*
20,1,$1+$1,$4,$5,$6,$7,0*
20,1,$1+$1,$6,$7,$8,$9,0*
20,1,$1+$1,$8,$9,$2,$3,0*%
G04 Aperture macros list end*
%ADD10R,1.159000X1.159000*%
%ADD11RoundRect,0.250000X0.625000X-0.400000X0.625000X0.400000X-0.625000X0.400000X-0.625000X-0.400000X0*%
%ADD12RoundRect,0.250000X-0.625000X0.400000X-0.625000X-0.400000X0.625000X-0.400000X0.625000X0.400000X0*%
%ADD13RoundRect,0.250000X0.400000X0.625000X-0.400000X0.625000X-0.400000X-0.625000X0.400000X-0.625000X0*%
%ADD14RoundRect,0.250000X-0.400000X-0.625000X0.400000X-0.625000X0.400000X0.625000X-0.400000X0.625000X0*%
%ADD15R,2.500000X2.200000*%
%ADD16R,1.550000X2.200000*%
%ADD17R,2.200000X2.500000*%
%ADD18R,2.200000X1.550000*%
%ADD19RoundRect,0.150000X-0.150000X0.512500X-0.150000X-0.512500X0.150000X-0.512500X0.150000X0.512500X0*%
%ADD20RoundRect,0.150000X0.512500X0.150000X-0.512500X0.150000X-0.512500X-0.150000X0.512500X-0.150000X0*%
%ADD21R,1.350000X1.350000*%
%ADD22RoundRect,0.150000X-0.512500X-0.150000X0.512500X-0.150000X0.512500X0.150000X-0.512500X0.150000X0*%
%ADD23RoundRect,0.150000X0.150000X-0.512500X0.150000X0.512500X-0.150000X0.512500X-0.150000X-0.512500X0*%
%ADD24C,0.600000*%
G04 APERTURE END LIST*
D10*
%TO.C,J305*%
X164725000Y-50940000D03*
%TD*%
%TO.C,J306*%
X153775000Y-87140000D03*
%TD*%
D11*
%TO.C,R302*%
X168275000Y-57590000D03*
X168275000Y-54490000D03*
%TD*%
D12*
%TO.C,R308*%
X150225000Y-80490000D03*
X150225000Y-83590000D03*
%TD*%
D10*
%TO.C,J303*%
X164675000Y-87140000D03*
%TD*%
%TO.C,J301*%
X153825000Y-50940000D03*
%TD*%
D13*
%TO.C,R309*%
X154325000Y-78040000D03*
X151225000Y-78040000D03*
%TD*%
D10*
%TO.C,J304*%
X141175000Y-74540000D03*
%TD*%
D14*
%TO.C,R305*%
X170725000Y-78140000D03*
X173825000Y-78140000D03*
%TD*%
D10*
%TO.C,J302*%
X177375000Y-63640000D03*
%TD*%
D15*
%TO.C,D308*%
X151700000Y-69115000D03*
D16*
X154275000Y-69115000D03*
%TD*%
D12*
%TO.C,R304*%
X164300000Y-73565000D03*
X164300000Y-76665000D03*
%TD*%
D15*
%TO.C,D304*%
X166850000Y-69065000D03*
D16*
X164275000Y-69065000D03*
%TD*%
D14*
%TO.C,R301*%
X163775000Y-64040000D03*
X166875000Y-64040000D03*
%TD*%
%TO.C,R303*%
X164175000Y-60040000D03*
X167275000Y-60040000D03*
%TD*%
D17*
%TO.C,D301*%
X159275000Y-54965000D03*
D18*
X159275000Y-57540000D03*
%TD*%
D12*
%TO.C,R306*%
X168275000Y-74040000D03*
X168275000Y-77140000D03*
%TD*%
D17*
%TO.C,D306*%
X159250000Y-76615000D03*
D18*
X159250000Y-74040000D03*
%TD*%
D19*
%TO.C,Q303*%
X154175000Y-80902500D03*
X152275000Y-80902500D03*
X153225000Y-83177500D03*
%TD*%
D20*
%TO.C,Q304*%
X147412500Y-63940000D03*
X147412500Y-62040000D03*
X145137500Y-62990000D03*
%TD*%
D15*
%TO.C,D303*%
X173375000Y-69065000D03*
D16*
X170800000Y-69065000D03*
%TD*%
D21*
%TO.C,J307*%
X148275000Y-74540000D03*
%TD*%
D22*
%TO.C,Q302*%
X171137500Y-74190000D03*
X171137500Y-76090000D03*
X173412500Y-75140000D03*
%TD*%
D11*
%TO.C,R312*%
X150275000Y-64090000D03*
X150275000Y-60990000D03*
%TD*%
D13*
%TO.C,R307*%
X154750000Y-74065000D03*
X151650000Y-74065000D03*
%TD*%
D15*
%TO.C,D307*%
X145175000Y-69115000D03*
D16*
X147750000Y-69115000D03*
%TD*%
D17*
%TO.C,D302*%
X159275000Y-61490000D03*
D18*
X159275000Y-64065000D03*
%TD*%
D17*
%TO.C,D305*%
X159250000Y-83140000D03*
D18*
X159250000Y-80565000D03*
%TD*%
D11*
%TO.C,R310*%
X154250000Y-64615000D03*
X154250000Y-61515000D03*
%TD*%
D23*
%TO.C,Q301*%
X164325000Y-57177500D03*
X166225000Y-57177500D03*
X165275000Y-54902500D03*
%TD*%
D13*
%TO.C,R311*%
X147825000Y-59990000D03*
X144725000Y-59990000D03*
%TD*%
D10*
%TO.C,J305*%
X164725000Y-95940000D03*
%TD*%
%TO.C,J306*%
X153775000Y-132140000D03*
%TD*%
D11*
%TO.C,R302*%
X168275000Y-102590000D03*
X168275000Y-99490000D03*
%TD*%
D12*
%TO.C,R308*%
X150225000Y-125490000D03*
X150225000Y-128590000D03*
%TD*%
D10*
%TO.C,J303*%
X164675000Y-132140000D03*
%TD*%
%TO.C,J301*%
X153825000Y-95940000D03*
%TD*%
D13*
%TO.C,R309*%
X154325000Y-123040000D03*
X151225000Y-123040000D03*
%TD*%
D10*
%TO.C,J304*%
X141175000Y-119540000D03*
%TD*%
D14*
%TO.C,R305*%
X170725000Y-123140000D03*
X173825000Y-123140000D03*
%TD*%
D10*
%TO.C,J302*%
X177375000Y-108640000D03*
%TD*%
D15*
%TO.C,D308*%
X151700000Y-114115000D03*
D16*
X154275000Y-114115000D03*
%TD*%
D12*
%TO.C,R304*%
X164300000Y-118565000D03*
X164300000Y-121665000D03*
%TD*%
D15*
%TO.C,D304*%
X166850000Y-114065000D03*
D16*
X164275000Y-114065000D03*
%TD*%
D14*
%TO.C,R301*%
X163775000Y-109040000D03*
X166875000Y-109040000D03*
%TD*%
%TO.C,R303*%
X164175000Y-105040000D03*
X167275000Y-105040000D03*
%TD*%
D17*
%TO.C,D301*%
X159275000Y-99965000D03*
D18*
X159275000Y-102540000D03*
%TD*%
D12*
%TO.C,R306*%
X168275000Y-119040000D03*
X168275000Y-122140000D03*
%TD*%
D17*
%TO.C,D306*%
X159250000Y-121615000D03*
D18*
X159250000Y-119040000D03*
%TD*%
D19*
%TO.C,Q303*%
X154175000Y-125902500D03*
X152275000Y-125902500D03*
X153225000Y-128177500D03*
%TD*%
D20*
%TO.C,Q304*%
X147412500Y-108940000D03*
X147412500Y-107040000D03*
X145137500Y-107990000D03*
%TD*%
D15*
%TO.C,D303*%
X173375000Y-114065000D03*
D16*
X170800000Y-114065000D03*
%TD*%
D21*
%TO.C,J307*%
X148275000Y-119540000D03*
%TD*%
D22*
%TO.C,Q302*%
X171137500Y-119190000D03*
X171137500Y-121090000D03*
X173412500Y-120140000D03*
%TD*%
D11*
%TO.C,R312*%
X150275000Y-109090000D03*
X150275000Y-105990000D03*
%TD*%
D13*
%TO.C,R307*%
X154750000Y-119065000D03*
X151650000Y-119065000D03*
%TD*%
D15*
%TO.C,D307*%
X145175000Y-114115000D03*
D16*
X147750000Y-114115000D03*
%TD*%
D17*
%TO.C,D302*%
X159275000Y-106490000D03*
D18*
X159275000Y-109065000D03*
%TD*%
D17*
%TO.C,D305*%
X159250000Y-128140000D03*
D18*
X159250000Y-125565000D03*
%TD*%
D11*
%TO.C,R310*%
X154250000Y-109615000D03*
X154250000Y-106515000D03*
%TD*%
D23*
%TO.C,Q301*%
X164325000Y-102177500D03*
X166225000Y-102177500D03*
X165275000Y-99902500D03*
%TD*%
D13*
%TO.C,R311*%
X147825000Y-104990000D03*
X144725000Y-104990000D03*
%TD*%
D10*
%TO.C,J305*%
X119725000Y-95940000D03*
%TD*%
%TO.C,J306*%
X108775000Y-132140000D03*
%TD*%
D11*
%TO.C,R302*%
X123275000Y-102590000D03*
X123275000Y-99490000D03*
%TD*%
D12*
%TO.C,R308*%
X105225000Y-125490000D03*
X105225000Y-128590000D03*
%TD*%
D10*
%TO.C,J303*%
X119675000Y-132140000D03*
%TD*%
%TO.C,J301*%
X108825000Y-95940000D03*
%TD*%
D13*
%TO.C,R309*%
X109325000Y-123040000D03*
X106225000Y-123040000D03*
%TD*%
D10*
%TO.C,J304*%
X96175000Y-119540000D03*
%TD*%
D14*
%TO.C,R305*%
X125725000Y-123140000D03*
X128825000Y-123140000D03*
%TD*%
D10*
%TO.C,J302*%
X132375000Y-108640000D03*
%TD*%
D15*
%TO.C,D308*%
X106700000Y-114115000D03*
D16*
X109275000Y-114115000D03*
%TD*%
D12*
%TO.C,R304*%
X119300000Y-118565000D03*
X119300000Y-121665000D03*
%TD*%
D15*
%TO.C,D304*%
X121850000Y-114065000D03*
D16*
X119275000Y-114065000D03*
%TD*%
D14*
%TO.C,R301*%
X118775000Y-109040000D03*
X121875000Y-109040000D03*
%TD*%
%TO.C,R303*%
X119175000Y-105040000D03*
X122275000Y-105040000D03*
%TD*%
D17*
%TO.C,D301*%
X114275000Y-99965000D03*
D18*
X114275000Y-102540000D03*
%TD*%
D12*
%TO.C,R306*%
X123275000Y-119040000D03*
X123275000Y-122140000D03*
%TD*%
D17*
%TO.C,D306*%
X114250000Y-121615000D03*
D18*
X114250000Y-119040000D03*
%TD*%
D19*
%TO.C,Q303*%
X109175000Y-125902500D03*
X107275000Y-125902500D03*
X108225000Y-128177500D03*
%TD*%
D20*
%TO.C,Q304*%
X102412500Y-108940000D03*
X102412500Y-107040000D03*
X100137500Y-107990000D03*
%TD*%
D15*
%TO.C,D303*%
X128375000Y-114065000D03*
D16*
X125800000Y-114065000D03*
%TD*%
D21*
%TO.C,J307*%
X103275000Y-119540000D03*
%TD*%
D22*
%TO.C,Q302*%
X126137500Y-119190000D03*
X126137500Y-121090000D03*
X128412500Y-120140000D03*
%TD*%
D11*
%TO.C,R312*%
X105275000Y-109090000D03*
X105275000Y-105990000D03*
%TD*%
D13*
%TO.C,R307*%
X109750000Y-119065000D03*
X106650000Y-119065000D03*
%TD*%
D15*
%TO.C,D307*%
X100175000Y-114115000D03*
D16*
X102750000Y-114115000D03*
%TD*%
D17*
%TO.C,D302*%
X114275000Y-106490000D03*
D18*
X114275000Y-109065000D03*
%TD*%
D17*
%TO.C,D305*%
X114250000Y-128140000D03*
D18*
X114250000Y-125565000D03*
%TD*%
D11*
%TO.C,R310*%
X109250000Y-109615000D03*
X109250000Y-106515000D03*
%TD*%
D23*
%TO.C,Q301*%
X119325000Y-102177500D03*
X121225000Y-102177500D03*
X120275000Y-99902500D03*
%TD*%
D13*
%TO.C,R311*%
X102825000Y-104990000D03*
X99725000Y-104990000D03*
%TD*%
D10*
%TO.C,J305*%
X119725000Y-50940000D03*
%TD*%
%TO.C,J306*%
X108775000Y-87140000D03*
%TD*%
D11*
%TO.C,R302*%
X123275000Y-57590000D03*
X123275000Y-54490000D03*
%TD*%
D12*
%TO.C,R308*%
X105225000Y-80490000D03*
X105225000Y-83590000D03*
%TD*%
D10*
%TO.C,J303*%
X119675000Y-87140000D03*
%TD*%
%TO.C,J301*%
X108825000Y-50940000D03*
%TD*%
D13*
%TO.C,R309*%
X109325000Y-78040000D03*
X106225000Y-78040000D03*
%TD*%
D10*
%TO.C,J304*%
X96175000Y-74540000D03*
%TD*%
D14*
%TO.C,R305*%
X125725000Y-78140000D03*
X128825000Y-78140000D03*
%TD*%
D10*
%TO.C,J302*%
X132375000Y-63640000D03*
%TD*%
D15*
%TO.C,D308*%
X106700000Y-69115000D03*
D16*
X109275000Y-69115000D03*
%TD*%
D12*
%TO.C,R304*%
X119300000Y-73565000D03*
X119300000Y-76665000D03*
%TD*%
D15*
%TO.C,D304*%
X121850000Y-69065000D03*
D16*
X119275000Y-69065000D03*
%TD*%
D14*
%TO.C,R301*%
X118775000Y-64040000D03*
X121875000Y-64040000D03*
%TD*%
%TO.C,R303*%
X119175000Y-60040000D03*
X122275000Y-60040000D03*
%TD*%
D17*
%TO.C,D301*%
X114275000Y-54965000D03*
D18*
X114275000Y-57540000D03*
%TD*%
D12*
%TO.C,R306*%
X123275000Y-74040000D03*
X123275000Y-77140000D03*
%TD*%
D17*
%TO.C,D306*%
X114250000Y-76615000D03*
D18*
X114250000Y-74040000D03*
%TD*%
D19*
%TO.C,Q303*%
X109175000Y-80902500D03*
X107275000Y-80902500D03*
X108225000Y-83177500D03*
%TD*%
D20*
%TO.C,Q304*%
X102412500Y-63940000D03*
X102412500Y-62040000D03*
X100137500Y-62990000D03*
%TD*%
D15*
%TO.C,D303*%
X128375000Y-69065000D03*
D16*
X125800000Y-69065000D03*
%TD*%
D21*
%TO.C,J307*%
X103275000Y-74540000D03*
%TD*%
D22*
%TO.C,Q302*%
X126137500Y-74190000D03*
X126137500Y-76090000D03*
X128412500Y-75140000D03*
%TD*%
D11*
%TO.C,R312*%
X105275000Y-64090000D03*
X105275000Y-60990000D03*
%TD*%
D13*
%TO.C,R307*%
X109750000Y-74065000D03*
X106650000Y-74065000D03*
%TD*%
D15*
%TO.C,D307*%
X100175000Y-69115000D03*
D16*
X102750000Y-69115000D03*
%TD*%
D17*
%TO.C,D302*%
X114275000Y-61490000D03*
D18*
X114275000Y-64065000D03*
%TD*%
D17*
%TO.C,D305*%
X114250000Y-83140000D03*
D18*
X114250000Y-80565000D03*
%TD*%
D11*
%TO.C,R310*%
X109250000Y-64615000D03*
X109250000Y-61515000D03*
%TD*%
D23*
%TO.C,Q301*%
X119325000Y-57177500D03*
X121225000Y-57177500D03*
X120275000Y-54902500D03*
%TD*%
D13*
%TO.C,R311*%
X102825000Y-59990000D03*
X99725000Y-59990000D03*
%TD*%
D24*
%TO.C,REF\u002A\u002A*%
X162075000Y-93740000D03*
X162075000Y-89340000D03*
X161275000Y-93740000D03*
X161275000Y-89340000D03*
X160475000Y-93740000D03*
X160475000Y-89340000D03*
X159675000Y-93740000D03*
X159675000Y-89340000D03*
X158875000Y-93740000D03*
X158875000Y-89340000D03*
X158075000Y-93740000D03*
X158075000Y-89340000D03*
X157275000Y-93740000D03*
X157275000Y-89340000D03*
X156475000Y-93740000D03*
X156475000Y-89340000D03*
%TD*%
%TO.C,REF\u002A\u002A*%
X138975000Y-66240000D03*
X134575000Y-66240000D03*
X138975000Y-67040000D03*
X134575000Y-67040000D03*
X138975000Y-67840000D03*
X134575000Y-67840000D03*
X138975000Y-68640000D03*
X134575000Y-68640000D03*
X138975000Y-69440000D03*
X134575000Y-69440000D03*
X138975000Y-70240000D03*
X134575000Y-70240000D03*
X138975000Y-71040000D03*
X134575000Y-71040000D03*
X138975000Y-71840000D03*
X134575000Y-71840000D03*
%TD*%
%TO.C,REF\u002A\u002A*%
X134575000Y-116840000D03*
X138975000Y-116840000D03*
X134575000Y-116040000D03*
X138975000Y-116040000D03*
X134575000Y-115240000D03*
X138975000Y-115240000D03*
X134575000Y-114440000D03*
X138975000Y-114440000D03*
X134575000Y-113640000D03*
X138975000Y-113640000D03*
X134575000Y-112840000D03*
X138975000Y-112840000D03*
X134575000Y-112040000D03*
X138975000Y-112040000D03*
X134575000Y-111240000D03*
X138975000Y-111240000D03*
%TD*%
%TO.C,REF\u002A\u002A*%
X111475000Y-89340000D03*
X111475000Y-93740000D03*
X112275000Y-89340000D03*
X112275000Y-93740000D03*
X113075000Y-89340000D03*
X113075000Y-93740000D03*
X113875000Y-89340000D03*
X113875000Y-93740000D03*
X114675000Y-89340000D03*
X114675000Y-93740000D03*
X115475000Y-89340000D03*
X115475000Y-93740000D03*
X116275000Y-89340000D03*
X116275000Y-93740000D03*
X117075000Y-89340000D03*
X117075000Y-93740000D03*
%TD*%
M02*
