M48
; DRILL file {KiCad 7.0.1} date Sun Sep 10 14:18:29 2023
; FORMAT={-:-/ absolute / inch / decimal}
; #@! TF.CreationDate,2023-09-10T14:18:29+09:00
; #@! TF.GenerationSoftware,Kicad,Pcbnew,7.0.1
; #@! TF.FileFunction,Plated,1,2,PTH
FMAT,2
INCH
; #@! TA.AperFunction,Plated,PTH,ViaDrill
T1C0.0157
; #@! TA.AperFunction,Plated,PTH,ComponentDrill
T2C0.0315
%
G90
G05
T1
X3.0209Y-1.898
X3.0209Y-2.4571
X3.0213Y-3.6705
X3.0213Y-4.2295
X3.5484Y-1.4886
X3.5488Y-3.261
X3.6272Y-1.8429
X3.6276Y-3.6154
X3.7059Y-2.3783
X3.7063Y-4.1508
X4.0524Y-2.4177
X4.0528Y-4.1902
X4.7933Y-1.8984
X4.7933Y-2.4575
X4.7937Y-3.6713
X4.7937Y-4.2303
X5.3209Y-1.489
X5.3213Y-3.2618
X5.3996Y-1.8433
X5.4Y-3.6161
X5.4783Y-2.3787
X5.4787Y-4.1516
X5.8248Y-2.4181
X5.8252Y-4.1909
T2
X2.6075Y-2.1205
X2.6075Y-2.1992
X2.6075Y-2.278
X2.6079Y-3.8929
X2.6079Y-3.9717
X2.6079Y-4.0504
X3.2551Y-2.9256
X3.2555Y-4.698
X3.2571Y-1.4689
X3.2575Y-3.2413
X3.3339Y-2.9256
X3.3343Y-4.698
X3.3358Y-1.4689
X3.3362Y-3.2413
X3.4126Y-2.9256
X3.413Y-4.698
X3.4146Y-1.4689
X3.415Y-3.2413
X4.0642Y-2.1205
X4.0642Y-2.1992
X4.0642Y-2.278
X4.0646Y-3.8929
X4.0646Y-3.9717
X4.0646Y-4.0504
X4.3799Y-2.1209
X4.3799Y-2.1996
X4.3799Y-2.2783
X4.3803Y-3.8937
X4.3803Y-3.9724
X4.3803Y-4.0512
X5.0276Y-2.926
X5.028Y-4.6988
X5.0295Y-1.4693
X5.0299Y-3.2421
X5.1063Y-2.926
X5.1067Y-4.6988
X5.1083Y-1.4693
X5.1087Y-3.2421
X5.185Y-2.926
X5.1854Y-4.6988
X5.187Y-1.4693
X5.1874Y-3.2421
X5.8366Y-2.1209
X5.8366Y-2.1996
X5.8366Y-2.2783
X5.837Y-3.8937
X5.837Y-3.9724
X5.837Y-4.0512
T0
M30
