%TF.GenerationSoftware,KiCad,Pcbnew,7.0.1*%
%TF.CreationDate,2023-09-10T14:18:25+09:00*%
%TF.ProjectId,block_socket,626c6f63-6b5f-4736-9f63-6b65742e6b69,rev?*%
%TF.SameCoordinates,Original*%
%TF.FileFunction,Copper,L1,Top*%
%TF.FilePolarity,Positive*%
%FSLAX46Y46*%
G04 Gerber Fmt 4.6, Leading zero omitted, Abs format (unit mm)*
G04 Created by KiCad (PCBNEW 7.0.1) date 2023-09-10 14:18:25*
%MOMM*%
%LPD*%
G01*
G04 APERTURE LIST*
%TA.AperFunction,ComponentPad*%
%ADD10R,1.350000X1.350000*%
%TD*%
%TA.AperFunction,ComponentPad*%
%ADD11O,1.350000X1.350000*%
%TD*%
%TA.AperFunction,SMDPad,CuDef*%
%ADD12C,2.800000*%
%TD*%
%TA.AperFunction,ViaPad*%
%ADD13C,0.800000*%
%TD*%
%TA.AperFunction,Conductor*%
%ADD14C,0.250000*%
%TD*%
G04 APERTURE END LIST*
D10*
%TO.P,J402,1,Pin_1*%
%TO.N,GND*%
X148250000Y-57870000D03*
D11*
%TO.P,J402,2,Pin_2*%
%TO.N,E_S*%
X148250000Y-55870000D03*
%TO.P,J402,3,Pin_3*%
%TO.N,+5V*%
X148250000Y-53870000D03*
%TD*%
D12*
%TO.P,J406,1,Pin_1*%
%TO.N,E_S*%
X147860000Y-95450000D03*
%TD*%
%TO.P,J405,1,Pin_1*%
%TO.N,N_S*%
X79290000Y-82730000D03*
%TD*%
%TO.P,J409,1,Pin_1*%
%TO.N,+5V*%
X90180000Y-37710000D03*
%TD*%
D10*
%TO.P,J404,1,Pin_1*%
%TO.N,GND*%
X111260000Y-102900000D03*
D11*
%TO.P,J404,2,Pin_2*%
%TO.N,W_S*%
X111260000Y-100900000D03*
%TO.P,J404,3,Pin_3*%
%TO.N,+5V*%
X111260000Y-98900000D03*
%TD*%
D12*
%TO.P,J412,1,Pin_1*%
%TO.N,GND*%
X66640000Y-95480000D03*
%TD*%
%TO.P,J408,1,Pin_1*%
%TO.N,W_S*%
X66630000Y-61310000D03*
%TD*%
%TO.P,J411,1,Pin_1*%
%TO.N,GND*%
X124290000Y-73910000D03*
%TD*%
%TO.P,J406,1,Pin_1*%
%TO.N,E_S*%
X102830000Y-50410000D03*
%TD*%
%TO.P,J406,1,Pin_1*%
%TO.N,E_S*%
X147850000Y-50420000D03*
%TD*%
D10*
%TO.P,J402,1,Pin_1*%
%TO.N,GND*%
X103240000Y-102880000D03*
D11*
%TO.P,J402,2,Pin_2*%
%TO.N,E_S*%
X103240000Y-100880000D03*
%TO.P,J402,3,Pin_3*%
%TO.N,+5V*%
X103240000Y-98880000D03*
%TD*%
D12*
%TO.P,J411,1,Pin_1*%
%TO.N,GND*%
X124300000Y-118940000D03*
%TD*%
%TO.P,J407,1,Pin_1*%
%TO.N,S_S*%
X90140000Y-118930000D03*
%TD*%
%TO.P,J405,1,Pin_1*%
%TO.N,N_S*%
X124310000Y-82750000D03*
%TD*%
%TO.P,J411,1,Pin_1*%
%TO.N,GND*%
X79270000Y-73900000D03*
%TD*%
D10*
%TO.P,J403,1,Pin_1*%
%TO.N,GND*%
X86680000Y-74310000D03*
D11*
%TO.P,J403,2,Pin_2*%
%TO.N,S_S*%
X84680000Y-74310000D03*
%TO.P,J403,3,Pin_3*%
%TO.N,+5V*%
X82680000Y-74310000D03*
%TD*%
D12*
%TO.P,J408,1,Pin_1*%
%TO.N,W_S*%
X111660000Y-106350000D03*
%TD*%
D10*
%TO.P,J401,1,Pin_1*%
%TO.N,GND*%
X131750000Y-37320000D03*
D11*
%TO.P,J401,2,Pin_2*%
%TO.N,N_S*%
X129750000Y-37320000D03*
%TO.P,J401,3,Pin_3*%
%TO.N,+5V*%
X127750000Y-37320000D03*
%TD*%
D12*
%TO.P,J409,1,Pin_1*%
%TO.N,+5V*%
X135200000Y-37720000D03*
%TD*%
D10*
%TO.P,J401,1,Pin_1*%
%TO.N,GND*%
X86740000Y-82330000D03*
D11*
%TO.P,J401,2,Pin_2*%
%TO.N,N_S*%
X84740000Y-82330000D03*
%TO.P,J401,3,Pin_3*%
%TO.N,+5V*%
X82740000Y-82330000D03*
%TD*%
D10*
%TO.P,J403,1,Pin_1*%
%TO.N,GND*%
X131710000Y-119350000D03*
D11*
%TO.P,J403,2,Pin_2*%
%TO.N,S_S*%
X129710000Y-119350000D03*
%TO.P,J403,3,Pin_3*%
%TO.N,+5V*%
X127710000Y-119350000D03*
%TD*%
D12*
%TO.P,J407,1,Pin_1*%
%TO.N,S_S*%
X90130000Y-73910000D03*
%TD*%
%TO.P,J411,1,Pin_1*%
%TO.N,GND*%
X79280000Y-118920000D03*
%TD*%
%TO.P,J410,1,Pin_1*%
%TO.N,+5V*%
X102830000Y-61260000D03*
%TD*%
%TO.P,J409,1,Pin_1*%
%TO.N,+5V*%
X135210000Y-82750000D03*
%TD*%
%TO.P,J409,1,Pin_1*%
%TO.N,+5V*%
X90190000Y-82730000D03*
%TD*%
%TO.P,J408,1,Pin_1*%
%TO.N,W_S*%
X66640000Y-106330000D03*
%TD*%
%TO.P,J410,1,Pin_1*%
%TO.N,+5V*%
X147850000Y-61270000D03*
%TD*%
%TO.P,J412,1,Pin_1*%
%TO.N,GND*%
X111650000Y-50470000D03*
%TD*%
D10*
%TO.P,J404,1,Pin_1*%
%TO.N,GND*%
X111250000Y-57870000D03*
D11*
%TO.P,J404,2,Pin_2*%
%TO.N,W_S*%
X111250000Y-55870000D03*
%TO.P,J404,3,Pin_3*%
%TO.N,+5V*%
X111250000Y-53870000D03*
%TD*%
D12*
%TO.P,J412,1,Pin_1*%
%TO.N,GND*%
X111660000Y-95500000D03*
%TD*%
D10*
%TO.P,J402,1,Pin_1*%
%TO.N,GND*%
X103230000Y-57860000D03*
D11*
%TO.P,J402,2,Pin_2*%
%TO.N,E_S*%
X103230000Y-55860000D03*
%TO.P,J402,3,Pin_3*%
%TO.N,+5V*%
X103230000Y-53860000D03*
%TD*%
D10*
%TO.P,J404,1,Pin_1*%
%TO.N,GND*%
X66240000Y-102880000D03*
D11*
%TO.P,J404,2,Pin_2*%
%TO.N,W_S*%
X66240000Y-100880000D03*
%TO.P,J404,3,Pin_3*%
%TO.N,+5V*%
X66240000Y-98880000D03*
%TD*%
D12*
%TO.P,J410,1,Pin_1*%
%TO.N,+5V*%
X147860000Y-106300000D03*
%TD*%
%TO.P,J408,1,Pin_1*%
%TO.N,W_S*%
X111650000Y-61320000D03*
%TD*%
D10*
%TO.P,J401,1,Pin_1*%
%TO.N,GND*%
X86730000Y-37310000D03*
D11*
%TO.P,J401,2,Pin_2*%
%TO.N,N_S*%
X84730000Y-37310000D03*
%TO.P,J401,3,Pin_3*%
%TO.N,+5V*%
X82730000Y-37310000D03*
%TD*%
D12*
%TO.P,J412,1,Pin_1*%
%TO.N,GND*%
X66630000Y-50460000D03*
%TD*%
%TO.P,J406,1,Pin_1*%
%TO.N,E_S*%
X102840000Y-95430000D03*
%TD*%
D10*
%TO.P,J403,1,Pin_1*%
%TO.N,GND*%
X86690000Y-119330000D03*
D11*
%TO.P,J403,2,Pin_2*%
%TO.N,S_S*%
X84690000Y-119330000D03*
%TO.P,J403,3,Pin_3*%
%TO.N,+5V*%
X82690000Y-119330000D03*
%TD*%
D12*
%TO.P,J407,1,Pin_1*%
%TO.N,S_S*%
X135160000Y-118950000D03*
%TD*%
%TO.P,J405,1,Pin_1*%
%TO.N,N_S*%
X124300000Y-37720000D03*
%TD*%
%TO.P,J407,1,Pin_1*%
%TO.N,S_S*%
X135150000Y-73920000D03*
%TD*%
D10*
%TO.P,J403,1,Pin_1*%
%TO.N,GND*%
X131700000Y-74320000D03*
D11*
%TO.P,J403,2,Pin_2*%
%TO.N,S_S*%
X129700000Y-74320000D03*
%TO.P,J403,3,Pin_3*%
%TO.N,+5V*%
X127700000Y-74320000D03*
%TD*%
D10*
%TO.P,J401,1,Pin_1*%
%TO.N,GND*%
X131760000Y-82350000D03*
D11*
%TO.P,J401,2,Pin_2*%
%TO.N,N_S*%
X129760000Y-82350000D03*
%TO.P,J401,3,Pin_3*%
%TO.N,+5V*%
X127760000Y-82350000D03*
%TD*%
D12*
%TO.P,J410,1,Pin_1*%
%TO.N,+5V*%
X102840000Y-106280000D03*
%TD*%
%TO.P,J405,1,Pin_1*%
%TO.N,N_S*%
X79280000Y-37710000D03*
%TD*%
D10*
%TO.P,J402,1,Pin_1*%
%TO.N,GND*%
X148260000Y-102900000D03*
D11*
%TO.P,J402,2,Pin_2*%
%TO.N,E_S*%
X148260000Y-100900000D03*
%TO.P,J402,3,Pin_3*%
%TO.N,+5V*%
X148260000Y-98900000D03*
%TD*%
D10*
%TO.P,J404,1,Pin_1*%
%TO.N,GND*%
X66230000Y-57860000D03*
D11*
%TO.P,J404,2,Pin_2*%
%TO.N,W_S*%
X66230000Y-55860000D03*
%TO.P,J404,3,Pin_3*%
%TO.N,+5V*%
X66230000Y-53860000D03*
%TD*%
D13*
%TO.N,+5V*%
X147960000Y-106450000D03*
X90140000Y-82830000D03*
X90130000Y-37810000D03*
X135150000Y-37820000D03*
X147950000Y-61420000D03*
X102930000Y-61410000D03*
X135160000Y-82850000D03*
X102940000Y-106430000D03*
%TO.N,GND*%
X121760000Y-93250000D03*
X121760000Y-107450000D03*
X121750000Y-62420000D03*
X94140000Y-105430000D03*
X76730000Y-48210000D03*
X94130000Y-60410000D03*
X76740000Y-93230000D03*
X139160000Y-105450000D03*
X137160000Y-91850000D03*
X121750000Y-48220000D03*
X76730000Y-62410000D03*
X76740000Y-107430000D03*
X92140000Y-91830000D03*
X139150000Y-60420000D03*
X137150000Y-46820000D03*
X92130000Y-46810000D03*
%TD*%
D14*
%TO.N,N_S*%
X127960001Y-84149999D02*
X125709999Y-84149999D01*
X82940001Y-84129999D02*
X80689999Y-84129999D01*
X127950001Y-39119999D02*
X125699999Y-39119999D01*
X80679999Y-39109999D02*
X79280000Y-37710000D01*
X84730000Y-37310000D02*
X82930001Y-39109999D01*
X129760000Y-82350000D02*
X127960001Y-84149999D01*
X129750000Y-37320000D02*
X127950001Y-39119999D01*
X80689999Y-84129999D02*
X79290000Y-82730000D01*
X84740000Y-82330000D02*
X82940001Y-84129999D01*
X125709999Y-84149999D02*
X124310000Y-82750000D01*
X125699999Y-39119999D02*
X124300000Y-37720000D01*
X82930001Y-39109999D02*
X80679999Y-39109999D01*
%TO.N,E_S*%
X146460001Y-99100001D02*
X146460001Y-96849999D01*
X148260000Y-100900000D02*
X146460001Y-99100001D01*
X146460001Y-96849999D02*
X147860000Y-95450000D01*
X103230000Y-55860000D02*
X101430001Y-54060001D01*
X101430001Y-54060001D02*
X101430001Y-51809999D01*
X101440001Y-96829999D02*
X102840000Y-95430000D01*
X103240000Y-100880000D02*
X101440001Y-99080001D01*
X148250000Y-55870000D02*
X146450001Y-54070001D01*
X101430001Y-51809999D02*
X102830000Y-50410000D01*
X146450001Y-54070001D02*
X146450001Y-51819999D01*
X146450001Y-51819999D02*
X147850000Y-50420000D01*
X101440001Y-99080001D02*
X101440001Y-96829999D01*
%TO.N,S_S*%
X129710000Y-119350000D02*
X131509999Y-117550001D01*
X84680000Y-74310000D02*
X86479999Y-72510001D01*
X131509999Y-117550001D02*
X133760001Y-117550001D01*
X88740001Y-117530001D02*
X90140000Y-118930000D01*
X88730001Y-72510001D02*
X90130000Y-73910000D01*
X133760001Y-117550001D02*
X135160000Y-118950000D01*
X86479999Y-72510001D02*
X88730001Y-72510001D01*
X86489999Y-117530001D02*
X88740001Y-117530001D01*
X129700000Y-74320000D02*
X131499999Y-72520001D01*
X84690000Y-119330000D02*
X86489999Y-117530001D01*
X131499999Y-72520001D02*
X133750001Y-72520001D01*
X133750001Y-72520001D02*
X135150000Y-73920000D01*
%TO.N,W_S*%
X68039999Y-102679999D02*
X68039999Y-104930001D01*
X113059999Y-104950001D02*
X111660000Y-106350000D01*
X68029999Y-59910001D02*
X66630000Y-61310000D01*
X68029999Y-57659999D02*
X68029999Y-59910001D01*
X66240000Y-100880000D02*
X68039999Y-102679999D01*
X111250000Y-55870000D02*
X113049999Y-57669999D01*
X68039999Y-104930001D02*
X66640000Y-106330000D01*
X113049999Y-57669999D02*
X113049999Y-59920001D01*
X113059999Y-102699999D02*
X113059999Y-104950001D01*
X66230000Y-55860000D02*
X68029999Y-57659999D01*
X111260000Y-100900000D02*
X113059999Y-102699999D01*
X113049999Y-59920001D02*
X111650000Y-61320000D01*
%TD*%
%TA.AperFunction,Conductor*%
%TO.N,GND*%
G36*
X78379778Y-80847409D02*
G01*
X78425240Y-80893525D01*
X78441254Y-80956271D01*
X78423454Y-81018534D01*
X78376694Y-81063331D01*
X78312004Y-81098655D01*
X78259886Y-81127113D01*
X78042255Y-81290031D01*
X77850031Y-81482255D01*
X77687109Y-81699891D01*
X77556831Y-81938480D01*
X77461823Y-82193203D01*
X77404039Y-82458838D01*
X77384644Y-82730000D01*
X77404039Y-83001161D01*
X77461823Y-83266796D01*
X77463797Y-83272088D01*
X77556828Y-83521513D01*
X77556830Y-83521517D01*
X77556831Y-83521519D01*
X77687109Y-83760108D01*
X77687113Y-83760113D01*
X77850029Y-83977742D01*
X78042258Y-84169971D01*
X78258281Y-84331685D01*
X78259891Y-84332890D01*
X78455802Y-84439864D01*
X78498487Y-84463172D01*
X78753199Y-84558175D01*
X78753202Y-84558175D01*
X78753203Y-84558176D01*
X78802852Y-84568976D01*
X79018840Y-84615961D01*
X79290000Y-84635355D01*
X79561160Y-84615961D01*
X79826801Y-84558175D01*
X80048417Y-84475516D01*
X80094696Y-84467733D01*
X80140558Y-84477710D01*
X80179427Y-84504017D01*
X80189196Y-84513786D01*
X80202097Y-84529888D01*
X80204211Y-84531873D01*
X80204213Y-84531876D01*
X80245965Y-84571084D01*
X80253239Y-84577915D01*
X80256034Y-84580624D01*
X80275529Y-84600119D01*
X80278703Y-84602581D01*
X80287567Y-84610152D01*
X80319417Y-84640061D01*
X80329913Y-84645831D01*
X80336973Y-84649713D01*
X80353230Y-84660391D01*
X80369063Y-84672673D01*
X80385184Y-84679648D01*
X80409155Y-84690022D01*
X80419642Y-84695159D01*
X80457907Y-84716196D01*
X80477315Y-84721179D01*
X80495709Y-84727477D01*
X80514104Y-84735437D01*
X80557253Y-84742270D01*
X80568679Y-84744637D01*
X80584221Y-84748628D01*
X80610979Y-84755499D01*
X80610980Y-84755499D01*
X80631015Y-84755499D01*
X80650412Y-84757025D01*
X80670195Y-84760159D01*
X80713673Y-84756049D01*
X80725343Y-84755499D01*
X82857257Y-84755499D01*
X82877763Y-84757763D01*
X82880666Y-84757671D01*
X82880668Y-84757672D01*
X82947873Y-84755560D01*
X82951769Y-84755499D01*
X82979350Y-84755499D01*
X82979351Y-84755499D01*
X82983320Y-84754997D01*
X82994966Y-84754079D01*
X83038628Y-84752708D01*
X83057860Y-84747119D01*
X83076919Y-84743173D01*
X83084092Y-84742267D01*
X83096793Y-84740663D01*
X83137408Y-84724581D01*
X83148445Y-84720802D01*
X83190391Y-84708617D01*
X83207630Y-84698421D01*
X83225103Y-84689861D01*
X83243733Y-84682485D01*
X83279065Y-84656813D01*
X83288831Y-84650399D01*
X83326419Y-84628170D01*
X83326418Y-84628170D01*
X83326421Y-84628169D01*
X83340586Y-84614003D01*
X83355374Y-84601372D01*
X83371588Y-84589593D01*
X83399439Y-84555925D01*
X83407280Y-84547308D01*
X84431535Y-83523054D01*
X84482534Y-83492286D01*
X84541995Y-83488848D01*
X84631074Y-83505500D01*
X84848924Y-83505500D01*
X84848926Y-83505500D01*
X85063069Y-83465470D01*
X85198496Y-83413004D01*
X85266208Y-83386773D01*
X85272641Y-83382790D01*
X85451432Y-83272088D01*
X85462781Y-83261741D01*
X85523701Y-83231458D01*
X85591435Y-83237877D01*
X85645586Y-83279067D01*
X85707810Y-83362188D01*
X85822910Y-83448352D01*
X85957624Y-83498597D01*
X86017176Y-83505000D01*
X86490000Y-83505000D01*
X86490000Y-82580000D01*
X86990000Y-82580000D01*
X86990000Y-83505000D01*
X87462824Y-83505000D01*
X87522375Y-83498597D01*
X87657089Y-83448352D01*
X87772188Y-83362188D01*
X87858352Y-83247089D01*
X87908597Y-83112375D01*
X87915000Y-83052824D01*
X87915000Y-82580000D01*
X86990000Y-82580000D01*
X86490000Y-82580000D01*
X86490000Y-81155000D01*
X86990000Y-81155000D01*
X86990000Y-82080000D01*
X87915000Y-82080000D01*
X87915000Y-81607176D01*
X87908597Y-81547624D01*
X87858352Y-81412910D01*
X87772188Y-81297811D01*
X87657089Y-81211647D01*
X87522375Y-81161402D01*
X87462824Y-81155000D01*
X86990000Y-81155000D01*
X86490000Y-81155000D01*
X86017176Y-81155000D01*
X85957624Y-81161402D01*
X85822910Y-81211647D01*
X85707808Y-81297812D01*
X85645585Y-81380932D01*
X85591435Y-81422122D01*
X85523703Y-81428541D01*
X85462780Y-81398257D01*
X85451432Y-81387911D01*
X85266208Y-81273226D01*
X85063073Y-81194531D01*
X85063070Y-81194530D01*
X85063069Y-81194530D01*
X84848926Y-81154500D01*
X84631074Y-81154500D01*
X84416931Y-81194530D01*
X84416926Y-81194531D01*
X84213791Y-81273226D01*
X84028567Y-81387912D01*
X83867573Y-81534677D01*
X83838954Y-81572575D01*
X83795271Y-81608848D01*
X83740000Y-81621848D01*
X83684729Y-81608848D01*
X83641046Y-81572575D01*
X83612426Y-81534677D01*
X83451432Y-81387912D01*
X83266208Y-81273226D01*
X83063073Y-81194531D01*
X83063070Y-81194530D01*
X83063069Y-81194530D01*
X82848926Y-81154500D01*
X82631074Y-81154500D01*
X82416931Y-81194530D01*
X82416926Y-81194531D01*
X82213791Y-81273226D01*
X82028567Y-81387912D01*
X81867573Y-81534676D01*
X81736287Y-81708528D01*
X81639181Y-81903542D01*
X81579564Y-82113074D01*
X81559464Y-82329999D01*
X81579564Y-82546925D01*
X81639181Y-82756457D01*
X81736287Y-82951471D01*
X81867573Y-83125323D01*
X81957311Y-83207129D01*
X82028568Y-83272088D01*
X82031635Y-83273987D01*
X82033387Y-83275072D01*
X82076992Y-83321163D01*
X82092089Y-83382790D01*
X82074725Y-83443817D01*
X82029447Y-83488266D01*
X81968110Y-83504499D01*
X81208112Y-83504499D01*
X81150637Y-83490375D01*
X81106256Y-83451219D01*
X81085079Y-83395952D01*
X81091929Y-83337167D01*
X81118175Y-83266801D01*
X81175961Y-83001160D01*
X81195355Y-82730000D01*
X81175961Y-82458840D01*
X81124546Y-82222486D01*
X81118176Y-82193203D01*
X81118175Y-82193199D01*
X81023172Y-81938487D01*
X80956345Y-81816102D01*
X80892890Y-81699891D01*
X80834467Y-81621848D01*
X80729971Y-81482258D01*
X80537742Y-81290029D01*
X80320113Y-81127113D01*
X80203305Y-81063331D01*
X80156546Y-81018534D01*
X80138746Y-80956271D01*
X80154760Y-80893525D01*
X80200222Y-80847409D01*
X80262733Y-80830500D01*
X89217267Y-80830500D01*
X89279778Y-80847409D01*
X89325240Y-80893525D01*
X89341254Y-80956271D01*
X89323454Y-81018534D01*
X89276694Y-81063331D01*
X89212004Y-81098655D01*
X89159886Y-81127113D01*
X88942255Y-81290031D01*
X88750031Y-81482255D01*
X88587109Y-81699891D01*
X88456831Y-81938480D01*
X88361823Y-82193203D01*
X88304039Y-82458838D01*
X88284644Y-82730000D01*
X88304039Y-83001161D01*
X88361823Y-83266796D01*
X88363797Y-83272088D01*
X88456828Y-83521513D01*
X88456830Y-83521517D01*
X88456831Y-83521519D01*
X88587109Y-83760108D01*
X88587113Y-83760113D01*
X88750029Y-83977742D01*
X88942258Y-84169971D01*
X89158281Y-84331685D01*
X89159891Y-84332890D01*
X89355802Y-84439864D01*
X89398487Y-84463172D01*
X89653199Y-84558175D01*
X89653202Y-84558175D01*
X89653203Y-84558176D01*
X89702852Y-84568976D01*
X89918840Y-84615961D01*
X90190000Y-84635355D01*
X90461160Y-84615961D01*
X90726801Y-84558175D01*
X90981513Y-84463172D01*
X91220113Y-84332887D01*
X91437742Y-84169971D01*
X91629971Y-83977742D01*
X91792887Y-83760113D01*
X91923172Y-83521513D01*
X92018175Y-83266801D01*
X92075961Y-83001160D01*
X92095355Y-82730000D01*
X92075961Y-82458840D01*
X92024546Y-82222486D01*
X92018176Y-82193203D01*
X92018175Y-82193199D01*
X91923172Y-81938487D01*
X91856345Y-81816102D01*
X91792890Y-81699891D01*
X91734467Y-81621848D01*
X91629971Y-81482258D01*
X91437742Y-81290029D01*
X91220113Y-81127113D01*
X91103305Y-81063331D01*
X91056546Y-81018534D01*
X91038746Y-80956271D01*
X91054760Y-80893525D01*
X91100222Y-80847409D01*
X91162733Y-80830500D01*
X99737439Y-80830500D01*
X99742562Y-80830605D01*
X99957600Y-80839500D01*
X100153455Y-80848052D01*
X100163330Y-80848881D01*
X100376706Y-80875479D01*
X100376793Y-80875490D01*
X100574945Y-80901577D01*
X100584192Y-80903153D01*
X100793521Y-80947044D01*
X100794765Y-80947312D01*
X100990386Y-80990680D01*
X100998901Y-80992889D01*
X101203665Y-81053850D01*
X101205325Y-81054359D01*
X101396696Y-81114698D01*
X101404453Y-81117431D01*
X101603363Y-81195046D01*
X101605513Y-81195911D01*
X101791024Y-81272752D01*
X101797972Y-81275886D01*
X101965903Y-81357982D01*
X101989587Y-81369561D01*
X101992383Y-81370972D01*
X102170420Y-81463652D01*
X102176636Y-81467118D01*
X102359793Y-81576255D01*
X102362929Y-81578187D01*
X102408432Y-81607176D01*
X102532282Y-81686078D01*
X102537710Y-81689741D01*
X102711184Y-81813599D01*
X102714616Y-81816140D01*
X102873912Y-81938372D01*
X102878567Y-81942126D01*
X103041226Y-82079891D01*
X103044838Y-82083072D01*
X103192925Y-82218769D01*
X103196807Y-82222486D01*
X103347512Y-82373191D01*
X103351232Y-82377076D01*
X103486921Y-82525155D01*
X103490107Y-82528772D01*
X103627872Y-82691431D01*
X103631626Y-82696086D01*
X103753858Y-82855382D01*
X103756399Y-82858814D01*
X103880257Y-83032288D01*
X103883920Y-83037716D01*
X103991800Y-83207052D01*
X103993743Y-83210205D01*
X104102880Y-83393362D01*
X104106346Y-83399578D01*
X104199026Y-83577615D01*
X104200437Y-83580411D01*
X104294099Y-83771997D01*
X104297260Y-83779005D01*
X104374051Y-83964395D01*
X104374991Y-83966734D01*
X104380797Y-83981610D01*
X104452559Y-84165523D01*
X104455302Y-84173309D01*
X104515602Y-84364554D01*
X104516186Y-84366460D01*
X104577105Y-84571084D01*
X104579321Y-84579627D01*
X104622671Y-84775166D01*
X104622971Y-84776559D01*
X104666844Y-84985802D01*
X104668422Y-84995062D01*
X104694459Y-85192829D01*
X104694568Y-85193677D01*
X104721114Y-85406641D01*
X104721948Y-85416570D01*
X104730513Y-85612728D01*
X104730525Y-85613013D01*
X104739394Y-85827438D01*
X104739500Y-85832562D01*
X104739500Y-94457267D01*
X104722591Y-94519778D01*
X104676475Y-94565240D01*
X104613729Y-94581254D01*
X104551466Y-94563454D01*
X104506668Y-94516694D01*
X104442887Y-94399887D01*
X104279971Y-94182258D01*
X104087742Y-93990029D01*
X103870113Y-93827113D01*
X103870114Y-93827113D01*
X103870108Y-93827109D01*
X103631519Y-93696831D01*
X103631517Y-93696830D01*
X103631513Y-93696828D01*
X103376801Y-93601825D01*
X103376796Y-93601823D01*
X103111161Y-93544039D01*
X102840000Y-93524644D01*
X102568838Y-93544039D01*
X102303203Y-93601823D01*
X102167857Y-93652305D01*
X102048487Y-93696828D01*
X102048484Y-93696829D01*
X102048480Y-93696831D01*
X101809891Y-93827109D01*
X101592255Y-93990031D01*
X101400031Y-94182255D01*
X101237109Y-94399891D01*
X101106831Y-94638480D01*
X101106829Y-94638484D01*
X101106828Y-94638487D01*
X101065624Y-94748956D01*
X101011823Y-94893203D01*
X100954039Y-95158838D01*
X100934644Y-95430000D01*
X100954039Y-95701161D01*
X101011824Y-95966799D01*
X101094481Y-96188413D01*
X101099465Y-96258104D01*
X101065980Y-96319427D01*
X101056209Y-96329198D01*
X101040111Y-96342095D01*
X100992097Y-96393224D01*
X100989392Y-96396016D01*
X100969875Y-96415533D01*
X100967416Y-96418704D01*
X100959843Y-96427571D01*
X100929936Y-96459419D01*
X100920286Y-96476973D01*
X100909610Y-96493227D01*
X100897327Y-96509062D01*
X100879976Y-96549157D01*
X100874839Y-96559643D01*
X100853803Y-96597906D01*
X100848822Y-96617308D01*
X100842521Y-96635710D01*
X100834562Y-96654101D01*
X100827729Y-96697241D01*
X100825361Y-96708673D01*
X100814501Y-96750977D01*
X100814501Y-96771015D01*
X100812974Y-96790414D01*
X100809841Y-96810193D01*
X100813951Y-96853674D01*
X100814501Y-96865343D01*
X100814501Y-98997257D01*
X100812236Y-99017763D01*
X100814440Y-99087874D01*
X100814501Y-99091769D01*
X100814501Y-99119350D01*
X100815004Y-99123335D01*
X100815919Y-99134968D01*
X100817291Y-99178627D01*
X100822880Y-99197861D01*
X100826826Y-99216917D01*
X100829336Y-99236793D01*
X100845415Y-99277405D01*
X100849198Y-99288452D01*
X100861383Y-99330392D01*
X100871581Y-99347636D01*
X100880137Y-99365101D01*
X100887515Y-99383733D01*
X100887516Y-99383734D01*
X100913181Y-99419060D01*
X100919594Y-99428823D01*
X100941827Y-99466417D01*
X100941830Y-99466420D01*
X100941831Y-99466421D01*
X100955996Y-99480586D01*
X100968628Y-99495376D01*
X100980407Y-99511588D01*
X101014059Y-99539427D01*
X101022700Y-99547290D01*
X102043400Y-100567990D01*
X102072349Y-100613559D01*
X102079190Y-100667112D01*
X102059464Y-100879999D01*
X102079564Y-101096925D01*
X102139181Y-101306457D01*
X102236287Y-101501471D01*
X102318048Y-101609740D01*
X102342175Y-101669401D01*
X102333151Y-101733119D01*
X102293406Y-101783733D01*
X102207811Y-101847809D01*
X102121647Y-101962910D01*
X102071402Y-102097624D01*
X102065000Y-102157176D01*
X102065000Y-102630000D01*
X104415000Y-102630000D01*
X104415000Y-102157176D01*
X104408597Y-102097624D01*
X104358352Y-101962910D01*
X104272188Y-101847811D01*
X104186594Y-101783735D01*
X104146848Y-101733121D01*
X104137824Y-101669402D01*
X104161951Y-101609741D01*
X104161952Y-101609740D01*
X104243712Y-101501472D01*
X104340817Y-101306459D01*
X104387384Y-101142793D01*
X104400435Y-101096925D01*
X104403577Y-101063008D01*
X104420536Y-100880000D01*
X104400435Y-100663077D01*
X104400435Y-100663074D01*
X104340818Y-100453542D01*
X104243712Y-100258528D01*
X104112426Y-100084676D01*
X103988427Y-99971637D01*
X103952699Y-99913934D01*
X103952699Y-99846066D01*
X103988427Y-99788363D01*
X104112426Y-99675323D01*
X104112427Y-99675322D01*
X104243712Y-99501472D01*
X104340817Y-99306459D01*
X104340818Y-99306457D01*
X104400435Y-99096925D01*
X104409670Y-98997257D01*
X104420536Y-98880000D01*
X104400435Y-98663077D01*
X104400435Y-98663074D01*
X104340818Y-98453542D01*
X104243712Y-98258528D01*
X104112426Y-98084676D01*
X103951432Y-97937912D01*
X103766208Y-97823226D01*
X103563073Y-97744531D01*
X103563070Y-97744530D01*
X103563069Y-97744530D01*
X103348926Y-97704500D01*
X103131074Y-97704500D01*
X102916931Y-97744530D01*
X102916926Y-97744531D01*
X102713791Y-97823226D01*
X102528567Y-97937912D01*
X102367573Y-98084676D01*
X102288455Y-98189447D01*
X102240633Y-98227687D01*
X102180343Y-98238381D01*
X102122286Y-98218923D01*
X102080619Y-98174055D01*
X102065501Y-98114720D01*
X102065501Y-97348112D01*
X102079625Y-97290637D01*
X102118781Y-97246256D01*
X102174048Y-97225079D01*
X102232832Y-97231929D01*
X102303199Y-97258175D01*
X102303202Y-97258175D01*
X102303203Y-97258176D01*
X102352852Y-97268976D01*
X102568840Y-97315961D01*
X102840000Y-97335355D01*
X103111160Y-97315961D01*
X103376801Y-97258175D01*
X103631513Y-97163172D01*
X103870113Y-97032887D01*
X104087742Y-96869971D01*
X104279971Y-96677742D01*
X104442887Y-96460113D01*
X104506668Y-96343305D01*
X104551466Y-96296546D01*
X104613729Y-96278746D01*
X104676475Y-96294760D01*
X104722591Y-96340222D01*
X104739500Y-96402733D01*
X104739500Y-105307267D01*
X104722591Y-105369778D01*
X104676475Y-105415240D01*
X104613729Y-105431254D01*
X104551466Y-105413454D01*
X104506668Y-105366694D01*
X104442887Y-105249887D01*
X104279971Y-105032258D01*
X104087742Y-104840029D01*
X103870113Y-104677113D01*
X103870114Y-104677113D01*
X103870108Y-104677109D01*
X103631519Y-104546831D01*
X103631517Y-104546830D01*
X103631513Y-104546828D01*
X103376801Y-104451825D01*
X103376796Y-104451823D01*
X103111161Y-104394039D01*
X102840000Y-104374644D01*
X102568838Y-104394039D01*
X102303203Y-104451823D01*
X102169150Y-104501823D01*
X102048487Y-104546828D01*
X102048484Y-104546829D01*
X102048480Y-104546831D01*
X101809891Y-104677109D01*
X101592255Y-104840031D01*
X101400031Y-105032255D01*
X101237109Y-105249891D01*
X101106831Y-105488480D01*
X101106829Y-105488484D01*
X101106828Y-105488487D01*
X101101828Y-105501893D01*
X101011823Y-105743203D01*
X100954039Y-106008838D01*
X100934644Y-106280000D01*
X100954039Y-106551161D01*
X101011823Y-106816796D01*
X101011825Y-106816801D01*
X101106828Y-107071513D01*
X101106830Y-107071517D01*
X101106831Y-107071519D01*
X101237109Y-107310108D01*
X101237113Y-107310113D01*
X101400029Y-107527742D01*
X101592258Y-107719971D01*
X101659046Y-107769968D01*
X101809891Y-107882890D01*
X102005802Y-107989864D01*
X102048487Y-108013172D01*
X102303199Y-108108175D01*
X102303202Y-108108175D01*
X102303203Y-108108176D01*
X102352852Y-108118976D01*
X102568840Y-108165961D01*
X102840000Y-108185355D01*
X103111160Y-108165961D01*
X103376801Y-108108175D01*
X103631513Y-108013172D01*
X103870113Y-107882887D01*
X104087742Y-107719971D01*
X104279971Y-107527742D01*
X104442887Y-107310113D01*
X104506668Y-107193305D01*
X104551466Y-107146546D01*
X104613729Y-107128746D01*
X104676475Y-107144760D01*
X104722591Y-107190222D01*
X104739500Y-107252733D01*
X104739500Y-115827438D01*
X104739394Y-115832563D01*
X104730525Y-116046987D01*
X104730513Y-116047271D01*
X104721948Y-116243428D01*
X104721114Y-116253357D01*
X104694568Y-116466321D01*
X104694459Y-116467169D01*
X104668422Y-116664936D01*
X104666844Y-116674196D01*
X104622971Y-116883439D01*
X104622671Y-116884832D01*
X104579321Y-117080371D01*
X104577105Y-117088914D01*
X104516186Y-117293538D01*
X104515602Y-117295444D01*
X104455302Y-117486689D01*
X104452559Y-117494475D01*
X104375008Y-117693224D01*
X104374051Y-117695603D01*
X104297260Y-117880993D01*
X104294099Y-117888001D01*
X104200437Y-118079587D01*
X104199026Y-118082383D01*
X104106346Y-118260420D01*
X104102880Y-118266636D01*
X103993743Y-118449793D01*
X103991800Y-118452946D01*
X103883920Y-118622282D01*
X103880257Y-118627710D01*
X103756399Y-118801184D01*
X103753858Y-118804616D01*
X103631626Y-118963912D01*
X103627872Y-118968567D01*
X103490107Y-119131226D01*
X103486908Y-119134858D01*
X103351254Y-119282899D01*
X103347512Y-119286807D01*
X103196807Y-119437512D01*
X103192899Y-119441254D01*
X103044858Y-119576908D01*
X103041226Y-119580107D01*
X102878567Y-119717872D01*
X102873912Y-119721626D01*
X102714616Y-119843858D01*
X102711184Y-119846399D01*
X102537710Y-119970257D01*
X102532282Y-119973920D01*
X102362946Y-120081800D01*
X102359793Y-120083743D01*
X102176636Y-120192880D01*
X102170420Y-120196346D01*
X101992383Y-120289026D01*
X101989587Y-120290437D01*
X101798001Y-120384099D01*
X101790993Y-120387260D01*
X101605603Y-120464051D01*
X101603224Y-120465008D01*
X101404475Y-120542559D01*
X101396689Y-120545302D01*
X101205444Y-120605602D01*
X101203538Y-120606186D01*
X100998914Y-120667105D01*
X100990371Y-120669321D01*
X100794832Y-120712671D01*
X100793439Y-120712971D01*
X100584196Y-120756844D01*
X100574936Y-120758422D01*
X100377169Y-120784459D01*
X100376321Y-120784568D01*
X100163357Y-120811114D01*
X100153428Y-120811948D01*
X99957381Y-120820508D01*
X99957097Y-120820520D01*
X99742563Y-120829394D01*
X99737438Y-120829500D01*
X91112733Y-120829500D01*
X91050222Y-120812591D01*
X91004760Y-120766475D01*
X90988746Y-120703729D01*
X91006546Y-120641466D01*
X91053305Y-120596668D01*
X91170113Y-120532887D01*
X91387742Y-120369971D01*
X91579971Y-120177742D01*
X91742887Y-119960113D01*
X91747606Y-119951472D01*
X91806367Y-119843858D01*
X91873172Y-119721513D01*
X91968175Y-119466801D01*
X92025961Y-119201160D01*
X92045355Y-118930000D01*
X92025961Y-118658840D01*
X91968175Y-118393199D01*
X91873172Y-118138487D01*
X91841010Y-118079587D01*
X91742890Y-117899891D01*
X91665551Y-117796579D01*
X91579971Y-117682258D01*
X91387742Y-117490029D01*
X91170113Y-117327113D01*
X91170114Y-117327113D01*
X91170108Y-117327109D01*
X90931519Y-117196831D01*
X90931517Y-117196830D01*
X90931513Y-117196828D01*
X90676801Y-117101825D01*
X90676796Y-117101823D01*
X90411161Y-117044039D01*
X90140000Y-117024644D01*
X89868838Y-117044039D01*
X89603200Y-117101824D01*
X89381586Y-117184482D01*
X89311895Y-117189466D01*
X89250572Y-117155981D01*
X89240803Y-117146212D01*
X89227907Y-117130114D01*
X89176776Y-117082099D01*
X89173979Y-117079388D01*
X89154471Y-117059880D01*
X89151291Y-117057413D01*
X89142425Y-117049840D01*
X89110583Y-117019939D01*
X89093025Y-117010286D01*
X89076765Y-116999605D01*
X89060937Y-116987328D01*
X89020852Y-116969981D01*
X89010362Y-116964842D01*
X88972092Y-116943803D01*
X88952692Y-116938822D01*
X88934285Y-116932520D01*
X88915898Y-116924563D01*
X88872759Y-116917730D01*
X88861325Y-116915362D01*
X88819020Y-116904501D01*
X88798985Y-116904501D01*
X88779587Y-116902974D01*
X88772163Y-116901798D01*
X88759806Y-116899841D01*
X88759805Y-116899841D01*
X88734469Y-116902236D01*
X88716326Y-116903951D01*
X88704657Y-116904501D01*
X86572743Y-116904501D01*
X86552236Y-116902236D01*
X86482126Y-116904440D01*
X86478231Y-116904501D01*
X86450649Y-116904501D01*
X86446664Y-116905004D01*
X86435032Y-116905919D01*
X86391368Y-116907291D01*
X86372128Y-116912881D01*
X86353080Y-116916826D01*
X86333208Y-116919336D01*
X86292598Y-116935414D01*
X86281553Y-116939195D01*
X86239609Y-116951382D01*
X86222364Y-116961580D01*
X86204903Y-116970134D01*
X86186266Y-116977513D01*
X86150930Y-117003186D01*
X86141173Y-117009596D01*
X86103579Y-117031830D01*
X86089412Y-117045997D01*
X86074623Y-117058627D01*
X86058412Y-117070405D01*
X86030571Y-117104059D01*
X86022710Y-117112698D01*
X84998465Y-118136942D01*
X84947465Y-118167712D01*
X84888000Y-118171150D01*
X84831570Y-118160602D01*
X84798926Y-118154500D01*
X84581074Y-118154500D01*
X84427756Y-118183160D01*
X84366926Y-118194531D01*
X84163791Y-118273226D01*
X83978567Y-118387911D01*
X83817573Y-118534677D01*
X83796170Y-118563020D01*
X83788955Y-118572575D01*
X83788953Y-118572577D01*
X83745271Y-118608850D01*
X83689999Y-118621849D01*
X83634728Y-118608849D01*
X83591046Y-118572575D01*
X83562428Y-118534678D01*
X83401432Y-118387912D01*
X83216208Y-118273226D01*
X83013073Y-118194531D01*
X83013070Y-118194530D01*
X83013069Y-118194530D01*
X82798926Y-118154500D01*
X82581074Y-118154500D01*
X82427756Y-118183160D01*
X82366926Y-118194531D01*
X82163791Y-118273226D01*
X81978567Y-118387912D01*
X81817573Y-118534676D01*
X81686287Y-118708528D01*
X81589181Y-118903542D01*
X81529564Y-119113074D01*
X81509464Y-119330000D01*
X81529564Y-119546925D01*
X81589181Y-119756457D01*
X81686287Y-119951471D01*
X81817573Y-120125323D01*
X81929031Y-120226929D01*
X81978568Y-120272088D01*
X81989840Y-120279067D01*
X82163791Y-120386773D01*
X82322745Y-120448352D01*
X82366931Y-120465470D01*
X82581074Y-120505500D01*
X82798924Y-120505500D01*
X82798926Y-120505500D01*
X83013069Y-120465470D01*
X83160359Y-120408409D01*
X83216208Y-120386773D01*
X83220527Y-120384099D01*
X83401432Y-120272088D01*
X83562427Y-120125322D01*
X83591047Y-120087422D01*
X83634725Y-120051151D01*
X83689997Y-120038150D01*
X83745270Y-120051149D01*
X83788953Y-120087423D01*
X83817573Y-120125323D01*
X83929031Y-120226929D01*
X83978568Y-120272088D01*
X83989840Y-120279067D01*
X84163791Y-120386773D01*
X84322745Y-120448352D01*
X84366931Y-120465470D01*
X84581074Y-120505500D01*
X84798924Y-120505500D01*
X84798926Y-120505500D01*
X85013069Y-120465470D01*
X85160359Y-120408409D01*
X85216208Y-120386773D01*
X85220527Y-120384099D01*
X85401432Y-120272088D01*
X85412781Y-120261741D01*
X85473701Y-120231458D01*
X85541435Y-120237877D01*
X85595586Y-120279067D01*
X85657810Y-120362188D01*
X85772910Y-120448352D01*
X85907624Y-120498597D01*
X85967176Y-120505000D01*
X86440000Y-120505000D01*
X86440000Y-119580000D01*
X86940000Y-119580000D01*
X86940000Y-120505000D01*
X87412824Y-120505000D01*
X87472375Y-120498597D01*
X87607089Y-120448352D01*
X87722188Y-120362188D01*
X87808352Y-120247089D01*
X87858597Y-120112375D01*
X87865000Y-120052824D01*
X87865000Y-119580000D01*
X86940000Y-119580000D01*
X86440000Y-119580000D01*
X86440000Y-119204000D01*
X86456613Y-119142000D01*
X86502000Y-119096613D01*
X86564000Y-119080000D01*
X87865000Y-119080000D01*
X87865000Y-118607176D01*
X87858597Y-118547624D01*
X87808352Y-118412910D01*
X87764111Y-118353812D01*
X87739872Y-118290554D01*
X87752494Y-118223997D01*
X87798211Y-118174006D01*
X87863378Y-118155501D01*
X88221888Y-118155501D01*
X88279363Y-118169625D01*
X88323744Y-118208781D01*
X88344921Y-118264048D01*
X88338070Y-118322832D01*
X88326516Y-118353812D01*
X88311823Y-118393203D01*
X88254039Y-118658838D01*
X88234644Y-118930000D01*
X88254039Y-119201161D01*
X88311823Y-119466796D01*
X88311825Y-119466801D01*
X88406828Y-119721513D01*
X88406830Y-119721517D01*
X88406831Y-119721519D01*
X88537109Y-119960108D01*
X88537113Y-119960113D01*
X88700029Y-120177742D01*
X88892258Y-120369971D01*
X89109887Y-120532887D01*
X89226694Y-120596668D01*
X89273454Y-120641466D01*
X89291254Y-120703729D01*
X89275240Y-120766475D01*
X89229778Y-120812591D01*
X89167267Y-120829500D01*
X80233374Y-120829500D01*
X80170864Y-120812591D01*
X80125401Y-120766475D01*
X80109387Y-120703729D01*
X80127187Y-120641467D01*
X80173947Y-120596668D01*
X80309839Y-120522465D01*
X80435124Y-120428677D01*
X79280001Y-119273553D01*
X79280000Y-119273553D01*
X78124874Y-120428677D01*
X78124875Y-120428678D01*
X78250157Y-120522463D01*
X78386053Y-120596668D01*
X78432813Y-120641467D01*
X78450613Y-120703729D01*
X78434599Y-120766475D01*
X78389136Y-120812591D01*
X78326626Y-120829500D01*
X69742562Y-120829500D01*
X69737437Y-120829394D01*
X69522901Y-120820520D01*
X69522617Y-120820508D01*
X69326570Y-120811948D01*
X69316641Y-120811114D01*
X69103677Y-120784568D01*
X69102829Y-120784459D01*
X68905062Y-120758422D01*
X68895802Y-120756844D01*
X68686559Y-120712971D01*
X68685166Y-120712671D01*
X68489627Y-120669321D01*
X68481084Y-120667105D01*
X68276460Y-120606186D01*
X68274554Y-120605602D01*
X68083309Y-120545302D01*
X68075523Y-120542559D01*
X67979266Y-120505000D01*
X67876734Y-120464991D01*
X67874395Y-120464051D01*
X67689005Y-120387260D01*
X67681997Y-120384099D01*
X67490411Y-120290437D01*
X67487615Y-120289026D01*
X67309578Y-120196346D01*
X67303362Y-120192880D01*
X67120205Y-120083743D01*
X67117052Y-120081800D01*
X66947716Y-119973920D01*
X66942288Y-119970257D01*
X66768814Y-119846399D01*
X66765382Y-119843858D01*
X66606086Y-119721626D01*
X66601431Y-119717872D01*
X66438772Y-119580107D01*
X66435155Y-119576921D01*
X66287076Y-119441232D01*
X66283191Y-119437512D01*
X66132486Y-119286807D01*
X66128769Y-119282925D01*
X65993072Y-119134838D01*
X65989891Y-119131226D01*
X65852126Y-118968567D01*
X65848372Y-118963912D01*
X65814677Y-118920000D01*
X77375146Y-118920000D01*
X77394536Y-119191089D01*
X77452305Y-119456654D01*
X77547287Y-119711307D01*
X77677536Y-119949842D01*
X77771320Y-120075124D01*
X77771321Y-120075124D01*
X78926446Y-118920001D01*
X79633553Y-118920001D01*
X80788677Y-120075124D01*
X80882465Y-119949839D01*
X81012712Y-119711307D01*
X81107694Y-119456654D01*
X81165463Y-119191089D01*
X81184853Y-118920000D01*
X81165463Y-118648910D01*
X81107694Y-118383345D01*
X81012712Y-118128692D01*
X80882463Y-117890157D01*
X80788678Y-117764875D01*
X80788677Y-117764874D01*
X79633553Y-118920000D01*
X79633553Y-118920001D01*
X78926446Y-118920001D01*
X78926446Y-118919999D01*
X77771321Y-117764875D01*
X77677534Y-117890162D01*
X77547286Y-118128692D01*
X77452305Y-118383345D01*
X77394536Y-118648910D01*
X77375146Y-118920000D01*
X65814677Y-118920000D01*
X65726140Y-118804616D01*
X65723599Y-118801184D01*
X65599741Y-118627710D01*
X65596078Y-118622282D01*
X65488198Y-118452946D01*
X65486255Y-118449793D01*
X65485213Y-118448045D01*
X65452535Y-118393203D01*
X65377118Y-118266636D01*
X65373652Y-118260420D01*
X65280972Y-118082383D01*
X65279561Y-118079587D01*
X65267982Y-118055903D01*
X65185886Y-117887972D01*
X65182752Y-117881024D01*
X65105911Y-117695513D01*
X65105046Y-117693363D01*
X65027431Y-117494453D01*
X65024696Y-117486689D01*
X65006534Y-117429087D01*
X64964359Y-117295325D01*
X64963850Y-117293665D01*
X64902889Y-117088901D01*
X64900680Y-117080386D01*
X64860194Y-116897764D01*
X66885787Y-116897764D01*
X66915413Y-117167016D01*
X66957267Y-117327109D01*
X66983928Y-117429088D01*
X67037720Y-117555670D01*
X67089871Y-117678392D01*
X67230982Y-117909611D01*
X67320253Y-118016881D01*
X67404255Y-118117820D01*
X67605998Y-118298582D01*
X67831910Y-118448044D01*
X67938211Y-118497875D01*
X68077177Y-118563021D01*
X68336562Y-118641058D01*
X68336569Y-118641060D01*
X68604561Y-118680500D01*
X68807631Y-118680500D01*
X68807634Y-118680500D01*
X69010156Y-118665677D01*
X69085425Y-118648910D01*
X69274553Y-118606780D01*
X69527558Y-118510014D01*
X69763777Y-118377441D01*
X69978177Y-118211888D01*
X70166186Y-118016881D01*
X70323799Y-117796579D01*
X70447656Y-117555675D01*
X70496903Y-117411321D01*
X78124875Y-117411321D01*
X79280000Y-118566446D01*
X79280001Y-118566446D01*
X80435124Y-117411321D01*
X80435124Y-117411320D01*
X80309842Y-117317536D01*
X80071307Y-117187287D01*
X79816654Y-117092305D01*
X79551089Y-117034536D01*
X79280000Y-117015146D01*
X79008910Y-117034536D01*
X78743345Y-117092305D01*
X78488692Y-117187286D01*
X78250162Y-117317534D01*
X78124875Y-117411321D01*
X70496903Y-117411321D01*
X70535118Y-117299305D01*
X70584319Y-117032933D01*
X70589259Y-116897764D01*
X98885787Y-116897764D01*
X98915413Y-117167016D01*
X98957267Y-117327109D01*
X98983928Y-117429088D01*
X99037720Y-117555670D01*
X99089871Y-117678392D01*
X99230982Y-117909611D01*
X99320253Y-118016881D01*
X99404255Y-118117820D01*
X99605998Y-118298582D01*
X99831910Y-118448044D01*
X99938211Y-118497875D01*
X100077177Y-118563021D01*
X100336562Y-118641058D01*
X100336569Y-118641060D01*
X100604561Y-118680500D01*
X100807631Y-118680500D01*
X100807634Y-118680500D01*
X101010156Y-118665677D01*
X101085425Y-118648910D01*
X101274553Y-118606780D01*
X101527558Y-118510014D01*
X101763777Y-118377441D01*
X101978177Y-118211888D01*
X102166186Y-118016881D01*
X102323799Y-117796579D01*
X102447656Y-117555675D01*
X102535118Y-117299305D01*
X102584319Y-117032933D01*
X102594212Y-116762235D01*
X102564586Y-116492982D01*
X102496072Y-116230912D01*
X102390130Y-115981610D01*
X102299168Y-115832563D01*
X102249017Y-115750388D01*
X102075746Y-115542181D01*
X101970758Y-115448112D01*
X101874002Y-115361418D01*
X101648090Y-115211956D01*
X101648086Y-115211954D01*
X101402822Y-115096978D01*
X101143437Y-115018941D01*
X101143431Y-115018940D01*
X100875439Y-114979500D01*
X100672369Y-114979500D01*
X100672366Y-114979500D01*
X100469843Y-114994322D01*
X100205449Y-115053219D01*
X99952441Y-115149986D01*
X99716223Y-115282559D01*
X99501825Y-115448109D01*
X99313813Y-115643120D01*
X99156201Y-115863420D01*
X99032342Y-116104329D01*
X98944881Y-116360695D01*
X98895680Y-116627066D01*
X98885787Y-116897764D01*
X70589259Y-116897764D01*
X70594212Y-116762235D01*
X70564586Y-116492982D01*
X70496072Y-116230912D01*
X70390130Y-115981610D01*
X70299168Y-115832563D01*
X70249017Y-115750388D01*
X70075746Y-115542181D01*
X69970758Y-115448112D01*
X69874002Y-115361418D01*
X69648090Y-115211956D01*
X69648086Y-115211954D01*
X69402822Y-115096978D01*
X69143437Y-115018941D01*
X69143431Y-115018940D01*
X68875439Y-114979500D01*
X68672369Y-114979500D01*
X68672366Y-114979500D01*
X68469843Y-114994322D01*
X68205449Y-115053219D01*
X67952441Y-115149986D01*
X67716223Y-115282559D01*
X67501825Y-115448109D01*
X67313813Y-115643120D01*
X67156201Y-115863420D01*
X67032342Y-116104329D01*
X66944881Y-116360695D01*
X66895680Y-116627066D01*
X66885787Y-116897764D01*
X64860194Y-116897764D01*
X64857312Y-116884765D01*
X64857027Y-116883439D01*
X64851495Y-116857057D01*
X64813153Y-116674192D01*
X64811576Y-116664936D01*
X64785490Y-116466793D01*
X64785483Y-116466743D01*
X64758881Y-116253330D01*
X64758052Y-116243455D01*
X64749486Y-116047271D01*
X64740605Y-115832562D01*
X64740500Y-115827439D01*
X64740500Y-107302733D01*
X64757409Y-107240222D01*
X64803525Y-107194760D01*
X64866271Y-107178746D01*
X64928534Y-107196546D01*
X64973331Y-107243305D01*
X65037113Y-107360113D01*
X65200029Y-107577742D01*
X65392258Y-107769971D01*
X65608281Y-107931685D01*
X65609891Y-107932890D01*
X65805802Y-108039864D01*
X65848487Y-108063172D01*
X66103199Y-108158175D01*
X66103202Y-108158175D01*
X66103203Y-108158176D01*
X66138986Y-108165960D01*
X66368840Y-108215961D01*
X66640000Y-108235355D01*
X66911160Y-108215961D01*
X67176801Y-108158175D01*
X67431513Y-108063172D01*
X67670113Y-107932887D01*
X67887742Y-107769971D01*
X68079971Y-107577742D01*
X68242887Y-107360113D01*
X68373172Y-107121513D01*
X68468175Y-106866801D01*
X68525961Y-106601160D01*
X68545355Y-106330000D01*
X68525961Y-106058840D01*
X68468175Y-105793199D01*
X68385517Y-105571584D01*
X68380533Y-105501893D01*
X68414016Y-105440572D01*
X68423785Y-105430803D01*
X68439886Y-105417905D01*
X68441873Y-105415788D01*
X68441876Y-105415787D01*
X68487931Y-105366742D01*
X68490612Y-105363977D01*
X68497322Y-105357267D01*
X68510119Y-105344471D01*
X68512580Y-105341296D01*
X68520151Y-105332432D01*
X68550061Y-105300583D01*
X68559712Y-105283027D01*
X68570392Y-105266768D01*
X68582673Y-105250937D01*
X68600017Y-105210852D01*
X68605159Y-105200357D01*
X68626196Y-105162093D01*
X68631177Y-105142689D01*
X68637479Y-105124284D01*
X68645437Y-105105896D01*
X68652269Y-105062749D01*
X68654638Y-105051317D01*
X68665499Y-105009021D01*
X68665499Y-104988985D01*
X68667026Y-104969586D01*
X68670159Y-104949805D01*
X68666049Y-104906326D01*
X68665499Y-104894657D01*
X68665499Y-103130000D01*
X102065000Y-103130000D01*
X102065000Y-103602824D01*
X102071402Y-103662375D01*
X102121647Y-103797089D01*
X102207811Y-103912188D01*
X102322910Y-103998352D01*
X102457624Y-104048597D01*
X102517176Y-104055000D01*
X102990000Y-104055000D01*
X102990000Y-103130000D01*
X103490000Y-103130000D01*
X103490000Y-104055000D01*
X103962824Y-104055000D01*
X104022375Y-104048597D01*
X104157089Y-103998352D01*
X104272188Y-103912188D01*
X104358352Y-103797089D01*
X104408597Y-103662375D01*
X104415000Y-103602824D01*
X104415000Y-103130000D01*
X103490000Y-103130000D01*
X102990000Y-103130000D01*
X102065000Y-103130000D01*
X68665499Y-103130000D01*
X68665499Y-102762743D01*
X68667763Y-102742236D01*
X68666184Y-102692000D01*
X68665560Y-102672126D01*
X68665499Y-102668231D01*
X68665499Y-102640652D01*
X68664996Y-102636671D01*
X68664079Y-102625018D01*
X68662708Y-102581372D01*
X68657119Y-102562139D01*
X68653173Y-102543081D01*
X68650663Y-102523205D01*
X68634587Y-102482603D01*
X68630803Y-102471552D01*
X68624880Y-102451167D01*
X68618617Y-102429609D01*
X68608413Y-102412354D01*
X68599860Y-102394894D01*
X68592485Y-102376268D01*
X68592485Y-102376267D01*
X68566807Y-102340924D01*
X68560400Y-102331170D01*
X68538168Y-102293578D01*
X68524005Y-102279415D01*
X68511366Y-102264616D01*
X68499594Y-102248412D01*
X68465940Y-102220572D01*
X68457298Y-102212708D01*
X67436599Y-101192009D01*
X67407650Y-101146439D01*
X67400809Y-101092887D01*
X67400938Y-101091489D01*
X67420536Y-100880000D01*
X67400435Y-100663077D01*
X67400435Y-100663074D01*
X67340818Y-100453542D01*
X67243712Y-100258528D01*
X67112426Y-100084676D01*
X66988427Y-99971637D01*
X66952699Y-99913934D01*
X66952699Y-99846066D01*
X66988427Y-99788363D01*
X67112426Y-99675323D01*
X67112427Y-99675322D01*
X67243712Y-99501472D01*
X67340817Y-99306459D01*
X67340818Y-99306457D01*
X67400435Y-99096925D01*
X67409670Y-98997257D01*
X67420536Y-98880000D01*
X67400435Y-98663077D01*
X67400435Y-98663074D01*
X67340818Y-98453542D01*
X67243712Y-98258528D01*
X67112426Y-98084676D01*
X66951432Y-97937912D01*
X66766208Y-97823226D01*
X66563073Y-97744531D01*
X66563070Y-97744530D01*
X66563069Y-97744530D01*
X66348926Y-97704500D01*
X66131074Y-97704500D01*
X65916931Y-97744530D01*
X65916926Y-97744531D01*
X65713791Y-97823226D01*
X65528567Y-97937912D01*
X65367573Y-98084676D01*
X65236287Y-98258528D01*
X65139181Y-98453542D01*
X65079564Y-98663074D01*
X65059464Y-98879999D01*
X65079564Y-99096925D01*
X65139181Y-99306457D01*
X65236287Y-99501471D01*
X65367573Y-99675323D01*
X65491572Y-99788363D01*
X65527300Y-99846066D01*
X65527300Y-99913934D01*
X65491572Y-99971637D01*
X65367573Y-100084676D01*
X65236287Y-100258528D01*
X65139181Y-100453542D01*
X65079564Y-100663074D01*
X65059464Y-100879999D01*
X65079564Y-101096925D01*
X65139181Y-101306457D01*
X65236287Y-101501471D01*
X65318048Y-101609740D01*
X65342175Y-101669401D01*
X65333151Y-101733119D01*
X65293406Y-101783733D01*
X65207811Y-101847809D01*
X65121647Y-101962910D01*
X65071402Y-102097624D01*
X65065000Y-102157176D01*
X65065000Y-102630000D01*
X66366000Y-102630000D01*
X66428000Y-102646613D01*
X66473387Y-102692000D01*
X66490000Y-102754000D01*
X66490000Y-104055000D01*
X66962824Y-104055000D01*
X67022375Y-104048597D01*
X67157089Y-103998352D01*
X67216188Y-103954111D01*
X67279446Y-103929872D01*
X67346003Y-103942494D01*
X67395994Y-103988211D01*
X67414499Y-104053378D01*
X67414499Y-104411888D01*
X67400375Y-104469363D01*
X67361219Y-104513744D01*
X67305952Y-104534921D01*
X67247167Y-104528070D01*
X67176801Y-104501825D01*
X67176796Y-104501823D01*
X66911161Y-104444039D01*
X66640000Y-104424644D01*
X66368838Y-104444039D01*
X66103203Y-104501823D01*
X65958956Y-104555624D01*
X65848487Y-104596828D01*
X65848484Y-104596829D01*
X65848480Y-104596831D01*
X65609891Y-104727109D01*
X65392255Y-104890031D01*
X65200031Y-105082255D01*
X65037113Y-105299886D01*
X65033083Y-105307267D01*
X64973331Y-105416694D01*
X64928534Y-105463454D01*
X64866271Y-105481254D01*
X64803525Y-105465240D01*
X64757409Y-105419778D01*
X64740500Y-105357267D01*
X64740500Y-103130000D01*
X65065000Y-103130000D01*
X65065000Y-103602824D01*
X65071402Y-103662375D01*
X65121647Y-103797089D01*
X65207811Y-103912188D01*
X65322910Y-103998352D01*
X65457624Y-104048597D01*
X65517176Y-104055000D01*
X65990000Y-104055000D01*
X65990000Y-103130000D01*
X65065000Y-103130000D01*
X64740500Y-103130000D01*
X64740500Y-96988677D01*
X65484874Y-96988677D01*
X65484875Y-96988678D01*
X65610157Y-97082463D01*
X65848692Y-97212712D01*
X66103345Y-97307694D01*
X66368910Y-97365463D01*
X66640000Y-97384853D01*
X66911089Y-97365463D01*
X67176654Y-97307694D01*
X67431307Y-97212712D01*
X67669839Y-97082465D01*
X67795124Y-96988677D01*
X66640001Y-95833553D01*
X66640000Y-95833553D01*
X65484874Y-96988677D01*
X64740500Y-96988677D01*
X64740500Y-96451688D01*
X64757409Y-96389178D01*
X64803525Y-96343715D01*
X64866271Y-96327701D01*
X64928533Y-96345501D01*
X64973332Y-96392261D01*
X65037536Y-96509842D01*
X65131320Y-96635124D01*
X66286446Y-95480000D01*
X66286446Y-95479999D01*
X66993553Y-95479999D01*
X68148677Y-96635124D01*
X68242465Y-96509839D01*
X68372712Y-96271307D01*
X68467694Y-96016654D01*
X68525463Y-95751089D01*
X68544853Y-95479999D01*
X68525463Y-95208910D01*
X68467694Y-94943345D01*
X68372712Y-94688692D01*
X68242463Y-94450157D01*
X68148678Y-94324875D01*
X68148678Y-94324874D01*
X66993553Y-95479999D01*
X66286446Y-95479999D01*
X66286446Y-95479998D01*
X65131321Y-94324875D01*
X65037534Y-94450162D01*
X64973332Y-94567740D01*
X64928533Y-94614500D01*
X64866271Y-94632300D01*
X64803525Y-94616286D01*
X64757409Y-94570823D01*
X64740500Y-94508313D01*
X64740500Y-93971321D01*
X65484875Y-93971321D01*
X66640000Y-95126446D01*
X66640001Y-95126446D01*
X67795124Y-93971321D01*
X67795124Y-93971320D01*
X67669842Y-93877536D01*
X67431307Y-93747287D01*
X67176654Y-93652305D01*
X66911089Y-93594536D01*
X66640000Y-93575146D01*
X66368910Y-93594536D01*
X66103345Y-93652305D01*
X65848692Y-93747286D01*
X65610162Y-93877534D01*
X65484875Y-93971321D01*
X64740500Y-93971321D01*
X64740500Y-85832561D01*
X64740606Y-85827437D01*
X64741882Y-85796579D01*
X64749488Y-85612687D01*
X64758052Y-85416540D01*
X64758881Y-85406673D01*
X64785491Y-85193195D01*
X64811578Y-84995045D01*
X64813151Y-84985816D01*
X64831613Y-84897764D01*
X66885787Y-84897764D01*
X66915413Y-85167016D01*
X66926898Y-85210946D01*
X66983928Y-85429088D01*
X67089870Y-85678390D01*
X67089871Y-85678392D01*
X67230982Y-85909611D01*
X67320253Y-86016881D01*
X67404255Y-86117820D01*
X67605998Y-86298582D01*
X67831910Y-86448044D01*
X67938211Y-86497876D01*
X68077177Y-86563021D01*
X68336562Y-86641058D01*
X68336569Y-86641060D01*
X68604561Y-86680500D01*
X68807631Y-86680500D01*
X68807634Y-86680500D01*
X69010156Y-86665677D01*
X69010156Y-86665676D01*
X69274553Y-86606780D01*
X69527558Y-86510014D01*
X69763777Y-86377441D01*
X69978177Y-86211888D01*
X70166186Y-86016881D01*
X70323799Y-85796579D01*
X70447656Y-85555675D01*
X70535118Y-85299305D01*
X70584319Y-85032933D01*
X70589259Y-84897764D01*
X98885787Y-84897764D01*
X98915413Y-85167016D01*
X98926898Y-85210946D01*
X98983928Y-85429088D01*
X99089870Y-85678390D01*
X99089871Y-85678392D01*
X99230982Y-85909611D01*
X99320253Y-86016881D01*
X99404255Y-86117820D01*
X99605998Y-86298582D01*
X99831910Y-86448044D01*
X99938211Y-86497876D01*
X100077177Y-86563021D01*
X100336562Y-86641058D01*
X100336569Y-86641060D01*
X100604561Y-86680500D01*
X100807631Y-86680500D01*
X100807634Y-86680500D01*
X101010156Y-86665677D01*
X101010156Y-86665676D01*
X101274553Y-86606780D01*
X101527558Y-86510014D01*
X101763777Y-86377441D01*
X101978177Y-86211888D01*
X102166186Y-86016881D01*
X102323799Y-85796579D01*
X102447656Y-85555675D01*
X102535118Y-85299305D01*
X102584319Y-85032933D01*
X102594212Y-84762235D01*
X102564586Y-84492982D01*
X102496072Y-84230912D01*
X102390130Y-83981610D01*
X102249018Y-83750390D01*
X102249017Y-83750388D01*
X102075746Y-83542181D01*
X102034807Y-83505500D01*
X101874002Y-83361418D01*
X101648090Y-83211956D01*
X101637629Y-83207052D01*
X101402822Y-83096978D01*
X101143437Y-83018941D01*
X101143431Y-83018940D01*
X100875439Y-82979500D01*
X100672369Y-82979500D01*
X100672366Y-82979500D01*
X100469843Y-82994322D01*
X100205449Y-83053219D01*
X99952441Y-83149986D01*
X99716223Y-83282559D01*
X99501825Y-83448109D01*
X99313813Y-83643120D01*
X99156201Y-83863420D01*
X99032342Y-84104329D01*
X98944881Y-84360695D01*
X98895680Y-84627066D01*
X98885787Y-84897764D01*
X70589259Y-84897764D01*
X70594212Y-84762235D01*
X70564586Y-84492982D01*
X70496072Y-84230912D01*
X70390130Y-83981610D01*
X70249018Y-83750390D01*
X70249017Y-83750388D01*
X70075746Y-83542181D01*
X70034807Y-83505500D01*
X69874002Y-83361418D01*
X69648090Y-83211956D01*
X69637629Y-83207052D01*
X69402822Y-83096978D01*
X69143437Y-83018941D01*
X69143431Y-83018940D01*
X68875439Y-82979500D01*
X68672369Y-82979500D01*
X68672366Y-82979500D01*
X68469843Y-82994322D01*
X68205449Y-83053219D01*
X67952441Y-83149986D01*
X67716223Y-83282559D01*
X67501825Y-83448109D01*
X67313813Y-83643120D01*
X67156201Y-83863420D01*
X67032342Y-84104329D01*
X66944881Y-84360695D01*
X66895680Y-84627066D01*
X66885787Y-84897764D01*
X64831613Y-84897764D01*
X64857062Y-84776392D01*
X64857297Y-84775302D01*
X64900684Y-84579599D01*
X64902885Y-84571111D01*
X64963875Y-84366253D01*
X64964337Y-84364743D01*
X65024704Y-84173284D01*
X65027423Y-84165565D01*
X65105074Y-83966564D01*
X65105883Y-83964553D01*
X65182762Y-83778951D01*
X65185874Y-83772051D01*
X65279587Y-83580357D01*
X65280945Y-83577667D01*
X65373667Y-83399551D01*
X65377118Y-83393362D01*
X65486295Y-83210139D01*
X65488150Y-83207129D01*
X65596090Y-83037697D01*
X65599721Y-83032316D01*
X65723635Y-82858764D01*
X65726102Y-82855433D01*
X65848401Y-82696048D01*
X65852114Y-82691445D01*
X65989903Y-82528758D01*
X65993027Y-82525211D01*
X66128811Y-82377028D01*
X66132440Y-82373238D01*
X66283238Y-82222440D01*
X66287028Y-82218811D01*
X66435211Y-82083027D01*
X66438758Y-82079903D01*
X66601445Y-81942114D01*
X66606048Y-81938401D01*
X66765433Y-81816102D01*
X66768764Y-81813635D01*
X66942316Y-81689721D01*
X66947697Y-81686090D01*
X67117129Y-81578150D01*
X67120139Y-81576295D01*
X67303373Y-81467111D01*
X67309551Y-81463667D01*
X67487667Y-81370945D01*
X67490357Y-81369587D01*
X67682051Y-81275874D01*
X67688951Y-81272762D01*
X67874553Y-81195883D01*
X67876564Y-81195074D01*
X68075565Y-81117423D01*
X68083284Y-81114704D01*
X68274743Y-81054337D01*
X68276253Y-81053875D01*
X68481111Y-80992885D01*
X68489599Y-80990684D01*
X68685302Y-80947297D01*
X68686392Y-80947062D01*
X68895816Y-80903151D01*
X68905045Y-80901578D01*
X69103195Y-80875491D01*
X69316673Y-80848881D01*
X69326540Y-80848052D01*
X69522628Y-80839490D01*
X69737437Y-80830605D01*
X69742561Y-80830500D01*
X78317267Y-80830500D01*
X78379778Y-80847409D01*
G37*
%TD.AperFunction*%
%TD*%
%TA.AperFunction,Conductor*%
%TO.N,GND*%
G36*
X123389778Y-35837409D02*
G01*
X123435240Y-35883525D01*
X123451254Y-35946271D01*
X123433454Y-36008534D01*
X123386694Y-36053331D01*
X123322004Y-36088655D01*
X123269886Y-36117113D01*
X123052255Y-36280031D01*
X122860031Y-36472255D01*
X122697109Y-36689891D01*
X122566831Y-36928480D01*
X122471823Y-37183203D01*
X122414039Y-37448838D01*
X122394644Y-37720000D01*
X122414039Y-37991161D01*
X122471823Y-38256796D01*
X122473797Y-38262088D01*
X122566828Y-38511513D01*
X122566830Y-38511517D01*
X122566831Y-38511519D01*
X122697109Y-38750108D01*
X122697113Y-38750113D01*
X122860029Y-38967742D01*
X123052258Y-39159971D01*
X123268281Y-39321685D01*
X123269891Y-39322890D01*
X123465802Y-39429864D01*
X123508487Y-39453172D01*
X123763199Y-39548175D01*
X123763202Y-39548175D01*
X123763203Y-39548176D01*
X123812852Y-39558976D01*
X124028840Y-39605961D01*
X124300000Y-39625355D01*
X124571160Y-39605961D01*
X124836801Y-39548175D01*
X125058417Y-39465516D01*
X125104696Y-39457733D01*
X125150558Y-39467710D01*
X125189427Y-39494017D01*
X125199196Y-39503786D01*
X125212097Y-39519888D01*
X125214211Y-39521873D01*
X125214213Y-39521876D01*
X125255965Y-39561084D01*
X125263239Y-39567915D01*
X125266034Y-39570624D01*
X125285529Y-39590119D01*
X125288703Y-39592581D01*
X125297567Y-39600152D01*
X125329417Y-39630061D01*
X125339913Y-39635831D01*
X125346973Y-39639713D01*
X125363230Y-39650391D01*
X125379063Y-39662673D01*
X125395184Y-39669648D01*
X125419155Y-39680022D01*
X125429642Y-39685159D01*
X125467907Y-39706196D01*
X125487315Y-39711179D01*
X125505709Y-39717477D01*
X125524104Y-39725437D01*
X125567253Y-39732270D01*
X125578679Y-39734637D01*
X125594221Y-39738628D01*
X125620979Y-39745499D01*
X125620980Y-39745499D01*
X125641015Y-39745499D01*
X125660412Y-39747025D01*
X125680195Y-39750159D01*
X125723673Y-39746049D01*
X125735343Y-39745499D01*
X127867257Y-39745499D01*
X127887763Y-39747763D01*
X127890666Y-39747671D01*
X127890668Y-39747672D01*
X127957873Y-39745560D01*
X127961769Y-39745499D01*
X127989350Y-39745499D01*
X127989351Y-39745499D01*
X127993320Y-39744997D01*
X128004966Y-39744079D01*
X128048628Y-39742708D01*
X128067860Y-39737119D01*
X128086919Y-39733173D01*
X128094092Y-39732267D01*
X128106793Y-39730663D01*
X128147408Y-39714581D01*
X128158445Y-39710802D01*
X128200391Y-39698617D01*
X128217630Y-39688421D01*
X128235103Y-39679861D01*
X128253733Y-39672485D01*
X128289065Y-39646813D01*
X128298831Y-39640399D01*
X128336419Y-39618170D01*
X128336418Y-39618170D01*
X128336421Y-39618169D01*
X128350586Y-39604003D01*
X128365374Y-39591372D01*
X128381588Y-39579593D01*
X128409439Y-39545925D01*
X128417280Y-39537308D01*
X129441535Y-38513054D01*
X129492534Y-38482286D01*
X129551995Y-38478848D01*
X129641074Y-38495500D01*
X129858924Y-38495500D01*
X129858926Y-38495500D01*
X130073069Y-38455470D01*
X130208496Y-38403004D01*
X130276208Y-38376773D01*
X130282641Y-38372790D01*
X130461432Y-38262088D01*
X130472781Y-38251741D01*
X130533701Y-38221458D01*
X130601435Y-38227877D01*
X130655586Y-38269067D01*
X130717810Y-38352188D01*
X130832910Y-38438352D01*
X130967624Y-38488597D01*
X131027176Y-38495000D01*
X131500000Y-38495000D01*
X131500000Y-37570000D01*
X132000000Y-37570000D01*
X132000000Y-38495000D01*
X132472824Y-38495000D01*
X132532375Y-38488597D01*
X132667089Y-38438352D01*
X132782188Y-38352188D01*
X132868352Y-38237089D01*
X132918597Y-38102375D01*
X132925000Y-38042824D01*
X132925000Y-37570000D01*
X132000000Y-37570000D01*
X131500000Y-37570000D01*
X131500000Y-36145000D01*
X132000000Y-36145000D01*
X132000000Y-37070000D01*
X132925000Y-37070000D01*
X132925000Y-36597176D01*
X132918597Y-36537624D01*
X132868352Y-36402910D01*
X132782188Y-36287811D01*
X132667089Y-36201647D01*
X132532375Y-36151402D01*
X132472824Y-36145000D01*
X132000000Y-36145000D01*
X131500000Y-36145000D01*
X131027176Y-36145000D01*
X130967624Y-36151402D01*
X130832910Y-36201647D01*
X130717808Y-36287812D01*
X130655585Y-36370932D01*
X130601435Y-36412122D01*
X130533703Y-36418541D01*
X130472780Y-36388257D01*
X130461432Y-36377911D01*
X130276208Y-36263226D01*
X130073073Y-36184531D01*
X130073070Y-36184530D01*
X130073069Y-36184530D01*
X129858926Y-36144500D01*
X129641074Y-36144500D01*
X129426931Y-36184530D01*
X129426926Y-36184531D01*
X129223791Y-36263226D01*
X129038567Y-36377912D01*
X128877573Y-36524677D01*
X128848954Y-36562575D01*
X128805271Y-36598848D01*
X128750000Y-36611848D01*
X128694729Y-36598848D01*
X128651046Y-36562575D01*
X128622426Y-36524677D01*
X128461432Y-36377912D01*
X128276208Y-36263226D01*
X128073073Y-36184531D01*
X128073070Y-36184530D01*
X128073069Y-36184530D01*
X127858926Y-36144500D01*
X127641074Y-36144500D01*
X127426931Y-36184530D01*
X127426926Y-36184531D01*
X127223791Y-36263226D01*
X127038567Y-36377912D01*
X126877573Y-36524676D01*
X126746287Y-36698528D01*
X126649181Y-36893542D01*
X126589564Y-37103074D01*
X126569464Y-37319999D01*
X126589564Y-37536925D01*
X126649181Y-37746457D01*
X126746287Y-37941471D01*
X126877573Y-38115323D01*
X126967311Y-38197129D01*
X127038568Y-38262088D01*
X127041635Y-38263987D01*
X127043387Y-38265072D01*
X127086992Y-38311163D01*
X127102089Y-38372790D01*
X127084725Y-38433817D01*
X127039447Y-38478266D01*
X126978110Y-38494499D01*
X126218112Y-38494499D01*
X126160637Y-38480375D01*
X126116256Y-38441219D01*
X126095079Y-38385952D01*
X126101929Y-38327167D01*
X126128175Y-38256801D01*
X126185961Y-37991160D01*
X126205355Y-37720000D01*
X126185961Y-37448840D01*
X126134546Y-37212486D01*
X126128176Y-37183203D01*
X126128175Y-37183199D01*
X126033172Y-36928487D01*
X125966345Y-36806102D01*
X125902890Y-36689891D01*
X125844467Y-36611848D01*
X125739971Y-36472258D01*
X125547742Y-36280029D01*
X125330113Y-36117113D01*
X125213305Y-36053331D01*
X125166546Y-36008534D01*
X125148746Y-35946271D01*
X125164760Y-35883525D01*
X125210222Y-35837409D01*
X125272733Y-35820500D01*
X134227267Y-35820500D01*
X134289778Y-35837409D01*
X134335240Y-35883525D01*
X134351254Y-35946271D01*
X134333454Y-36008534D01*
X134286694Y-36053331D01*
X134222004Y-36088655D01*
X134169886Y-36117113D01*
X133952255Y-36280031D01*
X133760031Y-36472255D01*
X133597109Y-36689891D01*
X133466831Y-36928480D01*
X133371823Y-37183203D01*
X133314039Y-37448838D01*
X133294644Y-37720000D01*
X133314039Y-37991161D01*
X133371823Y-38256796D01*
X133373797Y-38262088D01*
X133466828Y-38511513D01*
X133466830Y-38511517D01*
X133466831Y-38511519D01*
X133597109Y-38750108D01*
X133597113Y-38750113D01*
X133760029Y-38967742D01*
X133952258Y-39159971D01*
X134168281Y-39321685D01*
X134169891Y-39322890D01*
X134365802Y-39429864D01*
X134408487Y-39453172D01*
X134663199Y-39548175D01*
X134663202Y-39548175D01*
X134663203Y-39548176D01*
X134712852Y-39558976D01*
X134928840Y-39605961D01*
X135200000Y-39625355D01*
X135471160Y-39605961D01*
X135736801Y-39548175D01*
X135991513Y-39453172D01*
X136230113Y-39322887D01*
X136447742Y-39159971D01*
X136639971Y-38967742D01*
X136802887Y-38750113D01*
X136933172Y-38511513D01*
X137028175Y-38256801D01*
X137085961Y-37991160D01*
X137105355Y-37720000D01*
X137085961Y-37448840D01*
X137034546Y-37212486D01*
X137028176Y-37183203D01*
X137028175Y-37183199D01*
X136933172Y-36928487D01*
X136866345Y-36806102D01*
X136802890Y-36689891D01*
X136744467Y-36611848D01*
X136639971Y-36472258D01*
X136447742Y-36280029D01*
X136230113Y-36117113D01*
X136113305Y-36053331D01*
X136066546Y-36008534D01*
X136048746Y-35946271D01*
X136064760Y-35883525D01*
X136110222Y-35837409D01*
X136172733Y-35820500D01*
X144747439Y-35820500D01*
X144752562Y-35820605D01*
X144967600Y-35829500D01*
X145163455Y-35838052D01*
X145173330Y-35838881D01*
X145386706Y-35865479D01*
X145386793Y-35865490D01*
X145584945Y-35891577D01*
X145594192Y-35893153D01*
X145803521Y-35937044D01*
X145804765Y-35937312D01*
X146000386Y-35980680D01*
X146008901Y-35982889D01*
X146213665Y-36043850D01*
X146215325Y-36044359D01*
X146406696Y-36104698D01*
X146414453Y-36107431D01*
X146613363Y-36185046D01*
X146615513Y-36185911D01*
X146801024Y-36262752D01*
X146807972Y-36265886D01*
X146975903Y-36347982D01*
X146999587Y-36359561D01*
X147002383Y-36360972D01*
X147180420Y-36453652D01*
X147186636Y-36457118D01*
X147369793Y-36566255D01*
X147372929Y-36568187D01*
X147418432Y-36597176D01*
X147542282Y-36676078D01*
X147547710Y-36679741D01*
X147721184Y-36803599D01*
X147724616Y-36806140D01*
X147883912Y-36928372D01*
X147888567Y-36932126D01*
X148051226Y-37069891D01*
X148054838Y-37073072D01*
X148202925Y-37208769D01*
X148206807Y-37212486D01*
X148357512Y-37363191D01*
X148361232Y-37367076D01*
X148496921Y-37515155D01*
X148500107Y-37518772D01*
X148637872Y-37681431D01*
X148641626Y-37686086D01*
X148763858Y-37845382D01*
X148766399Y-37848814D01*
X148890257Y-38022288D01*
X148893920Y-38027716D01*
X149001800Y-38197052D01*
X149003743Y-38200205D01*
X149112880Y-38383362D01*
X149116346Y-38389578D01*
X149209026Y-38567615D01*
X149210437Y-38570411D01*
X149304099Y-38761997D01*
X149307260Y-38769005D01*
X149384051Y-38954395D01*
X149384991Y-38956734D01*
X149390797Y-38971610D01*
X149462559Y-39155523D01*
X149465302Y-39163309D01*
X149525602Y-39354554D01*
X149526186Y-39356460D01*
X149587105Y-39561084D01*
X149589321Y-39569627D01*
X149632671Y-39765166D01*
X149632971Y-39766559D01*
X149676844Y-39975802D01*
X149678422Y-39985062D01*
X149704459Y-40182829D01*
X149704568Y-40183677D01*
X149731114Y-40396641D01*
X149731948Y-40406570D01*
X149740513Y-40602728D01*
X149740525Y-40603013D01*
X149749394Y-40817438D01*
X149749500Y-40822562D01*
X149749500Y-49447267D01*
X149732591Y-49509778D01*
X149686475Y-49555240D01*
X149623729Y-49571254D01*
X149561466Y-49553454D01*
X149516668Y-49506694D01*
X149452887Y-49389887D01*
X149289971Y-49172258D01*
X149097742Y-48980029D01*
X148880113Y-48817113D01*
X148880114Y-48817113D01*
X148880108Y-48817109D01*
X148641519Y-48686831D01*
X148641517Y-48686830D01*
X148641513Y-48686828D01*
X148386801Y-48591825D01*
X148386796Y-48591823D01*
X148121161Y-48534039D01*
X147850000Y-48514644D01*
X147578838Y-48534039D01*
X147313203Y-48591823D01*
X147177857Y-48642305D01*
X147058487Y-48686828D01*
X147058484Y-48686829D01*
X147058480Y-48686831D01*
X146819891Y-48817109D01*
X146602255Y-48980031D01*
X146410031Y-49172255D01*
X146247109Y-49389891D01*
X146116831Y-49628480D01*
X146116829Y-49628484D01*
X146116828Y-49628487D01*
X146075624Y-49738956D01*
X146021823Y-49883203D01*
X145964039Y-50148838D01*
X145944644Y-50420000D01*
X145964039Y-50691161D01*
X146021824Y-50956799D01*
X146104481Y-51178413D01*
X146109465Y-51248104D01*
X146075980Y-51309427D01*
X146066209Y-51319198D01*
X146050111Y-51332095D01*
X146002097Y-51383224D01*
X145999392Y-51386016D01*
X145979875Y-51405533D01*
X145977416Y-51408704D01*
X145969843Y-51417571D01*
X145939936Y-51449419D01*
X145930286Y-51466973D01*
X145919610Y-51483227D01*
X145907327Y-51499062D01*
X145889976Y-51539157D01*
X145884839Y-51549643D01*
X145863803Y-51587906D01*
X145858822Y-51607308D01*
X145852521Y-51625710D01*
X145844562Y-51644101D01*
X145837729Y-51687241D01*
X145835361Y-51698673D01*
X145824501Y-51740977D01*
X145824501Y-51761015D01*
X145822974Y-51780414D01*
X145819841Y-51800193D01*
X145823951Y-51843674D01*
X145824501Y-51855343D01*
X145824501Y-53987257D01*
X145822236Y-54007763D01*
X145824440Y-54077874D01*
X145824501Y-54081769D01*
X145824501Y-54109350D01*
X145825004Y-54113335D01*
X145825919Y-54124968D01*
X145827291Y-54168627D01*
X145832880Y-54187861D01*
X145836826Y-54206917D01*
X145839336Y-54226793D01*
X145855415Y-54267405D01*
X145859198Y-54278452D01*
X145871383Y-54320392D01*
X145881581Y-54337636D01*
X145890137Y-54355101D01*
X145897515Y-54373733D01*
X145897516Y-54373734D01*
X145923181Y-54409060D01*
X145929594Y-54418823D01*
X145951827Y-54456417D01*
X145951830Y-54456420D01*
X145951831Y-54456421D01*
X145965996Y-54470586D01*
X145978628Y-54485376D01*
X145990407Y-54501588D01*
X146024059Y-54529427D01*
X146032700Y-54537290D01*
X147053400Y-55557990D01*
X147082349Y-55603559D01*
X147089190Y-55657112D01*
X147069464Y-55869999D01*
X147089564Y-56086925D01*
X147149181Y-56296457D01*
X147246287Y-56491471D01*
X147328048Y-56599740D01*
X147352175Y-56659401D01*
X147343151Y-56723119D01*
X147303406Y-56773733D01*
X147217811Y-56837809D01*
X147131647Y-56952910D01*
X147081402Y-57087624D01*
X147075000Y-57147176D01*
X147075000Y-57620000D01*
X149425000Y-57620000D01*
X149425000Y-57147176D01*
X149418597Y-57087624D01*
X149368352Y-56952910D01*
X149282188Y-56837811D01*
X149196594Y-56773735D01*
X149156848Y-56723121D01*
X149147824Y-56659402D01*
X149171951Y-56599741D01*
X149171952Y-56599740D01*
X149253712Y-56491472D01*
X149350817Y-56296459D01*
X149397384Y-56132793D01*
X149410435Y-56086925D01*
X149413577Y-56053008D01*
X149430536Y-55870000D01*
X149410435Y-55653077D01*
X149410435Y-55653074D01*
X149350818Y-55443542D01*
X149253712Y-55248528D01*
X149122426Y-55074676D01*
X148998427Y-54961637D01*
X148962699Y-54903934D01*
X148962699Y-54836066D01*
X148998427Y-54778363D01*
X149122426Y-54665323D01*
X149122427Y-54665322D01*
X149253712Y-54491472D01*
X149350817Y-54296459D01*
X149350818Y-54296457D01*
X149410435Y-54086925D01*
X149419670Y-53987257D01*
X149430536Y-53870000D01*
X149410435Y-53653077D01*
X149410435Y-53653074D01*
X149350818Y-53443542D01*
X149253712Y-53248528D01*
X149122426Y-53074676D01*
X148961432Y-52927912D01*
X148776208Y-52813226D01*
X148573073Y-52734531D01*
X148573070Y-52734530D01*
X148573069Y-52734530D01*
X148358926Y-52694500D01*
X148141074Y-52694500D01*
X147926931Y-52734530D01*
X147926926Y-52734531D01*
X147723791Y-52813226D01*
X147538567Y-52927912D01*
X147377573Y-53074676D01*
X147298455Y-53179447D01*
X147250633Y-53217687D01*
X147190343Y-53228381D01*
X147132286Y-53208923D01*
X147090619Y-53164055D01*
X147075501Y-53104720D01*
X147075501Y-52338112D01*
X147089625Y-52280637D01*
X147128781Y-52236256D01*
X147184048Y-52215079D01*
X147242832Y-52221929D01*
X147313199Y-52248175D01*
X147313202Y-52248175D01*
X147313203Y-52248176D01*
X147362852Y-52258976D01*
X147578840Y-52305961D01*
X147850000Y-52325355D01*
X148121160Y-52305961D01*
X148386801Y-52248175D01*
X148641513Y-52153172D01*
X148880113Y-52022887D01*
X149097742Y-51859971D01*
X149289971Y-51667742D01*
X149452887Y-51450113D01*
X149516668Y-51333305D01*
X149561466Y-51286546D01*
X149623729Y-51268746D01*
X149686475Y-51284760D01*
X149732591Y-51330222D01*
X149749500Y-51392733D01*
X149749500Y-60297267D01*
X149732591Y-60359778D01*
X149686475Y-60405240D01*
X149623729Y-60421254D01*
X149561466Y-60403454D01*
X149516668Y-60356694D01*
X149452887Y-60239887D01*
X149289971Y-60022258D01*
X149097742Y-59830029D01*
X148880113Y-59667113D01*
X148880114Y-59667113D01*
X148880108Y-59667109D01*
X148641519Y-59536831D01*
X148641517Y-59536830D01*
X148641513Y-59536828D01*
X148386801Y-59441825D01*
X148386796Y-59441823D01*
X148121161Y-59384039D01*
X147850000Y-59364644D01*
X147578838Y-59384039D01*
X147313203Y-59441823D01*
X147179150Y-59491823D01*
X147058487Y-59536828D01*
X147058484Y-59536829D01*
X147058480Y-59536831D01*
X146819891Y-59667109D01*
X146602255Y-59830031D01*
X146410031Y-60022255D01*
X146247109Y-60239891D01*
X146116831Y-60478480D01*
X146116829Y-60478484D01*
X146116828Y-60478487D01*
X146111828Y-60491893D01*
X146021823Y-60733203D01*
X145964039Y-60998838D01*
X145944644Y-61270000D01*
X145964039Y-61541161D01*
X146021823Y-61806796D01*
X146021825Y-61806801D01*
X146116828Y-62061513D01*
X146116830Y-62061517D01*
X146116831Y-62061519D01*
X146247109Y-62300108D01*
X146247113Y-62300113D01*
X146410029Y-62517742D01*
X146602258Y-62709971D01*
X146669046Y-62759968D01*
X146819891Y-62872890D01*
X147015802Y-62979864D01*
X147058487Y-63003172D01*
X147313199Y-63098175D01*
X147313202Y-63098175D01*
X147313203Y-63098176D01*
X147362852Y-63108976D01*
X147578840Y-63155961D01*
X147850000Y-63175355D01*
X148121160Y-63155961D01*
X148386801Y-63098175D01*
X148641513Y-63003172D01*
X148880113Y-62872887D01*
X149097742Y-62709971D01*
X149289971Y-62517742D01*
X149452887Y-62300113D01*
X149516668Y-62183305D01*
X149561466Y-62136546D01*
X149623729Y-62118746D01*
X149686475Y-62134760D01*
X149732591Y-62180222D01*
X149749500Y-62242733D01*
X149749500Y-70817438D01*
X149749394Y-70822563D01*
X149740525Y-71036987D01*
X149740513Y-71037271D01*
X149731948Y-71233428D01*
X149731114Y-71243357D01*
X149704568Y-71456321D01*
X149704459Y-71457169D01*
X149678422Y-71654936D01*
X149676844Y-71664196D01*
X149632971Y-71873439D01*
X149632671Y-71874832D01*
X149589321Y-72070371D01*
X149587105Y-72078914D01*
X149526186Y-72283538D01*
X149525602Y-72285444D01*
X149465302Y-72476689D01*
X149462559Y-72484475D01*
X149385008Y-72683224D01*
X149384051Y-72685603D01*
X149307260Y-72870993D01*
X149304099Y-72878001D01*
X149210437Y-73069587D01*
X149209026Y-73072383D01*
X149116346Y-73250420D01*
X149112880Y-73256636D01*
X149003743Y-73439793D01*
X149001800Y-73442946D01*
X148893920Y-73612282D01*
X148890257Y-73617710D01*
X148766399Y-73791184D01*
X148763858Y-73794616D01*
X148641626Y-73953912D01*
X148637872Y-73958567D01*
X148500107Y-74121226D01*
X148496908Y-74124858D01*
X148361254Y-74272899D01*
X148357512Y-74276807D01*
X148206807Y-74427512D01*
X148202899Y-74431254D01*
X148054858Y-74566908D01*
X148051226Y-74570107D01*
X147888567Y-74707872D01*
X147883912Y-74711626D01*
X147724616Y-74833858D01*
X147721184Y-74836399D01*
X147547710Y-74960257D01*
X147542282Y-74963920D01*
X147372946Y-75071800D01*
X147369793Y-75073743D01*
X147186636Y-75182880D01*
X147180420Y-75186346D01*
X147002383Y-75279026D01*
X146999587Y-75280437D01*
X146808001Y-75374099D01*
X146800993Y-75377260D01*
X146615603Y-75454051D01*
X146613224Y-75455008D01*
X146414475Y-75532559D01*
X146406689Y-75535302D01*
X146215444Y-75595602D01*
X146213538Y-75596186D01*
X146008914Y-75657105D01*
X146000371Y-75659321D01*
X145804832Y-75702671D01*
X145803439Y-75702971D01*
X145594196Y-75746844D01*
X145584936Y-75748422D01*
X145387169Y-75774459D01*
X145386321Y-75774568D01*
X145173357Y-75801114D01*
X145163428Y-75801948D01*
X144967381Y-75810508D01*
X144967097Y-75810520D01*
X144752563Y-75819394D01*
X144747438Y-75819500D01*
X136122733Y-75819500D01*
X136060222Y-75802591D01*
X136014760Y-75756475D01*
X135998746Y-75693729D01*
X136016546Y-75631466D01*
X136063305Y-75586668D01*
X136180113Y-75522887D01*
X136397742Y-75359971D01*
X136589971Y-75167742D01*
X136752887Y-74950113D01*
X136757606Y-74941472D01*
X136816367Y-74833858D01*
X136883172Y-74711513D01*
X136978175Y-74456801D01*
X137035961Y-74191160D01*
X137055355Y-73920000D01*
X137035961Y-73648840D01*
X136978175Y-73383199D01*
X136883172Y-73128487D01*
X136851010Y-73069587D01*
X136752890Y-72889891D01*
X136675551Y-72786579D01*
X136589971Y-72672258D01*
X136397742Y-72480029D01*
X136180113Y-72317113D01*
X136180114Y-72317113D01*
X136180108Y-72317109D01*
X135941519Y-72186831D01*
X135941517Y-72186830D01*
X135941513Y-72186828D01*
X135686801Y-72091825D01*
X135686796Y-72091823D01*
X135421161Y-72034039D01*
X135150000Y-72014644D01*
X134878838Y-72034039D01*
X134613200Y-72091824D01*
X134391586Y-72174482D01*
X134321895Y-72179466D01*
X134260572Y-72145981D01*
X134250803Y-72136212D01*
X134237907Y-72120114D01*
X134186776Y-72072099D01*
X134183979Y-72069388D01*
X134164471Y-72049880D01*
X134161291Y-72047413D01*
X134152425Y-72039840D01*
X134120583Y-72009939D01*
X134103025Y-72000286D01*
X134086765Y-71989605D01*
X134070937Y-71977328D01*
X134030852Y-71959981D01*
X134020362Y-71954842D01*
X133982092Y-71933803D01*
X133962692Y-71928822D01*
X133944285Y-71922520D01*
X133925898Y-71914563D01*
X133882759Y-71907730D01*
X133871325Y-71905362D01*
X133829020Y-71894501D01*
X133808985Y-71894501D01*
X133789587Y-71892974D01*
X133782163Y-71891798D01*
X133769806Y-71889841D01*
X133769805Y-71889841D01*
X133744469Y-71892236D01*
X133726326Y-71893951D01*
X133714657Y-71894501D01*
X131582743Y-71894501D01*
X131562236Y-71892236D01*
X131492126Y-71894440D01*
X131488231Y-71894501D01*
X131460649Y-71894501D01*
X131456664Y-71895004D01*
X131445032Y-71895919D01*
X131401368Y-71897291D01*
X131382128Y-71902881D01*
X131363080Y-71906826D01*
X131343208Y-71909336D01*
X131302598Y-71925414D01*
X131291553Y-71929195D01*
X131249609Y-71941382D01*
X131232364Y-71951580D01*
X131214903Y-71960134D01*
X131196266Y-71967513D01*
X131160930Y-71993186D01*
X131151173Y-71999596D01*
X131113579Y-72021830D01*
X131099412Y-72035997D01*
X131084623Y-72048627D01*
X131068412Y-72060405D01*
X131040571Y-72094059D01*
X131032710Y-72102698D01*
X130008465Y-73126942D01*
X129957465Y-73157712D01*
X129898000Y-73161150D01*
X129841570Y-73150602D01*
X129808926Y-73144500D01*
X129591074Y-73144500D01*
X129437756Y-73173160D01*
X129376926Y-73184531D01*
X129173791Y-73263226D01*
X128988567Y-73377911D01*
X128827573Y-73524677D01*
X128806170Y-73553020D01*
X128798955Y-73562575D01*
X128798953Y-73562577D01*
X128755271Y-73598850D01*
X128699999Y-73611849D01*
X128644728Y-73598849D01*
X128601046Y-73562575D01*
X128572428Y-73524678D01*
X128411432Y-73377912D01*
X128226208Y-73263226D01*
X128023073Y-73184531D01*
X128023070Y-73184530D01*
X128023069Y-73184530D01*
X127808926Y-73144500D01*
X127591074Y-73144500D01*
X127437756Y-73173160D01*
X127376926Y-73184531D01*
X127173791Y-73263226D01*
X126988567Y-73377912D01*
X126827573Y-73524676D01*
X126696287Y-73698528D01*
X126599181Y-73893542D01*
X126539564Y-74103074D01*
X126519464Y-74320000D01*
X126539564Y-74536925D01*
X126599181Y-74746457D01*
X126696287Y-74941471D01*
X126827573Y-75115323D01*
X126939031Y-75216929D01*
X126988568Y-75262088D01*
X126999840Y-75269067D01*
X127173791Y-75376773D01*
X127332745Y-75438352D01*
X127376931Y-75455470D01*
X127591074Y-75495500D01*
X127808924Y-75495500D01*
X127808926Y-75495500D01*
X128023069Y-75455470D01*
X128170359Y-75398409D01*
X128226208Y-75376773D01*
X128230527Y-75374099D01*
X128411432Y-75262088D01*
X128572427Y-75115322D01*
X128601047Y-75077422D01*
X128644725Y-75041151D01*
X128699997Y-75028150D01*
X128755270Y-75041149D01*
X128798953Y-75077423D01*
X128827573Y-75115323D01*
X128939031Y-75216929D01*
X128988568Y-75262088D01*
X128999840Y-75269067D01*
X129173791Y-75376773D01*
X129332745Y-75438352D01*
X129376931Y-75455470D01*
X129591074Y-75495500D01*
X129808924Y-75495500D01*
X129808926Y-75495500D01*
X130023069Y-75455470D01*
X130170359Y-75398409D01*
X130226208Y-75376773D01*
X130230527Y-75374099D01*
X130411432Y-75262088D01*
X130422781Y-75251741D01*
X130483701Y-75221458D01*
X130551435Y-75227877D01*
X130605586Y-75269067D01*
X130667810Y-75352188D01*
X130782910Y-75438352D01*
X130917624Y-75488597D01*
X130977176Y-75495000D01*
X131450000Y-75495000D01*
X131450000Y-74570000D01*
X131950000Y-74570000D01*
X131950000Y-75495000D01*
X132422824Y-75495000D01*
X132482375Y-75488597D01*
X132617089Y-75438352D01*
X132732188Y-75352188D01*
X132818352Y-75237089D01*
X132868597Y-75102375D01*
X132875000Y-75042824D01*
X132875000Y-74570000D01*
X131950000Y-74570000D01*
X131450000Y-74570000D01*
X131450000Y-74194000D01*
X131466613Y-74132000D01*
X131512000Y-74086613D01*
X131574000Y-74070000D01*
X132875000Y-74070000D01*
X132875000Y-73597176D01*
X132868597Y-73537624D01*
X132818352Y-73402910D01*
X132774111Y-73343812D01*
X132749872Y-73280554D01*
X132762494Y-73213997D01*
X132808211Y-73164006D01*
X132873378Y-73145501D01*
X133231888Y-73145501D01*
X133289363Y-73159625D01*
X133333744Y-73198781D01*
X133354921Y-73254048D01*
X133348070Y-73312832D01*
X133336516Y-73343812D01*
X133321823Y-73383203D01*
X133264039Y-73648838D01*
X133244644Y-73920000D01*
X133264039Y-74191161D01*
X133321823Y-74456796D01*
X133321825Y-74456801D01*
X133416828Y-74711513D01*
X133416830Y-74711517D01*
X133416831Y-74711519D01*
X133547109Y-74950108D01*
X133547113Y-74950113D01*
X133710029Y-75167742D01*
X133902258Y-75359971D01*
X134119887Y-75522887D01*
X134236694Y-75586668D01*
X134283454Y-75631466D01*
X134301254Y-75693729D01*
X134285240Y-75756475D01*
X134239778Y-75802591D01*
X134177267Y-75819500D01*
X125243374Y-75819500D01*
X125180864Y-75802591D01*
X125135401Y-75756475D01*
X125119387Y-75693729D01*
X125137187Y-75631467D01*
X125183947Y-75586668D01*
X125319839Y-75512465D01*
X125445124Y-75418677D01*
X124290001Y-74263553D01*
X124290000Y-74263553D01*
X123134874Y-75418677D01*
X123134875Y-75418678D01*
X123260157Y-75512463D01*
X123396053Y-75586668D01*
X123442813Y-75631467D01*
X123460613Y-75693729D01*
X123444599Y-75756475D01*
X123399136Y-75802591D01*
X123336626Y-75819500D01*
X114752562Y-75819500D01*
X114747437Y-75819394D01*
X114532901Y-75810520D01*
X114532617Y-75810508D01*
X114336570Y-75801948D01*
X114326641Y-75801114D01*
X114113677Y-75774568D01*
X114112829Y-75774459D01*
X113915062Y-75748422D01*
X113905802Y-75746844D01*
X113696559Y-75702971D01*
X113695166Y-75702671D01*
X113499627Y-75659321D01*
X113491084Y-75657105D01*
X113286460Y-75596186D01*
X113284554Y-75595602D01*
X113093309Y-75535302D01*
X113085523Y-75532559D01*
X112989266Y-75495000D01*
X112886734Y-75454991D01*
X112884395Y-75454051D01*
X112699005Y-75377260D01*
X112691997Y-75374099D01*
X112500411Y-75280437D01*
X112497615Y-75279026D01*
X112319578Y-75186346D01*
X112313362Y-75182880D01*
X112130205Y-75073743D01*
X112127052Y-75071800D01*
X111957716Y-74963920D01*
X111952288Y-74960257D01*
X111778814Y-74836399D01*
X111775382Y-74833858D01*
X111616086Y-74711626D01*
X111611431Y-74707872D01*
X111448772Y-74570107D01*
X111445155Y-74566921D01*
X111297076Y-74431232D01*
X111293191Y-74427512D01*
X111142486Y-74276807D01*
X111138769Y-74272925D01*
X111003072Y-74124838D01*
X110999891Y-74121226D01*
X110862126Y-73958567D01*
X110858372Y-73953912D01*
X110824677Y-73910000D01*
X122385146Y-73910000D01*
X122404536Y-74181089D01*
X122462305Y-74446654D01*
X122557287Y-74701307D01*
X122687536Y-74939842D01*
X122781320Y-75065124D01*
X122781321Y-75065124D01*
X123936446Y-73910001D01*
X124643553Y-73910001D01*
X125798677Y-75065124D01*
X125892465Y-74939839D01*
X126022712Y-74701307D01*
X126117694Y-74446654D01*
X126175463Y-74181089D01*
X126194853Y-73910000D01*
X126175463Y-73638910D01*
X126117694Y-73373345D01*
X126022712Y-73118692D01*
X125892463Y-72880157D01*
X125798678Y-72754875D01*
X125798677Y-72754874D01*
X124643553Y-73910000D01*
X124643553Y-73910001D01*
X123936446Y-73910001D01*
X123936446Y-73909999D01*
X122781321Y-72754875D01*
X122687534Y-72880162D01*
X122557286Y-73118692D01*
X122462305Y-73373345D01*
X122404536Y-73638910D01*
X122385146Y-73910000D01*
X110824677Y-73910000D01*
X110736140Y-73794616D01*
X110733599Y-73791184D01*
X110609741Y-73617710D01*
X110606078Y-73612282D01*
X110498198Y-73442946D01*
X110496255Y-73439793D01*
X110495213Y-73438045D01*
X110462535Y-73383203D01*
X110387118Y-73256636D01*
X110383652Y-73250420D01*
X110290972Y-73072383D01*
X110289561Y-73069587D01*
X110277982Y-73045903D01*
X110195886Y-72877972D01*
X110192752Y-72871024D01*
X110115911Y-72685513D01*
X110115046Y-72683363D01*
X110037431Y-72484453D01*
X110034696Y-72476689D01*
X110016534Y-72419087D01*
X109974359Y-72285325D01*
X109973850Y-72283665D01*
X109912889Y-72078901D01*
X109910680Y-72070386D01*
X109870194Y-71887764D01*
X111895787Y-71887764D01*
X111925413Y-72157016D01*
X111967267Y-72317109D01*
X111993928Y-72419088D01*
X112047720Y-72545670D01*
X112099871Y-72668392D01*
X112240982Y-72899611D01*
X112330253Y-73006881D01*
X112414255Y-73107820D01*
X112615998Y-73288582D01*
X112841910Y-73438044D01*
X112948211Y-73487875D01*
X113087177Y-73553021D01*
X113346562Y-73631058D01*
X113346569Y-73631060D01*
X113614561Y-73670500D01*
X113817631Y-73670500D01*
X113817634Y-73670500D01*
X114020156Y-73655677D01*
X114095425Y-73638910D01*
X114284553Y-73596780D01*
X114537558Y-73500014D01*
X114773777Y-73367441D01*
X114988177Y-73201888D01*
X115176186Y-73006881D01*
X115333799Y-72786579D01*
X115457656Y-72545675D01*
X115506903Y-72401321D01*
X123134875Y-72401321D01*
X124290000Y-73556446D01*
X124290001Y-73556446D01*
X125445124Y-72401321D01*
X125445124Y-72401320D01*
X125319842Y-72307536D01*
X125081307Y-72177287D01*
X124826654Y-72082305D01*
X124561089Y-72024536D01*
X124290000Y-72005146D01*
X124018910Y-72024536D01*
X123753345Y-72082305D01*
X123498692Y-72177286D01*
X123260162Y-72307534D01*
X123134875Y-72401321D01*
X115506903Y-72401321D01*
X115545118Y-72289305D01*
X115594319Y-72022933D01*
X115599259Y-71887764D01*
X143895787Y-71887764D01*
X143925413Y-72157016D01*
X143967267Y-72317109D01*
X143993928Y-72419088D01*
X144047720Y-72545670D01*
X144099871Y-72668392D01*
X144240982Y-72899611D01*
X144330253Y-73006881D01*
X144414255Y-73107820D01*
X144615998Y-73288582D01*
X144841910Y-73438044D01*
X144948211Y-73487875D01*
X145087177Y-73553021D01*
X145346562Y-73631058D01*
X145346569Y-73631060D01*
X145614561Y-73670500D01*
X145817631Y-73670500D01*
X145817634Y-73670500D01*
X146020156Y-73655677D01*
X146095425Y-73638910D01*
X146284553Y-73596780D01*
X146537558Y-73500014D01*
X146773777Y-73367441D01*
X146988177Y-73201888D01*
X147176186Y-73006881D01*
X147333799Y-72786579D01*
X147457656Y-72545675D01*
X147545118Y-72289305D01*
X147594319Y-72022933D01*
X147604212Y-71752235D01*
X147574586Y-71482982D01*
X147506072Y-71220912D01*
X147400130Y-70971610D01*
X147309168Y-70822563D01*
X147259017Y-70740388D01*
X147085746Y-70532181D01*
X146980758Y-70438112D01*
X146884002Y-70351418D01*
X146658090Y-70201956D01*
X146658086Y-70201954D01*
X146412822Y-70086978D01*
X146153437Y-70008941D01*
X146153431Y-70008940D01*
X145885439Y-69969500D01*
X145682369Y-69969500D01*
X145682366Y-69969500D01*
X145479843Y-69984322D01*
X145215449Y-70043219D01*
X144962441Y-70139986D01*
X144726223Y-70272559D01*
X144511825Y-70438109D01*
X144323813Y-70633120D01*
X144166201Y-70853420D01*
X144042342Y-71094329D01*
X143954881Y-71350695D01*
X143905680Y-71617066D01*
X143895787Y-71887764D01*
X115599259Y-71887764D01*
X115604212Y-71752235D01*
X115574586Y-71482982D01*
X115506072Y-71220912D01*
X115400130Y-70971610D01*
X115309168Y-70822563D01*
X115259017Y-70740388D01*
X115085746Y-70532181D01*
X114980758Y-70438112D01*
X114884002Y-70351418D01*
X114658090Y-70201956D01*
X114658086Y-70201954D01*
X114412822Y-70086978D01*
X114153437Y-70008941D01*
X114153431Y-70008940D01*
X113885439Y-69969500D01*
X113682369Y-69969500D01*
X113682366Y-69969500D01*
X113479843Y-69984322D01*
X113215449Y-70043219D01*
X112962441Y-70139986D01*
X112726223Y-70272559D01*
X112511825Y-70438109D01*
X112323813Y-70633120D01*
X112166201Y-70853420D01*
X112042342Y-71094329D01*
X111954881Y-71350695D01*
X111905680Y-71617066D01*
X111895787Y-71887764D01*
X109870194Y-71887764D01*
X109867312Y-71874765D01*
X109867027Y-71873439D01*
X109861495Y-71847057D01*
X109823153Y-71664192D01*
X109821576Y-71654936D01*
X109795490Y-71456793D01*
X109795483Y-71456743D01*
X109768881Y-71243330D01*
X109768052Y-71233455D01*
X109759486Y-71037271D01*
X109750605Y-70822562D01*
X109750500Y-70817439D01*
X109750500Y-62292733D01*
X109767409Y-62230222D01*
X109813525Y-62184760D01*
X109876271Y-62168746D01*
X109938534Y-62186546D01*
X109983331Y-62233305D01*
X110047113Y-62350113D01*
X110210029Y-62567742D01*
X110402258Y-62759971D01*
X110618281Y-62921685D01*
X110619891Y-62922890D01*
X110815802Y-63029864D01*
X110858487Y-63053172D01*
X111113199Y-63148175D01*
X111113202Y-63148175D01*
X111113203Y-63148176D01*
X111148986Y-63155960D01*
X111378840Y-63205961D01*
X111650000Y-63225355D01*
X111921160Y-63205961D01*
X112186801Y-63148175D01*
X112441513Y-63053172D01*
X112680113Y-62922887D01*
X112897742Y-62759971D01*
X113089971Y-62567742D01*
X113252887Y-62350113D01*
X113383172Y-62111513D01*
X113478175Y-61856801D01*
X113535961Y-61591160D01*
X113555355Y-61320000D01*
X113535961Y-61048840D01*
X113478175Y-60783199D01*
X113395517Y-60561584D01*
X113390533Y-60491893D01*
X113424016Y-60430572D01*
X113433785Y-60420803D01*
X113449886Y-60407905D01*
X113451873Y-60405788D01*
X113451876Y-60405787D01*
X113497931Y-60356742D01*
X113500612Y-60353977D01*
X113507322Y-60347267D01*
X113520119Y-60334471D01*
X113522580Y-60331296D01*
X113530151Y-60322432D01*
X113560061Y-60290583D01*
X113569712Y-60273027D01*
X113580392Y-60256768D01*
X113592673Y-60240937D01*
X113610017Y-60200852D01*
X113615159Y-60190357D01*
X113636196Y-60152093D01*
X113641177Y-60132689D01*
X113647479Y-60114284D01*
X113655437Y-60095896D01*
X113662269Y-60052749D01*
X113664638Y-60041317D01*
X113675499Y-59999021D01*
X113675499Y-59978985D01*
X113677026Y-59959586D01*
X113680159Y-59939805D01*
X113676049Y-59896326D01*
X113675499Y-59884657D01*
X113675499Y-58120000D01*
X147075000Y-58120000D01*
X147075000Y-58592824D01*
X147081402Y-58652375D01*
X147131647Y-58787089D01*
X147217811Y-58902188D01*
X147332910Y-58988352D01*
X147467624Y-59038597D01*
X147527176Y-59045000D01*
X148000000Y-59045000D01*
X148000000Y-58120000D01*
X148500000Y-58120000D01*
X148500000Y-59045000D01*
X148972824Y-59045000D01*
X149032375Y-59038597D01*
X149167089Y-58988352D01*
X149282188Y-58902188D01*
X149368352Y-58787089D01*
X149418597Y-58652375D01*
X149425000Y-58592824D01*
X149425000Y-58120000D01*
X148500000Y-58120000D01*
X148000000Y-58120000D01*
X147075000Y-58120000D01*
X113675499Y-58120000D01*
X113675499Y-57752743D01*
X113677763Y-57732236D01*
X113676184Y-57682000D01*
X113675560Y-57662126D01*
X113675499Y-57658231D01*
X113675499Y-57630652D01*
X113674996Y-57626671D01*
X113674079Y-57615018D01*
X113672708Y-57571372D01*
X113667119Y-57552139D01*
X113663173Y-57533081D01*
X113660663Y-57513205D01*
X113644587Y-57472603D01*
X113640803Y-57461552D01*
X113634880Y-57441167D01*
X113628617Y-57419609D01*
X113618413Y-57402354D01*
X113609860Y-57384894D01*
X113602485Y-57366268D01*
X113602485Y-57366267D01*
X113576807Y-57330924D01*
X113570400Y-57321170D01*
X113548168Y-57283578D01*
X113534005Y-57269415D01*
X113521366Y-57254616D01*
X113509594Y-57238412D01*
X113475940Y-57210572D01*
X113467298Y-57202708D01*
X112446599Y-56182009D01*
X112417650Y-56136439D01*
X112410809Y-56082887D01*
X112410938Y-56081489D01*
X112430536Y-55870000D01*
X112410435Y-55653077D01*
X112410435Y-55653074D01*
X112350818Y-55443542D01*
X112253712Y-55248528D01*
X112122426Y-55074676D01*
X111998427Y-54961637D01*
X111962699Y-54903934D01*
X111962699Y-54836066D01*
X111998427Y-54778363D01*
X112122426Y-54665323D01*
X112122427Y-54665322D01*
X112253712Y-54491472D01*
X112350817Y-54296459D01*
X112350818Y-54296457D01*
X112410435Y-54086925D01*
X112419670Y-53987257D01*
X112430536Y-53870000D01*
X112410435Y-53653077D01*
X112410435Y-53653074D01*
X112350818Y-53443542D01*
X112253712Y-53248528D01*
X112122426Y-53074676D01*
X111961432Y-52927912D01*
X111776208Y-52813226D01*
X111573073Y-52734531D01*
X111573070Y-52734530D01*
X111573069Y-52734530D01*
X111358926Y-52694500D01*
X111141074Y-52694500D01*
X110926931Y-52734530D01*
X110926926Y-52734531D01*
X110723791Y-52813226D01*
X110538567Y-52927912D01*
X110377573Y-53074676D01*
X110246287Y-53248528D01*
X110149181Y-53443542D01*
X110089564Y-53653074D01*
X110069464Y-53869999D01*
X110089564Y-54086925D01*
X110149181Y-54296457D01*
X110246287Y-54491471D01*
X110377573Y-54665323D01*
X110501572Y-54778363D01*
X110537300Y-54836066D01*
X110537300Y-54903934D01*
X110501572Y-54961637D01*
X110377573Y-55074676D01*
X110246287Y-55248528D01*
X110149181Y-55443542D01*
X110089564Y-55653074D01*
X110069464Y-55869999D01*
X110089564Y-56086925D01*
X110149181Y-56296457D01*
X110246287Y-56491471D01*
X110328048Y-56599740D01*
X110352175Y-56659401D01*
X110343151Y-56723119D01*
X110303406Y-56773733D01*
X110217811Y-56837809D01*
X110131647Y-56952910D01*
X110081402Y-57087624D01*
X110075000Y-57147176D01*
X110075000Y-57620000D01*
X111376000Y-57620000D01*
X111438000Y-57636613D01*
X111483387Y-57682000D01*
X111500000Y-57744000D01*
X111500000Y-59045000D01*
X111972824Y-59045000D01*
X112032375Y-59038597D01*
X112167089Y-58988352D01*
X112226188Y-58944111D01*
X112289446Y-58919872D01*
X112356003Y-58932494D01*
X112405994Y-58978211D01*
X112424499Y-59043378D01*
X112424499Y-59401888D01*
X112410375Y-59459363D01*
X112371219Y-59503744D01*
X112315952Y-59524921D01*
X112257167Y-59518070D01*
X112186801Y-59491825D01*
X112186796Y-59491823D01*
X111921161Y-59434039D01*
X111650000Y-59414644D01*
X111378838Y-59434039D01*
X111113203Y-59491823D01*
X110968956Y-59545624D01*
X110858487Y-59586828D01*
X110858484Y-59586829D01*
X110858480Y-59586831D01*
X110619891Y-59717109D01*
X110402255Y-59880031D01*
X110210031Y-60072255D01*
X110047113Y-60289886D01*
X110043083Y-60297267D01*
X109983331Y-60406694D01*
X109938534Y-60453454D01*
X109876271Y-60471254D01*
X109813525Y-60455240D01*
X109767409Y-60409778D01*
X109750500Y-60347267D01*
X109750500Y-58120000D01*
X110075000Y-58120000D01*
X110075000Y-58592824D01*
X110081402Y-58652375D01*
X110131647Y-58787089D01*
X110217811Y-58902188D01*
X110332910Y-58988352D01*
X110467624Y-59038597D01*
X110527176Y-59045000D01*
X111000000Y-59045000D01*
X111000000Y-58120000D01*
X110075000Y-58120000D01*
X109750500Y-58120000D01*
X109750500Y-51978677D01*
X110494874Y-51978677D01*
X110494875Y-51978678D01*
X110620157Y-52072463D01*
X110858692Y-52202712D01*
X111113345Y-52297694D01*
X111378910Y-52355463D01*
X111650000Y-52374853D01*
X111921089Y-52355463D01*
X112186654Y-52297694D01*
X112441307Y-52202712D01*
X112679839Y-52072465D01*
X112805124Y-51978677D01*
X111650001Y-50823553D01*
X111650000Y-50823553D01*
X110494874Y-51978677D01*
X109750500Y-51978677D01*
X109750500Y-51441688D01*
X109767409Y-51379178D01*
X109813525Y-51333715D01*
X109876271Y-51317701D01*
X109938533Y-51335501D01*
X109983332Y-51382261D01*
X110047536Y-51499842D01*
X110141320Y-51625124D01*
X111296446Y-50470000D01*
X111296446Y-50469999D01*
X112003553Y-50469999D01*
X113158677Y-51625124D01*
X113252465Y-51499839D01*
X113382712Y-51261307D01*
X113477694Y-51006654D01*
X113535463Y-50741089D01*
X113554853Y-50469999D01*
X113535463Y-50198910D01*
X113477694Y-49933345D01*
X113382712Y-49678692D01*
X113252463Y-49440157D01*
X113158678Y-49314875D01*
X113158678Y-49314874D01*
X112003553Y-50469999D01*
X111296446Y-50469999D01*
X111296446Y-50469998D01*
X110141321Y-49314875D01*
X110047534Y-49440162D01*
X109983332Y-49557740D01*
X109938533Y-49604500D01*
X109876271Y-49622300D01*
X109813525Y-49606286D01*
X109767409Y-49560823D01*
X109750500Y-49498313D01*
X109750500Y-48961321D01*
X110494875Y-48961321D01*
X111650000Y-50116446D01*
X111650001Y-50116446D01*
X112805124Y-48961321D01*
X112805124Y-48961320D01*
X112679842Y-48867536D01*
X112441307Y-48737287D01*
X112186654Y-48642305D01*
X111921089Y-48584536D01*
X111650000Y-48565146D01*
X111378910Y-48584536D01*
X111113345Y-48642305D01*
X110858692Y-48737286D01*
X110620162Y-48867534D01*
X110494875Y-48961321D01*
X109750500Y-48961321D01*
X109750500Y-40822561D01*
X109750606Y-40817437D01*
X109751882Y-40786579D01*
X109759488Y-40602687D01*
X109768052Y-40406540D01*
X109768881Y-40396673D01*
X109795491Y-40183195D01*
X109821578Y-39985045D01*
X109823151Y-39975816D01*
X109841613Y-39887764D01*
X111895787Y-39887764D01*
X111925413Y-40157016D01*
X111936898Y-40200946D01*
X111993928Y-40419088D01*
X112099870Y-40668390D01*
X112099871Y-40668392D01*
X112240982Y-40899611D01*
X112330253Y-41006881D01*
X112414255Y-41107820D01*
X112615998Y-41288582D01*
X112841910Y-41438044D01*
X112948211Y-41487876D01*
X113087177Y-41553021D01*
X113346562Y-41631058D01*
X113346569Y-41631060D01*
X113614561Y-41670500D01*
X113817631Y-41670500D01*
X113817634Y-41670500D01*
X114020156Y-41655677D01*
X114020156Y-41655676D01*
X114284553Y-41596780D01*
X114537558Y-41500014D01*
X114773777Y-41367441D01*
X114988177Y-41201888D01*
X115176186Y-41006881D01*
X115333799Y-40786579D01*
X115457656Y-40545675D01*
X115545118Y-40289305D01*
X115594319Y-40022933D01*
X115599259Y-39887764D01*
X143895787Y-39887764D01*
X143925413Y-40157016D01*
X143936898Y-40200946D01*
X143993928Y-40419088D01*
X144099870Y-40668390D01*
X144099871Y-40668392D01*
X144240982Y-40899611D01*
X144330253Y-41006881D01*
X144414255Y-41107820D01*
X144615998Y-41288582D01*
X144841910Y-41438044D01*
X144948211Y-41487876D01*
X145087177Y-41553021D01*
X145346562Y-41631058D01*
X145346569Y-41631060D01*
X145614561Y-41670500D01*
X145817631Y-41670500D01*
X145817634Y-41670500D01*
X146020156Y-41655677D01*
X146020156Y-41655676D01*
X146284553Y-41596780D01*
X146537558Y-41500014D01*
X146773777Y-41367441D01*
X146988177Y-41201888D01*
X147176186Y-41006881D01*
X147333799Y-40786579D01*
X147457656Y-40545675D01*
X147545118Y-40289305D01*
X147594319Y-40022933D01*
X147604212Y-39752235D01*
X147574586Y-39482982D01*
X147506072Y-39220912D01*
X147400130Y-38971610D01*
X147259018Y-38740390D01*
X147259017Y-38740388D01*
X147085746Y-38532181D01*
X147044807Y-38495500D01*
X146884002Y-38351418D01*
X146658090Y-38201956D01*
X146647629Y-38197052D01*
X146412822Y-38086978D01*
X146153437Y-38008941D01*
X146153431Y-38008940D01*
X145885439Y-37969500D01*
X145682369Y-37969500D01*
X145682366Y-37969500D01*
X145479843Y-37984322D01*
X145215449Y-38043219D01*
X144962441Y-38139986D01*
X144726223Y-38272559D01*
X144511825Y-38438109D01*
X144323813Y-38633120D01*
X144166201Y-38853420D01*
X144042342Y-39094329D01*
X143954881Y-39350695D01*
X143905680Y-39617066D01*
X143895787Y-39887764D01*
X115599259Y-39887764D01*
X115604212Y-39752235D01*
X115574586Y-39482982D01*
X115506072Y-39220912D01*
X115400130Y-38971610D01*
X115259018Y-38740390D01*
X115259017Y-38740388D01*
X115085746Y-38532181D01*
X115044807Y-38495500D01*
X114884002Y-38351418D01*
X114658090Y-38201956D01*
X114647629Y-38197052D01*
X114412822Y-38086978D01*
X114153437Y-38008941D01*
X114153431Y-38008940D01*
X113885439Y-37969500D01*
X113682369Y-37969500D01*
X113682366Y-37969500D01*
X113479843Y-37984322D01*
X113215449Y-38043219D01*
X112962441Y-38139986D01*
X112726223Y-38272559D01*
X112511825Y-38438109D01*
X112323813Y-38633120D01*
X112166201Y-38853420D01*
X112042342Y-39094329D01*
X111954881Y-39350695D01*
X111905680Y-39617066D01*
X111895787Y-39887764D01*
X109841613Y-39887764D01*
X109867062Y-39766392D01*
X109867297Y-39765302D01*
X109910684Y-39569599D01*
X109912885Y-39561111D01*
X109973875Y-39356253D01*
X109974337Y-39354743D01*
X110034704Y-39163284D01*
X110037423Y-39155565D01*
X110115074Y-38956564D01*
X110115883Y-38954553D01*
X110192762Y-38768951D01*
X110195874Y-38762051D01*
X110289587Y-38570357D01*
X110290945Y-38567667D01*
X110383667Y-38389551D01*
X110387118Y-38383362D01*
X110496295Y-38200139D01*
X110498150Y-38197129D01*
X110606090Y-38027697D01*
X110609721Y-38022316D01*
X110733635Y-37848764D01*
X110736102Y-37845433D01*
X110858401Y-37686048D01*
X110862114Y-37681445D01*
X110999903Y-37518758D01*
X111003027Y-37515211D01*
X111138811Y-37367028D01*
X111142440Y-37363238D01*
X111293238Y-37212440D01*
X111297028Y-37208811D01*
X111445211Y-37073027D01*
X111448758Y-37069903D01*
X111611445Y-36932114D01*
X111616048Y-36928401D01*
X111775433Y-36806102D01*
X111778764Y-36803635D01*
X111952316Y-36679721D01*
X111957697Y-36676090D01*
X112127129Y-36568150D01*
X112130139Y-36566295D01*
X112313373Y-36457111D01*
X112319551Y-36453667D01*
X112497667Y-36360945D01*
X112500357Y-36359587D01*
X112692051Y-36265874D01*
X112698951Y-36262762D01*
X112884553Y-36185883D01*
X112886564Y-36185074D01*
X113085565Y-36107423D01*
X113093284Y-36104704D01*
X113284743Y-36044337D01*
X113286253Y-36043875D01*
X113491111Y-35982885D01*
X113499599Y-35980684D01*
X113695302Y-35937297D01*
X113696392Y-35937062D01*
X113905816Y-35893151D01*
X113915045Y-35891578D01*
X114113195Y-35865491D01*
X114326673Y-35838881D01*
X114336540Y-35838052D01*
X114532628Y-35829490D01*
X114747437Y-35820605D01*
X114752561Y-35820500D01*
X123327267Y-35820500D01*
X123389778Y-35837409D01*
G37*
%TD.AperFunction*%
%TD*%
%TA.AperFunction,Conductor*%
%TO.N,GND*%
G36*
X123399778Y-80867409D02*
G01*
X123445240Y-80913525D01*
X123461254Y-80976271D01*
X123443454Y-81038534D01*
X123396694Y-81083331D01*
X123332004Y-81118655D01*
X123279886Y-81147113D01*
X123062255Y-81310031D01*
X122870031Y-81502255D01*
X122707109Y-81719891D01*
X122576831Y-81958480D01*
X122481823Y-82213203D01*
X122424039Y-82478838D01*
X122404644Y-82750000D01*
X122424039Y-83021161D01*
X122481823Y-83286796D01*
X122483797Y-83292088D01*
X122576828Y-83541513D01*
X122576830Y-83541517D01*
X122576831Y-83541519D01*
X122707109Y-83780108D01*
X122707113Y-83780113D01*
X122870029Y-83997742D01*
X123062258Y-84189971D01*
X123278281Y-84351685D01*
X123279891Y-84352890D01*
X123475802Y-84459864D01*
X123518487Y-84483172D01*
X123773199Y-84578175D01*
X123773202Y-84578175D01*
X123773203Y-84578176D01*
X123822852Y-84588976D01*
X124038840Y-84635961D01*
X124310000Y-84655355D01*
X124581160Y-84635961D01*
X124846801Y-84578175D01*
X125068417Y-84495516D01*
X125114696Y-84487733D01*
X125160558Y-84497710D01*
X125199427Y-84524017D01*
X125209196Y-84533786D01*
X125222097Y-84549888D01*
X125224211Y-84551873D01*
X125224213Y-84551876D01*
X125265965Y-84591084D01*
X125273239Y-84597915D01*
X125276034Y-84600624D01*
X125295529Y-84620119D01*
X125298703Y-84622581D01*
X125307567Y-84630152D01*
X125339417Y-84660061D01*
X125349913Y-84665831D01*
X125356973Y-84669713D01*
X125373230Y-84680391D01*
X125389063Y-84692673D01*
X125405184Y-84699648D01*
X125429155Y-84710022D01*
X125439642Y-84715159D01*
X125477907Y-84736196D01*
X125497315Y-84741179D01*
X125515709Y-84747477D01*
X125534104Y-84755437D01*
X125577253Y-84762270D01*
X125588679Y-84764637D01*
X125604221Y-84768628D01*
X125630979Y-84775499D01*
X125630980Y-84775499D01*
X125651015Y-84775499D01*
X125670412Y-84777025D01*
X125690195Y-84780159D01*
X125733673Y-84776049D01*
X125745343Y-84775499D01*
X127877257Y-84775499D01*
X127897763Y-84777763D01*
X127900666Y-84777671D01*
X127900668Y-84777672D01*
X127967873Y-84775560D01*
X127971769Y-84775499D01*
X127999350Y-84775499D01*
X127999351Y-84775499D01*
X128003320Y-84774997D01*
X128014966Y-84774079D01*
X128058628Y-84772708D01*
X128077860Y-84767119D01*
X128096919Y-84763173D01*
X128104092Y-84762267D01*
X128116793Y-84760663D01*
X128157408Y-84744581D01*
X128168445Y-84740802D01*
X128210391Y-84728617D01*
X128227630Y-84718421D01*
X128245103Y-84709861D01*
X128263733Y-84702485D01*
X128299065Y-84676813D01*
X128308831Y-84670399D01*
X128346419Y-84648170D01*
X128346418Y-84648170D01*
X128346421Y-84648169D01*
X128360586Y-84634003D01*
X128375374Y-84621372D01*
X128391588Y-84609593D01*
X128419439Y-84575925D01*
X128427280Y-84567308D01*
X129451535Y-83543054D01*
X129502534Y-83512286D01*
X129561995Y-83508848D01*
X129651074Y-83525500D01*
X129868924Y-83525500D01*
X129868926Y-83525500D01*
X130083069Y-83485470D01*
X130218496Y-83433004D01*
X130286208Y-83406773D01*
X130292641Y-83402790D01*
X130471432Y-83292088D01*
X130482781Y-83281741D01*
X130543701Y-83251458D01*
X130611435Y-83257877D01*
X130665586Y-83299067D01*
X130727810Y-83382188D01*
X130842910Y-83468352D01*
X130977624Y-83518597D01*
X131037176Y-83525000D01*
X131510000Y-83525000D01*
X131510000Y-82600000D01*
X132010000Y-82600000D01*
X132010000Y-83525000D01*
X132482824Y-83525000D01*
X132542375Y-83518597D01*
X132677089Y-83468352D01*
X132792188Y-83382188D01*
X132878352Y-83267089D01*
X132928597Y-83132375D01*
X132935000Y-83072824D01*
X132935000Y-82600000D01*
X132010000Y-82600000D01*
X131510000Y-82600000D01*
X131510000Y-81175000D01*
X132010000Y-81175000D01*
X132010000Y-82100000D01*
X132935000Y-82100000D01*
X132935000Y-81627176D01*
X132928597Y-81567624D01*
X132878352Y-81432910D01*
X132792188Y-81317811D01*
X132677089Y-81231647D01*
X132542375Y-81181402D01*
X132482824Y-81175000D01*
X132010000Y-81175000D01*
X131510000Y-81175000D01*
X131037176Y-81175000D01*
X130977624Y-81181402D01*
X130842910Y-81231647D01*
X130727808Y-81317812D01*
X130665585Y-81400932D01*
X130611435Y-81442122D01*
X130543703Y-81448541D01*
X130482780Y-81418257D01*
X130471432Y-81407911D01*
X130286208Y-81293226D01*
X130083073Y-81214531D01*
X130083070Y-81214530D01*
X130083069Y-81214530D01*
X129868926Y-81174500D01*
X129651074Y-81174500D01*
X129436931Y-81214530D01*
X129436926Y-81214531D01*
X129233791Y-81293226D01*
X129048567Y-81407912D01*
X128887573Y-81554677D01*
X128858954Y-81592575D01*
X128815271Y-81628848D01*
X128760000Y-81641848D01*
X128704729Y-81628848D01*
X128661046Y-81592575D01*
X128632426Y-81554677D01*
X128471432Y-81407912D01*
X128286208Y-81293226D01*
X128083073Y-81214531D01*
X128083070Y-81214530D01*
X128083069Y-81214530D01*
X127868926Y-81174500D01*
X127651074Y-81174500D01*
X127436931Y-81214530D01*
X127436926Y-81214531D01*
X127233791Y-81293226D01*
X127048567Y-81407912D01*
X126887573Y-81554676D01*
X126756287Y-81728528D01*
X126659181Y-81923542D01*
X126599564Y-82133074D01*
X126579464Y-82349999D01*
X126599564Y-82566925D01*
X126659181Y-82776457D01*
X126756287Y-82971471D01*
X126887573Y-83145323D01*
X126977311Y-83227129D01*
X127048568Y-83292088D01*
X127051635Y-83293987D01*
X127053387Y-83295072D01*
X127096992Y-83341163D01*
X127112089Y-83402790D01*
X127094725Y-83463817D01*
X127049447Y-83508266D01*
X126988110Y-83524499D01*
X126228112Y-83524499D01*
X126170637Y-83510375D01*
X126126256Y-83471219D01*
X126105079Y-83415952D01*
X126111929Y-83357167D01*
X126138175Y-83286801D01*
X126195961Y-83021160D01*
X126215355Y-82750000D01*
X126195961Y-82478840D01*
X126144546Y-82242486D01*
X126138176Y-82213203D01*
X126138175Y-82213199D01*
X126043172Y-81958487D01*
X125976345Y-81836102D01*
X125912890Y-81719891D01*
X125854467Y-81641848D01*
X125749971Y-81502258D01*
X125557742Y-81310029D01*
X125340113Y-81147113D01*
X125223305Y-81083331D01*
X125176546Y-81038534D01*
X125158746Y-80976271D01*
X125174760Y-80913525D01*
X125220222Y-80867409D01*
X125282733Y-80850500D01*
X134237267Y-80850500D01*
X134299778Y-80867409D01*
X134345240Y-80913525D01*
X134361254Y-80976271D01*
X134343454Y-81038534D01*
X134296694Y-81083331D01*
X134232004Y-81118655D01*
X134179886Y-81147113D01*
X133962255Y-81310031D01*
X133770031Y-81502255D01*
X133607109Y-81719891D01*
X133476831Y-81958480D01*
X133381823Y-82213203D01*
X133324039Y-82478838D01*
X133304644Y-82750000D01*
X133324039Y-83021161D01*
X133381823Y-83286796D01*
X133383797Y-83292088D01*
X133476828Y-83541513D01*
X133476830Y-83541517D01*
X133476831Y-83541519D01*
X133607109Y-83780108D01*
X133607113Y-83780113D01*
X133770029Y-83997742D01*
X133962258Y-84189971D01*
X134178281Y-84351685D01*
X134179891Y-84352890D01*
X134375802Y-84459864D01*
X134418487Y-84483172D01*
X134673199Y-84578175D01*
X134673202Y-84578175D01*
X134673203Y-84578176D01*
X134722852Y-84588976D01*
X134938840Y-84635961D01*
X135210000Y-84655355D01*
X135481160Y-84635961D01*
X135746801Y-84578175D01*
X136001513Y-84483172D01*
X136240113Y-84352887D01*
X136457742Y-84189971D01*
X136649971Y-83997742D01*
X136812887Y-83780113D01*
X136943172Y-83541513D01*
X137038175Y-83286801D01*
X137095961Y-83021160D01*
X137115355Y-82750000D01*
X137095961Y-82478840D01*
X137044546Y-82242486D01*
X137038176Y-82213203D01*
X137038175Y-82213199D01*
X136943172Y-81958487D01*
X136876345Y-81836102D01*
X136812890Y-81719891D01*
X136754467Y-81641848D01*
X136649971Y-81502258D01*
X136457742Y-81310029D01*
X136240113Y-81147113D01*
X136123305Y-81083331D01*
X136076546Y-81038534D01*
X136058746Y-80976271D01*
X136074760Y-80913525D01*
X136120222Y-80867409D01*
X136182733Y-80850500D01*
X144757439Y-80850500D01*
X144762562Y-80850605D01*
X144977600Y-80859500D01*
X145173455Y-80868052D01*
X145183330Y-80868881D01*
X145396706Y-80895479D01*
X145396793Y-80895490D01*
X145594945Y-80921577D01*
X145604192Y-80923153D01*
X145813521Y-80967044D01*
X145814765Y-80967312D01*
X146010386Y-81010680D01*
X146018901Y-81012889D01*
X146223665Y-81073850D01*
X146225325Y-81074359D01*
X146416696Y-81134698D01*
X146424453Y-81137431D01*
X146623363Y-81215046D01*
X146625513Y-81215911D01*
X146811024Y-81292752D01*
X146817972Y-81295886D01*
X146985903Y-81377982D01*
X147009587Y-81389561D01*
X147012383Y-81390972D01*
X147190420Y-81483652D01*
X147196636Y-81487118D01*
X147379793Y-81596255D01*
X147382929Y-81598187D01*
X147428432Y-81627176D01*
X147552282Y-81706078D01*
X147557710Y-81709741D01*
X147731184Y-81833599D01*
X147734616Y-81836140D01*
X147893912Y-81958372D01*
X147898567Y-81962126D01*
X148061226Y-82099891D01*
X148064838Y-82103072D01*
X148212925Y-82238769D01*
X148216807Y-82242486D01*
X148367512Y-82393191D01*
X148371232Y-82397076D01*
X148506921Y-82545155D01*
X148510107Y-82548772D01*
X148647872Y-82711431D01*
X148651626Y-82716086D01*
X148773858Y-82875382D01*
X148776399Y-82878814D01*
X148900257Y-83052288D01*
X148903920Y-83057716D01*
X149011800Y-83227052D01*
X149013743Y-83230205D01*
X149122880Y-83413362D01*
X149126346Y-83419578D01*
X149219026Y-83597615D01*
X149220437Y-83600411D01*
X149314099Y-83791997D01*
X149317260Y-83799005D01*
X149394051Y-83984395D01*
X149394991Y-83986734D01*
X149400797Y-84001610D01*
X149472559Y-84185523D01*
X149475302Y-84193309D01*
X149535602Y-84384554D01*
X149536186Y-84386460D01*
X149597105Y-84591084D01*
X149599321Y-84599627D01*
X149642671Y-84795166D01*
X149642971Y-84796559D01*
X149686844Y-85005802D01*
X149688422Y-85015062D01*
X149714459Y-85212829D01*
X149714568Y-85213677D01*
X149741114Y-85426641D01*
X149741948Y-85436570D01*
X149750513Y-85632728D01*
X149750525Y-85633013D01*
X149759394Y-85847438D01*
X149759500Y-85852562D01*
X149759500Y-94477267D01*
X149742591Y-94539778D01*
X149696475Y-94585240D01*
X149633729Y-94601254D01*
X149571466Y-94583454D01*
X149526668Y-94536694D01*
X149462887Y-94419887D01*
X149299971Y-94202258D01*
X149107742Y-94010029D01*
X148890113Y-93847113D01*
X148890114Y-93847113D01*
X148890108Y-93847109D01*
X148651519Y-93716831D01*
X148651517Y-93716830D01*
X148651513Y-93716828D01*
X148396801Y-93621825D01*
X148396796Y-93621823D01*
X148131161Y-93564039D01*
X147860000Y-93544644D01*
X147588838Y-93564039D01*
X147323203Y-93621823D01*
X147187857Y-93672305D01*
X147068487Y-93716828D01*
X147068484Y-93716829D01*
X147068480Y-93716831D01*
X146829891Y-93847109D01*
X146612255Y-94010031D01*
X146420031Y-94202255D01*
X146257109Y-94419891D01*
X146126831Y-94658480D01*
X146126829Y-94658484D01*
X146126828Y-94658487D01*
X146085624Y-94768956D01*
X146031823Y-94913203D01*
X145974039Y-95178838D01*
X145954644Y-95450000D01*
X145974039Y-95721161D01*
X146031824Y-95986799D01*
X146114481Y-96208413D01*
X146119465Y-96278104D01*
X146085980Y-96339427D01*
X146076209Y-96349198D01*
X146060111Y-96362095D01*
X146012097Y-96413224D01*
X146009392Y-96416016D01*
X145989875Y-96435533D01*
X145987416Y-96438704D01*
X145979843Y-96447571D01*
X145949936Y-96479419D01*
X145940286Y-96496973D01*
X145929610Y-96513227D01*
X145917327Y-96529062D01*
X145899976Y-96569157D01*
X145894839Y-96579643D01*
X145873803Y-96617906D01*
X145868822Y-96637308D01*
X145862521Y-96655710D01*
X145854562Y-96674101D01*
X145847729Y-96717241D01*
X145845361Y-96728673D01*
X145834501Y-96770977D01*
X145834501Y-96791015D01*
X145832974Y-96810414D01*
X145829841Y-96830193D01*
X145833951Y-96873674D01*
X145834501Y-96885343D01*
X145834501Y-99017257D01*
X145832236Y-99037763D01*
X145834440Y-99107874D01*
X145834501Y-99111769D01*
X145834501Y-99139350D01*
X145835004Y-99143335D01*
X145835919Y-99154968D01*
X145837291Y-99198627D01*
X145842880Y-99217861D01*
X145846826Y-99236917D01*
X145849336Y-99256793D01*
X145865415Y-99297405D01*
X145869198Y-99308452D01*
X145881383Y-99350392D01*
X145891581Y-99367636D01*
X145900137Y-99385101D01*
X145907515Y-99403733D01*
X145907516Y-99403734D01*
X145933181Y-99439060D01*
X145939594Y-99448823D01*
X145961827Y-99486417D01*
X145961830Y-99486420D01*
X145961831Y-99486421D01*
X145975996Y-99500586D01*
X145988628Y-99515376D01*
X146000407Y-99531588D01*
X146034059Y-99559427D01*
X146042700Y-99567290D01*
X147063400Y-100587990D01*
X147092349Y-100633559D01*
X147099190Y-100687112D01*
X147079464Y-100899999D01*
X147099564Y-101116925D01*
X147159181Y-101326457D01*
X147256287Y-101521471D01*
X147338048Y-101629740D01*
X147362175Y-101689401D01*
X147353151Y-101753119D01*
X147313406Y-101803733D01*
X147227811Y-101867809D01*
X147141647Y-101982910D01*
X147091402Y-102117624D01*
X147085000Y-102177176D01*
X147085000Y-102650000D01*
X149435000Y-102650000D01*
X149435000Y-102177176D01*
X149428597Y-102117624D01*
X149378352Y-101982910D01*
X149292188Y-101867811D01*
X149206594Y-101803735D01*
X149166848Y-101753121D01*
X149157824Y-101689402D01*
X149181951Y-101629741D01*
X149181952Y-101629740D01*
X149263712Y-101521472D01*
X149360817Y-101326459D01*
X149407384Y-101162793D01*
X149420435Y-101116925D01*
X149423577Y-101083008D01*
X149440536Y-100900000D01*
X149420435Y-100683077D01*
X149420435Y-100683074D01*
X149360818Y-100473542D01*
X149263712Y-100278528D01*
X149132426Y-100104676D01*
X149008427Y-99991637D01*
X148972699Y-99933934D01*
X148972699Y-99866066D01*
X149008427Y-99808363D01*
X149132426Y-99695323D01*
X149132427Y-99695322D01*
X149263712Y-99521472D01*
X149360817Y-99326459D01*
X149360818Y-99326457D01*
X149420435Y-99116925D01*
X149429670Y-99017257D01*
X149440536Y-98900000D01*
X149420435Y-98683077D01*
X149420435Y-98683074D01*
X149360818Y-98473542D01*
X149263712Y-98278528D01*
X149132426Y-98104676D01*
X148971432Y-97957912D01*
X148786208Y-97843226D01*
X148583073Y-97764531D01*
X148583070Y-97764530D01*
X148583069Y-97764530D01*
X148368926Y-97724500D01*
X148151074Y-97724500D01*
X147936931Y-97764530D01*
X147936926Y-97764531D01*
X147733791Y-97843226D01*
X147548567Y-97957912D01*
X147387573Y-98104676D01*
X147308455Y-98209447D01*
X147260633Y-98247687D01*
X147200343Y-98258381D01*
X147142286Y-98238923D01*
X147100619Y-98194055D01*
X147085501Y-98134720D01*
X147085501Y-97368112D01*
X147099625Y-97310637D01*
X147138781Y-97266256D01*
X147194048Y-97245079D01*
X147252832Y-97251929D01*
X147323199Y-97278175D01*
X147323202Y-97278175D01*
X147323203Y-97278176D01*
X147372852Y-97288976D01*
X147588840Y-97335961D01*
X147860000Y-97355355D01*
X148131160Y-97335961D01*
X148396801Y-97278175D01*
X148651513Y-97183172D01*
X148890113Y-97052887D01*
X149107742Y-96889971D01*
X149299971Y-96697742D01*
X149462887Y-96480113D01*
X149526668Y-96363305D01*
X149571466Y-96316546D01*
X149633729Y-96298746D01*
X149696475Y-96314760D01*
X149742591Y-96360222D01*
X149759500Y-96422733D01*
X149759500Y-105327267D01*
X149742591Y-105389778D01*
X149696475Y-105435240D01*
X149633729Y-105451254D01*
X149571466Y-105433454D01*
X149526668Y-105386694D01*
X149462887Y-105269887D01*
X149299971Y-105052258D01*
X149107742Y-104860029D01*
X148890113Y-104697113D01*
X148890114Y-104697113D01*
X148890108Y-104697109D01*
X148651519Y-104566831D01*
X148651517Y-104566830D01*
X148651513Y-104566828D01*
X148396801Y-104471825D01*
X148396796Y-104471823D01*
X148131161Y-104414039D01*
X147860000Y-104394644D01*
X147588838Y-104414039D01*
X147323203Y-104471823D01*
X147189150Y-104521823D01*
X147068487Y-104566828D01*
X147068484Y-104566829D01*
X147068480Y-104566831D01*
X146829891Y-104697109D01*
X146612255Y-104860031D01*
X146420031Y-105052255D01*
X146257109Y-105269891D01*
X146126831Y-105508480D01*
X146126829Y-105508484D01*
X146126828Y-105508487D01*
X146121828Y-105521893D01*
X146031823Y-105763203D01*
X145974039Y-106028838D01*
X145954644Y-106300000D01*
X145974039Y-106571161D01*
X146031823Y-106836796D01*
X146031825Y-106836801D01*
X146126828Y-107091513D01*
X146126830Y-107091517D01*
X146126831Y-107091519D01*
X146257109Y-107330108D01*
X146257113Y-107330113D01*
X146420029Y-107547742D01*
X146612258Y-107739971D01*
X146679046Y-107789968D01*
X146829891Y-107902890D01*
X147025802Y-108009864D01*
X147068487Y-108033172D01*
X147323199Y-108128175D01*
X147323202Y-108128175D01*
X147323203Y-108128176D01*
X147372852Y-108138976D01*
X147588840Y-108185961D01*
X147860000Y-108205355D01*
X148131160Y-108185961D01*
X148396801Y-108128175D01*
X148651513Y-108033172D01*
X148890113Y-107902887D01*
X149107742Y-107739971D01*
X149299971Y-107547742D01*
X149462887Y-107330113D01*
X149526668Y-107213305D01*
X149571466Y-107166546D01*
X149633729Y-107148746D01*
X149696475Y-107164760D01*
X149742591Y-107210222D01*
X149759500Y-107272733D01*
X149759500Y-115847438D01*
X149759394Y-115852563D01*
X149750525Y-116066987D01*
X149750513Y-116067271D01*
X149741948Y-116263428D01*
X149741114Y-116273357D01*
X149714568Y-116486321D01*
X149714459Y-116487169D01*
X149688422Y-116684936D01*
X149686844Y-116694196D01*
X149642971Y-116903439D01*
X149642671Y-116904832D01*
X149599321Y-117100371D01*
X149597105Y-117108914D01*
X149536186Y-117313538D01*
X149535602Y-117315444D01*
X149475302Y-117506689D01*
X149472559Y-117514475D01*
X149395008Y-117713224D01*
X149394051Y-117715603D01*
X149317260Y-117900993D01*
X149314099Y-117908001D01*
X149220437Y-118099587D01*
X149219026Y-118102383D01*
X149126346Y-118280420D01*
X149122880Y-118286636D01*
X149013743Y-118469793D01*
X149011800Y-118472946D01*
X148903920Y-118642282D01*
X148900257Y-118647710D01*
X148776399Y-118821184D01*
X148773858Y-118824616D01*
X148651626Y-118983912D01*
X148647872Y-118988567D01*
X148510107Y-119151226D01*
X148506908Y-119154858D01*
X148371254Y-119302899D01*
X148367512Y-119306807D01*
X148216807Y-119457512D01*
X148212899Y-119461254D01*
X148064858Y-119596908D01*
X148061226Y-119600107D01*
X147898567Y-119737872D01*
X147893912Y-119741626D01*
X147734616Y-119863858D01*
X147731184Y-119866399D01*
X147557710Y-119990257D01*
X147552282Y-119993920D01*
X147382946Y-120101800D01*
X147379793Y-120103743D01*
X147196636Y-120212880D01*
X147190420Y-120216346D01*
X147012383Y-120309026D01*
X147009587Y-120310437D01*
X146818001Y-120404099D01*
X146810993Y-120407260D01*
X146625603Y-120484051D01*
X146623224Y-120485008D01*
X146424475Y-120562559D01*
X146416689Y-120565302D01*
X146225444Y-120625602D01*
X146223538Y-120626186D01*
X146018914Y-120687105D01*
X146010371Y-120689321D01*
X145814832Y-120732671D01*
X145813439Y-120732971D01*
X145604196Y-120776844D01*
X145594936Y-120778422D01*
X145397169Y-120804459D01*
X145396321Y-120804568D01*
X145183357Y-120831114D01*
X145173428Y-120831948D01*
X144977381Y-120840508D01*
X144977097Y-120840520D01*
X144762563Y-120849394D01*
X144757438Y-120849500D01*
X136132733Y-120849500D01*
X136070222Y-120832591D01*
X136024760Y-120786475D01*
X136008746Y-120723729D01*
X136026546Y-120661466D01*
X136073305Y-120616668D01*
X136190113Y-120552887D01*
X136407742Y-120389971D01*
X136599971Y-120197742D01*
X136762887Y-119980113D01*
X136767606Y-119971472D01*
X136826367Y-119863858D01*
X136893172Y-119741513D01*
X136988175Y-119486801D01*
X137045961Y-119221160D01*
X137065355Y-118950000D01*
X137045961Y-118678840D01*
X136988175Y-118413199D01*
X136893172Y-118158487D01*
X136861010Y-118099587D01*
X136762890Y-117919891D01*
X136685551Y-117816579D01*
X136599971Y-117702258D01*
X136407742Y-117510029D01*
X136190113Y-117347113D01*
X136190114Y-117347113D01*
X136190108Y-117347109D01*
X135951519Y-117216831D01*
X135951517Y-117216830D01*
X135951513Y-117216828D01*
X135696801Y-117121825D01*
X135696796Y-117121823D01*
X135431161Y-117064039D01*
X135160000Y-117044644D01*
X134888838Y-117064039D01*
X134623200Y-117121824D01*
X134401586Y-117204482D01*
X134331895Y-117209466D01*
X134270572Y-117175981D01*
X134260803Y-117166212D01*
X134247907Y-117150114D01*
X134196776Y-117102099D01*
X134193979Y-117099388D01*
X134174471Y-117079880D01*
X134171291Y-117077413D01*
X134162425Y-117069840D01*
X134130583Y-117039939D01*
X134113025Y-117030286D01*
X134096765Y-117019605D01*
X134080937Y-117007328D01*
X134040852Y-116989981D01*
X134030362Y-116984842D01*
X133992092Y-116963803D01*
X133972692Y-116958822D01*
X133954285Y-116952520D01*
X133935898Y-116944563D01*
X133892759Y-116937730D01*
X133881325Y-116935362D01*
X133839020Y-116924501D01*
X133818985Y-116924501D01*
X133799587Y-116922974D01*
X133792163Y-116921798D01*
X133779806Y-116919841D01*
X133779805Y-116919841D01*
X133754469Y-116922236D01*
X133736326Y-116923951D01*
X133724657Y-116924501D01*
X131592743Y-116924501D01*
X131572236Y-116922236D01*
X131502126Y-116924440D01*
X131498231Y-116924501D01*
X131470649Y-116924501D01*
X131466664Y-116925004D01*
X131455032Y-116925919D01*
X131411368Y-116927291D01*
X131392128Y-116932881D01*
X131373080Y-116936826D01*
X131353208Y-116939336D01*
X131312598Y-116955414D01*
X131301553Y-116959195D01*
X131259609Y-116971382D01*
X131242364Y-116981580D01*
X131224903Y-116990134D01*
X131206266Y-116997513D01*
X131170930Y-117023186D01*
X131161173Y-117029596D01*
X131123579Y-117051830D01*
X131109412Y-117065997D01*
X131094623Y-117078627D01*
X131078412Y-117090405D01*
X131050571Y-117124059D01*
X131042710Y-117132698D01*
X130018465Y-118156942D01*
X129967465Y-118187712D01*
X129908000Y-118191150D01*
X129851570Y-118180602D01*
X129818926Y-118174500D01*
X129601074Y-118174500D01*
X129447756Y-118203160D01*
X129386926Y-118214531D01*
X129183791Y-118293226D01*
X128998567Y-118407911D01*
X128837573Y-118554677D01*
X128816170Y-118583020D01*
X128808955Y-118592575D01*
X128808953Y-118592577D01*
X128765271Y-118628850D01*
X128709999Y-118641849D01*
X128654728Y-118628849D01*
X128611046Y-118592575D01*
X128582428Y-118554678D01*
X128421432Y-118407912D01*
X128236208Y-118293226D01*
X128033073Y-118214531D01*
X128033070Y-118214530D01*
X128033069Y-118214530D01*
X127818926Y-118174500D01*
X127601074Y-118174500D01*
X127447756Y-118203160D01*
X127386926Y-118214531D01*
X127183791Y-118293226D01*
X126998567Y-118407912D01*
X126837573Y-118554676D01*
X126706287Y-118728528D01*
X126609181Y-118923542D01*
X126549564Y-119133074D01*
X126529464Y-119350000D01*
X126549564Y-119566925D01*
X126609181Y-119776457D01*
X126706287Y-119971471D01*
X126837573Y-120145323D01*
X126949031Y-120246929D01*
X126998568Y-120292088D01*
X127009840Y-120299067D01*
X127183791Y-120406773D01*
X127342745Y-120468352D01*
X127386931Y-120485470D01*
X127601074Y-120525500D01*
X127818924Y-120525500D01*
X127818926Y-120525500D01*
X128033069Y-120485470D01*
X128180359Y-120428409D01*
X128236208Y-120406773D01*
X128240527Y-120404099D01*
X128421432Y-120292088D01*
X128582427Y-120145322D01*
X128611047Y-120107422D01*
X128654725Y-120071151D01*
X128709997Y-120058150D01*
X128765270Y-120071149D01*
X128808953Y-120107423D01*
X128837573Y-120145323D01*
X128949031Y-120246929D01*
X128998568Y-120292088D01*
X129009840Y-120299067D01*
X129183791Y-120406773D01*
X129342745Y-120468352D01*
X129386931Y-120485470D01*
X129601074Y-120525500D01*
X129818924Y-120525500D01*
X129818926Y-120525500D01*
X130033069Y-120485470D01*
X130180359Y-120428409D01*
X130236208Y-120406773D01*
X130240527Y-120404099D01*
X130421432Y-120292088D01*
X130432781Y-120281741D01*
X130493701Y-120251458D01*
X130561435Y-120257877D01*
X130615586Y-120299067D01*
X130677810Y-120382188D01*
X130792910Y-120468352D01*
X130927624Y-120518597D01*
X130987176Y-120525000D01*
X131460000Y-120525000D01*
X131460000Y-119600000D01*
X131960000Y-119600000D01*
X131960000Y-120525000D01*
X132432824Y-120525000D01*
X132492375Y-120518597D01*
X132627089Y-120468352D01*
X132742188Y-120382188D01*
X132828352Y-120267089D01*
X132878597Y-120132375D01*
X132885000Y-120072824D01*
X132885000Y-119600000D01*
X131960000Y-119600000D01*
X131460000Y-119600000D01*
X131460000Y-119224000D01*
X131476613Y-119162000D01*
X131522000Y-119116613D01*
X131584000Y-119100000D01*
X132885000Y-119100000D01*
X132885000Y-118627176D01*
X132878597Y-118567624D01*
X132828352Y-118432910D01*
X132784111Y-118373812D01*
X132759872Y-118310554D01*
X132772494Y-118243997D01*
X132818211Y-118194006D01*
X132883378Y-118175501D01*
X133241888Y-118175501D01*
X133299363Y-118189625D01*
X133343744Y-118228781D01*
X133364921Y-118284048D01*
X133358070Y-118342832D01*
X133346516Y-118373812D01*
X133331823Y-118413203D01*
X133274039Y-118678838D01*
X133254644Y-118950000D01*
X133274039Y-119221161D01*
X133331823Y-119486796D01*
X133331825Y-119486801D01*
X133426828Y-119741513D01*
X133426830Y-119741517D01*
X133426831Y-119741519D01*
X133557109Y-119980108D01*
X133557113Y-119980113D01*
X133720029Y-120197742D01*
X133912258Y-120389971D01*
X134129887Y-120552887D01*
X134246694Y-120616668D01*
X134293454Y-120661466D01*
X134311254Y-120723729D01*
X134295240Y-120786475D01*
X134249778Y-120832591D01*
X134187267Y-120849500D01*
X125253374Y-120849500D01*
X125190864Y-120832591D01*
X125145401Y-120786475D01*
X125129387Y-120723729D01*
X125147187Y-120661467D01*
X125193947Y-120616668D01*
X125329839Y-120542465D01*
X125455124Y-120448677D01*
X124300001Y-119293553D01*
X124300000Y-119293553D01*
X123144874Y-120448677D01*
X123144875Y-120448678D01*
X123270157Y-120542463D01*
X123406053Y-120616668D01*
X123452813Y-120661467D01*
X123470613Y-120723729D01*
X123454599Y-120786475D01*
X123409136Y-120832591D01*
X123346626Y-120849500D01*
X114762562Y-120849500D01*
X114757437Y-120849394D01*
X114542901Y-120840520D01*
X114542617Y-120840508D01*
X114346570Y-120831948D01*
X114336641Y-120831114D01*
X114123677Y-120804568D01*
X114122829Y-120804459D01*
X113925062Y-120778422D01*
X113915802Y-120776844D01*
X113706559Y-120732971D01*
X113705166Y-120732671D01*
X113509627Y-120689321D01*
X113501084Y-120687105D01*
X113296460Y-120626186D01*
X113294554Y-120625602D01*
X113103309Y-120565302D01*
X113095523Y-120562559D01*
X112999266Y-120525000D01*
X112896734Y-120484991D01*
X112894395Y-120484051D01*
X112709005Y-120407260D01*
X112701997Y-120404099D01*
X112510411Y-120310437D01*
X112507615Y-120309026D01*
X112329578Y-120216346D01*
X112323362Y-120212880D01*
X112140205Y-120103743D01*
X112137052Y-120101800D01*
X111967716Y-119993920D01*
X111962288Y-119990257D01*
X111788814Y-119866399D01*
X111785382Y-119863858D01*
X111626086Y-119741626D01*
X111621431Y-119737872D01*
X111458772Y-119600107D01*
X111455155Y-119596921D01*
X111307076Y-119461232D01*
X111303191Y-119457512D01*
X111152486Y-119306807D01*
X111148769Y-119302925D01*
X111013072Y-119154838D01*
X111009891Y-119151226D01*
X110872126Y-118988567D01*
X110868372Y-118983912D01*
X110834677Y-118940000D01*
X122395146Y-118940000D01*
X122414536Y-119211089D01*
X122472305Y-119476654D01*
X122567287Y-119731307D01*
X122697536Y-119969842D01*
X122791320Y-120095124D01*
X122791321Y-120095124D01*
X123946446Y-118940001D01*
X124653553Y-118940001D01*
X125808677Y-120095124D01*
X125902465Y-119969839D01*
X126032712Y-119731307D01*
X126127694Y-119476654D01*
X126185463Y-119211089D01*
X126204853Y-118940000D01*
X126185463Y-118668910D01*
X126127694Y-118403345D01*
X126032712Y-118148692D01*
X125902463Y-117910157D01*
X125808678Y-117784875D01*
X125808677Y-117784874D01*
X124653553Y-118940000D01*
X124653553Y-118940001D01*
X123946446Y-118940001D01*
X123946446Y-118939999D01*
X122791321Y-117784875D01*
X122697534Y-117910162D01*
X122567286Y-118148692D01*
X122472305Y-118403345D01*
X122414536Y-118668910D01*
X122395146Y-118940000D01*
X110834677Y-118940000D01*
X110746140Y-118824616D01*
X110743599Y-118821184D01*
X110619741Y-118647710D01*
X110616078Y-118642282D01*
X110508198Y-118472946D01*
X110506255Y-118469793D01*
X110505213Y-118468045D01*
X110472535Y-118413203D01*
X110397118Y-118286636D01*
X110393652Y-118280420D01*
X110300972Y-118102383D01*
X110299561Y-118099587D01*
X110287982Y-118075903D01*
X110205886Y-117907972D01*
X110202752Y-117901024D01*
X110125911Y-117715513D01*
X110125046Y-117713363D01*
X110047431Y-117514453D01*
X110044696Y-117506689D01*
X110026534Y-117449087D01*
X109984359Y-117315325D01*
X109983850Y-117313665D01*
X109922889Y-117108901D01*
X109920680Y-117100386D01*
X109880194Y-116917764D01*
X111905787Y-116917764D01*
X111935413Y-117187016D01*
X111977267Y-117347109D01*
X112003928Y-117449088D01*
X112057720Y-117575670D01*
X112109871Y-117698392D01*
X112250982Y-117929611D01*
X112340253Y-118036881D01*
X112424255Y-118137820D01*
X112625998Y-118318582D01*
X112851910Y-118468044D01*
X112958211Y-118517875D01*
X113097177Y-118583021D01*
X113356562Y-118661058D01*
X113356569Y-118661060D01*
X113624561Y-118700500D01*
X113827631Y-118700500D01*
X113827634Y-118700500D01*
X114030156Y-118685677D01*
X114105425Y-118668910D01*
X114294553Y-118626780D01*
X114547558Y-118530014D01*
X114783777Y-118397441D01*
X114998177Y-118231888D01*
X115186186Y-118036881D01*
X115343799Y-117816579D01*
X115467656Y-117575675D01*
X115516903Y-117431321D01*
X123144875Y-117431321D01*
X124300000Y-118586446D01*
X124300001Y-118586446D01*
X125455124Y-117431321D01*
X125455124Y-117431320D01*
X125329842Y-117337536D01*
X125091307Y-117207287D01*
X124836654Y-117112305D01*
X124571089Y-117054536D01*
X124300000Y-117035146D01*
X124028910Y-117054536D01*
X123763345Y-117112305D01*
X123508692Y-117207286D01*
X123270162Y-117337534D01*
X123144875Y-117431321D01*
X115516903Y-117431321D01*
X115555118Y-117319305D01*
X115604319Y-117052933D01*
X115609259Y-116917764D01*
X143905787Y-116917764D01*
X143935413Y-117187016D01*
X143977267Y-117347109D01*
X144003928Y-117449088D01*
X144057720Y-117575670D01*
X144109871Y-117698392D01*
X144250982Y-117929611D01*
X144340253Y-118036881D01*
X144424255Y-118137820D01*
X144625998Y-118318582D01*
X144851910Y-118468044D01*
X144958211Y-118517875D01*
X145097177Y-118583021D01*
X145356562Y-118661058D01*
X145356569Y-118661060D01*
X145624561Y-118700500D01*
X145827631Y-118700500D01*
X145827634Y-118700500D01*
X146030156Y-118685677D01*
X146105425Y-118668910D01*
X146294553Y-118626780D01*
X146547558Y-118530014D01*
X146783777Y-118397441D01*
X146998177Y-118231888D01*
X147186186Y-118036881D01*
X147343799Y-117816579D01*
X147467656Y-117575675D01*
X147555118Y-117319305D01*
X147604319Y-117052933D01*
X147614212Y-116782235D01*
X147584586Y-116512982D01*
X147516072Y-116250912D01*
X147410130Y-116001610D01*
X147319168Y-115852563D01*
X147269017Y-115770388D01*
X147095746Y-115562181D01*
X146990758Y-115468112D01*
X146894002Y-115381418D01*
X146668090Y-115231956D01*
X146668086Y-115231954D01*
X146422822Y-115116978D01*
X146163437Y-115038941D01*
X146163431Y-115038940D01*
X145895439Y-114999500D01*
X145692369Y-114999500D01*
X145692366Y-114999500D01*
X145489843Y-115014322D01*
X145225449Y-115073219D01*
X144972441Y-115169986D01*
X144736223Y-115302559D01*
X144521825Y-115468109D01*
X144333813Y-115663120D01*
X144176201Y-115883420D01*
X144052342Y-116124329D01*
X143964881Y-116380695D01*
X143915680Y-116647066D01*
X143905787Y-116917764D01*
X115609259Y-116917764D01*
X115614212Y-116782235D01*
X115584586Y-116512982D01*
X115516072Y-116250912D01*
X115410130Y-116001610D01*
X115319168Y-115852563D01*
X115269017Y-115770388D01*
X115095746Y-115562181D01*
X114990758Y-115468112D01*
X114894002Y-115381418D01*
X114668090Y-115231956D01*
X114668086Y-115231954D01*
X114422822Y-115116978D01*
X114163437Y-115038941D01*
X114163431Y-115038940D01*
X113895439Y-114999500D01*
X113692369Y-114999500D01*
X113692366Y-114999500D01*
X113489843Y-115014322D01*
X113225449Y-115073219D01*
X112972441Y-115169986D01*
X112736223Y-115302559D01*
X112521825Y-115468109D01*
X112333813Y-115663120D01*
X112176201Y-115883420D01*
X112052342Y-116124329D01*
X111964881Y-116380695D01*
X111915680Y-116647066D01*
X111905787Y-116917764D01*
X109880194Y-116917764D01*
X109877312Y-116904765D01*
X109877027Y-116903439D01*
X109871495Y-116877057D01*
X109833153Y-116694192D01*
X109831576Y-116684936D01*
X109805490Y-116486793D01*
X109805483Y-116486743D01*
X109778881Y-116273330D01*
X109778052Y-116263455D01*
X109769486Y-116067271D01*
X109760605Y-115852562D01*
X109760500Y-115847439D01*
X109760500Y-107322733D01*
X109777409Y-107260222D01*
X109823525Y-107214760D01*
X109886271Y-107198746D01*
X109948534Y-107216546D01*
X109993331Y-107263305D01*
X110057113Y-107380113D01*
X110220029Y-107597742D01*
X110412258Y-107789971D01*
X110628281Y-107951685D01*
X110629891Y-107952890D01*
X110825802Y-108059864D01*
X110868487Y-108083172D01*
X111123199Y-108178175D01*
X111123202Y-108178175D01*
X111123203Y-108178176D01*
X111158986Y-108185960D01*
X111388840Y-108235961D01*
X111660000Y-108255355D01*
X111931160Y-108235961D01*
X112196801Y-108178175D01*
X112451513Y-108083172D01*
X112690113Y-107952887D01*
X112907742Y-107789971D01*
X113099971Y-107597742D01*
X113262887Y-107380113D01*
X113393172Y-107141513D01*
X113488175Y-106886801D01*
X113545961Y-106621160D01*
X113565355Y-106350000D01*
X113545961Y-106078840D01*
X113488175Y-105813199D01*
X113405517Y-105591584D01*
X113400533Y-105521893D01*
X113434016Y-105460572D01*
X113443785Y-105450803D01*
X113459886Y-105437905D01*
X113461873Y-105435788D01*
X113461876Y-105435787D01*
X113507931Y-105386742D01*
X113510612Y-105383977D01*
X113517322Y-105377267D01*
X113530119Y-105364471D01*
X113532580Y-105361296D01*
X113540151Y-105352432D01*
X113570061Y-105320583D01*
X113579712Y-105303027D01*
X113590392Y-105286768D01*
X113602673Y-105270937D01*
X113620017Y-105230852D01*
X113625159Y-105220357D01*
X113646196Y-105182093D01*
X113651177Y-105162689D01*
X113657479Y-105144284D01*
X113665437Y-105125896D01*
X113672269Y-105082749D01*
X113674638Y-105071317D01*
X113685499Y-105029021D01*
X113685499Y-105008985D01*
X113687026Y-104989586D01*
X113690159Y-104969805D01*
X113686049Y-104926326D01*
X113685499Y-104914657D01*
X113685499Y-103150000D01*
X147085000Y-103150000D01*
X147085000Y-103622824D01*
X147091402Y-103682375D01*
X147141647Y-103817089D01*
X147227811Y-103932188D01*
X147342910Y-104018352D01*
X147477624Y-104068597D01*
X147537176Y-104075000D01*
X148010000Y-104075000D01*
X148010000Y-103150000D01*
X148510000Y-103150000D01*
X148510000Y-104075000D01*
X148982824Y-104075000D01*
X149042375Y-104068597D01*
X149177089Y-104018352D01*
X149292188Y-103932188D01*
X149378352Y-103817089D01*
X149428597Y-103682375D01*
X149435000Y-103622824D01*
X149435000Y-103150000D01*
X148510000Y-103150000D01*
X148010000Y-103150000D01*
X147085000Y-103150000D01*
X113685499Y-103150000D01*
X113685499Y-102782743D01*
X113687763Y-102762236D01*
X113686184Y-102712000D01*
X113685560Y-102692126D01*
X113685499Y-102688231D01*
X113685499Y-102660652D01*
X113684996Y-102656671D01*
X113684079Y-102645018D01*
X113682708Y-102601372D01*
X113677119Y-102582139D01*
X113673173Y-102563081D01*
X113670663Y-102543205D01*
X113654587Y-102502603D01*
X113650803Y-102491552D01*
X113644880Y-102471167D01*
X113638617Y-102449609D01*
X113628413Y-102432354D01*
X113619860Y-102414894D01*
X113612485Y-102396268D01*
X113612485Y-102396267D01*
X113586807Y-102360924D01*
X113580400Y-102351170D01*
X113558168Y-102313578D01*
X113544005Y-102299415D01*
X113531366Y-102284616D01*
X113519594Y-102268412D01*
X113485940Y-102240572D01*
X113477298Y-102232708D01*
X112456599Y-101212009D01*
X112427650Y-101166439D01*
X112420809Y-101112887D01*
X112420938Y-101111489D01*
X112440536Y-100900000D01*
X112420435Y-100683077D01*
X112420435Y-100683074D01*
X112360818Y-100473542D01*
X112263712Y-100278528D01*
X112132426Y-100104676D01*
X112008427Y-99991637D01*
X111972699Y-99933934D01*
X111972699Y-99866066D01*
X112008427Y-99808363D01*
X112132426Y-99695323D01*
X112132427Y-99695322D01*
X112263712Y-99521472D01*
X112360817Y-99326459D01*
X112360818Y-99326457D01*
X112420435Y-99116925D01*
X112429670Y-99017257D01*
X112440536Y-98900000D01*
X112420435Y-98683077D01*
X112420435Y-98683074D01*
X112360818Y-98473542D01*
X112263712Y-98278528D01*
X112132426Y-98104676D01*
X111971432Y-97957912D01*
X111786208Y-97843226D01*
X111583073Y-97764531D01*
X111583070Y-97764530D01*
X111583069Y-97764530D01*
X111368926Y-97724500D01*
X111151074Y-97724500D01*
X110936931Y-97764530D01*
X110936926Y-97764531D01*
X110733791Y-97843226D01*
X110548567Y-97957912D01*
X110387573Y-98104676D01*
X110256287Y-98278528D01*
X110159181Y-98473542D01*
X110099564Y-98683074D01*
X110079464Y-98899999D01*
X110099564Y-99116925D01*
X110159181Y-99326457D01*
X110256287Y-99521471D01*
X110387573Y-99695323D01*
X110511572Y-99808363D01*
X110547300Y-99866066D01*
X110547300Y-99933934D01*
X110511572Y-99991637D01*
X110387573Y-100104676D01*
X110256287Y-100278528D01*
X110159181Y-100473542D01*
X110099564Y-100683074D01*
X110079464Y-100899999D01*
X110099564Y-101116925D01*
X110159181Y-101326457D01*
X110256287Y-101521471D01*
X110338048Y-101629740D01*
X110362175Y-101689401D01*
X110353151Y-101753119D01*
X110313406Y-101803733D01*
X110227811Y-101867809D01*
X110141647Y-101982910D01*
X110091402Y-102117624D01*
X110085000Y-102177176D01*
X110085000Y-102650000D01*
X111386000Y-102650000D01*
X111448000Y-102666613D01*
X111493387Y-102712000D01*
X111510000Y-102774000D01*
X111510000Y-104075000D01*
X111982824Y-104075000D01*
X112042375Y-104068597D01*
X112177089Y-104018352D01*
X112236188Y-103974111D01*
X112299446Y-103949872D01*
X112366003Y-103962494D01*
X112415994Y-104008211D01*
X112434499Y-104073378D01*
X112434499Y-104431888D01*
X112420375Y-104489363D01*
X112381219Y-104533744D01*
X112325952Y-104554921D01*
X112267167Y-104548070D01*
X112196801Y-104521825D01*
X112196796Y-104521823D01*
X111931161Y-104464039D01*
X111660000Y-104444644D01*
X111388838Y-104464039D01*
X111123203Y-104521823D01*
X110978956Y-104575624D01*
X110868487Y-104616828D01*
X110868484Y-104616829D01*
X110868480Y-104616831D01*
X110629891Y-104747109D01*
X110412255Y-104910031D01*
X110220031Y-105102255D01*
X110057113Y-105319886D01*
X110053083Y-105327267D01*
X109993331Y-105436694D01*
X109948534Y-105483454D01*
X109886271Y-105501254D01*
X109823525Y-105485240D01*
X109777409Y-105439778D01*
X109760500Y-105377267D01*
X109760500Y-103150000D01*
X110085000Y-103150000D01*
X110085000Y-103622824D01*
X110091402Y-103682375D01*
X110141647Y-103817089D01*
X110227811Y-103932188D01*
X110342910Y-104018352D01*
X110477624Y-104068597D01*
X110537176Y-104075000D01*
X111010000Y-104075000D01*
X111010000Y-103150000D01*
X110085000Y-103150000D01*
X109760500Y-103150000D01*
X109760500Y-97008677D01*
X110504874Y-97008677D01*
X110504875Y-97008678D01*
X110630157Y-97102463D01*
X110868692Y-97232712D01*
X111123345Y-97327694D01*
X111388910Y-97385463D01*
X111660000Y-97404853D01*
X111931089Y-97385463D01*
X112196654Y-97327694D01*
X112451307Y-97232712D01*
X112689839Y-97102465D01*
X112815124Y-97008677D01*
X111660001Y-95853553D01*
X111660000Y-95853553D01*
X110504874Y-97008677D01*
X109760500Y-97008677D01*
X109760500Y-96471688D01*
X109777409Y-96409178D01*
X109823525Y-96363715D01*
X109886271Y-96347701D01*
X109948533Y-96365501D01*
X109993332Y-96412261D01*
X110057536Y-96529842D01*
X110151320Y-96655124D01*
X111306446Y-95500000D01*
X111306446Y-95499999D01*
X112013553Y-95499999D01*
X113168677Y-96655124D01*
X113262465Y-96529839D01*
X113392712Y-96291307D01*
X113487694Y-96036654D01*
X113545463Y-95771089D01*
X113564853Y-95499999D01*
X113545463Y-95228910D01*
X113487694Y-94963345D01*
X113392712Y-94708692D01*
X113262463Y-94470157D01*
X113168678Y-94344875D01*
X113168678Y-94344874D01*
X112013553Y-95499999D01*
X111306446Y-95499999D01*
X111306446Y-95499998D01*
X110151321Y-94344875D01*
X110057534Y-94470162D01*
X109993332Y-94587740D01*
X109948533Y-94634500D01*
X109886271Y-94652300D01*
X109823525Y-94636286D01*
X109777409Y-94590823D01*
X109760500Y-94528313D01*
X109760500Y-93991321D01*
X110504875Y-93991321D01*
X111660000Y-95146446D01*
X111660001Y-95146446D01*
X112815124Y-93991321D01*
X112815124Y-93991320D01*
X112689842Y-93897536D01*
X112451307Y-93767287D01*
X112196654Y-93672305D01*
X111931089Y-93614536D01*
X111660000Y-93595146D01*
X111388910Y-93614536D01*
X111123345Y-93672305D01*
X110868692Y-93767286D01*
X110630162Y-93897534D01*
X110504875Y-93991321D01*
X109760500Y-93991321D01*
X109760500Y-85852561D01*
X109760606Y-85847437D01*
X109761882Y-85816579D01*
X109769488Y-85632687D01*
X109778052Y-85436540D01*
X109778881Y-85426673D01*
X109805491Y-85213195D01*
X109831578Y-85015045D01*
X109833151Y-85005816D01*
X109851613Y-84917764D01*
X111905787Y-84917764D01*
X111935413Y-85187016D01*
X111946898Y-85230946D01*
X112003928Y-85449088D01*
X112109870Y-85698390D01*
X112109871Y-85698392D01*
X112250982Y-85929611D01*
X112340253Y-86036881D01*
X112424255Y-86137820D01*
X112625998Y-86318582D01*
X112851910Y-86468044D01*
X112958211Y-86517876D01*
X113097177Y-86583021D01*
X113356562Y-86661058D01*
X113356569Y-86661060D01*
X113624561Y-86700500D01*
X113827631Y-86700500D01*
X113827634Y-86700500D01*
X114030156Y-86685677D01*
X114030156Y-86685676D01*
X114294553Y-86626780D01*
X114547558Y-86530014D01*
X114783777Y-86397441D01*
X114998177Y-86231888D01*
X115186186Y-86036881D01*
X115343799Y-85816579D01*
X115467656Y-85575675D01*
X115555118Y-85319305D01*
X115604319Y-85052933D01*
X115609259Y-84917764D01*
X143905787Y-84917764D01*
X143935413Y-85187016D01*
X143946898Y-85230946D01*
X144003928Y-85449088D01*
X144109870Y-85698390D01*
X144109871Y-85698392D01*
X144250982Y-85929611D01*
X144340253Y-86036881D01*
X144424255Y-86137820D01*
X144625998Y-86318582D01*
X144851910Y-86468044D01*
X144958211Y-86517876D01*
X145097177Y-86583021D01*
X145356562Y-86661058D01*
X145356569Y-86661060D01*
X145624561Y-86700500D01*
X145827631Y-86700500D01*
X145827634Y-86700500D01*
X146030156Y-86685677D01*
X146030156Y-86685676D01*
X146294553Y-86626780D01*
X146547558Y-86530014D01*
X146783777Y-86397441D01*
X146998177Y-86231888D01*
X147186186Y-86036881D01*
X147343799Y-85816579D01*
X147467656Y-85575675D01*
X147555118Y-85319305D01*
X147604319Y-85052933D01*
X147614212Y-84782235D01*
X147584586Y-84512982D01*
X147516072Y-84250912D01*
X147410130Y-84001610D01*
X147269018Y-83770390D01*
X147269017Y-83770388D01*
X147095746Y-83562181D01*
X147054807Y-83525500D01*
X146894002Y-83381418D01*
X146668090Y-83231956D01*
X146657629Y-83227052D01*
X146422822Y-83116978D01*
X146163437Y-83038941D01*
X146163431Y-83038940D01*
X145895439Y-82999500D01*
X145692369Y-82999500D01*
X145692366Y-82999500D01*
X145489843Y-83014322D01*
X145225449Y-83073219D01*
X144972441Y-83169986D01*
X144736223Y-83302559D01*
X144521825Y-83468109D01*
X144333813Y-83663120D01*
X144176201Y-83883420D01*
X144052342Y-84124329D01*
X143964881Y-84380695D01*
X143915680Y-84647066D01*
X143905787Y-84917764D01*
X115609259Y-84917764D01*
X115614212Y-84782235D01*
X115584586Y-84512982D01*
X115516072Y-84250912D01*
X115410130Y-84001610D01*
X115269018Y-83770390D01*
X115269017Y-83770388D01*
X115095746Y-83562181D01*
X115054807Y-83525500D01*
X114894002Y-83381418D01*
X114668090Y-83231956D01*
X114657629Y-83227052D01*
X114422822Y-83116978D01*
X114163437Y-83038941D01*
X114163431Y-83038940D01*
X113895439Y-82999500D01*
X113692369Y-82999500D01*
X113692366Y-82999500D01*
X113489843Y-83014322D01*
X113225449Y-83073219D01*
X112972441Y-83169986D01*
X112736223Y-83302559D01*
X112521825Y-83468109D01*
X112333813Y-83663120D01*
X112176201Y-83883420D01*
X112052342Y-84124329D01*
X111964881Y-84380695D01*
X111915680Y-84647066D01*
X111905787Y-84917764D01*
X109851613Y-84917764D01*
X109877062Y-84796392D01*
X109877297Y-84795302D01*
X109920684Y-84599599D01*
X109922885Y-84591111D01*
X109983875Y-84386253D01*
X109984337Y-84384743D01*
X110044704Y-84193284D01*
X110047423Y-84185565D01*
X110125074Y-83986564D01*
X110125883Y-83984553D01*
X110202762Y-83798951D01*
X110205874Y-83792051D01*
X110299587Y-83600357D01*
X110300945Y-83597667D01*
X110393667Y-83419551D01*
X110397118Y-83413362D01*
X110506295Y-83230139D01*
X110508150Y-83227129D01*
X110616090Y-83057697D01*
X110619721Y-83052316D01*
X110743635Y-82878764D01*
X110746102Y-82875433D01*
X110868401Y-82716048D01*
X110872114Y-82711445D01*
X111009903Y-82548758D01*
X111013027Y-82545211D01*
X111148811Y-82397028D01*
X111152440Y-82393238D01*
X111303238Y-82242440D01*
X111307028Y-82238811D01*
X111455211Y-82103027D01*
X111458758Y-82099903D01*
X111621445Y-81962114D01*
X111626048Y-81958401D01*
X111785433Y-81836102D01*
X111788764Y-81833635D01*
X111962316Y-81709721D01*
X111967697Y-81706090D01*
X112137129Y-81598150D01*
X112140139Y-81596295D01*
X112323373Y-81487111D01*
X112329551Y-81483667D01*
X112507667Y-81390945D01*
X112510357Y-81389587D01*
X112702051Y-81295874D01*
X112708951Y-81292762D01*
X112894553Y-81215883D01*
X112896564Y-81215074D01*
X113095565Y-81137423D01*
X113103284Y-81134704D01*
X113294743Y-81074337D01*
X113296253Y-81073875D01*
X113501111Y-81012885D01*
X113509599Y-81010684D01*
X113705302Y-80967297D01*
X113706392Y-80967062D01*
X113915816Y-80923151D01*
X113925045Y-80921578D01*
X114123195Y-80895491D01*
X114336673Y-80868881D01*
X114346540Y-80868052D01*
X114542628Y-80859490D01*
X114757437Y-80850605D01*
X114762561Y-80850500D01*
X123337267Y-80850500D01*
X123399778Y-80867409D01*
G37*
%TD.AperFunction*%
%TD*%
%TA.AperFunction,Conductor*%
%TO.N,GND*%
G36*
X78369778Y-35827409D02*
G01*
X78415240Y-35873525D01*
X78431254Y-35936271D01*
X78413454Y-35998534D01*
X78366694Y-36043331D01*
X78302004Y-36078655D01*
X78249886Y-36107113D01*
X78032255Y-36270031D01*
X77840031Y-36462255D01*
X77677109Y-36679891D01*
X77546831Y-36918480D01*
X77451823Y-37173203D01*
X77394039Y-37438838D01*
X77374644Y-37710000D01*
X77394039Y-37981161D01*
X77451823Y-38246796D01*
X77453797Y-38252088D01*
X77546828Y-38501513D01*
X77546830Y-38501517D01*
X77546831Y-38501519D01*
X77677109Y-38740108D01*
X77677113Y-38740113D01*
X77840029Y-38957742D01*
X78032258Y-39149971D01*
X78248281Y-39311685D01*
X78249891Y-39312890D01*
X78445802Y-39419864D01*
X78488487Y-39443172D01*
X78743199Y-39538175D01*
X78743202Y-39538175D01*
X78743203Y-39538176D01*
X78792852Y-39548976D01*
X79008840Y-39595961D01*
X79280000Y-39615355D01*
X79551160Y-39595961D01*
X79816801Y-39538175D01*
X80038417Y-39455516D01*
X80084696Y-39447733D01*
X80130558Y-39457710D01*
X80169427Y-39484017D01*
X80179196Y-39493786D01*
X80192097Y-39509888D01*
X80194211Y-39511873D01*
X80194213Y-39511876D01*
X80235965Y-39551084D01*
X80243239Y-39557915D01*
X80246034Y-39560624D01*
X80265529Y-39580119D01*
X80268703Y-39582581D01*
X80277567Y-39590152D01*
X80309417Y-39620061D01*
X80319913Y-39625831D01*
X80326973Y-39629713D01*
X80343230Y-39640391D01*
X80359063Y-39652673D01*
X80375184Y-39659648D01*
X80399155Y-39670022D01*
X80409642Y-39675159D01*
X80447907Y-39696196D01*
X80467315Y-39701179D01*
X80485709Y-39707477D01*
X80504104Y-39715437D01*
X80547253Y-39722270D01*
X80558679Y-39724637D01*
X80574221Y-39728628D01*
X80600979Y-39735499D01*
X80600980Y-39735499D01*
X80621015Y-39735499D01*
X80640412Y-39737025D01*
X80660195Y-39740159D01*
X80703673Y-39736049D01*
X80715343Y-39735499D01*
X82847257Y-39735499D01*
X82867763Y-39737763D01*
X82870666Y-39737671D01*
X82870668Y-39737672D01*
X82937873Y-39735560D01*
X82941769Y-39735499D01*
X82969350Y-39735499D01*
X82969351Y-39735499D01*
X82973320Y-39734997D01*
X82984966Y-39734079D01*
X83028628Y-39732708D01*
X83047860Y-39727119D01*
X83066919Y-39723173D01*
X83074092Y-39722267D01*
X83086793Y-39720663D01*
X83127408Y-39704581D01*
X83138445Y-39700802D01*
X83180391Y-39688617D01*
X83197630Y-39678421D01*
X83215103Y-39669861D01*
X83233733Y-39662485D01*
X83269065Y-39636813D01*
X83278831Y-39630399D01*
X83316419Y-39608170D01*
X83316418Y-39608170D01*
X83316421Y-39608169D01*
X83330586Y-39594003D01*
X83345374Y-39581372D01*
X83361588Y-39569593D01*
X83389439Y-39535925D01*
X83397280Y-39527308D01*
X84421535Y-38503054D01*
X84472534Y-38472286D01*
X84531995Y-38468848D01*
X84621074Y-38485500D01*
X84838924Y-38485500D01*
X84838926Y-38485500D01*
X85053069Y-38445470D01*
X85188496Y-38393004D01*
X85256208Y-38366773D01*
X85262641Y-38362790D01*
X85441432Y-38252088D01*
X85452781Y-38241741D01*
X85513701Y-38211458D01*
X85581435Y-38217877D01*
X85635586Y-38259067D01*
X85697810Y-38342188D01*
X85812910Y-38428352D01*
X85947624Y-38478597D01*
X86007176Y-38485000D01*
X86480000Y-38485000D01*
X86480000Y-37560000D01*
X86980000Y-37560000D01*
X86980000Y-38485000D01*
X87452824Y-38485000D01*
X87512375Y-38478597D01*
X87647089Y-38428352D01*
X87762188Y-38342188D01*
X87848352Y-38227089D01*
X87898597Y-38092375D01*
X87905000Y-38032824D01*
X87905000Y-37560000D01*
X86980000Y-37560000D01*
X86480000Y-37560000D01*
X86480000Y-36135000D01*
X86980000Y-36135000D01*
X86980000Y-37060000D01*
X87905000Y-37060000D01*
X87905000Y-36587176D01*
X87898597Y-36527624D01*
X87848352Y-36392910D01*
X87762188Y-36277811D01*
X87647089Y-36191647D01*
X87512375Y-36141402D01*
X87452824Y-36135000D01*
X86980000Y-36135000D01*
X86480000Y-36135000D01*
X86007176Y-36135000D01*
X85947624Y-36141402D01*
X85812910Y-36191647D01*
X85697808Y-36277812D01*
X85635585Y-36360932D01*
X85581435Y-36402122D01*
X85513703Y-36408541D01*
X85452780Y-36378257D01*
X85441432Y-36367911D01*
X85256208Y-36253226D01*
X85053073Y-36174531D01*
X85053070Y-36174530D01*
X85053069Y-36174530D01*
X84838926Y-36134500D01*
X84621074Y-36134500D01*
X84406931Y-36174530D01*
X84406926Y-36174531D01*
X84203791Y-36253226D01*
X84018567Y-36367912D01*
X83857573Y-36514677D01*
X83828954Y-36552575D01*
X83785271Y-36588848D01*
X83730000Y-36601848D01*
X83674729Y-36588848D01*
X83631046Y-36552575D01*
X83602426Y-36514677D01*
X83441432Y-36367912D01*
X83256208Y-36253226D01*
X83053073Y-36174531D01*
X83053070Y-36174530D01*
X83053069Y-36174530D01*
X82838926Y-36134500D01*
X82621074Y-36134500D01*
X82406931Y-36174530D01*
X82406926Y-36174531D01*
X82203791Y-36253226D01*
X82018567Y-36367912D01*
X81857573Y-36514676D01*
X81726287Y-36688528D01*
X81629181Y-36883542D01*
X81569564Y-37093074D01*
X81549464Y-37309999D01*
X81569564Y-37526925D01*
X81629181Y-37736457D01*
X81726287Y-37931471D01*
X81857573Y-38105323D01*
X81947311Y-38187129D01*
X82018568Y-38252088D01*
X82021635Y-38253987D01*
X82023387Y-38255072D01*
X82066992Y-38301163D01*
X82082089Y-38362790D01*
X82064725Y-38423817D01*
X82019447Y-38468266D01*
X81958110Y-38484499D01*
X81198112Y-38484499D01*
X81140637Y-38470375D01*
X81096256Y-38431219D01*
X81075079Y-38375952D01*
X81081929Y-38317167D01*
X81108175Y-38246801D01*
X81165961Y-37981160D01*
X81185355Y-37710000D01*
X81165961Y-37438840D01*
X81114546Y-37202486D01*
X81108176Y-37173203D01*
X81108175Y-37173199D01*
X81013172Y-36918487D01*
X80946345Y-36796102D01*
X80882890Y-36679891D01*
X80824467Y-36601848D01*
X80719971Y-36462258D01*
X80527742Y-36270029D01*
X80310113Y-36107113D01*
X80193305Y-36043331D01*
X80146546Y-35998534D01*
X80128746Y-35936271D01*
X80144760Y-35873525D01*
X80190222Y-35827409D01*
X80252733Y-35810500D01*
X89207267Y-35810500D01*
X89269778Y-35827409D01*
X89315240Y-35873525D01*
X89331254Y-35936271D01*
X89313454Y-35998534D01*
X89266694Y-36043331D01*
X89202004Y-36078655D01*
X89149886Y-36107113D01*
X88932255Y-36270031D01*
X88740031Y-36462255D01*
X88577109Y-36679891D01*
X88446831Y-36918480D01*
X88351823Y-37173203D01*
X88294039Y-37438838D01*
X88274644Y-37710000D01*
X88294039Y-37981161D01*
X88351823Y-38246796D01*
X88353797Y-38252088D01*
X88446828Y-38501513D01*
X88446830Y-38501517D01*
X88446831Y-38501519D01*
X88577109Y-38740108D01*
X88577113Y-38740113D01*
X88740029Y-38957742D01*
X88932258Y-39149971D01*
X89148281Y-39311685D01*
X89149891Y-39312890D01*
X89345802Y-39419864D01*
X89388487Y-39443172D01*
X89643199Y-39538175D01*
X89643202Y-39538175D01*
X89643203Y-39538176D01*
X89692852Y-39548976D01*
X89908840Y-39595961D01*
X90180000Y-39615355D01*
X90451160Y-39595961D01*
X90716801Y-39538175D01*
X90971513Y-39443172D01*
X91210113Y-39312887D01*
X91427742Y-39149971D01*
X91619971Y-38957742D01*
X91782887Y-38740113D01*
X91913172Y-38501513D01*
X92008175Y-38246801D01*
X92065961Y-37981160D01*
X92085355Y-37710000D01*
X92065961Y-37438840D01*
X92014546Y-37202486D01*
X92008176Y-37173203D01*
X92008175Y-37173199D01*
X91913172Y-36918487D01*
X91846345Y-36796102D01*
X91782890Y-36679891D01*
X91724467Y-36601848D01*
X91619971Y-36462258D01*
X91427742Y-36270029D01*
X91210113Y-36107113D01*
X91093305Y-36043331D01*
X91046546Y-35998534D01*
X91028746Y-35936271D01*
X91044760Y-35873525D01*
X91090222Y-35827409D01*
X91152733Y-35810500D01*
X99727439Y-35810500D01*
X99732562Y-35810605D01*
X99947600Y-35819500D01*
X100143455Y-35828052D01*
X100153330Y-35828881D01*
X100366706Y-35855479D01*
X100366793Y-35855490D01*
X100564945Y-35881577D01*
X100574192Y-35883153D01*
X100783521Y-35927044D01*
X100784765Y-35927312D01*
X100980386Y-35970680D01*
X100988901Y-35972889D01*
X101193665Y-36033850D01*
X101195325Y-36034359D01*
X101386696Y-36094698D01*
X101394453Y-36097431D01*
X101593363Y-36175046D01*
X101595513Y-36175911D01*
X101781024Y-36252752D01*
X101787972Y-36255886D01*
X101955903Y-36337982D01*
X101979587Y-36349561D01*
X101982383Y-36350972D01*
X102160420Y-36443652D01*
X102166636Y-36447118D01*
X102349793Y-36556255D01*
X102352929Y-36558187D01*
X102398432Y-36587176D01*
X102522282Y-36666078D01*
X102527710Y-36669741D01*
X102701184Y-36793599D01*
X102704616Y-36796140D01*
X102863912Y-36918372D01*
X102868567Y-36922126D01*
X103031226Y-37059891D01*
X103034838Y-37063072D01*
X103182925Y-37198769D01*
X103186807Y-37202486D01*
X103337512Y-37353191D01*
X103341232Y-37357076D01*
X103476921Y-37505155D01*
X103480107Y-37508772D01*
X103617872Y-37671431D01*
X103621626Y-37676086D01*
X103743858Y-37835382D01*
X103746399Y-37838814D01*
X103870257Y-38012288D01*
X103873920Y-38017716D01*
X103981800Y-38187052D01*
X103983743Y-38190205D01*
X104092880Y-38373362D01*
X104096346Y-38379578D01*
X104189026Y-38557615D01*
X104190437Y-38560411D01*
X104284099Y-38751997D01*
X104287260Y-38759005D01*
X104364051Y-38944395D01*
X104364991Y-38946734D01*
X104370797Y-38961610D01*
X104442559Y-39145523D01*
X104445302Y-39153309D01*
X104505602Y-39344554D01*
X104506186Y-39346460D01*
X104567105Y-39551084D01*
X104569321Y-39559627D01*
X104612671Y-39755166D01*
X104612971Y-39756559D01*
X104656844Y-39965802D01*
X104658422Y-39975062D01*
X104684459Y-40172829D01*
X104684568Y-40173677D01*
X104711114Y-40386641D01*
X104711948Y-40396570D01*
X104720513Y-40592728D01*
X104720525Y-40593013D01*
X104729394Y-40807438D01*
X104729500Y-40812562D01*
X104729500Y-49437267D01*
X104712591Y-49499778D01*
X104666475Y-49545240D01*
X104603729Y-49561254D01*
X104541466Y-49543454D01*
X104496668Y-49496694D01*
X104432887Y-49379887D01*
X104269971Y-49162258D01*
X104077742Y-48970029D01*
X103860113Y-48807113D01*
X103860114Y-48807113D01*
X103860108Y-48807109D01*
X103621519Y-48676831D01*
X103621517Y-48676830D01*
X103621513Y-48676828D01*
X103366801Y-48581825D01*
X103366796Y-48581823D01*
X103101161Y-48524039D01*
X102830000Y-48504644D01*
X102558838Y-48524039D01*
X102293203Y-48581823D01*
X102157857Y-48632305D01*
X102038487Y-48676828D01*
X102038484Y-48676829D01*
X102038480Y-48676831D01*
X101799891Y-48807109D01*
X101582255Y-48970031D01*
X101390031Y-49162255D01*
X101227109Y-49379891D01*
X101096831Y-49618480D01*
X101096829Y-49618484D01*
X101096828Y-49618487D01*
X101055624Y-49728956D01*
X101001823Y-49873203D01*
X100944039Y-50138838D01*
X100924644Y-50410000D01*
X100944039Y-50681161D01*
X101001824Y-50946799D01*
X101084481Y-51168413D01*
X101089465Y-51238104D01*
X101055980Y-51299427D01*
X101046209Y-51309198D01*
X101030111Y-51322095D01*
X100982097Y-51373224D01*
X100979392Y-51376016D01*
X100959875Y-51395533D01*
X100957416Y-51398704D01*
X100949843Y-51407571D01*
X100919936Y-51439419D01*
X100910286Y-51456973D01*
X100899610Y-51473227D01*
X100887327Y-51489062D01*
X100869976Y-51529157D01*
X100864839Y-51539643D01*
X100843803Y-51577906D01*
X100838822Y-51597308D01*
X100832521Y-51615710D01*
X100824562Y-51634101D01*
X100817729Y-51677241D01*
X100815361Y-51688673D01*
X100804501Y-51730977D01*
X100804501Y-51751015D01*
X100802974Y-51770414D01*
X100799841Y-51790193D01*
X100803951Y-51833674D01*
X100804501Y-51845343D01*
X100804501Y-53977257D01*
X100802236Y-53997763D01*
X100804440Y-54067874D01*
X100804501Y-54071769D01*
X100804501Y-54099350D01*
X100805004Y-54103335D01*
X100805919Y-54114968D01*
X100807291Y-54158627D01*
X100812880Y-54177861D01*
X100816826Y-54196917D01*
X100819336Y-54216793D01*
X100835415Y-54257405D01*
X100839198Y-54268452D01*
X100851383Y-54310392D01*
X100861581Y-54327636D01*
X100870137Y-54345101D01*
X100877515Y-54363733D01*
X100877516Y-54363734D01*
X100903181Y-54399060D01*
X100909594Y-54408823D01*
X100931827Y-54446417D01*
X100931830Y-54446420D01*
X100931831Y-54446421D01*
X100945996Y-54460586D01*
X100958628Y-54475376D01*
X100970407Y-54491588D01*
X101004059Y-54519427D01*
X101012700Y-54527290D01*
X102033400Y-55547990D01*
X102062349Y-55593559D01*
X102069190Y-55647112D01*
X102049464Y-55859999D01*
X102069564Y-56076925D01*
X102129181Y-56286457D01*
X102226287Y-56481471D01*
X102308048Y-56589740D01*
X102332175Y-56649401D01*
X102323151Y-56713119D01*
X102283406Y-56763733D01*
X102197811Y-56827809D01*
X102111647Y-56942910D01*
X102061402Y-57077624D01*
X102055000Y-57137176D01*
X102055000Y-57610000D01*
X104405000Y-57610000D01*
X104405000Y-57137176D01*
X104398597Y-57077624D01*
X104348352Y-56942910D01*
X104262188Y-56827811D01*
X104176594Y-56763735D01*
X104136848Y-56713121D01*
X104127824Y-56649402D01*
X104151951Y-56589741D01*
X104151952Y-56589740D01*
X104233712Y-56481472D01*
X104330817Y-56286459D01*
X104377384Y-56122793D01*
X104390435Y-56076925D01*
X104393577Y-56043008D01*
X104410536Y-55860000D01*
X104390435Y-55643077D01*
X104390435Y-55643074D01*
X104330818Y-55433542D01*
X104233712Y-55238528D01*
X104102426Y-55064676D01*
X103978427Y-54951637D01*
X103942699Y-54893934D01*
X103942699Y-54826066D01*
X103978427Y-54768363D01*
X104102426Y-54655323D01*
X104102427Y-54655322D01*
X104233712Y-54481472D01*
X104330817Y-54286459D01*
X104330818Y-54286457D01*
X104390435Y-54076925D01*
X104399670Y-53977257D01*
X104410536Y-53860000D01*
X104390435Y-53643077D01*
X104390435Y-53643074D01*
X104330818Y-53433542D01*
X104233712Y-53238528D01*
X104102426Y-53064676D01*
X103941432Y-52917912D01*
X103756208Y-52803226D01*
X103553073Y-52724531D01*
X103553070Y-52724530D01*
X103553069Y-52724530D01*
X103338926Y-52684500D01*
X103121074Y-52684500D01*
X102906931Y-52724530D01*
X102906926Y-52724531D01*
X102703791Y-52803226D01*
X102518567Y-52917912D01*
X102357573Y-53064676D01*
X102278455Y-53169447D01*
X102230633Y-53207687D01*
X102170343Y-53218381D01*
X102112286Y-53198923D01*
X102070619Y-53154055D01*
X102055501Y-53094720D01*
X102055501Y-52328112D01*
X102069625Y-52270637D01*
X102108781Y-52226256D01*
X102164048Y-52205079D01*
X102222832Y-52211929D01*
X102293199Y-52238175D01*
X102293202Y-52238175D01*
X102293203Y-52238176D01*
X102342852Y-52248976D01*
X102558840Y-52295961D01*
X102830000Y-52315355D01*
X103101160Y-52295961D01*
X103366801Y-52238175D01*
X103621513Y-52143172D01*
X103860113Y-52012887D01*
X104077742Y-51849971D01*
X104269971Y-51657742D01*
X104432887Y-51440113D01*
X104496668Y-51323305D01*
X104541466Y-51276546D01*
X104603729Y-51258746D01*
X104666475Y-51274760D01*
X104712591Y-51320222D01*
X104729500Y-51382733D01*
X104729500Y-60287267D01*
X104712591Y-60349778D01*
X104666475Y-60395240D01*
X104603729Y-60411254D01*
X104541466Y-60393454D01*
X104496668Y-60346694D01*
X104432887Y-60229887D01*
X104269971Y-60012258D01*
X104077742Y-59820029D01*
X103860113Y-59657113D01*
X103860114Y-59657113D01*
X103860108Y-59657109D01*
X103621519Y-59526831D01*
X103621517Y-59526830D01*
X103621513Y-59526828D01*
X103366801Y-59431825D01*
X103366796Y-59431823D01*
X103101161Y-59374039D01*
X102830000Y-59354644D01*
X102558838Y-59374039D01*
X102293203Y-59431823D01*
X102159150Y-59481823D01*
X102038487Y-59526828D01*
X102038484Y-59526829D01*
X102038480Y-59526831D01*
X101799891Y-59657109D01*
X101582255Y-59820031D01*
X101390031Y-60012255D01*
X101227109Y-60229891D01*
X101096831Y-60468480D01*
X101096829Y-60468484D01*
X101096828Y-60468487D01*
X101091828Y-60481893D01*
X101001823Y-60723203D01*
X100944039Y-60988838D01*
X100924644Y-61260000D01*
X100944039Y-61531161D01*
X101001823Y-61796796D01*
X101001825Y-61796801D01*
X101096828Y-62051513D01*
X101096830Y-62051517D01*
X101096831Y-62051519D01*
X101227109Y-62290108D01*
X101227113Y-62290113D01*
X101390029Y-62507742D01*
X101582258Y-62699971D01*
X101649046Y-62749968D01*
X101799891Y-62862890D01*
X101995802Y-62969864D01*
X102038487Y-62993172D01*
X102293199Y-63088175D01*
X102293202Y-63088175D01*
X102293203Y-63088176D01*
X102342852Y-63098976D01*
X102558840Y-63145961D01*
X102830000Y-63165355D01*
X103101160Y-63145961D01*
X103366801Y-63088175D01*
X103621513Y-62993172D01*
X103860113Y-62862887D01*
X104077742Y-62699971D01*
X104269971Y-62507742D01*
X104432887Y-62290113D01*
X104496668Y-62173305D01*
X104541466Y-62126546D01*
X104603729Y-62108746D01*
X104666475Y-62124760D01*
X104712591Y-62170222D01*
X104729500Y-62232733D01*
X104729500Y-70807438D01*
X104729394Y-70812563D01*
X104720525Y-71026987D01*
X104720513Y-71027271D01*
X104711948Y-71223428D01*
X104711114Y-71233357D01*
X104684568Y-71446321D01*
X104684459Y-71447169D01*
X104658422Y-71644936D01*
X104656844Y-71654196D01*
X104612971Y-71863439D01*
X104612671Y-71864832D01*
X104569321Y-72060371D01*
X104567105Y-72068914D01*
X104506186Y-72273538D01*
X104505602Y-72275444D01*
X104445302Y-72466689D01*
X104442559Y-72474475D01*
X104365008Y-72673224D01*
X104364051Y-72675603D01*
X104287260Y-72860993D01*
X104284099Y-72868001D01*
X104190437Y-73059587D01*
X104189026Y-73062383D01*
X104096346Y-73240420D01*
X104092880Y-73246636D01*
X103983743Y-73429793D01*
X103981800Y-73432946D01*
X103873920Y-73602282D01*
X103870257Y-73607710D01*
X103746399Y-73781184D01*
X103743858Y-73784616D01*
X103621626Y-73943912D01*
X103617872Y-73948567D01*
X103480107Y-74111226D01*
X103476908Y-74114858D01*
X103341254Y-74262899D01*
X103337512Y-74266807D01*
X103186807Y-74417512D01*
X103182899Y-74421254D01*
X103034858Y-74556908D01*
X103031226Y-74560107D01*
X102868567Y-74697872D01*
X102863912Y-74701626D01*
X102704616Y-74823858D01*
X102701184Y-74826399D01*
X102527710Y-74950257D01*
X102522282Y-74953920D01*
X102352946Y-75061800D01*
X102349793Y-75063743D01*
X102166636Y-75172880D01*
X102160420Y-75176346D01*
X101982383Y-75269026D01*
X101979587Y-75270437D01*
X101788001Y-75364099D01*
X101780993Y-75367260D01*
X101595603Y-75444051D01*
X101593224Y-75445008D01*
X101394475Y-75522559D01*
X101386689Y-75525302D01*
X101195444Y-75585602D01*
X101193538Y-75586186D01*
X100988914Y-75647105D01*
X100980371Y-75649321D01*
X100784832Y-75692671D01*
X100783439Y-75692971D01*
X100574196Y-75736844D01*
X100564936Y-75738422D01*
X100367169Y-75764459D01*
X100366321Y-75764568D01*
X100153357Y-75791114D01*
X100143428Y-75791948D01*
X99947381Y-75800508D01*
X99947097Y-75800520D01*
X99732563Y-75809394D01*
X99727438Y-75809500D01*
X91102733Y-75809500D01*
X91040222Y-75792591D01*
X90994760Y-75746475D01*
X90978746Y-75683729D01*
X90996546Y-75621466D01*
X91043305Y-75576668D01*
X91160113Y-75512887D01*
X91377742Y-75349971D01*
X91569971Y-75157742D01*
X91732887Y-74940113D01*
X91737606Y-74931472D01*
X91796367Y-74823858D01*
X91863172Y-74701513D01*
X91958175Y-74446801D01*
X92015961Y-74181160D01*
X92035355Y-73910000D01*
X92015961Y-73638840D01*
X91958175Y-73373199D01*
X91863172Y-73118487D01*
X91831010Y-73059587D01*
X91732890Y-72879891D01*
X91655551Y-72776579D01*
X91569971Y-72662258D01*
X91377742Y-72470029D01*
X91160113Y-72307113D01*
X91160114Y-72307113D01*
X91160108Y-72307109D01*
X90921519Y-72176831D01*
X90921517Y-72176830D01*
X90921513Y-72176828D01*
X90666801Y-72081825D01*
X90666796Y-72081823D01*
X90401161Y-72024039D01*
X90130000Y-72004644D01*
X89858838Y-72024039D01*
X89593200Y-72081824D01*
X89371586Y-72164482D01*
X89301895Y-72169466D01*
X89240572Y-72135981D01*
X89230803Y-72126212D01*
X89217907Y-72110114D01*
X89166776Y-72062099D01*
X89163979Y-72059388D01*
X89144471Y-72039880D01*
X89141291Y-72037413D01*
X89132425Y-72029840D01*
X89100583Y-71999939D01*
X89083025Y-71990286D01*
X89066765Y-71979605D01*
X89050937Y-71967328D01*
X89010852Y-71949981D01*
X89000362Y-71944842D01*
X88962092Y-71923803D01*
X88942692Y-71918822D01*
X88924285Y-71912520D01*
X88905898Y-71904563D01*
X88862759Y-71897730D01*
X88851325Y-71895362D01*
X88809020Y-71884501D01*
X88788985Y-71884501D01*
X88769587Y-71882974D01*
X88762163Y-71881798D01*
X88749806Y-71879841D01*
X88749805Y-71879841D01*
X88724469Y-71882236D01*
X88706326Y-71883951D01*
X88694657Y-71884501D01*
X86562743Y-71884501D01*
X86542236Y-71882236D01*
X86472126Y-71884440D01*
X86468231Y-71884501D01*
X86440649Y-71884501D01*
X86436664Y-71885004D01*
X86425032Y-71885919D01*
X86381368Y-71887291D01*
X86362128Y-71892881D01*
X86343080Y-71896826D01*
X86323208Y-71899336D01*
X86282598Y-71915414D01*
X86271553Y-71919195D01*
X86229609Y-71931382D01*
X86212364Y-71941580D01*
X86194903Y-71950134D01*
X86176266Y-71957513D01*
X86140930Y-71983186D01*
X86131173Y-71989596D01*
X86093579Y-72011830D01*
X86079412Y-72025997D01*
X86064623Y-72038627D01*
X86048412Y-72050405D01*
X86020571Y-72084059D01*
X86012710Y-72092698D01*
X84988465Y-73116942D01*
X84937465Y-73147712D01*
X84878000Y-73151150D01*
X84821570Y-73140602D01*
X84788926Y-73134500D01*
X84571074Y-73134500D01*
X84417756Y-73163160D01*
X84356926Y-73174531D01*
X84153791Y-73253226D01*
X83968567Y-73367911D01*
X83807573Y-73514677D01*
X83786170Y-73543020D01*
X83778955Y-73552575D01*
X83778953Y-73552577D01*
X83735271Y-73588850D01*
X83679999Y-73601849D01*
X83624728Y-73588849D01*
X83581046Y-73552575D01*
X83552428Y-73514678D01*
X83391432Y-73367912D01*
X83206208Y-73253226D01*
X83003073Y-73174531D01*
X83003070Y-73174530D01*
X83003069Y-73174530D01*
X82788926Y-73134500D01*
X82571074Y-73134500D01*
X82417756Y-73163160D01*
X82356926Y-73174531D01*
X82153791Y-73253226D01*
X81968567Y-73367912D01*
X81807573Y-73514676D01*
X81676287Y-73688528D01*
X81579181Y-73883542D01*
X81519564Y-74093074D01*
X81499464Y-74310000D01*
X81519564Y-74526925D01*
X81579181Y-74736457D01*
X81676287Y-74931471D01*
X81807573Y-75105323D01*
X81919031Y-75206929D01*
X81968568Y-75252088D01*
X81979840Y-75259067D01*
X82153791Y-75366773D01*
X82312745Y-75428352D01*
X82356931Y-75445470D01*
X82571074Y-75485500D01*
X82788924Y-75485500D01*
X82788926Y-75485500D01*
X83003069Y-75445470D01*
X83150359Y-75388409D01*
X83206208Y-75366773D01*
X83210527Y-75364099D01*
X83391432Y-75252088D01*
X83552427Y-75105322D01*
X83581047Y-75067422D01*
X83624725Y-75031151D01*
X83679997Y-75018150D01*
X83735270Y-75031149D01*
X83778953Y-75067423D01*
X83807573Y-75105323D01*
X83919031Y-75206929D01*
X83968568Y-75252088D01*
X83979840Y-75259067D01*
X84153791Y-75366773D01*
X84312745Y-75428352D01*
X84356931Y-75445470D01*
X84571074Y-75485500D01*
X84788924Y-75485500D01*
X84788926Y-75485500D01*
X85003069Y-75445470D01*
X85150359Y-75388409D01*
X85206208Y-75366773D01*
X85210527Y-75364099D01*
X85391432Y-75252088D01*
X85402781Y-75241741D01*
X85463701Y-75211458D01*
X85531435Y-75217877D01*
X85585586Y-75259067D01*
X85647810Y-75342188D01*
X85762910Y-75428352D01*
X85897624Y-75478597D01*
X85957176Y-75485000D01*
X86430000Y-75485000D01*
X86430000Y-74560000D01*
X86930000Y-74560000D01*
X86930000Y-75485000D01*
X87402824Y-75485000D01*
X87462375Y-75478597D01*
X87597089Y-75428352D01*
X87712188Y-75342188D01*
X87798352Y-75227089D01*
X87848597Y-75092375D01*
X87855000Y-75032824D01*
X87855000Y-74560000D01*
X86930000Y-74560000D01*
X86430000Y-74560000D01*
X86430000Y-74184000D01*
X86446613Y-74122000D01*
X86492000Y-74076613D01*
X86554000Y-74060000D01*
X87855000Y-74060000D01*
X87855000Y-73587176D01*
X87848597Y-73527624D01*
X87798352Y-73392910D01*
X87754111Y-73333812D01*
X87729872Y-73270554D01*
X87742494Y-73203997D01*
X87788211Y-73154006D01*
X87853378Y-73135501D01*
X88211888Y-73135501D01*
X88269363Y-73149625D01*
X88313744Y-73188781D01*
X88334921Y-73244048D01*
X88328070Y-73302832D01*
X88316516Y-73333812D01*
X88301823Y-73373203D01*
X88244039Y-73638838D01*
X88224644Y-73910000D01*
X88244039Y-74181161D01*
X88301823Y-74446796D01*
X88301825Y-74446801D01*
X88396828Y-74701513D01*
X88396830Y-74701517D01*
X88396831Y-74701519D01*
X88527109Y-74940108D01*
X88527113Y-74940113D01*
X88690029Y-75157742D01*
X88882258Y-75349971D01*
X89099887Y-75512887D01*
X89216694Y-75576668D01*
X89263454Y-75621466D01*
X89281254Y-75683729D01*
X89265240Y-75746475D01*
X89219778Y-75792591D01*
X89157267Y-75809500D01*
X80223374Y-75809500D01*
X80160864Y-75792591D01*
X80115401Y-75746475D01*
X80099387Y-75683729D01*
X80117187Y-75621467D01*
X80163947Y-75576668D01*
X80299839Y-75502465D01*
X80425124Y-75408677D01*
X79270001Y-74253553D01*
X79270000Y-74253553D01*
X78114874Y-75408677D01*
X78114875Y-75408678D01*
X78240157Y-75502463D01*
X78376053Y-75576668D01*
X78422813Y-75621467D01*
X78440613Y-75683729D01*
X78424599Y-75746475D01*
X78379136Y-75792591D01*
X78316626Y-75809500D01*
X69732562Y-75809500D01*
X69727437Y-75809394D01*
X69512901Y-75800520D01*
X69512617Y-75800508D01*
X69316570Y-75791948D01*
X69306641Y-75791114D01*
X69093677Y-75764568D01*
X69092829Y-75764459D01*
X68895062Y-75738422D01*
X68885802Y-75736844D01*
X68676559Y-75692971D01*
X68675166Y-75692671D01*
X68479627Y-75649321D01*
X68471084Y-75647105D01*
X68266460Y-75586186D01*
X68264554Y-75585602D01*
X68073309Y-75525302D01*
X68065523Y-75522559D01*
X67969266Y-75485000D01*
X67866734Y-75444991D01*
X67864395Y-75444051D01*
X67679005Y-75367260D01*
X67671997Y-75364099D01*
X67480411Y-75270437D01*
X67477615Y-75269026D01*
X67299578Y-75176346D01*
X67293362Y-75172880D01*
X67110205Y-75063743D01*
X67107052Y-75061800D01*
X66937716Y-74953920D01*
X66932288Y-74950257D01*
X66758814Y-74826399D01*
X66755382Y-74823858D01*
X66596086Y-74701626D01*
X66591431Y-74697872D01*
X66428772Y-74560107D01*
X66425155Y-74556921D01*
X66277076Y-74421232D01*
X66273191Y-74417512D01*
X66122486Y-74266807D01*
X66118769Y-74262925D01*
X65983072Y-74114838D01*
X65979891Y-74111226D01*
X65842126Y-73948567D01*
X65838372Y-73943912D01*
X65804677Y-73900000D01*
X77365146Y-73900000D01*
X77384536Y-74171089D01*
X77442305Y-74436654D01*
X77537287Y-74691307D01*
X77667536Y-74929842D01*
X77761320Y-75055124D01*
X77761321Y-75055124D01*
X78916446Y-73900001D01*
X79623553Y-73900001D01*
X80778677Y-75055124D01*
X80872465Y-74929839D01*
X81002712Y-74691307D01*
X81097694Y-74436654D01*
X81155463Y-74171089D01*
X81174853Y-73900000D01*
X81155463Y-73628910D01*
X81097694Y-73363345D01*
X81002712Y-73108692D01*
X80872463Y-72870157D01*
X80778678Y-72744875D01*
X80778677Y-72744874D01*
X79623553Y-73900000D01*
X79623553Y-73900001D01*
X78916446Y-73900001D01*
X78916446Y-73899999D01*
X77761321Y-72744875D01*
X77667534Y-72870162D01*
X77537286Y-73108692D01*
X77442305Y-73363345D01*
X77384536Y-73628910D01*
X77365146Y-73900000D01*
X65804677Y-73900000D01*
X65716140Y-73784616D01*
X65713599Y-73781184D01*
X65589741Y-73607710D01*
X65586078Y-73602282D01*
X65478198Y-73432946D01*
X65476255Y-73429793D01*
X65475213Y-73428045D01*
X65442535Y-73373203D01*
X65367118Y-73246636D01*
X65363652Y-73240420D01*
X65270972Y-73062383D01*
X65269561Y-73059587D01*
X65257982Y-73035903D01*
X65175886Y-72867972D01*
X65172752Y-72861024D01*
X65095911Y-72675513D01*
X65095046Y-72673363D01*
X65017431Y-72474453D01*
X65014696Y-72466689D01*
X64996534Y-72409087D01*
X64954359Y-72275325D01*
X64953850Y-72273665D01*
X64892889Y-72068901D01*
X64890680Y-72060386D01*
X64850194Y-71877764D01*
X66875787Y-71877764D01*
X66905413Y-72147016D01*
X66947267Y-72307109D01*
X66973928Y-72409088D01*
X67027720Y-72535670D01*
X67079871Y-72658392D01*
X67220982Y-72889611D01*
X67310253Y-72996881D01*
X67394255Y-73097820D01*
X67595998Y-73278582D01*
X67821910Y-73428044D01*
X67928211Y-73477875D01*
X68067177Y-73543021D01*
X68326562Y-73621058D01*
X68326569Y-73621060D01*
X68594561Y-73660500D01*
X68797631Y-73660500D01*
X68797634Y-73660500D01*
X69000156Y-73645677D01*
X69075425Y-73628910D01*
X69264553Y-73586780D01*
X69517558Y-73490014D01*
X69753777Y-73357441D01*
X69968177Y-73191888D01*
X70156186Y-72996881D01*
X70313799Y-72776579D01*
X70437656Y-72535675D01*
X70486903Y-72391321D01*
X78114875Y-72391321D01*
X79270000Y-73546446D01*
X79270001Y-73546446D01*
X80425124Y-72391321D01*
X80425124Y-72391320D01*
X80299842Y-72297536D01*
X80061307Y-72167287D01*
X79806654Y-72072305D01*
X79541089Y-72014536D01*
X79270000Y-71995146D01*
X78998910Y-72014536D01*
X78733345Y-72072305D01*
X78478692Y-72167286D01*
X78240162Y-72297534D01*
X78114875Y-72391321D01*
X70486903Y-72391321D01*
X70525118Y-72279305D01*
X70574319Y-72012933D01*
X70579259Y-71877764D01*
X98875787Y-71877764D01*
X98905413Y-72147016D01*
X98947267Y-72307109D01*
X98973928Y-72409088D01*
X99027720Y-72535670D01*
X99079871Y-72658392D01*
X99220982Y-72889611D01*
X99310253Y-72996881D01*
X99394255Y-73097820D01*
X99595998Y-73278582D01*
X99821910Y-73428044D01*
X99928211Y-73477875D01*
X100067177Y-73543021D01*
X100326562Y-73621058D01*
X100326569Y-73621060D01*
X100594561Y-73660500D01*
X100797631Y-73660500D01*
X100797634Y-73660500D01*
X101000156Y-73645677D01*
X101075425Y-73628910D01*
X101264553Y-73586780D01*
X101517558Y-73490014D01*
X101753777Y-73357441D01*
X101968177Y-73191888D01*
X102156186Y-72996881D01*
X102313799Y-72776579D01*
X102437656Y-72535675D01*
X102525118Y-72279305D01*
X102574319Y-72012933D01*
X102584212Y-71742235D01*
X102554586Y-71472982D01*
X102486072Y-71210912D01*
X102380130Y-70961610D01*
X102289168Y-70812563D01*
X102239017Y-70730388D01*
X102065746Y-70522181D01*
X101960758Y-70428112D01*
X101864002Y-70341418D01*
X101638090Y-70191956D01*
X101638086Y-70191954D01*
X101392822Y-70076978D01*
X101133437Y-69998941D01*
X101133431Y-69998940D01*
X100865439Y-69959500D01*
X100662369Y-69959500D01*
X100662366Y-69959500D01*
X100459843Y-69974322D01*
X100195449Y-70033219D01*
X99942441Y-70129986D01*
X99706223Y-70262559D01*
X99491825Y-70428109D01*
X99303813Y-70623120D01*
X99146201Y-70843420D01*
X99022342Y-71084329D01*
X98934881Y-71340695D01*
X98885680Y-71607066D01*
X98875787Y-71877764D01*
X70579259Y-71877764D01*
X70584212Y-71742235D01*
X70554586Y-71472982D01*
X70486072Y-71210912D01*
X70380130Y-70961610D01*
X70289168Y-70812563D01*
X70239017Y-70730388D01*
X70065746Y-70522181D01*
X69960758Y-70428112D01*
X69864002Y-70341418D01*
X69638090Y-70191956D01*
X69638086Y-70191954D01*
X69392822Y-70076978D01*
X69133437Y-69998941D01*
X69133431Y-69998940D01*
X68865439Y-69959500D01*
X68662369Y-69959500D01*
X68662366Y-69959500D01*
X68459843Y-69974322D01*
X68195449Y-70033219D01*
X67942441Y-70129986D01*
X67706223Y-70262559D01*
X67491825Y-70428109D01*
X67303813Y-70623120D01*
X67146201Y-70843420D01*
X67022342Y-71084329D01*
X66934881Y-71340695D01*
X66885680Y-71607066D01*
X66875787Y-71877764D01*
X64850194Y-71877764D01*
X64847312Y-71864765D01*
X64847027Y-71863439D01*
X64841495Y-71837057D01*
X64803153Y-71654192D01*
X64801576Y-71644936D01*
X64775490Y-71446793D01*
X64775483Y-71446743D01*
X64748881Y-71233330D01*
X64748052Y-71223455D01*
X64739486Y-71027271D01*
X64730605Y-70812562D01*
X64730500Y-70807439D01*
X64730500Y-62282733D01*
X64747409Y-62220222D01*
X64793525Y-62174760D01*
X64856271Y-62158746D01*
X64918534Y-62176546D01*
X64963331Y-62223305D01*
X65027113Y-62340113D01*
X65190029Y-62557742D01*
X65382258Y-62749971D01*
X65598281Y-62911685D01*
X65599891Y-62912890D01*
X65795802Y-63019864D01*
X65838487Y-63043172D01*
X66093199Y-63138175D01*
X66093202Y-63138175D01*
X66093203Y-63138176D01*
X66128986Y-63145960D01*
X66358840Y-63195961D01*
X66630000Y-63215355D01*
X66901160Y-63195961D01*
X67166801Y-63138175D01*
X67421513Y-63043172D01*
X67660113Y-62912887D01*
X67877742Y-62749971D01*
X68069971Y-62557742D01*
X68232887Y-62340113D01*
X68363172Y-62101513D01*
X68458175Y-61846801D01*
X68515961Y-61581160D01*
X68535355Y-61310000D01*
X68515961Y-61038840D01*
X68458175Y-60773199D01*
X68375517Y-60551584D01*
X68370533Y-60481893D01*
X68404016Y-60420572D01*
X68413785Y-60410803D01*
X68429886Y-60397905D01*
X68431873Y-60395788D01*
X68431876Y-60395787D01*
X68477931Y-60346742D01*
X68480612Y-60343977D01*
X68487322Y-60337267D01*
X68500119Y-60324471D01*
X68502580Y-60321296D01*
X68510151Y-60312432D01*
X68540061Y-60280583D01*
X68549712Y-60263027D01*
X68560392Y-60246768D01*
X68572673Y-60230937D01*
X68590017Y-60190852D01*
X68595159Y-60180357D01*
X68616196Y-60142093D01*
X68621177Y-60122689D01*
X68627479Y-60104284D01*
X68635437Y-60085896D01*
X68642269Y-60042749D01*
X68644638Y-60031317D01*
X68655499Y-59989021D01*
X68655499Y-59968985D01*
X68657026Y-59949586D01*
X68660159Y-59929805D01*
X68656049Y-59886326D01*
X68655499Y-59874657D01*
X68655499Y-58110000D01*
X102055000Y-58110000D01*
X102055000Y-58582824D01*
X102061402Y-58642375D01*
X102111647Y-58777089D01*
X102197811Y-58892188D01*
X102312910Y-58978352D01*
X102447624Y-59028597D01*
X102507176Y-59035000D01*
X102980000Y-59035000D01*
X102980000Y-58110000D01*
X103480000Y-58110000D01*
X103480000Y-59035000D01*
X103952824Y-59035000D01*
X104012375Y-59028597D01*
X104147089Y-58978352D01*
X104262188Y-58892188D01*
X104348352Y-58777089D01*
X104398597Y-58642375D01*
X104405000Y-58582824D01*
X104405000Y-58110000D01*
X103480000Y-58110000D01*
X102980000Y-58110000D01*
X102055000Y-58110000D01*
X68655499Y-58110000D01*
X68655499Y-57742743D01*
X68657763Y-57722236D01*
X68656184Y-57672000D01*
X68655560Y-57652126D01*
X68655499Y-57648231D01*
X68655499Y-57620652D01*
X68654996Y-57616671D01*
X68654079Y-57605018D01*
X68652708Y-57561372D01*
X68647119Y-57542139D01*
X68643173Y-57523081D01*
X68640663Y-57503205D01*
X68624587Y-57462603D01*
X68620803Y-57451552D01*
X68614880Y-57431167D01*
X68608617Y-57409609D01*
X68598413Y-57392354D01*
X68589860Y-57374894D01*
X68582485Y-57356268D01*
X68582485Y-57356267D01*
X68556807Y-57320924D01*
X68550400Y-57311170D01*
X68528168Y-57273578D01*
X68514005Y-57259415D01*
X68501366Y-57244616D01*
X68489594Y-57228412D01*
X68455940Y-57200572D01*
X68447298Y-57192708D01*
X67426599Y-56172009D01*
X67397650Y-56126439D01*
X67390809Y-56072887D01*
X67390938Y-56071489D01*
X67410536Y-55860000D01*
X67390435Y-55643077D01*
X67390435Y-55643074D01*
X67330818Y-55433542D01*
X67233712Y-55238528D01*
X67102426Y-55064676D01*
X66978427Y-54951637D01*
X66942699Y-54893934D01*
X66942699Y-54826066D01*
X66978427Y-54768363D01*
X67102426Y-54655323D01*
X67102427Y-54655322D01*
X67233712Y-54481472D01*
X67330817Y-54286459D01*
X67330818Y-54286457D01*
X67390435Y-54076925D01*
X67399670Y-53977257D01*
X67410536Y-53860000D01*
X67390435Y-53643077D01*
X67390435Y-53643074D01*
X67330818Y-53433542D01*
X67233712Y-53238528D01*
X67102426Y-53064676D01*
X66941432Y-52917912D01*
X66756208Y-52803226D01*
X66553073Y-52724531D01*
X66553070Y-52724530D01*
X66553069Y-52724530D01*
X66338926Y-52684500D01*
X66121074Y-52684500D01*
X65906931Y-52724530D01*
X65906926Y-52724531D01*
X65703791Y-52803226D01*
X65518567Y-52917912D01*
X65357573Y-53064676D01*
X65226287Y-53238528D01*
X65129181Y-53433542D01*
X65069564Y-53643074D01*
X65049464Y-53859999D01*
X65069564Y-54076925D01*
X65129181Y-54286457D01*
X65226287Y-54481471D01*
X65357573Y-54655323D01*
X65481572Y-54768363D01*
X65517300Y-54826066D01*
X65517300Y-54893934D01*
X65481572Y-54951637D01*
X65357573Y-55064676D01*
X65226287Y-55238528D01*
X65129181Y-55433542D01*
X65069564Y-55643074D01*
X65049464Y-55859999D01*
X65069564Y-56076925D01*
X65129181Y-56286457D01*
X65226287Y-56481471D01*
X65308048Y-56589740D01*
X65332175Y-56649401D01*
X65323151Y-56713119D01*
X65283406Y-56763733D01*
X65197811Y-56827809D01*
X65111647Y-56942910D01*
X65061402Y-57077624D01*
X65055000Y-57137176D01*
X65055000Y-57610000D01*
X66356000Y-57610000D01*
X66418000Y-57626613D01*
X66463387Y-57672000D01*
X66480000Y-57734000D01*
X66480000Y-59035000D01*
X66952824Y-59035000D01*
X67012375Y-59028597D01*
X67147089Y-58978352D01*
X67206188Y-58934111D01*
X67269446Y-58909872D01*
X67336003Y-58922494D01*
X67385994Y-58968211D01*
X67404499Y-59033378D01*
X67404499Y-59391888D01*
X67390375Y-59449363D01*
X67351219Y-59493744D01*
X67295952Y-59514921D01*
X67237167Y-59508070D01*
X67166801Y-59481825D01*
X67166796Y-59481823D01*
X66901161Y-59424039D01*
X66630000Y-59404644D01*
X66358838Y-59424039D01*
X66093203Y-59481823D01*
X65948956Y-59535624D01*
X65838487Y-59576828D01*
X65838484Y-59576829D01*
X65838480Y-59576831D01*
X65599891Y-59707109D01*
X65382255Y-59870031D01*
X65190031Y-60062255D01*
X65027113Y-60279886D01*
X65023083Y-60287267D01*
X64963331Y-60396694D01*
X64918534Y-60443454D01*
X64856271Y-60461254D01*
X64793525Y-60445240D01*
X64747409Y-60399778D01*
X64730500Y-60337267D01*
X64730500Y-58110000D01*
X65055000Y-58110000D01*
X65055000Y-58582824D01*
X65061402Y-58642375D01*
X65111647Y-58777089D01*
X65197811Y-58892188D01*
X65312910Y-58978352D01*
X65447624Y-59028597D01*
X65507176Y-59035000D01*
X65980000Y-59035000D01*
X65980000Y-58110000D01*
X65055000Y-58110000D01*
X64730500Y-58110000D01*
X64730500Y-51968677D01*
X65474874Y-51968677D01*
X65474875Y-51968678D01*
X65600157Y-52062463D01*
X65838692Y-52192712D01*
X66093345Y-52287694D01*
X66358910Y-52345463D01*
X66630000Y-52364853D01*
X66901089Y-52345463D01*
X67166654Y-52287694D01*
X67421307Y-52192712D01*
X67659839Y-52062465D01*
X67785124Y-51968677D01*
X66630001Y-50813553D01*
X66630000Y-50813553D01*
X65474874Y-51968677D01*
X64730500Y-51968677D01*
X64730500Y-51431688D01*
X64747409Y-51369178D01*
X64793525Y-51323715D01*
X64856271Y-51307701D01*
X64918533Y-51325501D01*
X64963332Y-51372261D01*
X65027536Y-51489842D01*
X65121320Y-51615124D01*
X66276446Y-50460000D01*
X66276446Y-50459999D01*
X66983553Y-50459999D01*
X68138677Y-51615124D01*
X68232465Y-51489839D01*
X68362712Y-51251307D01*
X68457694Y-50996654D01*
X68515463Y-50731089D01*
X68534853Y-50459999D01*
X68515463Y-50188910D01*
X68457694Y-49923345D01*
X68362712Y-49668692D01*
X68232463Y-49430157D01*
X68138678Y-49304875D01*
X68138678Y-49304874D01*
X66983553Y-50459999D01*
X66276446Y-50459999D01*
X66276446Y-50459998D01*
X65121321Y-49304875D01*
X65027534Y-49430162D01*
X64963332Y-49547740D01*
X64918533Y-49594500D01*
X64856271Y-49612300D01*
X64793525Y-49596286D01*
X64747409Y-49550823D01*
X64730500Y-49488313D01*
X64730500Y-48951321D01*
X65474875Y-48951321D01*
X66630000Y-50106446D01*
X66630001Y-50106446D01*
X67785124Y-48951321D01*
X67785124Y-48951320D01*
X67659842Y-48857536D01*
X67421307Y-48727287D01*
X67166654Y-48632305D01*
X66901089Y-48574536D01*
X66630000Y-48555146D01*
X66358910Y-48574536D01*
X66093345Y-48632305D01*
X65838692Y-48727286D01*
X65600162Y-48857534D01*
X65474875Y-48951321D01*
X64730500Y-48951321D01*
X64730500Y-40812561D01*
X64730606Y-40807437D01*
X64731882Y-40776579D01*
X64739488Y-40592687D01*
X64748052Y-40396540D01*
X64748881Y-40386673D01*
X64775491Y-40173195D01*
X64801578Y-39975045D01*
X64803151Y-39965816D01*
X64821613Y-39877764D01*
X66875787Y-39877764D01*
X66905413Y-40147016D01*
X66916898Y-40190946D01*
X66973928Y-40409088D01*
X67079870Y-40658390D01*
X67079871Y-40658392D01*
X67220982Y-40889611D01*
X67310253Y-40996881D01*
X67394255Y-41097820D01*
X67595998Y-41278582D01*
X67821910Y-41428044D01*
X67928211Y-41477876D01*
X68067177Y-41543021D01*
X68326562Y-41621058D01*
X68326569Y-41621060D01*
X68594561Y-41660500D01*
X68797631Y-41660500D01*
X68797634Y-41660500D01*
X69000156Y-41645677D01*
X69000156Y-41645676D01*
X69264553Y-41586780D01*
X69517558Y-41490014D01*
X69753777Y-41357441D01*
X69968177Y-41191888D01*
X70156186Y-40996881D01*
X70313799Y-40776579D01*
X70437656Y-40535675D01*
X70525118Y-40279305D01*
X70574319Y-40012933D01*
X70579259Y-39877764D01*
X98875787Y-39877764D01*
X98905413Y-40147016D01*
X98916898Y-40190946D01*
X98973928Y-40409088D01*
X99079870Y-40658390D01*
X99079871Y-40658392D01*
X99220982Y-40889611D01*
X99310253Y-40996881D01*
X99394255Y-41097820D01*
X99595998Y-41278582D01*
X99821910Y-41428044D01*
X99928211Y-41477876D01*
X100067177Y-41543021D01*
X100326562Y-41621058D01*
X100326569Y-41621060D01*
X100594561Y-41660500D01*
X100797631Y-41660500D01*
X100797634Y-41660500D01*
X101000156Y-41645677D01*
X101000156Y-41645676D01*
X101264553Y-41586780D01*
X101517558Y-41490014D01*
X101753777Y-41357441D01*
X101968177Y-41191888D01*
X102156186Y-40996881D01*
X102313799Y-40776579D01*
X102437656Y-40535675D01*
X102525118Y-40279305D01*
X102574319Y-40012933D01*
X102584212Y-39742235D01*
X102554586Y-39472982D01*
X102486072Y-39210912D01*
X102380130Y-38961610D01*
X102239018Y-38730390D01*
X102239017Y-38730388D01*
X102065746Y-38522181D01*
X102024807Y-38485500D01*
X101864002Y-38341418D01*
X101638090Y-38191956D01*
X101627629Y-38187052D01*
X101392822Y-38076978D01*
X101133437Y-37998941D01*
X101133431Y-37998940D01*
X100865439Y-37959500D01*
X100662369Y-37959500D01*
X100662366Y-37959500D01*
X100459843Y-37974322D01*
X100195449Y-38033219D01*
X99942441Y-38129986D01*
X99706223Y-38262559D01*
X99491825Y-38428109D01*
X99303813Y-38623120D01*
X99146201Y-38843420D01*
X99022342Y-39084329D01*
X98934881Y-39340695D01*
X98885680Y-39607066D01*
X98875787Y-39877764D01*
X70579259Y-39877764D01*
X70584212Y-39742235D01*
X70554586Y-39472982D01*
X70486072Y-39210912D01*
X70380130Y-38961610D01*
X70239018Y-38730390D01*
X70239017Y-38730388D01*
X70065746Y-38522181D01*
X70024807Y-38485500D01*
X69864002Y-38341418D01*
X69638090Y-38191956D01*
X69627629Y-38187052D01*
X69392822Y-38076978D01*
X69133437Y-37998941D01*
X69133431Y-37998940D01*
X68865439Y-37959500D01*
X68662369Y-37959500D01*
X68662366Y-37959500D01*
X68459843Y-37974322D01*
X68195449Y-38033219D01*
X67942441Y-38129986D01*
X67706223Y-38262559D01*
X67491825Y-38428109D01*
X67303813Y-38623120D01*
X67146201Y-38843420D01*
X67022342Y-39084329D01*
X66934881Y-39340695D01*
X66885680Y-39607066D01*
X66875787Y-39877764D01*
X64821613Y-39877764D01*
X64847062Y-39756392D01*
X64847297Y-39755302D01*
X64890684Y-39559599D01*
X64892885Y-39551111D01*
X64953875Y-39346253D01*
X64954337Y-39344743D01*
X65014704Y-39153284D01*
X65017423Y-39145565D01*
X65095074Y-38946564D01*
X65095883Y-38944553D01*
X65172762Y-38758951D01*
X65175874Y-38752051D01*
X65269587Y-38560357D01*
X65270945Y-38557667D01*
X65363667Y-38379551D01*
X65367118Y-38373362D01*
X65476295Y-38190139D01*
X65478150Y-38187129D01*
X65586090Y-38017697D01*
X65589721Y-38012316D01*
X65713635Y-37838764D01*
X65716102Y-37835433D01*
X65838401Y-37676048D01*
X65842114Y-37671445D01*
X65979903Y-37508758D01*
X65983027Y-37505211D01*
X66118811Y-37357028D01*
X66122440Y-37353238D01*
X66273238Y-37202440D01*
X66277028Y-37198811D01*
X66425211Y-37063027D01*
X66428758Y-37059903D01*
X66591445Y-36922114D01*
X66596048Y-36918401D01*
X66755433Y-36796102D01*
X66758764Y-36793635D01*
X66932316Y-36669721D01*
X66937697Y-36666090D01*
X67107129Y-36558150D01*
X67110139Y-36556295D01*
X67293373Y-36447111D01*
X67299551Y-36443667D01*
X67477667Y-36350945D01*
X67480357Y-36349587D01*
X67672051Y-36255874D01*
X67678951Y-36252762D01*
X67864553Y-36175883D01*
X67866564Y-36175074D01*
X68065565Y-36097423D01*
X68073284Y-36094704D01*
X68264743Y-36034337D01*
X68266253Y-36033875D01*
X68471111Y-35972885D01*
X68479599Y-35970684D01*
X68675302Y-35927297D01*
X68676392Y-35927062D01*
X68885816Y-35883151D01*
X68895045Y-35881578D01*
X69093195Y-35855491D01*
X69306673Y-35828881D01*
X69316540Y-35828052D01*
X69512628Y-35819490D01*
X69727437Y-35810605D01*
X69732561Y-35810500D01*
X78307267Y-35810500D01*
X78369778Y-35827409D01*
G37*
%TD.AperFunction*%
%TD*%
M02*
