M48
; DRILL file {KiCad 7.0.1} date Sun Sep 10 14:18:29 2023
; FORMAT={-:-/ absolute / inch / decimal}
; #@! TF.CreationDate,2023-09-10T14:18:29+09:00
; #@! TF.GenerationSoftware,Kicad,Pcbnew,7.0.1
; #@! TF.FileFunction,NonPlated,1,2,NPTH
FMAT,2
INCH
; #@! TA.AperFunction,NonPlated,NPTH,ComponentDrill
T1C0.0236
; #@! TA.AperFunction,NonPlated,NPTH,ComponentDrill
T2C0.1260
%
G90
G05
T1
X3.2256Y-2.9972
X3.2256Y-3.1705
X3.2571Y-2.9972
X3.2571Y-3.1705
X3.2886Y-2.9972
X3.2886Y-3.1705
X3.3201Y-2.9972
X3.3201Y-3.1705
X3.3516Y-2.9972
X3.3516Y-3.1705
X3.3831Y-2.9972
X3.3831Y-3.1705
X3.4146Y-2.9972
X3.4146Y-3.1705
X3.4461Y-2.9972
X3.4461Y-3.1705
X4.135Y-2.0878
X4.135Y-2.1193
X4.135Y-2.1508
X4.135Y-2.1823
X4.135Y-2.2138
X4.135Y-2.2453
X4.135Y-2.2768
X4.135Y-2.3083
X4.1356Y-3.8589
X4.1356Y-3.8904
X4.1356Y-3.9219
X4.1356Y-3.9534
X4.1356Y-3.9849
X4.1356Y-4.0164
X4.1356Y-4.0479
X4.1356Y-4.0794
X4.3083Y-2.0878
X4.3083Y-2.1193
X4.3083Y-2.1508
X4.3083Y-2.1823
X4.3083Y-2.2138
X4.3083Y-2.2453
X4.3083Y-2.2768
X4.3083Y-2.3083
X4.3088Y-3.8589
X4.3088Y-3.8904
X4.3088Y-3.9219
X4.3088Y-3.9534
X4.3088Y-3.9849
X4.3088Y-4.0164
X4.3088Y-4.0479
X4.3088Y-4.0794
X4.9978Y-2.9967
X4.9978Y-3.1699
X5.0293Y-2.9967
X5.0293Y-3.1699
X5.0608Y-2.9967
X5.0608Y-3.1699
X5.0923Y-2.9967
X5.0923Y-3.1699
X5.1238Y-2.9967
X5.1238Y-3.1699
X5.1553Y-2.9967
X5.1553Y-3.1699
X5.1868Y-2.9967
X5.1868Y-3.1699
X5.2183Y-2.9967
X5.2183Y-3.1699
T2
X2.7059Y-1.5673
X2.7059Y-2.8272
X2.7063Y-3.3398
X2.7063Y-4.5996
X3.9657Y-1.5673
X3.9657Y-2.8272
X3.9661Y-3.3398
X3.9661Y-4.5996
X4.4783Y-1.5677
X4.4783Y-2.8276
X4.4787Y-3.3406
X4.4787Y-4.6004
X5.7382Y-1.5677
X5.7382Y-2.8276
X5.7386Y-3.3406
X5.7386Y-4.6004
T0
M30
