%TF.GenerationSoftware,KiCad,Pcbnew,7.0.1*%
%TF.CreationDate,2023-09-10T14:18:25+09:00*%
%TF.ProjectId,block_socket,626c6f63-6b5f-4736-9f63-6b65742e6b69,rev?*%
%TF.SameCoordinates,Original*%
%TF.FileFunction,Legend,Top*%
%TF.FilePolarity,Positive*%
%FSLAX46Y46*%
G04 Gerber Fmt 4.6, Leading zero omitted, Abs format (unit mm)*
G04 Created by KiCad (PCBNEW 7.0.1) date 2023-09-10 14:18:25*
%MOMM*%
%LPD*%
G01*
G04 APERTURE LIST*
%ADD10C,0.120000*%
G04 APERTURE END LIST*
D10*
%TO.C,J402*%
X149310000Y-58930000D02*
X148250000Y-58930000D01*
X149310000Y-57870000D02*
X149310000Y-58930000D01*
X149310000Y-56870000D02*
X149310000Y-52810000D01*
X149310000Y-56870000D02*
X147190000Y-56870000D01*
X149310000Y-52810000D02*
X147190000Y-52810000D01*
X147190000Y-56870000D02*
X147190000Y-52810000D01*
%TO.C,J404*%
X112320000Y-103960000D02*
X111260000Y-103960000D01*
X112320000Y-102900000D02*
X112320000Y-103960000D01*
X112320000Y-101900000D02*
X112320000Y-97840000D01*
X112320000Y-101900000D02*
X110200000Y-101900000D01*
X112320000Y-97840000D02*
X110200000Y-97840000D01*
X110200000Y-101900000D02*
X110200000Y-97840000D01*
%TO.C,J402*%
X104300000Y-103940000D02*
X103240000Y-103940000D01*
X104300000Y-102880000D02*
X104300000Y-103940000D01*
X104300000Y-101880000D02*
X104300000Y-97820000D01*
X104300000Y-101880000D02*
X102180000Y-101880000D01*
X104300000Y-97820000D02*
X102180000Y-97820000D01*
X102180000Y-101880000D02*
X102180000Y-97820000D01*
%TO.C,J403*%
X87740000Y-73250000D02*
X87740000Y-74310000D01*
X86680000Y-73250000D02*
X87740000Y-73250000D01*
X85680000Y-73250000D02*
X81620000Y-73250000D01*
X85680000Y-73250000D02*
X85680000Y-75370000D01*
X81620000Y-73250000D02*
X81620000Y-75370000D01*
X85680000Y-75370000D02*
X81620000Y-75370000D01*
%TO.C,J401*%
X132810000Y-36260000D02*
X132810000Y-37320000D01*
X131750000Y-36260000D02*
X132810000Y-36260000D01*
X130750000Y-36260000D02*
X126690000Y-36260000D01*
X130750000Y-36260000D02*
X130750000Y-38380000D01*
X126690000Y-36260000D02*
X126690000Y-38380000D01*
X130750000Y-38380000D02*
X126690000Y-38380000D01*
X87800000Y-81270000D02*
X87800000Y-82330000D01*
X86740000Y-81270000D02*
X87800000Y-81270000D01*
X85740000Y-81270000D02*
X81680000Y-81270000D01*
X85740000Y-81270000D02*
X85740000Y-83390000D01*
X81680000Y-81270000D02*
X81680000Y-83390000D01*
X85740000Y-83390000D02*
X81680000Y-83390000D01*
%TO.C,J403*%
X132770000Y-118290000D02*
X132770000Y-119350000D01*
X131710000Y-118290000D02*
X132770000Y-118290000D01*
X130710000Y-118290000D02*
X126650000Y-118290000D01*
X130710000Y-118290000D02*
X130710000Y-120410000D01*
X126650000Y-118290000D02*
X126650000Y-120410000D01*
X130710000Y-120410000D02*
X126650000Y-120410000D01*
%TO.C,J404*%
X112310000Y-58930000D02*
X111250000Y-58930000D01*
X112310000Y-57870000D02*
X112310000Y-58930000D01*
X112310000Y-56870000D02*
X112310000Y-52810000D01*
X112310000Y-56870000D02*
X110190000Y-56870000D01*
X112310000Y-52810000D02*
X110190000Y-52810000D01*
X110190000Y-56870000D02*
X110190000Y-52810000D01*
%TO.C,J402*%
X104290000Y-58920000D02*
X103230000Y-58920000D01*
X104290000Y-57860000D02*
X104290000Y-58920000D01*
X104290000Y-56860000D02*
X104290000Y-52800000D01*
X104290000Y-56860000D02*
X102170000Y-56860000D01*
X104290000Y-52800000D02*
X102170000Y-52800000D01*
X102170000Y-56860000D02*
X102170000Y-52800000D01*
%TO.C,J404*%
X67300000Y-103940000D02*
X66240000Y-103940000D01*
X67300000Y-102880000D02*
X67300000Y-103940000D01*
X67300000Y-101880000D02*
X67300000Y-97820000D01*
X67300000Y-101880000D02*
X65180000Y-101880000D01*
X67300000Y-97820000D02*
X65180000Y-97820000D01*
X65180000Y-101880000D02*
X65180000Y-97820000D01*
%TO.C,J401*%
X87790000Y-36250000D02*
X87790000Y-37310000D01*
X86730000Y-36250000D02*
X87790000Y-36250000D01*
X85730000Y-36250000D02*
X81670000Y-36250000D01*
X85730000Y-36250000D02*
X85730000Y-38370000D01*
X81670000Y-36250000D02*
X81670000Y-38370000D01*
X85730000Y-38370000D02*
X81670000Y-38370000D01*
%TO.C,J403*%
X87750000Y-118270000D02*
X87750000Y-119330000D01*
X86690000Y-118270000D02*
X87750000Y-118270000D01*
X85690000Y-118270000D02*
X81630000Y-118270000D01*
X85690000Y-118270000D02*
X85690000Y-120390000D01*
X81630000Y-118270000D02*
X81630000Y-120390000D01*
X85690000Y-120390000D02*
X81630000Y-120390000D01*
X132760000Y-73260000D02*
X132760000Y-74320000D01*
X131700000Y-73260000D02*
X132760000Y-73260000D01*
X130700000Y-73260000D02*
X126640000Y-73260000D01*
X130700000Y-73260000D02*
X130700000Y-75380000D01*
X126640000Y-73260000D02*
X126640000Y-75380000D01*
X130700000Y-75380000D02*
X126640000Y-75380000D01*
%TO.C,J401*%
X132820000Y-81290000D02*
X132820000Y-82350000D01*
X131760000Y-81290000D02*
X132820000Y-81290000D01*
X130760000Y-81290000D02*
X126700000Y-81290000D01*
X130760000Y-81290000D02*
X130760000Y-83410000D01*
X126700000Y-81290000D02*
X126700000Y-83410000D01*
X130760000Y-83410000D02*
X126700000Y-83410000D01*
%TO.C,J402*%
X149320000Y-103960000D02*
X148260000Y-103960000D01*
X149320000Y-102900000D02*
X149320000Y-103960000D01*
X149320000Y-101900000D02*
X149320000Y-97840000D01*
X149320000Y-101900000D02*
X147200000Y-101900000D01*
X149320000Y-97840000D02*
X147200000Y-97840000D01*
X147200000Y-101900000D02*
X147200000Y-97840000D01*
%TO.C,J404*%
X67290000Y-58920000D02*
X66230000Y-58920000D01*
X67290000Y-57860000D02*
X67290000Y-58920000D01*
X67290000Y-56860000D02*
X67290000Y-52800000D01*
X67290000Y-56860000D02*
X65170000Y-56860000D01*
X67290000Y-52800000D02*
X65170000Y-52800000D01*
X65170000Y-56860000D02*
X65170000Y-52800000D01*
%TD*%
M02*
